<svg id="Layer_1" data-name="Layer 1" xmlns="http://www.w3.org/2000/svg" viewBox="0 0 579.6 533.59"><defs><style>.cls-1{fill:#231f20;}</style></defs><polygon class="cls-1" points="50.33 449.78 0 533.59 24.12 533.59 31.61 521.35 83.09 521.35 73.8 505.15 40.9 505.15 60.55 468.79 63.94 469.08 99.58 533.59 122.83 533.59 75.96 449.78 50.33 449.78"/><path class="cls-1" d="M133.56,629.36v34.28a24.58,24.58,0,0,0,24.69,24.62h68.91V672.13H161a7.19,7.19,0,0,1-7.27-7.2V628.07A7.2,7.2,0,0,1,161,620.8l66.17-.08V604.6H158.25A24.74,24.74,0,0,0,133.56,629.36Z" transform="translate(-7.7 -154.67)"/><path class="cls-1" d="M319.6,665.8a7.39,7.39,0,0,1-7.27,7.27H268.84a7.28,7.28,0,0,1-7.2-7.27V604.6H241.41v59a24.59,24.59,0,0,0,24.7,24.62h49a24.74,24.74,0,0,0,24.77-24.62v-59H319.6Z" transform="translate(-7.7 -154.67)"/><path class="cls-1" d="M359.71,561.61c99.65-15.91,156-76.68,156-201.24S459.36,175,359.71,159.06a376,376,0,0,0-59.47-4.39,376.12,376.12,0,0,0-59.48,4.39C141.19,175,84.81,235.74,84.81,360.37s56.38,185.33,156,201.24a376.42,376.42,0,0,0,59.48,4.32A376.29,376.29,0,0,0,359.71,561.61Zm0-386.93C430.12,189.88,487.8,238,487.8,360.37c0,93-33.34,143.07-80.28,168.41L381,350.72l-21.31-60L316.58,169.21A267,267,0,0,1,359.71,174.68Zm-67.61-5.83c2.74-.07,5.4-.14,8.14-.14s5.4.07,8.13.14l2.38,148.39h-21ZM112.68,360.37c0-122.4,57.67-170.49,128.08-185.69a267.15,267.15,0,0,1,43.13-5.47L240.76,290.68l-21.31,60L193,528.78C146,503.44,112.68,453.4,112.68,360.37ZM240.76,546a188,188,0,0,1-43.2-14.76l43.2-89.64,46.8-97.13h25.35l46.8,97.13,43.2,89.64A188,188,0,0,1,359.71,546a302.72,302.72,0,0,1-118.95,0Z" transform="translate(-7.7 -154.67)"/><polygon class="cls-1" points="520.7 469.08 556.34 533.59 579.6 533.59 532.8 449.78 507.1 449.78 456.77 533.59 480.89 533.59 488.38 521.35 539.93 521.35 530.64 505.15 497.66 505.15 517.32 468.79 520.7 469.08"/><path class="cls-1" d="M437.4,604.6l-77.69-.08h-4v83.74h20.16V620.72h56a6,6,0,0,1,6,5.91v11.81a6,6,0,0,1-6,5.9H383.25l4.39,16.13,44.28.07a6,6,0,0,1,6,5.9v21.82h18.86V667.67c-.07-6.12-4.39-13.9-10.36-15.19,6-1.37,11.59-6.56,11.66-12.68V625.26A20.75,20.75,0,0,0,437.4,604.6Z" transform="translate(-7.7 -154.67)"/></svg>