<svg id="Layer_1" data-name="Layer 1" xmlns="http://www.w3.org/2000/svg" viewBox="0 0 192.76 192.76"><defs><style>.cls-1{fill:#fff;}.cls-1,.cls-4,.cls-5{fill-rule:evenodd;}.cls-2,.cls-4{fill:#231f20;}.cls-3,.cls-5{fill:#ddd6d4;}</style></defs><polygon class="cls-1" points="0 0 192.76 0 192.76 192.76 0 192.76 0 0 0 0"/><path class="cls-2" d="M319,440.15a37.5,37.5,0,0,1-46.23,0c-6-4.95-9.62-11.8-9.62-19.36s3.67-14.34,9.62-19.26a37.65,37.65,0,0,1,46.23,0c5.95,4.92,9.62,11.74,9.62,19.26S324.9,435.2,319,440.15Z" transform="translate(-200 -324.89)"/><path class="cls-3" d="M295.84,447.18a35.25,35.25,0,0,0,22.51-7.75c5.74-4.78,9.29-11.37,9.29-18.64s-3.55-13.79-9.28-18.54a36.74,36.74,0,0,0-45,0C267.58,407,264,413.56,264,420.79s3.54,13.86,9.28,18.64a35.26,35.26,0,0,0,22.52,7.75Z" transform="translate(-200 -324.89)"/><path class="cls-2" d="M295.84,445.42a33.66,33.66,0,0,0,21.32-7.25c5.42-4.45,8.78-10.6,8.78-17.38s-3.36-12.83-8.8-17.27a35.08,35.08,0,0,0-42.62,0c-5.43,4.43-8.79,10.55-8.79,17.28s3.35,12.94,8.78,17.39a33.66,33.66,0,0,0,21.33,7.24Zm21.91-6.53a35.93,35.93,0,0,1-43.84,0c-5.64-4.63-9.12-11-9.12-18.12s3.49-13.4,9.14-18a36,36,0,0,1,43.8,0c5.65,4.62,9.15,11,9.15,18s-3.49,13.47-9.13,18.1Z" transform="translate(-200 -324.89)"/><path class="cls-2" d="M282.43,446.64a2.38,2.38,0,0,1-1.31-1.68,3.37,3.37,0,0,1,.51-2.28h0l3.85-6.48a1.4,1.4,0,0,1,1-.66,2.45,2.45,0,0,1,1.36.13,2.42,2.42,0,0,1,.91.94,1.56,1.56,0,0,1,.43-.21,2.35,2.35,0,0,1,1.37-.08h0a2.47,2.47,0,0,1,1,.8.71.71,0,0,1,.14-.1h0a2.92,2.92,0,0,1,1.33-.38h.08a2.55,2.55,0,0,1,1.21.71l0,0,.16-.15h0a2.44,2.44,0,0,1,1.3-.53,2.47,2.47,0,0,1,1.3.53h0l.16.15,0,0a2.53,2.53,0,0,1,1.22-.71h.07a2.79,2.79,0,0,1,1.3.38l.17.11a2.51,2.51,0,0,1,1-.81h0a2.39,2.39,0,0,1,1.38.08,1.65,1.65,0,0,1,.42.21,2.42,2.42,0,0,1,.91-.94h0a2.4,2.4,0,0,1,1.35-.13,1.43,1.43,0,0,1,1,.66l3.85,6.48v0a3.57,3.57,0,0,1,.48,2.28,2.34,2.34,0,0,1-1.28,1.66l0,0a2.57,2.57,0,0,1-2.21.07,2.39,2.39,0,0,1-.51-.34,1.25,1.25,0,0,1-.09.25,2.22,2.22,0,0,1-1.28,1.18h0l-.22.07h0a2.75,2.75,0,0,1-.34.1,2.26,2.26,0,0,1-2.31-.69,1.39,1.39,0,0,1-.12.28,2.36,2.36,0,0,1-1.76,1.21h0a2.51,2.51,0,0,1-2.1-.62,1.88,1.88,0,0,1-.28-.34,3.13,3.13,0,0,1-.28.4,2.14,2.14,0,0,1-1.47.7h-.57a2.43,2.43,0,0,1-1.67-.75,1.87,1.87,0,0,1-.26-.35,2.38,2.38,0,0,1-2.4,1h0a2.4,2.4,0,0,1-1.76-1.21,2.88,2.88,0,0,1-.13-.31,2.08,2.08,0,0,1-.61.51A2.3,2.3,0,0,1,287,448l-.23-.07h0l-.22-.07h0a2.24,2.24,0,0,1-1.29-1.18l-.09-.25a2.39,2.39,0,0,1-.51.34,2.54,2.54,0,0,1-2.2-.07l0,0Z" transform="translate(-200 -324.89)"/><path class="cls-3" d="M285.24,444.6h0a3.52,3.52,0,0,1,.15-.42v0l.44-1.06,2.2-5.56v0a.59.59,0,0,0-.07-.43,1.45,1.45,0,0,0-.53-.58,1.42,1.42,0,0,0-.77-.05.55.55,0,0,0-.36.18v0l-3.85,6.48a2.51,2.51,0,0,0-.41,1.65,1.47,1.47,0,0,0,.8,1,1.64,1.64,0,0,0,1.41.08,2.21,2.21,0,0,0,1-1.28Zm1.47-1.17-.58,1.48h0a2.08,2.08,0,0,0,0,1.34,1.28,1.28,0,0,0,.76.68h0l.16.06h0l.17.05a1.47,1.47,0,0,0,1.1-.08,2,2,0,0,0,.81-1.17l.09-.29h0l1.76-7.37v0a.45.45,0,0,0-.12-.38,1.44,1.44,0,0,0-.59-.52h0a1.45,1.45,0,0,0-.77.07c-.16.06-.3.14-.33.24v0l-2.46,5.88Zm19.13-.34.44,1.06h0l.14.43h0a2.21,2.21,0,0,0,1,1.28,1.64,1.64,0,0,0,1.41-.08,1.4,1.4,0,0,0,.77-1,2.67,2.67,0,0,0-.38-1.68l-3.84-6.47,0,0c0-.08-.19-.14-.37-.18a1.48,1.48,0,0,0-.73,0l0,0a1.37,1.37,0,0,0-.52.58.54.54,0,0,0-.07.43v0l2.19,5.56Zm-7.59,1.58.09,1.12h0c0,.09,0,.18,0,.27a2.33,2.33,0,0,0,.55,1.44,1.63,1.63,0,0,0,1.32.36,1.43,1.43,0,0,0,1.09-.71,2.56,2.56,0,0,0,.09-1.7l-1.69-7.3v0a.63.63,0,0,0-.29-.32,1.78,1.78,0,0,0-.77-.24,1.54,1.54,0,0,0-.65.42.62.62,0,0,0-.21.41v0l.46,6.25Zm-4.92,1.39a2.44,2.44,0,0,1,0-.27h0l.09-1.12.45-6.25v0a.58.58,0,0,0-.21-.41,1.54,1.54,0,0,0-.65-.42,1.89,1.89,0,0,0-.8.24h0c-.14.08-.24.17-.25.27v.06l-1.68,7.3a2.5,2.5,0,0,0,.09,1.7,1.43,1.43,0,0,0,1.08.71,1.62,1.62,0,0,0,1.32-.36,2.27,2.27,0,0,0,.56-1.44Zm-6.56,1.83Zm0,0Zm16-10Zm0,0h0Zm2.64,6.63-2.9-7,0,0c0-.1-.16-.18-.33-.24a1.42,1.42,0,0,0-.76-.07h0a1.52,1.52,0,0,0-.6.52.53.53,0,0,0-.12.38v0l1.76,7.37h0c0,.13.07.26.11.39a1.76,1.76,0,0,0,.75,1,1.46,1.46,0,0,0,1.06.11l.25-.07h0l.77-2.49Zm-.77,2.49.15-.06h0a1.26,1.26,0,0,0,.76-.68,2.05,2.05,0,0,0,0-1.41c0-.11-.07-.22-.11-.34h0l-.78,2.49Zm-7.24-.61a4.68,4.68,0,0,0,0-.53l-.61-7.51v0a.56.56,0,0,0-.24-.36h0a1.42,1.42,0,0,0-.71-.32,1.38,1.38,0,0,0-.71.32h0a.53.53,0,0,0-.24.36v0l-.61,7.51c0,.12,0,.22,0,.31a2,2,0,0,0,.42,1.37,1.49,1.49,0,0,0,1,.44h.22l1.47-1.6Zm-1.47,1.6h.22a1.17,1.17,0,0,0,.83-.39,1.86,1.86,0,0,0,.42-1.2h0L295.93,448Zm-7-10.12h0Z" transform="translate(-200 -324.89)"/><path class="cls-4" d="M275.61,428.1c-1.35.74-5.21,1.82-6.29-.68-1.56.81-4.74,1.42-6.29-.61-2.57.61-5.48,1.9-6.56-1.08-2.3.61-8,2-8.6-1.69-3.38.47-8.25.81-8.92-2.77-2.91,0-7.92-.48-7.92-3.79-2.91,0-8-2-7.37-4.33-2.64-.27-6.16-3-6.16-4.87-2.57-.81-5.48-2.78-4.87-5.41-1.56-.95-4.13-2-4.13-3.59a2.75,2.75,0,0,1,2.57-2.77c1.43,0,6.63.81,8.46.81s24-.48,29.22-.2a108.19,108.19,0,0,0,15-.14c3.25-.27,17-1,18.88,2.77,1.35,2.78.33,3.72-.88,4.81s-5.42,3-5.42,9.54.82,9.8-.74,14Z" transform="translate(-200 -324.89)"/><path class="cls-5" d="M213.37,398.06c4.74,0,15.77.34,17.93.34s17.32,1.69,19.69,2.44c1.08.33,1.35,1.42,0,1.48s-16.92.27-19.22.27-18.06.28-20.15-2.5c-1.56-2,.4-2,1.75-2Zm60.21,17.05c-.74-.54-2.16,1-2.71,1.89s-.13,1.49.41,1.76A1.68,1.68,0,0,0,273,418c.2-.54,1.35-2.1.61-2.84Zm-.41,7.31c-1,1.28-2,2.23-2.63,3s.13,1.56.74,1.76,1.83.88,3.18-1.9l-1.29-2.9Zm-4.26-7.58c-.67.74-2.3,1.89-1.08,2.77s1.69,0,2.23-.54,2.3-2.37,1.63-3.18-2.17.61-2.78.95Zm-3.51-.61c-2.24,1.42.27,2.64,1.69,1.42.74-.61,2.3-1.83,1.62-2.71s-2.64.95-3.31,1.29Zm.27-2.71c-1.09.48-4.47,1.63-3.39,3.12.61.67,1.69.06,2.1-.21s2.84-1.89,2.23-2.84c-.2-.34-.74-.2-.94-.07Zm-5.89-.54c-.95.61-.47,3,1.69,1.9s3.79-2.17,3.45-3-2.84-.13-5.14,1.08Zm1-3.38a14.17,14.17,0,0,0-2.71,1.29c-.74.47-1.35,2.23,1.56,1.48s3.11-1.82,2.7-2.5-1.35-.34-1.55-.27Zm-3.66-1.22c-.74.07-1.42.68-1.21,1.36s2,1.08,3.92.13,1.83-1.22,1.62-1.76-2.23-.13-4.33.27ZM255.18,404c-1.15.2-1.15.67-1,1.08s.74,1.15,2.7.81,3.11-1.08,3.11-1.76-3.58-.27-4.8-.13Zm-.27-2.37c-2,0-2.1,2.16.2,2,1.83-.07,4-.54,4-1.22s-2.7-.81-4.19-.81Zm6.56.47c1.63,0,7.51-.13,9.2.21s3.79.74,4.67,2.3c.81,1.28-.47,3.38-1.08,4.26s-2.44,2.5-3.11,3.11-1.76-.27-.75-1.42c-1.28.74-2.91.61-2.16-1.22-1.15.95-3.05,1-1.9-1.35-.74.61-2.91.54-1.55-1.29-1.15.34-2.44-.33-1.63-1.48-1.42.2-2.3-.88-.74-1.7-1.42.41-1.83-1.28-.95-1.42Zm-18.06-4.26c2,0,8.73.41,11.23.41s8.12-.14,10.15-.27a76.1,76.1,0,0,1,9.67,0c2.16.2,6.9.54,7.71,2.77s-.94,3.45-2.09,4.33a9.68,9.68,0,0,0-4.88,8.32c-.88-.41-2.23-.61-1.28-2.57.54-1.08,3.11-4.6,2.5-6.22s-2.57-2.91-7.1-3.12-10.89,0-13.12-.33-10.76-2.57-12.52-2.78c-.81-.13-.81-.47-.27-.54Zm26.65,22.73c-1.21,1.22-3,3.25-4.33,4.33-.88.81-.27,2.37,1.22,1.69a11.07,11.07,0,0,0,4.8-5.48,15.75,15.75,0,0,1-1.69-.54Zm-3.45-1.15c-2,1.35-6.42,4.33-7.17,4.87-1,.68-1.55,1.83.48,1.69s5.68-1.62,8.59-5.88c-.41-.14-1.42-.48-1.9-.68Zm-3.51-2C262,418.09,254.44,422,251,423c-1.15.41-.61,1.49.54,1.63a11.49,11.49,0,0,0,7.51-1.9,54.57,54.57,0,0,0,6.08-4.26,20.67,20.67,0,0,1-2-1.15Zm-3.18-2.64c-1.76.88-12.52,5.35-16.65,6.29-1.15.28-1.75,1.15-.4,1.63a15.89,15.89,0,0,0,6.56-.34c1.89-.54,9.67-3,12.65-5.95a7.08,7.08,0,0,1-2.16-1.63ZM234.55,418c1.89-.41,17.45-3.92,21.92-5.61,1.28-.41,1.75,0,2,.47a1,1,0,0,1-.54,1.56c-.82.33-12.79,5.27-18.47,5.61a11.62,11.62,0,0,1-4.67-1.15c-.61-.34-.34-.34-.2-.88Zm-7.24-4c2.71-.34,20.56-3.18,25.37-4.46,2-.48,2.84-.28,3.11.27s.2,1.48-1.15,2-17.18,4.12-20.09,4.33-6.36-.54-7.31-1.29.07-.81.07-.81Zm-5.75-4.8c2,0,24.56-1.69,29.29-2.71,1.62-.13,2.71-.2,2.84.47s.07,1-1.28,1.42-18.2,3.52-26.66,3.66c-2.84-.07-6.15-2.78-4.19-2.84Zm-5.34-5.08c2.77.07,16.57.14,18.19.07s14.07-.74,15.49-.81,2.85.27,2.85.74-.28.88-2,1.22a203.07,203.07,0,0,1-29,2c-2.23.07-5.21-1.08-6-2.16s.07-1,.48-1ZM278.54,400a.56.56,0,1,1,.5-1,10.11,10.11,0,0,1,1.66,1,2.59,2.59,0,0,1,1.08,1.44v.06a2.61,2.61,0,0,1-.31,1.51,4.66,4.66,0,0,1-1.41,1.49.57.57,0,1,1-.67-.91,3.69,3.69,0,0,0,1.09-1.11,1.46,1.46,0,0,0,.17-.88,1.79,1.79,0,0,0-.64-.7,9.8,9.8,0,0,0-1.48-.88Z" transform="translate(-200 -324.89)"/><path class="cls-4" d="M317.15,428.1c1.35.74,5.2,1.82,6.29-.68,1.49.81,4.73,1.42,6.29-.61,2.57.61,5.48,1.9,6.56-1.08,2.3.61,8,2,8.59-1.69,3.38.47,8.25.81,8.86-2.77,2.91,0,8-.48,8-3.79,2.9,0,8-2,7.37-4.33,2.57-.27,6.09-3,6.09-4.87,2.64-.81,5.54-2.78,4.94-5.41,1.55-.95,4.12-2,4.12-3.59a2.75,2.75,0,0,0-2.57-2.77c-1.42,0-6.63.81-8.45.81s-24.09-.48-29.3-.2a108.22,108.22,0,0,1-15-.14c-3.18-.27-16.92-1-18.81,2.77-1.42,2.78-.34,3.72.88,4.81s5.34,3,5.34,9.54-.74,9.8.82,14Z" transform="translate(-200 -324.89)"/><path class="cls-5" d="M379.38,398.06c-4.8,0-15.83.34-17.93.34s-17.31,1.69-19.75,2.44c-1,.33-1.28,1.42,0,1.48s17,.27,19.28.27,18,.28,20.16-2.5c1.49-2-.41-2-1.76-2Zm-60.2,17.05c.67-.54,2.16,1,2.63,1.89s.14,1.49-.4,1.76-1.42-.34-1.63-.81-1.35-2.1-.6-2.84Zm.4,7.31c1,1.28,2,2.23,2.64,3s-.2,1.56-.81,1.76-1.76.88-3.11-1.9l1.28-2.9Zm4.26-7.58c.68.74,2.3,1.89,1,2.77-1,.75-1.69,0-2.17-.54s-2.3-2.37-1.62-3.18,2.16.61,2.77.95Zm3.52-.61c2.17,1.42-.34,2.64-1.69,1.42-.81-.61-2.37-1.83-1.62-2.71.6-.74,2.63.95,3.31,1.29Zm-.27-2.71c1.08.48,4.46,1.63,3.38,3.12-.61.67-1.69.06-2.09-.21s-2.91-1.89-2.3-2.84a.82.82,0,0,1,1-.07Zm5.82-.54c1,.61.54,3-1.69,1.9s-3.72-2.17-3.39-3,2.85-.13,5.08,1.08ZM332,407.6a16,16,0,0,1,2.7,1.29c.75.47,1.36,2.23-1.62,1.48s-3-1.82-2.64-2.5,1.29-.34,1.56-.27Zm3.58-1.22c.82.07,1.49.68,1.29,1.36s-2,1.08-3.92.13-1.83-1.22-1.63-1.76,2.17-.13,4.26.27Zm2-2.43c1.15.2,1.15.67,1,1.08s-.81,1.15-2.77.81-3.05-1.08-3.05-1.76,3.59-.27,4.81-.13Zm.27-2.37c2,0,2,2.16-.27,2-1.76-.07-3.93-.54-3.93-1.22s2.71-.81,4.2-.81Zm-6.63.47c-1.63,0-7.51-.13-9.2.21s-3.79.74-4.67,2.3c-.75,1.28.54,3.38,1.15,4.26a27.67,27.67,0,0,0,3.11,3.11c.61.47,1.76-.27.74-1.42,1.29.74,2.91.61,2.17-1.22,1.15.95,3,1,1.89-1.35.75.61,2.91.54,1.56-1.29,1.15.34,2.43-.33,1.56-1.48,1.48.2,2.3-.88.81-1.7,1.42.41,1.82-1.28.88-1.42Zm18.13-4.26c-2,0-8.8.41-11.23.41s-8.12-.14-10.15-.27a76.1,76.1,0,0,0-9.67,0c-2.17.2-6.9.54-7.78,2.77s1,3.45,2.16,4.33a9.64,9.64,0,0,1,4.8,8.32c.95-.41,2.24-.61,1.36-2.57-.54-1.08-3.18-4.6-2.57-6.22s2.63-2.91,7.17-3.12,10.89,0,13.05-.33,10.83-2.57,12.59-2.78c.74-.13.74-.47.27-.54Zm-26.72,22.73c1.21,1.22,3.11,3.25,4.39,4.33.81.81.21,2.37-1.22,1.69a10.54,10.54,0,0,1-4.8-5.48,11.53,11.53,0,0,0,1.63-.54Zm3.45-1.15c2,1.35,6.49,4.33,7.23,4.87,1,.68,1.49,1.83-.47,1.69s-5.68-1.62-8.59-5.88c.4-.14,1.42-.48,1.83-.68Zm3.51-2c1.15.75,8.66,4.67,12.11,5.68,1.15.41.61,1.49-.54,1.63a11.56,11.56,0,0,1-7.51-1.9,60.25,60.25,0,0,1-6-4.26,14.27,14.27,0,0,0,2-1.15Zm3.25-2.64c1.76.88,12.51,5.35,16.64,6.29,1.15.28,1.76,1.15.34,1.63a15.61,15.61,0,0,1-6.49-.34c-1.9-.54-9.68-3-12.65-5.95a7.33,7.33,0,0,0,2.16-1.63ZM358.21,418c-1.9-.41-17.46-3.92-21.92-5.61-1.29-.41-1.76,0-2,.47a1,1,0,0,0,.47,1.56c.88.33,12.85,5.27,18.47,5.61a11.68,11.68,0,0,0,4.74-1.15c.6-.34.33-.34.2-.88Zm7.17-4c-2.64-.34-20.5-3.18-25.3-4.46-2-.48-2.84-.28-3.11.27s-.21,1.48,1.15,2,17.18,4.12,20.09,4.33,6.36-.54,7.3-1.29-.13-.81-.13-.81Zm5.75-4.8c-1.9,0-24.49-1.69-29.23-2.71-1.62-.13-2.7-.2-2.84.47s-.06,1,1.29,1.42S358.48,411.86,367,412c2.84-.07,6.16-2.78,4.13-2.84Zm5.41-5.08c-2.77.07-16.57.14-18.2.07s-14.07-.74-15.56-.81-2.84.27-2.84.74.34.88,2,1.22a203.07,203.07,0,0,0,29,2c2.24.07,5.21-1.08,6-2.16s-.07-1-.41-1ZM313.65,399a.56.56,0,1,1,.5,1,9.07,9.07,0,0,0-1.47.88c-.33.25-.57.5-.59.69h0a1.62,1.62,0,0,0,.15.89,3.31,3.31,0,0,0,1.1,1.1.57.57,0,1,1-.64.93,4.32,4.32,0,0,1-1.46-1.51,2.62,2.62,0,0,1-.27-1.5h0a2.29,2.29,0,0,1,1-1.48,9.89,9.89,0,0,1,1.66-1Z" transform="translate(-200 -324.89)"/><path class="cls-4" d="M295.84,438.25c12.92,0,23.4-7.78,23.4-17.46s-10.48-17.32-23.4-17.32-23.41,7.78-23.41,17.32,10.49,17.46,23.41,17.46Z" transform="translate(-200 -324.89)"/><path class="cls-3" d="M295.84,436.32a24.94,24.94,0,0,0,14.86-4.59c3.76-2.81,6.08-6.68,6.08-10.94s-2.33-8-6.1-10.83A26.44,26.44,0,0,0,281,410c-3.77,2.79-6.1,6.63-6.1,10.83s2.33,8.13,6.08,10.94a25,25,0,0,0,14.87,4.59Zm15.46-3.79a27.31,27.31,0,0,1-30.93,0c-4-3-6.48-7.14-6.48-11.74s2.49-8.65,6.5-11.63a27.39,27.39,0,0,1,30.89,0c4,3,6.5,7.1,6.5,11.63s-2.48,8.75-6.48,11.74Z" transform="translate(-200 -324.89)"/><path class="cls-1" d="M306.12,414.5c0-2.57-2.71-6.43-10.49-6.43-4.6,0-8.45,1.15-10.75,3.32a2.82,2.82,0,0,1,1.15,2v14a4.09,4.09,0,0,1-1.08,2.3c2.16,1.76,5.81,3.32,11.5,3.18s10.95-2,10.95-7.24c0-2.23-2.09-4.46-4.39-5.2-.61-.21-.48-.82,0-1s3.11-2.23,3.11-4.87Zm-9.74,15.3a4.28,4.28,0,1,0-4.14-4.27,4.17,4.17,0,0,0,4.14,4.27Zm-.48-10.9a3.94,3.94,0,1,0-3.58-3.93,3.78,3.78,0,0,0,3.58,3.93Z" transform="translate(-200 -324.89)"/></svg>