<svg id="Layer_1" data-name="Layer 1" xmlns="http://www.w3.org/2000/svg" viewBox="0 0 192.76 192.76"><defs><style>.cls-1{fill:#fff;}.cls-1,.cls-2{fill-rule:evenodd;}.cls-2{fill:#231f20;}</style></defs><polygon class="cls-1" points="0 0 192.76 0 192.76 192.76 0 192.76 0 0 0 0"/><path class="cls-2" d="M340.74,462c9.7,0,15.5-6.94,15.5-15.5s-5.8-15.5-15.5-15.5H309.29v31Zm0-54c8.53,0,13.73-6.15,13.73-13.73s-5.2-13.73-13.73-13.73H309.29V408ZM265,431v7.68H245.52V400.3H265V408h18.61V380.52H236.74v9.75H217.26V361H340.74a35,35,0,0,1,26.32,58.05,36.76,36.76,0,0,1-26.32,62.42H217.26V452.27h19.48V462h46.87V431Z" transform="translate(-201 -324.89)"/></svg>