<svg id="Layer_1" data-name="Layer 1" xmlns="http://www.w3.org/2000/svg" viewBox="0 0 98.42 77.06"><defs><style>.cls-1{fill:#010101;}</style></defs><path class="cls-1" d="M327,395l-7.5-11.7c-.6-.9-1.5-.8-2.4-.2l-17.8,11.7a3.71,3.71,0,0,0-1.3,1.7l-2.1,5.8a2.75,2.75,0,0,0,.2,2l.6,1a15.2,15.2,0,0,0-5.2,6.2l-.9-2.9A9.84,9.84,0,0,0,282,402h-33.3a10,10,0,0,0-8.6,6.6l-2.3,7.7h-4a4.27,4.27,0,0,0-4.3,4.3,4.35,4.35,0,0,0,4,4.3,8,8,0,0,0-4.6,7.3v14.4a3.49,3.49,0,0,0,3.3,3.4v7.1a2.65,2.65,0,0,0,2.6,2.6h5.3a2.65,2.65,0,0,0,2.6-2.6V450h45.6v7.1a2.65,2.65,0,0,0,2.6,2.6h5.4a2.65,2.65,0,0,0,2.6-2.6V450a3.35,3.35,0,0,0,3.3-3.4v-14.5a8,8,0,0,0-4.7-7.3,4.35,4.35,0,0,0,4-4.3,4.27,4.27,0,0,0-4.3-4.3h-4c-.5-4.3,2.6-7.3,5-9.1l1,1.6a2.33,2.33,0,0,0,1.7,1l5.9.2a4.2,4.2,0,0,0,2.1-.6l17.6-11.7A1.88,1.88,0,0,0,327,395Zm-84.2,14.2a7.15,7.15,0,0,1,6.3-4.7h32.7a7,7,0,0,1,6.3,4.7l3.3,11.7h-52Zm-2.7,30a4.3,4.3,0,1,1,4.3-4.3A4.27,4.27,0,0,1,240.13,439.15Zm36.7,4.7H254v-5.7h22.8Zm18.3-9a4.3,4.3,0,1,1-4.3-4.3A4.33,4.33,0,0,1,295.13,434.85Zm8-28.7a3,3,0,0,1-3.5-.2c.5-.3.9-.5.9-.5a1.14,1.14,0,0,0,.6-1.5,1.2,1.2,0,0,0-1-.7.9.9,0,0,0-.5.1l-1.2.6a3,3,0,0,1,1.3-2.9,2.94,2.94,0,0,1,4.1.9A2.85,2.85,0,0,1,303.13,406.15Zm14.7-6.1a5.3,5.3,0,0,1-4.7.6,5.15,5.15,0,0,1-2.1-1.4l-1,.6-.7-1.1.8-.5c0-.1-.1-.2-.2-.3a2.19,2.19,0,0,1-.3-.5l-.8.5-.7-1.1,1-.6a6.26,6.26,0,0,1-.3-2.7,5.24,5.24,0,0,1,2.5-3.7,6.21,6.21,0,0,1,2.5-1l.7,2a6.4,6.4,0,0,0-1.9.7,2.77,2.77,0,0,0-1.3,2,3,3,0,0,0,.1,1.3l3.7-2.4.7,1.1-3.7,2.6c.1.2.2.3.3.5l.2.2,3.9-2.5.7,1.1-3.7,2.4a2.52,2.52,0,0,0,1.2.7,3,3,0,0,0,2.4-.5,3.85,3.85,0,0,0,1.4-1.5l1.4,1.4A7,7,0,0,1,317.83,400.05Z" transform="translate(-228.93 -382.59)"/></svg>