<svg id="Layer_1" data-name="Layer 1" xmlns="http://www.w3.org/2000/svg" xmlns:xlink="http://www.w3.org/1999/xlink" viewBox="0 0 3963.87 2001.41"><defs><style>.cls-1{fill:#bc1822;}.cls-2{fill:url(#linear-gradient);}.cls-3{fill:url(#linear-gradient-2);}.cls-4{fill:url(#linear-gradient-3);}.cls-18,.cls-5{fill:none;}.cls-5{stroke:#231f20;}.cls-16,.cls-18,.cls-5{stroke-width:0.25px;}.cls-6{fill:url(#linear-gradient-4);}.cls-7{fill:url(#linear-gradient-5);}.cls-8{fill:url(#linear-gradient-6);}.cls-9{fill:url(#linear-gradient-7);}.cls-10{fill:url(#linear-gradient-8);}.cls-11{fill:url(#linear-gradient-9);}.cls-12{fill:url(#linear-gradient-10);}.cls-13{fill:url(#linear-gradient-11);}.cls-14{fill:url(#linear-gradient-12);}.cls-15{fill:url(#linear-gradient-13);}.cls-16{fill:#fff;stroke:#000;}.cls-17{fill:url(#linear-gradient-14);}.cls-18{stroke:#e8e8e8;}.cls-19{fill:url(#linear-gradient-15);}.cls-20{fill:url(#linear-gradient-16);}</style><linearGradient id="linear-gradient" x1="1385.8" y1="618.88" x2="1122.71" y2="453.69" gradientUnits="userSpaceOnUse"><stop offset="0" stop-color="#e8e8e8"/><stop offset="1" stop-color="#495153"/></linearGradient><linearGradient id="linear-gradient-2" x1="2479.38" y1="33.43" x2="2412.08" y2="1009.3" gradientUnits="userSpaceOnUse"><stop offset="0.03" stop-color="#e8e8e8"/><stop offset="0.1" stop-color="#d6d7d7"/><stop offset="0.3" stop-color="#a4a8a8"/><stop offset="0.49" stop-color="#7d8283"/><stop offset="0.67" stop-color="#606769"/><stop offset="0.82" stop-color="#4f5759"/><stop offset="0.93" stop-color="#495153"/></linearGradient><linearGradient id="linear-gradient-3" x1="1901.52" y1="89.74" x2="1901.52" y2="-42.81" gradientUnits="userSpaceOnUse"><stop offset="0" stop-color="#e8e8e8"/><stop offset="0.12" stop-color="#c9cacb"/><stop offset="0.33" stop-color="#9b9fa0"/><stop offset="0.52" stop-color="#787d7f"/><stop offset="0.7" stop-color="#5e6567"/><stop offset="0.87" stop-color="#4e5658"/><stop offset="1" stop-color="#495153"/></linearGradient><linearGradient id="linear-gradient-4" x1="1475.12" y1="57.87" x2="1331.34" y2="122.11" gradientUnits="userSpaceOnUse"><stop offset="0" stop-color="#fff"/><stop offset="1" stop-color="#495153"/></linearGradient><linearGradient id="linear-gradient-5" x1="1250.79" y1="1128.77" x2="605.31" y2="51.96" gradientUnits="userSpaceOnUse"><stop offset="0" stop-color="#495153"/><stop offset="0.36" stop-color="#e8e8e8"/><stop offset="0.42" stop-color="#ddddde"/><stop offset="0.54" stop-color="#bfc1c2"/><stop offset="0.7" stop-color="#8f9495"/><stop offset="0.88" stop-color="#4d5557"/><stop offset="0.9" stop-color="#495153"/></linearGradient><linearGradient id="linear-gradient-6" x1="1193.07" y1="1168.54" x2="934.08" y2="562.84" xlink:href="#linear-gradient-3"/><linearGradient id="linear-gradient-7" x1="829.24" y1="1083.67" x2="1235.07" y2="1087.76" xlink:href="#linear-gradient-3"/><linearGradient id="linear-gradient-8" x1="1973.92" y1="124.5" x2="1017.42" y2="1193.18" gradientUnits="userSpaceOnUse"><stop offset="0" stop-color="#495153"/><stop offset="0" stop-color="#4a5254"/><stop offset="0.05" stop-color="#73787a"/><stop offset="0.09" stop-color="#959899"/><stop offset="0.14" stop-color="#afb1b2"/><stop offset="0.19" stop-color="#c2c3c3"/><stop offset="0.24" stop-color="#cdcece"/><stop offset="0.3" stop-color="#d1d1d1"/><stop offset="0.63" stop-color="#888d8e"/><stop offset="0.88" stop-color="#5b6263"/><stop offset="1" stop-color="#495153"/></linearGradient><linearGradient id="linear-gradient-9" x1="2506.11" y1="597.66" x2="1549.6" y2="1666.34" gradientTransform="matrix(-1, 0, 0, 1, 4335.38, -473.16)" gradientUnits="userSpaceOnUse"><stop offset="0"/><stop offset="0.02" stop-color="#202020"/><stop offset="0.06" stop-color="#515151"/><stop offset="0.1" stop-color="#7b7b7b"/><stop offset="0.13" stop-color="#9d9d9d"/><stop offset="0.17" stop-color="#b7b7b7"/><stop offset="0.21" stop-color="#cacaca"/><stop offset="0.25" stop-color="#d5d5d5"/><stop offset="0.3" stop-color="#d9d9d9"/><stop offset="0.33" stop-color="#d2d2d2"/><stop offset="0.65" stop-color="#888d8e"/><stop offset="0.88" stop-color="#5b6263"/><stop offset="1" stop-color="#495153"/></linearGradient><linearGradient id="linear-gradient-10" x1="1361.37" y1="1556.84" x2="1767.24" y2="1560.93" gradientTransform="matrix(-1, 0, 0, 1, 4335.38, -473.16)" gradientUnits="userSpaceOnUse"><stop offset="0" stop-color="#e8e8e8"/><stop offset="0.01" stop-color="#e3e3e3"/><stop offset="0.09" stop-color="#babdbd"/><stop offset="0.17" stop-color="#979b9c"/><stop offset="0.26" stop-color="#7b8082"/><stop offset="0.35" stop-color="#656b6d"/><stop offset="0.45" stop-color="#555c5e"/><stop offset="0.57" stop-color="#4c5456"/><stop offset="0.73" stop-color="#495153"/></linearGradient><linearGradient id="linear-gradient-11" x1="2034.39" y1="531.04" x2="1890.62" y2="595.28" gradientTransform="matrix(-1, 0, 0, 1, 4362.76, -473.16)" xlink:href="#linear-gradient-4"/><linearGradient id="linear-gradient-12" x1="1579.44" y1="1128.77" x2="933.97" y2="51.96" gradientTransform="matrix(-1, 0, 0, 1, 4593.38, 0)" xlink:href="#linear-gradient-5"/><linearGradient id="linear-gradient-13" x1="1521.72" y1="1168.54" x2="1262.72" y2="562.84" gradientTransform="matrix(-1, 0, 0, 1, 4593.38, 0)" gradientUnits="userSpaceOnUse"><stop offset="0" stop-color="#e8e8e8"/><stop offset="0.1" stop-color="#c1c3c3"/><stop offset="0.22" stop-color="#969a9b"/><stop offset="0.34" stop-color="#757a7c"/><stop offset="0.46" stop-color="#5d6465"/><stop offset="0.56" stop-color="#4e5658"/><stop offset="0.65" stop-color="#495153"/></linearGradient><linearGradient id="linear-gradient-14" x1="2282.63" y1="878.29" x2="2227.53" y2="908.9" gradientUnits="userSpaceOnUse"><stop offset="0" stop-color="#e8e8e8"/><stop offset="0.07" stop-color="#d6d7d7"/><stop offset="0.28" stop-color="#a4a8a8"/><stop offset="0.47" stop-color="#7d8283"/><stop offset="0.66" stop-color="#606769"/><stop offset="0.81" stop-color="#4f5759"/><stop offset="0.93" stop-color="#495153"/></linearGradient><linearGradient id="linear-gradient-15" x1="1977.48" y1="1345.24" x2="1959.12" y2="1152.48" xlink:href="#linear-gradient-3"/><linearGradient id="linear-gradient-16" x1="2020.54" y1="1151.02" x2="2029.71" y2="1371.26" xlink:href="#linear-gradient-14"/></defs><path class="cls-1" d="M923.64,1986.73v112.55H363.21s-20.81-5.08-20.81,20.81v225.64s-2.87,21.1,21.1,21.1h559v102.68H343s-112-9.57-112-112V2102.66s-13-114.5,114.5-114.5Z" transform="translate(-230.62 -473.16)"/><path class="cls-1" d="M1941,2178.75H2449.9v105.08H1919.75v61.9s-3,21.1,21.79,21.1h576.67v102.68H1920.33s-115.53-9.57-115.53-112V2102.66s-13.37-114.5,118.14-114.5l596.46-1.43v101.71l-577.73.21s-22.18,1.93-22.18,22.17v67.84Z" transform="translate(-230.62 -473.16)"/><path class="cls-1" d="M1920.07,2097.78" transform="translate(-230.62 -473.16)"/><polygon class="cls-1" points="778.53 1510.19 889.94 1510.19 889.94 1707.69 1364.28 1707.69 1364.28 1511.88 1480.76 1511.88 1480.76 2001.41 1367.66 2001.41 1367.66 1812.35 889.94 1812.35 889.94 1998.04 776.84 1998.04 778.53 1510.19"/><path class="cls-1" d="M2607.73,1985.05h634.71s77.65,28.68,77.65,77.65v114.78s6.75,81.87-81.87,81.87h-97.07l202.57,215.23H3196.86l-187.37-216.07H2724.21v214.38H2609.42Zm114.79,190.74h474.34s24.48-3.37,24.48-24.47V2118.4s5.06-23.21-23.22-23.21H2720.83Z" transform="translate(-230.62 -473.16)"/><polygon class="cls-1" points="3114.78 1510.19 3286.97 1510.19 3546.93 1738.08 3806.88 1510.19 3963.87 1510.19 3611.07 1832.61 3611.07 1998.04 3481.09 1998.04 3481.09 1830.92 3114.78 1510.19"/><polygon class="cls-2" points="1901.48 81.58 1093.88 1040.12 824.66 1129.84 1775.06 0 1901.48 81.58"/><polygon class="cls-3" points="1901.48 81.58 2709.13 1040.12 2978.34 1129.84 2027.98 0 1901.48 81.58"/><polygon class="cls-4" points="1901.48 81.58 2027.98 0 1775.06 0 1901.48 81.58"/><path class="cls-5" d="M1543.74,667.92" transform="translate(-230.62 -473.16)"/><path class="cls-5" d="M1544.79,667.92" transform="translate(-230.62 -473.16)"/><polygon class="cls-6" points="1313.11 194.76 1441.99 8.18 1313.48 109.88 1313.11 194.76"/><path class="cls-7" d="M1418.29,1329.74l-191.69,69.34C310.91,1260.4,374.08,964.67,374.08,964.67c-2-381.36,1299.19-483.33,1299.19-483.33l-128.48,102s-1061,153.45-1030.5,379.84S1418.29,1329.74,1418.29,1329.74Z" transform="translate(-230.62 -473.16)"/><path class="cls-8" d="M1544.79,583.31v84.61s-889.2,66.29-889.2,290.64S1361.22,1240,1361.22,1240l57.07,89.73s-905.5-110.12-905.5-367.1S1544.79,583.31,1544.79,583.31Z" transform="translate(-230.62 -473.16)"/><polygon class="cls-9" points="824.66 1129.84 1185.77 1129.84 1093.88 1040.12 824.66 1129.84"/><polygon class="cls-10" points="1901.48 81.58 1901.48 257.48 1185.38 1129.38 1093.88 1040.12 1901.48 81.58"/><polygon class="cls-11" points="1901.71 81.58 1901.71 257.48 2617.82 1129.38 2709.34 1040.12 1901.71 81.58"/><polygon class="cls-12" points="2978.58 1129.84 2617.45 1129.84 2709.34 1040.12 2978.58 1129.84"/><polygon class="cls-13" points="2490.37 194.76 2361.49 8.18 2490 109.88 2490.37 194.76"/><path class="cls-14" d="M2846.43,1329.74l191.7,69.34c915.68-138.68,852.52-434.41,852.52-434.41,2-381.36-1299.19-483.33-1299.19-483.33l128.47,102S3781,736.76,3750.43,963.15,2846.43,1329.74,2846.43,1329.74Z" transform="translate(-230.62 -473.16)"/><path class="cls-15" d="M2719.93,583.31v84.61s889.21,66.29,889.21,290.64S2903.51,1240,2903.51,1240l-57.08,89.73S3752,1219.62,3752,962.64,2719.93,583.31,2719.93,583.31Z" transform="translate(-230.62 -473.16)"/><path class="cls-16" d="M2407.65,1269.53" transform="translate(-230.62 -473.16)"/><polygon class="cls-17" points="2187.21 812.67 2310.62 981.36 2205.56 892.24 2187.21 812.67"/><path class="cls-18" d="M1520.47,1342.94" transform="translate(-230.62 -473.16)"/><path class="cls-19" d="M1520.47,1342.94l163.16-66.27s611.84,25.48,734.2,9.17l18.35,79.56S2180.24,1413.33,1520.47,1342.94Z" transform="translate(-230.62 -473.16)"/><path class="cls-20" d="M2436.18,1365.4l105.06,89.13s-575.65,38.83-991.7-14.19l-29.07-97.4S2086.39,1395,2436.18,1365.4Z" transform="translate(-230.62 -473.16)"/></svg>