<svg id="Reflet_Drt" data-name="Reflet Drt" xmlns="http://www.w3.org/2000/svg" xmlns:xlink="http://www.w3.org/1999/xlink" viewBox="0 0 125.63 104.08"><defs><style>.cls-1{fill:#d7172f;isolation:isolate;}.cls-2{fill:#231f20;}.cls-3{fill:url(#linear-gradient);}.cls-4{fill:url(#linear-gradient-2);}.cls-5{fill:url(#linear-gradient-3);}.cls-6{fill:url(#linear-gradient-4);}.cls-7{fill:url(#linear-gradient-5);}.cls-8{fill:url(#linear-gradient-6);}.cls-9{fill:url(#linear-gradient-7);}.cls-10{fill:url(#linear-gradient-8);}.cls-11{fill:none;}</style><linearGradient id="linear-gradient" x1="904.1" y1="706.49" x2="946.3" y2="706.49" gradientUnits="userSpaceOnUse"><stop offset="0" stop-color="#b1acb1"/><stop offset="0.11" stop-color="#a8a3a8"/><stop offset="0.29" stop-color="#918b91"/><stop offset="0.5" stop-color="#6d666c"/><stop offset="0.6" stop-color="#898388"/><stop offset="0.78" stop-color="#b3aeb2"/><stop offset="0.91" stop-color="#ccc9cc"/><stop offset="0.99" stop-color="#d6d3d6"/></linearGradient><linearGradient id="linear-gradient-2" x1="904.08" y1="706.49" x2="946.28" y2="706.49" xlink:href="#linear-gradient"/><linearGradient id="linear-gradient-3" x1="904.1" y1="721.52" x2="946.3" y2="721.52" xlink:href="#linear-gradient"/><linearGradient id="linear-gradient-4" x1="904.08" y1="721.52" x2="946.28" y2="721.52" xlink:href="#linear-gradient"/><linearGradient id="linear-gradient-5" x1="904.1" y1="700.23" x2="946.18" y2="700.23" gradientUnits="userSpaceOnUse"><stop offset="0" stop-color="#6d666c"/><stop offset="0.08" stop-color="#959094"/><stop offset="0.17" stop-color="#bbb8ba"/><stop offset="0.26" stop-color="#d9d7d8"/><stop offset="0.34" stop-color="#eeedee"/><stop offset="0.43" stop-color="#fbfafb"/><stop offset="0.5" stop-color="#fff"/><stop offset="0.57" stop-color="#fafafa"/><stop offset="0.65" stop-color="#ecebec"/><stop offset="0.74" stop-color="#d5d3d5"/><stop offset="0.84" stop-color="#b5b2b5"/><stop offset="0.93" stop-color="#8d878c"/><stop offset="1" stop-color="#6d666c"/></linearGradient><linearGradient id="linear-gradient-6" x1="904.1" y1="715.25" x2="946.18" y2="715.25" xlink:href="#linear-gradient-5"/><linearGradient id="linear-gradient-7" x1="925.36" y1="699.9" x2="945.25" y2="699.49" gradientUnits="userSpaceOnUse"><stop offset="0" stop-color="#edebec"/><stop offset="0.07" stop-color="#c0bcbf"/><stop offset="0.13" stop-color="#9c979b"/><stop offset="0.19" stop-color="#827c81"/><stop offset="0.24" stop-color="#726c71"/><stop offset="0.28" stop-color="#6d666c"/><stop offset="0.39" stop-color="#756e74"/><stop offset="0.56" stop-color="#8a848a"/><stop offset="0.59" stop-color="#8e888e"/><stop offset="1" stop-color="#6d666c"/></linearGradient><linearGradient id="linear-gradient-8" x1="925.36" y1="714.92" x2="945.25" y2="714.52" xlink:href="#linear-gradient-7"/></defs><path class="cls-1" d="M936.26,735.3c-1.8,0-3.64,0-3.65,0-2.21,0-4,1.52-4,3.4a3.76,3.76,0,0,0,4,3.46s1.85,0,3.65,0a3.76,3.76,0,0,0,4-3.46C940.26,736.84,938.5,735.35,936.26,735.3ZM935,741.21s-.65,0-1.15,0a2.58,2.58,0,0,1-2.64-2.5,2.53,2.53,0,0,1,2.63-2.45s.65,0,1.16,0a2.53,2.53,0,0,1,2.64,2.45A2.58,2.58,0,0,1,935,741.21Z" transform="translate(-862.55 -664.34)"/><path class="cls-1" d="M959.71,742.07H962V738.8a3.64,3.64,0,0,0-3.89-3.41h-5.68c-.1,0-.31,0-.31.25v6.18a.24.24,0,0,0,.24.25h2.37v-5.16a.32.32,0,0,1,.34-.34h2.62a1.93,1.93,0,0,1,1.79,2.06v3.18A.27.27,0,0,0,959.71,742.07Z" transform="translate(-862.55 -664.34)"/><path class="cls-1" d="M912.3,736.72h3.5v-1.06a.26.26,0,0,0-.25-.27h-9.77a.25.25,0,0,0-.25.26v1.07h2.33a1.48,1.48,0,0,1,1.47,1.45v3.65a.25.25,0,0,0,.25.25H912v-5A.35.35,0,0,1,912.3,736.72Z" transform="translate(-862.55 -664.34)"/><path class="cls-1" d="M901.5,741.82a.25.25,0,0,0,.25.25h2.37v-6.42a.26.26,0,0,0-.26-.26h-2.11a.26.26,0,0,0-.25.26Z" transform="translate(-862.55 -664.34)"/><path class="cls-1" d="M924.92,742.07h2.61a3,3,0,0,0-1.94-2.44h0a2.24,2.24,0,0,0,1.93-2.09,2.43,2.43,0,0,0-2.65-2.15h-6.3a1.35,1.35,0,0,0-1.36,1.37v5.06a.24.24,0,0,0,.25.25h2.36V739.7h2.24A2.68,2.68,0,0,1,924.92,742.07Zm-5.1-3.55v-1.33a.6.6,0,0,1,.63-.62h3.49a1,1,0,0,1,0,1.95Z" transform="translate(-862.55 -664.34)"/><path class="cls-1" d="M897.51,737.63h2.55a4.15,4.15,0,0,0-3.84-2.38c-.92,0-2.57-.06-3.65,0a4.19,4.19,0,0,0-2.82,1,3.23,3.23,0,0,0-1.17,2.45c0,1.91,1.69,3.41,3.95,3.49,1.54,0,1.71.06,3.73,0a3.89,3.89,0,0,0,3.8-2.39h-2.55a.24.24,0,0,0-.22.13,2.65,2.65,0,0,1-2.28,1.28h-1.18a2.51,2.51,0,1,1,0-5c.15,0,.67,0,1.15,0a2.74,2.74,0,0,1,2.31,1.28A.23.23,0,0,0,897.51,737.63Z" transform="translate(-862.55 -664.34)"/><path class="cls-1" d="M950.66,740.87h-6.18a.33.33,0,0,1-.35-.34v-1.27h5.35v-1.17h-5.35v-1.16a.35.35,0,0,1,.4-.34h6.13v-.94c0-.27-.29-.26-.3-.26h-8.59a.25.25,0,0,0-.26.26v5.06a1.35,1.35,0,0,0,1.37,1.36h7.53a.26.26,0,0,0,.25-.25Z" transform="translate(-862.55 -664.34)"/><path class="cls-1" d="M948.74,733a1.76,1.76,0,0,0-.91-.23,1.83,1.83,0,0,0-.91.23c-.24.15-.43.35-.71.35s-.46-.2-.71-.35a1.78,1.78,0,0,0-.91-.23,1.73,1.73,0,0,0-.91.23.6.6,0,0,0,0,1.12,1.91,1.91,0,0,0,1.8,0,1.57,1.57,0,0,1,.73-.36,1.48,1.48,0,0,1,.71.35,1.8,1.8,0,0,0,.91.23,1.74,1.74,0,0,0,.92-.23.68.68,0,0,0,.37-.56A.67.67,0,0,0,948.74,733Z" transform="translate(-862.55 -664.34)"/><path class="cls-2" d="M925.26,700.7c5.48,0,18.71,11.36,20.37,12.8a.65.65,0,0,0,.55.19c.42-.05.43-.68.43-.68s.1-1.44.1-2.89a6,6,0,0,0-1.43-3.44s-14.83-16.32-20-16.32-20,16.32-20,16.32a6,6,0,0,0-1.43,3.44c0,1.45.1,2.89.1,2.89s0,.63.42.68a.66.66,0,0,0,.56-.19C906.56,712.06,919.78,700.7,925.26,700.7Z" transform="translate(-862.55 -664.34)"/><path class="cls-2" d="M925.26,715.72c5.48,0,18.71,11.36,20.37,12.81a.68.68,0,0,0,.55.19c.42-.05.43-.68.43-.68s.1-1.45.1-2.9a5.94,5.94,0,0,0-1.43-3.43s-14.83-16.33-20-16.33-20,16.33-20,16.33a5.94,5.94,0,0,0-1.43,3.43c0,1.45.1,2.9.1,2.9s0,.63.42.68a.69.69,0,0,0,.56-.19C906.56,727.08,919.78,715.72,925.26,715.72Z" transform="translate(-862.55 -664.34)"/><path class="cls-3" d="M910.22,704.22a79.87,79.87,0,0,0-6.12,5.61c0,1,.09,3.15.09,3.16s0,.78.57.28l.56-.49c6-5.47,12.11-10.25,17-12.38.35-.16.92-.26.63-.63-.17-.21-.75-.24-1.12-.22-5.1.3-11.41,4.5-11.64,4.67Z" transform="translate(-862.55 -664.34)"/><path class="cls-4" d="M940.31,704.22a77.13,77.13,0,0,1,6.11,5.61c.05,1-.08,3.15-.08,3.16s0,.78-.57.28l-.56-.49c-6-5.47-12.12-10.25-17-12.38-.35-.16-.93-.26-.63-.63.17-.21.75-.24,1.12-.22,5.1.3,11.4,4.5,11.64,4.67Z" transform="translate(-862.55 -664.34)"/><path class="cls-5" d="M910.22,719.24a82.07,82.07,0,0,0-6.12,5.61c0,1,.09,3.15.09,3.17s0,.78.57.28l.56-.49c6-5.47,12.11-10.26,17-12.39.35-.15.92-.25.63-.63-.17-.21-.75-.23-1.12-.21-5.1.29-11.41,4.49-11.64,4.66Z" transform="translate(-862.55 -664.34)"/><path class="cls-6" d="M940.31,719.24a79.19,79.19,0,0,1,6.11,5.61c.05,1-.08,3.15-.08,3.17s0,.78-.57.28l-.56-.49c-6-5.47-12.12-10.26-17-12.39-.35-.15-.93-.25-.63-.63.17-.21.75-.23,1.12-.21,5.1.29,11.4,4.49,11.64,4.66Z" transform="translate(-862.55 -664.34)"/><path class="cls-7" d="M945.08,706.87c-.18-.2-14.81-16.24-19.82-16.24s-19.63,16-19.81,16.24a6,6,0,0,0-1.35,3,79.87,79.87,0,0,1,6.12-5.61s.91-.76,2.27-1.79c3-2.27,8.33-5.82,12.77-5.82s9.77,3.55,12.78,5.82c1.36,1,2.27,1.79,2.27,1.79a77.13,77.13,0,0,1,6.11,5.61A5.9,5.9,0,0,0,945.08,706.87Z" transform="translate(-862.55 -664.34)"/><path class="cls-8" d="M945.08,721.89c-.18-.2-14.81-16.24-19.82-16.24s-19.63,16-19.81,16.24a6,6,0,0,0-1.35,3,82.07,82.07,0,0,1,6.12-5.61s.91-.76,2.27-1.78c3-2.27,8.33-5.82,12.77-5.82s9.77,3.55,12.78,5.82c1.36,1,2.27,1.78,2.27,1.78a79.19,79.19,0,0,1,6.11,5.61A6,6,0,0,0,945.08,721.89Z" transform="translate(-862.55 -664.34)"/><path class="cls-9" d="M945.3,707.88c-8.21-9.41-17.16-16.65-19.73-16.78a.35.35,0,0,0-.37.35c0,3.09.18,3.64,2.31,4.47.29.11,8.28,2.51,17.79,12.22l.13.14Z" transform="translate(-862.55 -664.34)"/><path class="cls-10" d="M945.3,722.91c-8.21-9.42-17.16-16.65-19.73-16.78a.34.34,0,0,0-.37.34c0,3.1.18,3.64,2.31,4.47.29.12,8.28,2.51,17.79,12.23l.13.13Z" transform="translate(-862.55 -664.34)"/><rect class="cls-11" width="125.63" height="104.08"/></svg>