<svg id="Layer_1" data-name="Layer 1" xmlns="http://www.w3.org/2000/svg" viewBox="0 0 192.76 192.76"><defs><style>.cls-1{fill:#fff;}.cls-1,.cls-2{fill-rule:evenodd;}.cls-2{fill:#006bb6;}</style></defs><polygon class="cls-1" points="0 0 192.76 0 192.76 192.76 0 192.76 0 0 0 0"/><path class="cls-2" d="M230.82,437.54c-1-11.52,6.59-20.85,14.88-21.94,5.08,10.26-4.35,20.08-14.88,21.94Z" transform="translate(-201 -324.89)"/><path class="cls-2" d="M239.72,408.78a19.32,19.32,0,0,1,3.92,3.59c-10.61,5.65-13.87,16-13.59,25.29-.46.09-1,.13-1.39.2a37.42,37.42,0,0,1,11.06-29.08Z" transform="translate(-201 -324.89)"/><path class="cls-2" d="M231.43,405.17a21.23,21.23,0,0,1,5,1.72c-5.92,11.45-8.87,17.94-8.45,31h0l-1.36.09h0c.11-18.42,1.81-22.1,4.79-32.85Z" transform="translate(-201 -324.89)"/><path class="cls-2" d="M227.87,404.62a30.2,30.2,0,0,0-5.06-.05c1.61,11.21,1.8,15.95,2.1,33.47.38,0,.66,0,1.12,0-.07-17.41.31-22.1,1.84-33.41Z" transform="translate(-201 -324.89)"/><path class="cls-2" d="M219.41,405.17a21.07,21.07,0,0,0-5,1.72c5.91,11.45,8.87,17.94,8.44,31h0l1.37.09h0c-.12-18.42-1.82-22.1-4.79-32.85Z" transform="translate(-201 -324.89)"/><path class="cls-2" d="M211.12,408.78a19.32,19.32,0,0,0-3.92,3.59c10.6,5.65,13.86,16,13.58,25.29.47.09,1,.13,1.4.2a37.42,37.42,0,0,0-11.06-29.08Z" transform="translate(-201 -324.89)"/><path class="cls-2" d="M220,437.54c1-11.52-6.59-20.85-14.89-21.94-5.08,10.26,4.35,20.08,14.89,21.94Z" transform="translate(-201 -324.89)"/><path class="cls-2" d="M253.14,410.84h9.78a26.41,26.41,0,0,1,4.93.32,10.27,10.27,0,0,1,4,1.71,8.36,8.36,0,0,1,2.52,3,10.39,10.39,0,0,1,.89,4.44,9.22,9.22,0,0,1-.89,4,8.48,8.48,0,0,1-2.73,3.26,13,13,0,0,1-3.75,1.49,25.22,25.22,0,0,1-4.72.38h-10V410.84Zm6.37,13.9h3a7.39,7.39,0,0,0,4.57-1.22,4.11,4.11,0,0,0,1.66-3.45,4,4,0,0,0-1.74-3.42,8.44,8.44,0,0,0-4.91-1.28h-2.54v9.37Z" transform="translate(-201 -324.89)"/><path class="cls-2" d="M339.12,428.82h-5.31l-3.6-7.47-3.32,7.45h-5.66L316,415.92H304.44v2.38H314.7v4.06H304.44v2.27H316v4.21H283.59l-2.5-4.17-1.85,4.17h-7.06l8.31-17.43h9.74l8,17.43V411.41h22.1l4.38,10.77,3-6.08-2.14-4.69H335l-2.29,4.69,3,6.08,4.47-10.77h6.13l-7.21,17.41Zm-53.93-13.2-4,8.8h8.34l-4.38-8.8Z" transform="translate(-201 -324.89)"/><path class="cls-2" d="M355.23,410.06c6.57,0,11.93,4.53,11.93,10s-5.36,10-11.93,10-11.9-4.51-11.9-10,5.34-10,11.9-10Zm-5.23,10c0,3.28,2.36,6,5.23,6s5.24-2.68,5.24-6-2.36-6-5.24-6-5.23,2.68-5.23,6Z" transform="translate(-201 -324.89)"/><path class="cls-2" d="M379,410.06c6.56,0,11.92,4.53,11.92,10s-5.36,10-11.92,10-11.91-4.51-11.91-10,5.34-10,11.91-10Zm-5.24,10c0,3.28,2.36,6,5.24,6s5.23-2.68,5.23-6-2.36-6-5.23-6-5.24,2.68-5.24,6Z" transform="translate(-201 -324.89)"/></svg>