<svg id="Layer_1" data-name="Layer 1" xmlns="http://www.w3.org/2000/svg" viewBox="0 0 192.76 192.76"><defs><style>.cls-1{fill:#fff;}.cls-1,.cls-2{fill-rule:evenodd;}.cls-2{fill:#231f20;}.cls-3{fill:none;stroke:#231f20;stroke-miterlimit:2.61;stroke-width:0.98px;}</style></defs><polygon class="cls-1" points="0 0 192.76 0 192.76 192.76 0 192.76 0 0 0 0"/><path class="cls-2" d="M209.5,364.2l8.93-.63,46.21,46.18s115.61-10.55,116-22.92C381,372.15,255.71,369,255.71,369l32.56,34.37-21.38,2.25-42.69-42s144.87-2.53,160.48,22c11.11,17.36-140.44,43.5-140.44,43.5L255.71,412,209.5,364.2Z" transform="translate(-201 -324.89)"/><path class="cls-3" d="M209.5,364.2l8.93-.63,46.21,46.18m0,0s115.61-10.55,116-22.92C381,372.15,255.71,369,255.71,369m0,0,32.56,34.37-21.38,2.25-42.69-42m0,0s144.87-2.53,160.48,22c11.11,17.36-140.44,43.5-140.44,43.5m0,0L255.71,412,209.5,364.2" transform="translate(-201 -324.89)"/><path class="cls-2" d="M209.5,364.2l8.93-.63,46.21,46.18s115.61-10.55,116-22.92C381,372.15,255.71,369,255.71,369l32.56,34.37-21.38,2.25-42.69-42s144.87-2.53,160.48,22c11.11,17.36-140.44,43.5-140.44,43.5L255.71,412,209.5,364.2Z" transform="translate(-201 -324.89)"/><path class="cls-3" d="M209.5,364.2l8.93-.63,46.21,46.18m0,0s115.61-10.55,116-22.92C381,372.15,255.71,369,255.71,369m0,0,32.56,34.37-21.38,2.25-42.69-42m0,0s144.87-2.53,160.48,22c11.11,17.36-140.44,43.5-140.44,43.5m0,0L255.71,412,209.5,364.2" transform="translate(-201 -324.89)"/><path class="cls-2" d="M357.67,462.46c1.55.49,2.18,1.9,2.11,3.79v.85h-4.92a1.61,1.61,0,0,0-.84-1.41c-.85-.42-7.6-.21-8.51.07a1.53,1.53,0,0,0-.85.78,1.41,1.41,0,0,0,.78,1.61c1.4.28,7.59.14,11.25.42a4,4,0,0,1,3.59,2.53c.35,2,.7,4.85-1,6.4-2.74,1.69-6.4,1.12-9.7,1.34-3.1-.08-6.68.49-8.86-1.06-1.2-1.12-1.2-2.74-1.13-4.36h5.06a1.48,1.48,0,0,0,1,1.62,58.42,58.42,0,0,0,8.58.07,1.5,1.5,0,0,0,1.12-.91,1.66,1.66,0,0,0-.42-1.55,1.19,1.19,0,0,0-.77-.35L343.4,472a3.91,3.91,0,0,1-3-1.34,7.49,7.49,0,0,1-.14-6.89c1.48-2,4.43-1.82,6.75-2,3.45-.14,7.39-.35,10.69.63Z" transform="translate(-201 -324.89)"/><path class="cls-2" d="M226.8,462a5.76,5.76,0,0,1,4.93,2.11c1.61,2.67,1.26,6.53,1,9.55a5.35,5.35,0,0,1-2.67,4.43,4.45,4.45,0,0,1-1.76.63c-6.12.15-12.31,0-18.49.07V462Z" transform="translate(-201 -324.89)"/><polygon class="cls-2" points="58.22 153.88 52.53 153.88 51.05 150.85 40.22 150.85 38.53 153.88 32.84 153.88 42.19 137.08 49.08 137.08 58.22 153.88 58.22 153.88"/><polygon class="cls-2" points="61.25 137.08 66.31 137.08 66.31 153.88 61.25 153.88 61.25 137.08 61.25 137.08"/><polygon class="cls-2" points="74.68 143.19 86.28 143.26 86.28 137.08 91.41 137.08 91.41 153.88 86.28 153.88 86.28 147.41 74.68 147.41 74.68 153.88 69.54 153.88 69.54 137.08 74.68 137.08 74.68 143.19 74.68 143.19"/><polygon class="cls-2" points="119.61 153.81 119.61 153.88 113.99 153.88 112.37 150.85 101.68 150.85 99.92 153.81 94.3 153.81 103.58 137.08 110.54 137.08 119.61 153.81 119.61 153.81"/><polygon class="cls-2" points="136.28 141.29 128.83 141.29 128.75 153.81 123.69 153.81 123.69 141.29 116.24 141.29 116.24 137.08 136.28 137.08 136.28 141.29 136.28 141.29"/><path class="cls-2" d="M368.15,472c.14.91.21,1.9,1.13,2.39,1.68.7,5.2.42,7.73.35a2.47,2.47,0,0,0,2-.84,3.47,3.47,0,0,0,.35-1.76V462h5.14v11.95a5.07,5.07,0,0,1-2.75,4.21c-3.86,1.41-10.47.78-13.08.71-1.89-.15-3.86-.64-4.92-2.46a9.3,9.3,0,0,1-.77-4.22V462h5.13v10Z" transform="translate(-201 -324.89)"/><polygon class="cls-1" points="42.05 147.27 45.56 140.8 49.08 147.27 42.05 147.27 42.05 147.27"/><polygon class="cls-1" points="103.44 147.27 106.95 140.87 110.54 147.27 103.44 147.27 103.44 147.27"/><path class="cls-1" d="M225.12,466.18a2.55,2.55,0,0,1,2,.85c.92,1.33.71,4.78.36,6s-1.69,1.41-2.75,1.55H215v-8.51l10.13.07Z" transform="translate(-201 -324.89)"/></svg>