<svg id="Layer_1" data-name="Layer 1" xmlns="http://www.w3.org/2000/svg" viewBox="0 0 192.76 192.76"><defs><style>.cls-1{fill:#fff;}.cls-1,.cls-2,.cls-3{fill-rule:evenodd;}.cls-2{fill:#e92e29;}.cls-3{fill:#231f20;}</style></defs><polygon class="cls-1" points="0 0 192.76 0 192.76 192.76 0 192.76 0 0 0 0"/><path class="cls-2" d="M348,339.66c-8.27-.82-30.09-2-50.67-2s-42.4,1.22-50.66,2c-9.44,1-13.83,5.75-13.83,15.09,0,17.73.66,45.36,1.87,61.59,1.08,14.46,1.92,25.88,19.94,36.83,12.88,7.83,25.7,14.54,42.38,23.15l.29.16.3-.16c16.72-8.64,29.56-15.35,42.39-23.15,18-11,18.87-22.37,19.94-36.83,1.22-16.31,1.88-43.91,1.88-61.59,0-9.34-4.4-14.13-13.83-15.09Zm6.36,76.28c-1,13.84-1.71,23-17.25,32.44-12.2,7.41-23,13.06-39.22,21.51l-.56.27-.55-.27c-15.75-8.17-27-14.08-39.23-21.51-15.54-9.44-16.23-18.61-17.25-32.45-1.21-16.15-1.86-43.57-1.86-61.18,0-6.45,2.21-8.84,8.78-9.52,8.17-.8,29.76-2,50.11-2s41.93,1.21,50.11,2c6.57.68,8.78,3.07,8.78,9.52,0,17.6-.65,45-1.86,61.19Z" transform="translate(-201 -324.89)"/><path class="cls-2" d="M296.48,379.09l-1.94,6.52c-7-14.37-15.42-21.9-25.58-21.9A21.19,21.19,0,0,0,251,373.38a21.61,21.61,0,0,1,20.17-13.31c13.59,0,21.26,10.73,25.28,19Z" transform="translate(-201 -324.89)"/><path class="cls-2" d="M245.58,393.81c.08,23.93,7,35.44,17.44,35.44,4.81,0,8.26-3,8.26-8a18.4,18.4,0,0,0-2.56-8.88,23.23,23.23,0,0,1,.53,4.7c0,4.13-2.78,5.46-5.06,5.46-6.91,0-13.82-13.45-15.78-28.76Z" transform="translate(-201 -324.89)"/><path class="cls-2" d="M323.49,360.07a21.64,21.64,0,0,1,20.18,13.31,21.2,21.2,0,0,0-17.95-9.67c-10.13,0-18.53,7.53-25.56,21.9l-1.94-6.52c4-8.29,11.7-19,25.27-19Z" transform="translate(-201 -324.89)"/><path class="cls-2" d="M346.29,393.81c-2,15.31-8.87,28.76-15.79,28.76-2.28,0-5.05-1.33-5.05-5.46a24,24,0,0,1,.52-4.7,18.51,18.51,0,0,0-2.56,8.88c0,4.93,3.45,8,8.27,8,10.38,0,17.36-11.51,17.43-35.44Z" transform="translate(-201 -324.89)"/><path class="cls-2" d="M332.17,373.23c-8.88,0-17.55,7.08-22.74,23.42l3.35,2.34-1.61,8-6.27,2.59-1.14,7.9,3.06-3.75,3.28-1.36-1,5.1-5.66,2.35-2,13.65,1.39,4.36L297.35,440l-5.47-2.17,1.38-4.36-2-13.65-5.66-2.35-1-5.1,3.28,1.36,3.07,3.75-1.16-7.9L283.52,407l-1.61-8,3.36-2.34c-5.19-16.34-13.86-23.42-22.75-23.42-11,0-15.53,10.42-14.93,19h2.64c2.2,12.14,8.37,22.43,13,22.43,1.42,0,2.16-1.08,2.16-2.86,0-4.28-2.92-8.76-2.92-16.95,0-3.77,1.23-6.13,4.06-6.13,1.93,0,3.51,2,4.45,4.24-1.72,6.12-1.46,11.24,3.42,13.42l5.32,2.35s3.1,13.13,3.33,14.07a12.69,12.69,0,0,0,1.13,2.76c.56,1,4.63,7.95,4.63,7.95s1.38,6.94,1.68,8.42c.79,4,3.63,4,6.84,4s6,0,6.84-4c.29-1.48,1.68-8.42,1.68-8.42s4.06-7,4.64-7.95a13.73,13.73,0,0,0,1.11-2.76c.22-.94,3.33-14.07,3.33-14.07l5.33-2.35c4.87-2.18,5.14-7.3,3.41-13.42.94-2.21,2.53-4.24,4.46-4.24,2.83,0,4.05,2.36,4.05,6.13,0,8.19-2.92,12.67-2.92,16.95,0,1.78.75,2.86,2.17,2.86,4.63,0,10.81-10.29,13-22.43h2.64c.59-8.59-3.95-19-14.94-19ZM276.33,404c-3.45-1.47-3.8-5.56-2.65-11l3.78,6,1.41,6.14L276.33,404Zm42,0-2.54,1.08,1.4-6.14,3.79-6c1.15,5.45.81,9.54-2.65,11Z" transform="translate(-201 -324.89)"/><path class="cls-3" d="M289.87,494.37v6.57h8.95c4.95,0,6.82-2,6.82-4.72,0-1.8-.89-4.7-6.75-4.7H283.78v-3.7h15.77c10,0,12.37,4.25,12.37,8.4,0,5-3.37,8.43-12.4,8.43H283.78V494.37Z" transform="translate(-201 -324.89)"/><path class="cls-3" d="M223,494.37v6.57h9c4.95,0,6.82-2,6.82-4.72,0-1.8-.89-4.7-6.75-4.7H217v-3.7h15.77c10,0,12.38,4.25,12.38,8.4,0,5-3.38,8.43-12.4,8.43H217V494.37Z" transform="translate(-201 -324.89)"/><path class="cls-3" d="M329.92,494.35v3.72h8.92v2.87H330c-5,0-6.9-2-6.9-4.72,0-3.05,2.53-4.69,6.56-4.69h15.29v-3.71H329.38c-8,0-12.6,2.53-12.6,8.4s4.47,8.43,12.37,8.43h15.76v-10.3Z" transform="translate(-201 -324.89)"/><polygon class="cls-3" points="157.44 166.61 176.6 166.61 176.6 162.94 150.95 162.94 150.95 179.76 176.8 179.76 176.8 176.05 157.44 176.05 157.44 173.18 175.57 173.18 175.57 169.47 157.44 169.47 157.44 166.61 157.44 166.61"/><path class="cls-3" d="M264.23,504.92c-10.38,0-14.34-3.41-14.34-8.7s4.09-8.68,14.34-8.68,14.33,3.43,14.33,8.68-4.08,8.7-14.33,8.7Zm8-8.7c0-2.87-2.79-5-8-5s-8.06,2.11-8.06,5,2.48,5,8.06,5,8-2.24,8-5Z" transform="translate(-201 -324.89)"/></svg>