<svg id="Layer_1" data-name="Layer 1" xmlns="http://www.w3.org/2000/svg" viewBox="0 0 576 576"><defs><style>.cls-1{fill:#fff;}.cls-1,.cls-2,.cls-3,.cls-4,.cls-5{fill-rule:evenodd;}.cls-2{fill:#006a00;}.cls-4{fill:#ffc800;}.cls-5{fill:#e10000;}</style></defs><polygon class="cls-1" points="576 0 0 0 0 576 576 576 576 0 576 0"/><path class="cls-2" d="M480.05,215.79q.09-5.13.19-10.26L296.65,170.3,113.76,205q.06,4.73.14,10.13c.78-.15,177.21-33.17,182.75-33.53,1.27-.09,175.36,32.66,183.4,34.19Z" transform="translate(-9 -133.89)"/><path class="cls-3" d="M298.12,673.06l9.51-6.37q5.64-3.78,11.21-7.66a381.6,381.6,0,0,0,42.9-34.18q10.71-10,20.49-20.82a358.7,358.7,0,0,0,46.92-66.33q7.26-13.12,13.61-26.73,2.52-5.39,4.83-10.84a422.13,422.13,0,0,0,14.33-40.33q1.88-6.41,3.52-12.86,3.26-12.69,5.72-25.57,2.08-10.89,3.66-21.81c4.88-30.35,4.88-71.57,4.61-128.23q0-7.05.07-14.08V257l-9.62-4.28c-114.38-50.9-233.23-50.73-347.71.51l-7.69,3.44c.33,22.37.67,45.56,1,63.44l.22,12.49q.13,7.93.34,15.88.15,5.73.39,11.44c.1,2.54.22,5.07.35,7.61q.27,5.38.69,10.76c.12,1.59.26,3.17.43,4.75q.87,10.84,2.55,21.61,1.84,11.77,4.46,23.42a445.67,445.67,0,0,0,22.19,70.14c10.23,25,23.65,51.4,39.43,73.36Q191.13,578,196,584.3A344.77,344.77,0,0,0,233.52,626q6.54,6.11,13.44,11.8,7.71,6.36,15.8,12.24t16.45,11.45q4.38,2.91,8.78,5.8l9.43,6.15c.19-.1.43-.25.7-.41Z" transform="translate(-9 -133.89)"/><path class="cls-4" d="M359.2,573.19h3.21a1.31,1.31,0,0,0,.39-.05c1.66-.42,1.91-.39,3-1.35,1.48-1.34,3.67-3.41,3.19-4.33-.78-1.52-1.51.34-3.4,1.27a2,2,0,0,1-.88.18c-1.32.05-4.45-.11-4.45-.11s.9-2.82,1.66-4.87c1.59-4.3,3.45-6.72,6.2-10.72a.32.32,0,0,1,.3-.18c10.59-1.07,14.09-1,23.38-5.18,1.84-.82,4.07-1.9,4.07-1.9l-.28-1.37s-4.39,1.15-7.64,1.88a65.59,65.59,0,0,1-19.22,1.31c-14.19-1.31-15.37-3.91-25.07-1.4-4.14,1.07-8.51,3.23-10.49,7.13a7.4,7.4,0,0,0,.44,7.94c1.26,1.7,4,2.06,5.85,1.61,2.54-.61,5.13-1.94,6.12-3.93.3-.61.93-2.41.7-2.79-.36-.58-1,.36-1.66,1-2.21,2.11-5.47,2.16-7,.14-2-2.69.75-5.23,3.49-6.34,3.23-1.32,6-1.12,9.7-.44C355,551.42,362,553,362,553a65.41,65.41,0,0,0-5.17,6.43c-2,3.23-4.26,8.91-4.76,9.17a15.71,15.71,0,0,1-2.14.53,8.17,8.17,0,0,0-5.07,4c-.17.29-.26.59-.09.82a3.47,3.47,0,0,0,.74.63s.64-.53,1.13-.89a3.92,3.92,0,0,1,3.41-.7c.38.14.35.37.32,1a.7.7,0,0,1-.09.37c-3.19,6.58-5,11.64-10,16.25-4.22,3.87-11.58,4.29-16,.7-2.63-2.14-4.69-6.34-4.06-9.7.16-.84.51-2,.93-2.1s1.4.68,2.22,1c1.31.47,3.42-.59,4.19-1.78a4.17,4.17,0,0,0-.91-5.64,5.74,5.74,0,0,0-5.82-.18c-5.31,2.92-4.85,11.75-2.62,16.08a17,17,0,0,0,15.29,9c6.37-.17,11.84-3.37,16.6-8.59.45-.49.86-1,1.26-1.49,3.31-4.2,5.12-9.35,7.56-14a2.15,2.15,0,0,0,.27-.68v-.08Zm-120-.56v0a12.88,12.88,0,0,0-1.57-.09c-2.22.06-4.77,2.43-5.68,4.28-1.74,3.54-1.21,9,.61,12.14a18.45,18.45,0,0,0,11.62,8.39c6.45,1.71,14.8-.37,19.4-4.63a16.24,16.24,0,0,0,5.24-14.85,13.37,13.37,0,0,0-4.14-8.39,70.41,70.41,0,0,0-7.57-4.72c-2.77-1.33-14.79-5.73-16.33-10.13a4,4,0,0,1,2-5.15c3.76-1.8,7.86-.51,11.7,1.22a19.64,19.64,0,0,1,7,5.34c1.29,1.76,3,4.71,3.58,5a.73.73,0,0,0,1-.32c.23-.37-1.16-3.84-1.92-6.5-.61-2.14-.45-5.84-1-7.25-.21-.58-.55-.91-1.22-.69s-1.34,1.18-2.1,1.57c-2.16,1.11-6.92-1.64-8.74-2.27-4.18-1.47-10.74-.67-13.89,3a10,10,0,0,0-2.79,6.61,14.26,14.26,0,0,0,0,2.14c.33,4.42,5.28,8.2,8.61,10.21,1,.61,1.94,1.15,2.42,1.36,4.83,2.15,13.24,5.49,14.56,6.43,3.92,2.78,5.12,7.66,2.74,12.26-4.4,8.53-19.19,8.46-25.68,1.8-1.85-1.89-3.5-5.52-2.36-8.35.54-1.35,1.13-.42,3-.09s4-1.78,4.37-3.23a3.84,3.84,0,0,0-1.67-4.36c-.33-.19-.69-.37-1-.53-.16-.08-.18-.09-.18-.12Zm57.37,91.94-8.59-5.88c-5.36-3.67-15.19-9.93-21.52-14.23-1.84-1.25-24.38-19.59-27-21.92-4.28-3.9-16.58-15.85-19.61-19.08-2-2.14-22.56-27-24.47-29.61-2.58-3.53-15.44-22.87-17.91-26.92-19.16-31.5-31.42-61.77-41-97.26-1.71-6.34-5.42-21.89-6.47-27.16a428.11,428.11,0,0,1-6.64-48.83c-.42-5.71-.65-11.2-.87-17.73-.83-24.34-1.93-93.75-1.93-93.75l.74-.43c116.4-52.82,236.42-52.5,352.54.94l0,.07a2.76,2.76,0,0,1,.27,1c.16,1.38-1.68,90-2,96.7-1.26,25.35-3.15,42.07-8.83,69-1,4.7-5.77,23.59-7.16,28.3-1.32,4.45-8.95,26.85-10.66,31.27-16.81,43.44-40,81.23-72.17,115.17-3,3.12-17.11,16.79-20.49,19.78-2.47,2.2-26.8,21.36-29.27,23.06-4.1,2.83-11.85,7.77-19.16,12.43l-7.91,5.06ZM181,396.74h-.09a11.36,11.36,0,0,0,.17,1.83c.35,1.44,3.49.32,5-.23,3.94-1.46,10.14-4.83,10.77-9,.3-2-.9-1.92-2.18-5.24a2.52,2.52,0,0,1,.35-2.49c.43-.73,1-1.39,1.39-2.14a6.65,6.65,0,0,0,.53-1.83c.8-4.78.82-6.14,4.1-10.18,2.87-3.52,7.71-8.56,9.35-11,1.36-2,2.48-4.19,3.41-5.87a3,3,0,0,1,1-1.27,7.18,7.18,0,0,1,2.89.1,4.48,4.48,0,0,1,2.27,1.78c2,2.52,4.32,6.82,5.68,8.23,3.5,3.6,9.32,8.66,9.18,9-.52,1.15-4.12-1-5.33-1.69-.73-.39-9.73-2.81-11.71-3.14-6.1-1-8.48-2-13,1.92a14.05,14.05,0,0,0-4.93,8.91c-.09.85,3.63,30.83,3.93,31.71a23.91,23.91,0,0,1,1.22,4.8c0,2.79-.52,3.53,1.23,6.34,1,1.57,2.38,2.86,3.4,4.44s2.17,5.35,3.41,8c.78,1.68,4.58,8,6.85,9.92,2.06,1.74,3.45,1.05,5.12-1.26,2.54-3.51,2.62-12.21,1.16-15.49a5.64,5.64,0,0,0-2.82-2.91,39.18,39.18,0,0,0-5.18-1.55,59.11,59.11,0,0,0-1.11-7.62,18,18,0,0,0-1.57-3.14c-2.8-5.15-2.46-10.27-2.71-16.42a18.22,18.22,0,0,0-.53-4.11,35,35,0,0,1-1.22-5.24,2.64,2.64,0,0,1,2.62-1.83c2.68.19,4.64,2.3,6.76,3.93,1.21.92,7.58,4.46,11.29,6.55a16.9,16.9,0,0,1,3.5,2.53c.56.63,1,1.35,1.52,2.05a14.3,14.3,0,0,0,5.41,4.33c4.72,1.79,5.58.81,7.43,2.83a48.18,48.18,0,0,1,4,5.86c1.36,2.27,2.54,4.33,3.84,6.29,1,1.44,7.22,8.9,8.69,10.35,3.14,3.1,26.83,22.44,30.85,26.29.88.85,5.11,4.88,5.63,6.81.13.49.11,1.07-.32,1.23a.88.88,0,0,1-.6-.09,88.67,88.67,0,0,1-7.07-7.25c-.44-.6-8.69-7.14-9.13-7.25l-1-.21s-.37,1.29-.58,2.31c-.69,3.27-.08,10.64.35,13.1,1.54,9,5.32,18.29,10,26.73,2.45,4.37,6.19,10.41,6.19,10.41a31.45,31.45,0,0,1-1.64,3.65c-1.23,2.1-2.32,2.39-5,2.45-4.87.11-11.82.19-14.51,0-6.63-.48-17.43-1.8-19.65-1.66a17.38,17.38,0,0,0-3.5.52c-.7.19-1.38.43-2.1.61-1.87.48-9.17.4-12.23,1-3.21.6-8.8,2.62-10.83,5.19-1.52,1.93-.6,3.1,1.4,4.51a61,61,0,0,0,7.6,3.41c2.9.85,7.33,2,9.17-.56.49-.69.85-1.56,1.4-2.28,1.07-1.42,2.47-2.32,3.93-2.06,1.14.21,2.24,1,3.41,1.23a10.75,10.75,0,0,0,3.51-.21c6.57-1.52,7.39-1.69,16.06-.93,2.78.25,11.21,1.58,13.28,2.1,4.74,1.19,12.45,3.33,13.89,3.49,2.14.25,3.88.24,5.07-1.17a23.75,23.75,0,0,0,2.18-4.77,14.5,14.5,0,0,0-.61-4c-2.31-6.83-4.08-9.34-5-14.58-.24-1.43-.57-10.29-.44-12a40.57,40.57,0,0,1,3.24-12.58c2.62-5.91,6.51-10.22,7.95-15.55.63-2.33,1.31-6,1.31-6a2,2,0,0,1,.61.08c.78.28.49,3.46.44,3.93a17.14,17.14,0,0,1-1.14,4c-1.55,3.9-6,11.52-7.95,16.16-2.9,7-3,14.76-1.31,23.06,1,4.64,3.77,13.23,5.85,16.86,2.39,4.17,6.64,10.62,6.9,11.71.39,1.6-.42,3.15-1.57,4.94a75,75,0,0,1-6.42,6.76c-6.64,5.37-18.61,15-18.92,15.5a48.31,48.31,0,0,1-2.44,4.3c-.85,1.11-6,4.82-9.07,7.42a30.29,30.29,0,0,0-3.86,4.58c-.81,1.56-1.6,3.5-.18,4.28s6.07,1.17,6.91,1.22c5.16.33,8.66,0,12.93-1.66,1.82-.73,3.09-1.87,2.53-3.84-.44-1.54-1.18-2.54-.61-4a3.72,3.72,0,0,1,1.78-1.79c2.7-1.52,3.91-1.52,4.95-4.33.21-.57.3-1.13.52-1.66a11.35,11.35,0,0,1,1.83-2.58c5.62-6.5,6.92-8.18,13.23-13a81.19,81.19,0,0,1,8.09-5.16c2.13-.92,4.93-1.88,5.33-4.1s.16-6.89-.61-8.74c-.6-1.43-1.88-2.93-2.71-4.45a13.53,13.53,0,0,1-.17-12.32A16.7,16.7,0,0,1,335.7,500c.95-1.13,12.14-8.76,16.55-12.49,3.54-3,10.89-11.85,12.28-17.12.81-3.1,1.7-8.73,2.18-9.39a1.57,1.57,0,0,1,2.62.34c1,1.45.9,3.73.7,5.46-.37,3.28-1.45,8.36-2,11.53a9.85,9.85,0,0,0,.09,3.32,26.14,26.14,0,0,0,1.14,3,38.45,38.45,0,0,1,.69-4.29c.63-2.54,1.63-3.74,2.1-5.5.39-1.47.31-5.87,2.36-6.2,1.13-.19,1.43,1.9,1.57,3.23.39,3.55-.16,6.33-1.73,10.17s-7.22,10.84-6.48,15.16a8.48,8.48,0,0,0,1.14,3,15.76,15.76,0,0,0,1.31,1.41V498a.8.8,0,0,1,.06-.38,19.27,19.27,0,0,1,3.08-5.63c4.35-5.83,5.41-5.84,7.69-11.31a30.52,30.52,0,0,0,2.36-9.52,32,32,0,0,0-.44-6.11c-.18-.45-3.21-4.88-2-5.77s3.4,3.17,3.67,3.76c1.82,3.91,1.27,5.9,1.4,10.57a13.84,13.84,0,0,0,2.88,8.17c.28.36.62.72.88.56A.55.55,0,0,0,390,482c.22-.95-1-6.17-1-8.38.05-1.39,1.4-4.68,1.84-6.64a6.68,6.68,0,0,0,0-2.71c-.57-2.77-2.56-7.93-2.36-8.44.26-.68,2.26-1,4.71-1.95,8-3.11,14.08-11.44,16.08-18.26a40.41,40.41,0,0,0,1.4-15.46c-1.2-12.25-3.25-13.42-1.09-24.72a13.42,13.42,0,0,1,.91-3.15c.94-2.07,4.9-7.06,6.07-9.5a10.56,10.56,0,0,0,1-7c-.19-1.49-.64-2.29-1.4-1.66-.56.46-2.21,5-3.67,8.12a76.22,76.22,0,0,1-5.8,7.51c-1.66,1.55-3,2.64-3.89.7-1.07-2.35-.79-6-.18-8.12a19.52,19.52,0,0,1,1.75-4.2c1.62-2.9,5.88-7.87,7.42-10.65,1.06-1.9,3.46-7.39,2.8-9.44-.41-1.26-1.11-1.1-1.92-.14a75.11,75.11,0,0,0-4.11,6.57,17,17,0,0,1-2.53,3.4c-1.44,1.38-3.72,3-4.19,3.87-.1.17-.15.34-.27.54-.54.89-5.63,4.83-5.63,4.83s-.26-3.18-.22-5.27c.09-4.77,3.54-12.71,6.55-16.2,2.59-3,7.69-7.77,7.86-8.43s-.06-1.07-.87-.87a7.66,7.66,0,0,0-2.24,1.22c-3.84,2.66-6.07,4.15-8.77,7a33.07,33.07,0,0,0-9.08,29.67c.65,4.26,2.6,10.63,3.67,15.9,1.46,7.22,2.2,19.7.34,27.07a27.91,27.91,0,0,1-8.94,14.42c-3.22,2.81-6.33,4.21-10.89,5.85a8.35,8.35,0,0,1-2,.52,37.29,37.29,0,0,1-4.19.2s-2.33-7.78-3.93-11.42c-2.81-6.39-10.91-15.71-15.47-20.19-1.81-1.78-7.19-6.32-8.94-7.54-2.46-1.72-5.57-3.69-7.13-5-5.43-4.64-12.81-15.44-15.64-22.41-2.2-5.41-3.05-10.36-1.75-15.81.39-1.64.88-2.07,2.45-1.4,1.09.47,2,1.45,3.14,2.1s5.16,1.26,7.43,2.09a9.67,9.67,0,0,1,2.27,1.23c2.62,1.85,7.22,5.76,8.13,6a1.37,1.37,0,0,0,1.39-.17c.69-.77-.66-1.32-1.44-1.84a7.42,7.42,0,0,1-1.88-2.14c-1.84-3.07-1.9-3.75-4.66-5.8a4.41,4.41,0,0,0-1-.62c-.88-.35-2.49-.38-3-1.08-.17-.26-.09-.44.23-.58,1.1-.47,4.58.74,5.28,1.14,1.88,1.07,4.67,3.81,5.5,4,.38.09.65,0,.79-.61a2.44,2.44,0,0,0-.79-2.19c-2-2.25-6.59-6.08-9.52-6.9-2-.55-2.4-.29-4.54-1.48-.89-.5-1.31-1.06-.73-1.4A52.81,52.81,0,0,1,331,358c2.63,1.14,9.72,4.82,13.89,4.8,2.33,0,6.21-.92,7.91-2.45.31-.28,1-.88,1-1.31a3.55,3.55,0,0,0-.09-.87,6.19,6.19,0,0,0-.78.09,12.69,12.69,0,0,0-2.36,1.57,14.12,14.12,0,0,1-3.93.87,7.6,7.6,0,0,1-4.85-1.48c-1.75-1.45-4.06-4.52-5.76-5.77s-3.78-1.45-6.69-2.44a35.09,35.09,0,0,1-5.72-2.62c-.16-.09-.89-.6-.49-.82.06,0,.16,0,.18-.14a.24.24,0,0,0,0-.09,41.28,41.28,0,0,0,6.48,1.63c2.06.28,9.39-.53,10.38-.23,1.83.56,3.88,2.07,5.33,2.36.73.14,1.06-.12.92-.82a.41.41,0,0,0-.2-.32c-3.53-2.87-6.45-5.94-10.59-6.46-.82-.11-3.73,0-3.73-.69,0-.29,1.11-.64,1.89-.8a8.05,8.05,0,0,1,5.6,1c2.53,1.4,2.53,1.86,4.63,2.36,1.83.43,5.08,1,6.51.09.48-.31.35-1.28-.05-1.58a16.9,16.9,0,0,0-2.88-.78,4.6,4.6,0,0,1-1.09-.53c-1.75-1.09-4-3.34-5.46-4-3.63-1.67-6.06-.49-8.48-3.44-.5-.6-.5-1.08,0-1.27a6.81,6.81,0,0,1,2.74.61c1.38.73,4.28,3.2,5.42,1.92.91-1-2.51-2.43-4.11-4.05-.41-.42-.78-1.16-.44-1.45.11-.1.3-.07.53,0,1.53.44,4.63,2.52,6.72,3.23a13.56,13.56,0,0,1,2.45.79c1,.56,4.13,5,6,4.1,1-.49-.48-1.56-1.1-2.13-.85-.79-2.05-3.44-3.05-5.08a10,10,0,0,0-5.39-4.49,11.92,11.92,0,0,1-3-1.75c-1.5-1.35-2.64-3.63-3.83-4.54a12.49,12.49,0,0,0-2.46-1.23c-1.63-.73-2-1-1.7-1.6s.77-.71,1.9-.67a1,1,0,0,1,.39.06c2.92.9,8.27,2.38,8.76,2.74a37.28,37.28,0,0,1,2.8,2.71,11.72,11.72,0,0,0,8.78,3.14c1.22-.1,2.83-.29,2.62-1.22a1.92,1.92,0,0,0-.91-1.05c-1.23-.8-4.29-1.25-5.86-2.18-2.05-1.22-2.1-2.58-3-4.87a11.64,11.64,0,0,0-3.72-4.66c-2-1.54-4.78-2.81-6.56-4.36-.65-.57-3.18-3.18-2.32-3.85a1.11,1.11,0,0,1,.79,0c1.72.42,5.17,2.66,7.95,3.59,2.07.69,4.46,1,5.68,1.65,1.65,1,3.42,3,4.63,3.5.45.19,3.89,1.06,4.94.35.63-.44,0-1.22-.69-1.66-1-.65-2.43-.85-3.33-1.49a3.46,3.46,0,0,1-.75-.73c-.48-.64-.84-1.45-1.39-2.11-.95-1.12-3.68-2.36-4.63-3.48-.8-.94-1.1-2.21-1.84-3.25-1.17-1.65-4.36-3.64-6.2-4.4-2.47-1-6.33-2.12-6.33-2.12a3.5,3.5,0,0,1,.13-.73c.23-.69,1.63-.84,2.27-.82,1.8.05,3.29,1.3,5.15,2.36a16.69,16.69,0,0,0,4,1.57c1.07.22,2.1.26,3.23.52,4.66,1.09,6.46,3.2,9.4,1.49.7-.41.88-1.06.24-1.4a17.27,17.27,0,0,0-2.47-.44c-1-.25-2.81-1.75-4.11-2.53-1.48-.89-3.76-1.07-5.91-2.18a52.34,52.34,0,0,1-5.53-5.51c-.1-.36.16-.66.61-.52.84.27,2.13,1.6,3.32,2.36,1.88,1.2,5.09,1.49,7.51,1.05,1.87-.35,2.48-.73,3.67-.7a10.08,10.08,0,0,1,3.2,1.22c.08.07,2.9,3.69,3.64,2.88.05-.06.1-.15.15-.17s.06,0,.09,0,.06-.75-.09-1.22c-.33-1-2.9-3.19-3.79-3.76-4.66-3-5.85-2.34-11.31-3.33-2.41-.44-2.63-1.61-4.83-4.17a10.24,10.24,0,0,0-2.56-2.2c-1.93-1.12-6.35-2.3-5.64-3.93.21-.49.46-.38,1.29-.35a1,1,0,0,1,.38.06c4.2,1.32,8.92,3.29,12.13,3.35,3.63.07,5.9-.88,8.13.09,1.29.56,2.8,1.77,4.19,2.27,1.09.39,3,.78,2.8-.18s-2.22-1.86-3.19-2.53c-1.14-.78-2.1-2-3.14-2.79a14.61,14.61,0,0,0-5.47-2.1c-1.17-.15-2.09.07-3.14-.17s-5.08-3.16-7.26-4.46a9.56,9.56,0,0,0-2.18-1c-1.92-.62-5.36-1.4-5.36-1.4s.92-.65,1.78-1.13c1.4-.8,7.1-2.45,8.47-2.19s2.61,1.41,3.59,1.05,1-1.07.34-1.88a7.64,7.64,0,0,0-4.54-2.84c-2.57-.32-11.28.33-12,0-.13-.06-.25-.13-.38-.18-.36-.13-.79-.13-1.19-.25a44.73,44.73,0,0,1-4-3.85,9.93,9.93,0,0,0-5.63-2.79c-1.28-.16-3-.13-4.44-.17a.36.36,0,0,1-.33-.15c-1.53-1.65-3.13-3.59-4.61-4.92s-2.75-2-4.82-3.93c-1.19-1.12-2.62-2.64-2.62-2.64s-1.48,4.29-1.88,6.13a2.24,2.24,0,0,0,0,1.31c.72,2.12,1.83,2.49.49,3.58-1.07.88-2.12.81-3.7.5-2-.39-6-2.54-8.23-3a13.66,13.66,0,0,0-3.67-.18c-2.22.19-5.87.89-5.87.89a6.54,6.54,0,0,0,1.06.86c.93.57,2.83.47,3.76,1,.42.23.49.45.14.7-1.15.82-4.38,0-5.47.09-.62,0-3.74.84-4.37,1.57a.35.35,0,0,0,0,.55c.07.06.1.06.28,0a36,36,0,0,1,4.75-.34c2.1.26,5.77,2,7.16,2,.71,0,1.74-.07,1.75.4a.62.62,0,0,1-.26.4c-.38.34-1.08.75-.88,1a.43.43,0,0,0,.27.08c1.21.1,2.47-.37,2.7.39a2.91,2.91,0,0,1,.09.35s-3.75,1.42-6.29,2.67a61.78,61.78,0,0,0-6.2,3.84c-1.41.85-10.53,5-13.81,5.68-4.54.95-6.87.59-9.26,2.92-1.78,1.74-4.7,6.91-5,9.57a12.8,12.8,0,0,0,.79,5.21,1.53,1.53,0,0,0,1.57.73,39.41,39.41,0,0,0,6.64-1.22c1.65-.58,3.94-1.82,4.63-.56s-2.47,2.14-3.67,2.39c-1.93.42-4.88.66-4.63,2.19.21,1.29,2.43,2,3.58,2.09a9.75,9.75,0,0,0,2.63-.08c2.06-.38,4.72-1.86,6.81-2.36a11.12,11.12,0,0,1,3.58-.09c4.15.6,12.6,3,14.68,3.15s4.21-.16,6.32-.26a.34.34,0,0,1,.34.13c2.24,2.07.91,4.36-.37,7.72-.94,2.47-5.3,11.79-6.29,13.46-.88,1.47-1.78,2.82-2.8,4.24a107.49,107.49,0,0,1-7.19,8.42A25.65,25.65,0,0,0,272,331c-2.86,3.7-3.74,6.59-7.42,8.79-1.7,1-4.17,1.65-6,2.44a20.27,20.27,0,0,0-4.16,2.54c-2.39,1.78-6,4.68-6,4.68s-16.27-10.37-17-11.23c-.48-.58-.81-1.12-1.27-1.71a17.59,17.59,0,0,0-11.27-6.59c-6.6-1-9.95,5.22-13.36,11.13-2.49,4.31-5.79,9.7-7.34,12.8-1.08,2.14-2,4.29-3.15,6.46-2.39,4.56-5.72,9.21-8,13.37a13.19,13.19,0,0,0-1.31,3c-.47,1.82-.25,3.87-.78,5.76s-1.85,3.67-2.54,5.33a15.08,15.08,0,0,0-.84,3.95c-.25,2.05-.55,5.05-.55,5.05ZM290.88,244.4a1.51,1.51,0,0,0,.26.93c.68,1.22,3.93,3,5.68,3.26,1.16.19,1.73,0,1.66-1.31a3.61,3.61,0,0,0-.53-1.48,60.46,60.46,0,0,0-4.64-7.08c-.29-.15-.49,2.38-1.3,3.72a11.21,11.21,0,0,0-1.13,2Z" transform="translate(-9 -133.89)"/><path class="cls-1" d="M320.88,256.72c.2.67-1,.5-1.13.47-.71-.12-3.93-.88-3.24-2.1s2.43-.67,3.1-.12a4.31,4.31,0,0,1,1.27,1.75Z" transform="translate(-9 -133.89)"/><path class="cls-1" d="M324.36,264.27c0,.14-.19.3-.37.4-.77.4-3.73-.81-4.07-1.45s.27-1.23,1.14-1.35a3.72,3.72,0,0,1,3.3,2.4Z" transform="translate(-9 -133.89)"/><path class="cls-1" d="M299.65,264.84a.63.63,0,0,1-.17.44c-.5.55-1.11-.76-1.53-1.14a3.39,3.39,0,0,0-1.56-.67c-.62-.15-1.81-.4-1.63-1,.11-.39.79-.5,1.22-.49a3.61,3.61,0,0,1,3.67,2.88Z" transform="translate(-9 -133.89)"/><path class="cls-1" d="M270.5,271.32c-.1,0-.2.06-.29,0a1.44,1.44,0,0,1-.27-.49l4.63-1.7a31.29,31.29,0,0,0,5.51-2.62c.62-.46,3.34-2.95,4-2.48s-.57,2-1.31,2.83c-3.08,3.43-5.93,3.62-11.91,4.43l-.34,0Z" transform="translate(-9 -133.89)"/><path class="cls-1" d="M291.44,268.42v.09l-.91-.07a.43.43,0,0,1-.3-.11c-.93-.76.27-2.33,1.07-2.88a7.38,7.38,0,0,1,3.89-.78c1.76.44,3.83,3.41,3.41,5.24-.22,1-.91,1.56-1.66,1.31s-2-1.83-2.83-2.54a1.85,1.85,0,0,0-1.36-.43,10.63,10.63,0,0,0-1.31.17Z" transform="translate(-9 -133.89)"/><path class="cls-1" d="M321.35,270.61l7.37.68a.53.53,0,0,1,.36.13c.55.39.93.6.71.85-.49.55-3.11.27-3.49.35-1.2.22-5.25,3.37-5.77,1a4.37,4.37,0,0,1,.35-2.35,7.33,7.33,0,0,1,.47-.7Z" transform="translate(-9 -133.89)"/><path class="cls-1" d="M258.06,278.82c.34.71-.14,1.16-.62,1.39a8.8,8.8,0,0,0-1.78,1.05c-1.34,1.13-2.39,3.08-3,1.23-.41-1.22.81-5,2.53-5.33a2.62,2.62,0,0,1,2.88,1.66Z" transform="translate(-9 -133.89)"/><path class="cls-1" d="M328.66,281c.1.24-.21.49-.32.52a9.83,9.83,0,0,1-2.64-.38c-.55-.18-2-.76-1.67-1.39s2-.91,2.53-.76a3.59,3.59,0,0,1,2.1,2Z" transform="translate(-9 -133.89)"/><path class="cls-1" d="M299.61,281.33l-4.68,5.81a.62.62,0,0,1-.3.23,6.56,6.56,0,0,1-1,.44,6.82,6.82,0,0,1-4.15-.17c-.42-.25-.21-.61.25-1,1.21-.91,3.39-1.46,5.26-2.71s3.5-3.21,4.38-3.49c.39-.13.42,0,.39.5a.46.46,0,0,1-.14.35Z" transform="translate(-9 -133.89)"/><path class="cls-1" d="M270.12,283.33c.38.76-.81,1.78-1.31,1.95a1,1,0,0,1-1.22-1.13,1.65,1.65,0,0,1,1.92-1.31,1.28,1.28,0,0,1,.61.49Z" transform="translate(-9 -133.89)"/><path class="cls-1" d="M306.29,285.46a3.38,3.38,0,0,1-1.57,3.05c-.53.3-3.46,1.38-4.11,1.05-.11-.06-.12-.16-.09-.3a41.66,41.66,0,0,1,5.6-4.15.67.67,0,0,1,.17.35Z" transform="translate(-9 -133.89)"/><path class="cls-1" d="M329.18,287.38c.21.77-.43.84-1.05.7-1-.24-4.44-1-3.93-2.1s2.6-1,3.36-.44a8.73,8.73,0,0,1,1.18,1.18,2.22,2.22,0,0,1,.44.66Z" transform="translate(-9 -133.89)"/><path class="cls-1" d="M308.12,288.86c.44.91-.82,2.37-1.34,2.8a2.3,2.3,0,0,1-.58.35,33.41,33.41,0,0,1-6.2.17c-.41-.1-.52-.26-.18-.61s3.7-.85,5.43-1.55a19.89,19.89,0,0,1,2.45-1.16c.18-.05.38-.09.42,0Z" transform="translate(-9 -133.89)"/><path class="cls-1" d="M330,294.19h-.09v.09s-.46,0-.87,0c-1.14,0-5.22-1-4.37-2.48.58-1,2.59-1,3.53-.37a10.23,10.23,0,0,1,1.45,1.49,1.05,1.05,0,0,1,.35.66,3.75,3.75,0,0,1,0,.61Z" transform="translate(-9 -133.89)"/><path class="cls-1" d="M329.88,301.09c.2.7-.76.64-1.13.56-.65-.14-5.13-1-4.29-2.45.72-1.23,2.77-1,3.63-.38a4.48,4.48,0,0,1,1.79,2.27Z" transform="translate(-9 -133.89)"/><path class="cls-1" d="M330.23,308.6c.17.32-.23.67-.32.7-.93.32-5.15-1.44-5.32-1.54-.84-.51-1.12-1-.27-1.78a3.72,3.72,0,0,1,3.64-.17,6.82,6.82,0,0,1,2.27,2.79Z" transform="translate(-9 -133.89)"/><path class="cls-1" d="M305.59,307.82a11.14,11.14,0,0,1,0,1.74,48.45,48.45,0,0,1-2,7.22,57.46,57.46,0,0,1-7.25,10.65c-2.11,2.45-4.19,4.46-4.54,3.71-.1-.21,4.39-7.4,6.9-11.36a19.52,19.52,0,0,0,2.1-4.19c1.51-4.39,1.67-7.36,3.32-9.65.3-.42.83-.61,1.07-.16a8.67,8.67,0,0,1,.41,2Z" transform="translate(-9 -133.89)"/><path class="cls-1" d="M328.92,315.33c.14.3-.23.59-.32.61-.67.17-3.47-.72-3.79-.87-1.27-.63-1.94-1.32-.84-2.1,1.32-.93,3.27-.23,4.16,1a8.7,8.7,0,0,1,.79,1.36Z" transform="translate(-9 -133.89)"/><path class="cls-1" d="M327.78,321.36c.31.78-.86.66-1.22.61-1-.14-3.7-.93-3.23-2,.39-.95,2.11-.91,2.88-.5a5.65,5.65,0,0,1,1.57,1.93Z" transform="translate(-9 -133.89)"/><path class="cls-1" d="M326,327.73a4.93,4.93,0,0,1-3.06-1.09c-.39-.45-.13-1,.7-1.18a2.14,2.14,0,0,1,1.62.35,2.74,2.74,0,0,1,1.09,1.4c0,.12,0,.24-.15.29s-.21.06-.2.15,0,.09,0,.08Z" transform="translate(-9 -133.89)"/><path class="cls-1" d="M324.72,332.71c.09.19-.09.39-.21.44-.73.35-2.56-.49-2.93-1.08-.2-.32-.09-.64.31-.84,1-.52,2.34.38,2.83,1.48Z" transform="translate(-9 -133.89)"/><path class="cls-1" d="M220.41,335s0,.36-.09.58a.42.42,0,0,1-.41.38c-1.75.41-2.91.59-3.8,0-.51-.32-.18-.79.5-1.24,1.09-.72,2.65-1.17,3.55,0a.88.88,0,0,1,.12.19c0,.09,0,.1.07.1Z" transform="translate(-9 -133.89)"/><path class="cls-1" d="M323.33,337.25a.66.66,0,0,1-.09.53c-.32.45-2.1-.34-2.5-.61s-.62-.56-.47-.91c.37-.88,1.61-.61,2.14-.14a4.92,4.92,0,0,1,.92,1.13Z" transform="translate(-9 -133.89)"/><path class="cls-1" d="M321.14,341.83c.32.43.41.81-.06.93a3.07,3.07,0,0,1-2-.76c-.3-.54.41-.83.87-.81a1.57,1.57,0,0,1,1.22.64Z" transform="translate(-9 -133.89)"/><path class="cls-1" d="M287.94,346.86c.2.28-.15.59-.21.61-.7.35-1.31-.32-2.67-1-1.8-1-6.35-1.41-7.69-1.49a32.91,32.91,0,0,0-6.12.79c-1.23.53-3.15,1.65-2.79-.18.43-2.15,6.93-2.92,8.39-3a14.36,14.36,0,0,1,10.1,3.23,7.11,7.11,0,0,1,1,1.05Z" transform="translate(-9 -133.89)"/><path class="cls-1" d="M208.26,345.12a2.63,2.63,0,0,1,0,.69,80.82,80.82,0,0,1-5.24,8.26c-.67.81-1.72,2-2.18,1.23-.58-.95,1-3.81,1.57-4.77s3.09-6.14,4.72-6.29c.67-.06,1,.07,1.13.88Z" transform="translate(-9 -133.89)"/><path class="cls-1" d="M319.22,346.83a.43.43,0,0,1-.23.56,2,2,0,0,1-1.69-.61.5.5,0,0,1,.32-.62,1.55,1.55,0,0,1,1.6.67Z" transform="translate(-9 -133.89)"/><path class="cls-1" d="M228.93,357.08c-1.64-1.53-3.85-4.09-4.07-5.85-.11-.89.15-1.21.91-1,1.23.41,5.14,5.08,4.42,6.52,0,.09-.76.76-1.26.29Z" transform="translate(-9 -133.89)"/><path class="cls-1" d="M317.21,351.58c.14.24-.14.49-.23.52a1.52,1.52,0,0,1-1.6-.67c-.13-.38.36-.69.78-.64a1.71,1.71,0,0,1,1,.79Z" transform="translate(-9 -133.89)"/><path class="cls-1" d="M249.3,357.42l-8,11.38c-.1.15-.12.16-.21.17-1.2.14.66-3.32,1.21-4.38,1.6-3.1,2.88-6,5.19-7.68.62-.45,1.9-1.1,2-.38a2.49,2.49,0,0,1-.05.53.68.68,0,0,1-.15.36Z" transform="translate(-9 -133.89)"/><path class="cls-1" d="M208.09,367.74a1.28,1.28,0,0,1,0,.44c-.09.54-1.39,2.82-2.16,3.05-.6.18-.68-.49-.55-1.13a4.06,4.06,0,0,1,1.75-2.8.65.65,0,0,1,1,.44Z" transform="translate(-9 -133.89)"/><path class="cls-1" d="M190,373.68c.17,1-1.33,4.17-2,4.54a.59.59,0,0,1-.92-.23c-.6-1.38,1-4,2.15-4.66,0,0,.65-.15.73.35Z" transform="translate(-9 -133.89)"/><path class="cls-1" d="M325.75,407.35c.19.23-.86,0-1.72-.3-2.1-.79-8.93-7.16-9.61-7.9-3.6-3.85-7.62-12-8.48-17.78-.34-2.31-.41-4.66,1.4-4.28a1,1,0,0,1,.7.55c.54,1,1.12,6.09,2,9.32s4,8.26,6.11,10.78c2.72,3.19,7.4,7,9.59,9.61Z" transform="translate(-9 -133.89)"/><path class="cls-1" d="M232.81,385.73a.8.8,0,0,1-.38.79,1.7,1.7,0,0,1-.84.09c-.5-.05-11.85-6.07-12-6.35a.71.71,0,0,1,.38-.9c1.28-.7,6.45,2,7.75,2.7.15.09,4.1,2.26,4.8,3.18a1.47,1.47,0,0,1,.26.49Z" transform="translate(-9 -133.89)"/><path class="cls-1" d="M206.2,388.49c0,.4,0,1,0,1.61,0,2,2,9.79,1.74,10.34-.12.29-.45.49-.92.23-.7-.39-1.84-2.73-2.05-3.32-.45-1.25-1.28-7.89-.43-9.78a.71.71,0,0,1,1.1-.35,1.89,1.89,0,0,1,.59,1.27Z" transform="translate(-9 -133.89)"/><path class="cls-1" d="M185.46,391.41c.22,1-.37,3.1-1.08,3.58-.52.35-1-.38-1.19-1.05s.16-3.55,1.31-3.49a1.16,1.16,0,0,1,1,1Z" transform="translate(-9 -133.89)"/><path class="cls-1" d="M290.16,435.79c.1.19-.48.12-1,0a17.2,17.2,0,0,1-3.73-2.36c-2.79-2.6-7.14-5.71-10.34-8.52a58.12,58.12,0,0,1-4.19-4.1c-.54-.57-11.2-12.44-12.24-16.38-.2-.77-.11-1.36.62-1.23a2.21,2.21,0,0,1,.91.53c1.34,1.08,10.37,12.79,15.11,17.9,2.65,2.87,7.88,7,12.37,11.31a14.53,14.53,0,0,1,2.48,2.85Z" transform="translate(-9 -133.89)"/><path class="cls-1" d="M399.6,411.1c0-.11.18-.23.32-.3,1.54-.8,1.84,6.94,1.86,8.3.12,7.88-.59,14.75-5.41,20.31-1.3,1.49-6.3,6.56-8.22,7.29-.24.1-.48.16-.63,0s-.1-.14-.15-.16h-.09c-.07,0,0-.27.09-.53.3-.82,5.4-5.81,7.6-8.6,3.15-4,4.76-11.35,4.89-16.2.1-3.42-.27-7.57-.26-10.1Z" transform="translate(-9 -133.89)"/><path class="cls-1" d="M325.51,426.53a.82.82,0,0,1-.17.57c-.43.72-4.28,2.79-4.9,3.65-1.23,1.74-.49,5.71-2.44,4.86-2.51-1.09-.49-5.87,1.69-7.77,1.13-1,4.29-2.43,5.3-1.84a1.25,1.25,0,0,1,.52.53Z" transform="translate(-9 -133.89)"/><path class="cls-1" d="M221.45,434.91a2.77,2.77,0,0,1-.17.67c-.23.5-1.07.57-1.4.47-.77-.25-1.92-2.11-2.18-2.89-.12-.34-.19-.71,0-.89s.14-.1.16-.15a.27.27,0,0,0,0-.09c0-.12.39-.09.7,0,.7.2,2.64,1.65,2.78,2.72,0,.14,0,.16.05.16Z" transform="translate(-9 -133.89)"/><path class="cls-1" d="M361.24,456.05a14.73,14.73,0,0,1-2.35,9.22c-.61.78-1.48,1.2-1.93.42a2.17,2.17,0,0,1-.08-1.34c.21-1.28.94-2.4,1.13-3.76.38-2.65-1.22-6.07.88-7.07.69-.33,1.66.39,2.09,1.45a3.74,3.74,0,0,1,.26,1.08Z" transform="translate(-9 -133.89)"/><path class="cls-1" d="M315.9,472.73c-.33,1.54-1.48,4.09-1.83,6a9,9,0,0,0-.09,2.53c.11,1.47.44,3.69-.26,4.2s-1.37-.76-1.66-2.1c-.76-3.45-.78-6.7.7-9.13.48-.8,1.93-2.62,2.73-2.14.21.13.45.43.41.61Z" transform="translate(-9 -133.89)"/><path class="cls-1" d="M303.06,503.16v.06a3,3,0,0,1-.67-.09c-.73-.25.05-1.13.45-1.48s1.79-1.07,2.05.08a.76.76,0,0,1,0,.26c0,.11,0,.14-.16.24a4.17,4.17,0,0,1-1.5.84c-.16.06-.18.06-.18.09Z" transform="translate(-9 -133.89)"/><path class="cls-1" d="M265.66,504.79c.13.22-.09.46-.21.53a2.16,2.16,0,0,1-2-.09c-.56-.55.08-.76.61-.88.76-.16,1.22-.15,1.57.44Z" transform="translate(-9 -133.89)"/><path class="cls-1" d="M290.81,505.75c.5.42.23.81-.11,1.05-1.07.77-6.47.74-7.65.79-3.36.12-6.28.19-9.17-1.23-.4-.19-1.22-.9-.88-1.51a.87.87,0,0,1,.21-.22c.1-.09.13-.1.31-.08,3.79.41,8.85,1.13,11.36,1.2,1.91.06,3.75,0,5.63-.08.17,0,.2,0,.3.08Z" transform="translate(-9 -133.89)"/><path class="cls-1" d="M241.46,506.1c.35.78-1.07,1.77-1.48,1.92a1.64,1.64,0,0,1-1.88-.35c-.79-.61-.59-1.21.3-1.66a6.33,6.33,0,0,1,2.63-.35,1.12,1.12,0,0,1,.43.44Z" transform="translate(-9 -133.89)"/><path class="cls-1" d="M333.37,526.89a1.88,1.88,0,0,1,0,.44,2,2,0,0,1-1,1.14c-.12,0-.24.06-.26.17a.24.24,0,0,0,0,.09h-.41c-.18,0-.21,0-.29-.07-.47-.34-.37-1.27-.26-1.51.31-.68,1.45-1.2,1.95-.55a.86.86,0,0,1,.11.19c0,.09,0,.1.07.1Z" transform="translate(-9 -133.89)"/><path class="cls-1" d="M322.45,531.7c-1.71,2.12-11.2,12-13.16,12.49-.24,0-.56,0-.64-.24-.15-.49.77-1.76,1-2.12.65-.87,10.24-9.88,10.79-10.13.37-.18,1.18-.59,1.54-.44s.53.31.43.44Z" transform="translate(-9 -133.89)"/><path class="cls-1" d="M300.35,548.61v-.06a2.28,2.28,0,0,1,.61,0c.45.1.57.83.44,1.17a4.83,4.83,0,0,1-2.36,1.72c-.66.13-.9-.25-.7-1s1-1.14,1.84-1.73c.15-.1.17-.11.17-.14Z" transform="translate(-9 -133.89)"/><path class="cls-1" d="M284.55,567.43l-1.13.07a.37.37,0,0,1-.33-.09,1,1,0,0,1-.35-.41c0-.09,0-.1-.07-.1h-.06a5.58,5.58,0,0,1,0-1c.09-.75,1.66-2.52,2-2.8,1-.95,2.7-1.38,3,.35.23,1.22-.68,1-1.88,1.66a.66.66,0,0,0-.3.32c-.14.34,0,.94-.18,1.34a1.75,1.75,0,0,1-.35.46.34.34,0,0,1-.33.16Z" transform="translate(-9 -133.89)"/><path class="cls-5" d="M479.5,257q.13-15.62.38-31.23L296.65,192.87l-182.51,33v6.22c.11,7.86.22,16.17.34,24.59l7.69-3.44c114.48-51.24,233.33-51.41,347.71-.51L479.5,257Z" transform="translate(-9 -133.89)"/></svg>