<svg id="Livello_1" data-name="Livello 1" xmlns="http://www.w3.org/2000/svg" xmlns:xlink="http://www.w3.org/1999/xlink" viewBox="0 0 201 201"><defs><style>.cls-1{fill:#939598;}.cls-2{fill:url(#linear-gradient);}.cls-3{fill:url(#radial-gradient);}.cls-4{fill:#fff;}.cls-5{isolation:isolate;fill:url(#radial-gradient-2);}.cls-6{fill:#221e1f;}.cls-7{fill:#700f10;}.cls-8{fill:#939496;}.cls-9{fill:none;stroke:#221e1f;}</style><linearGradient id="linear-gradient" x1="122.22" y1="406.65" x2="295.36" y2="406.65" gradientTransform="translate(720 124) rotate(90)" gradientUnits="userSpaceOnUse"><stop offset="0.01" stop-color="#d1d3d4"/><stop offset="0.53" stop-color="#f1f2f2"/><stop offset="1" stop-color="#d1d3d4"/></linearGradient><radialGradient id="radial-gradient" cx="365.42" cy="393.61" r="165.5" gradientUnits="userSpaceOnUse"><stop offset="0" stop-color="#f1f2f2"/><stop offset="1" stop-color="#7e8185"/></radialGradient><radialGradient id="radial-gradient-2" cx="312.38" cy="337.03" r="83.87" gradientUnits="userSpaceOnUse"><stop offset="0.01" stop-color="#c4523d"/><stop offset="1" stop-color="#991f22"/></radialGradient></defs><circle cx="313.36" cy="335.15" r="87.24" transform="translate(-223.97 -220.48) rotate(-2.15)"/><path class="cls-1" d="M251.19,270.62a87.91,87.91,0,1,0,62.17-25.75A87.37,87.37,0,0,0,251.19,270.62Z" transform="translate(-211.59 -232.5)"/><path class="cls-2" d="M252.14,271.57a86.59,86.59,0,1,1-25.35,61.22A86,86,0,0,1,252.14,271.57Z" transform="translate(-211.59 -232.5)"/><path class="cls-3" d="M270.71,397.62a74.78,74.78,0,0,0,12.46,5.77c7.45,2.4,20,4.58,29.46,4.12,14,.43,22.27-.94,31.09-4a72.32,72.32,0,0,0,20.5-11.64,18.06,18.06,0,0,0,3.54-3.7,68.56,68.56,0,0,0,4.21-6.91s12.32-21.89,15-46c3.37-25.09-4.55-43.79-4.55-43.79a31.28,31.28,0,0,0-2.36-5.22,52.3,52.3,0,0,0-3.82-5.54c-17.3-17.29-38.63-23.43-63.21-23.43a95.66,95.66,0,0,0-57.95,19.11,44.48,44.48,0,0,0-9.59,12.39c-3.52,7-4.88,16.34-4.88,16.34a141.19,141.19,0,0,0,1.68,40.75,125.5,125.5,0,0,0,12.13,34.7,55.92,55.92,0,0,0,5.73,8.93A40.14,40.14,0,0,0,270.71,397.62Z" transform="translate(-211.59 -232.5)"/><path class="cls-4" d="M309.86,269.12a163.1,163.1,0,0,0-28.95,3.28c-10.15,2.24-15.49,4.9-15.94,5.13a18.39,18.39,0,0,0-7.93,6.68c-2.9,4.79-3.44,11.73-3.46,12,0,.08-.66,7.39-.66,15.47,0,2,0,4.12.14,6.15a190.05,190.05,0,0,0,2.83,23.35c0,.08,1.81,11.18,4.45,21.23,2.86,10.93,6.64,21.15,6.67,21.25a16.16,16.16,0,0,0,3.62,5.58,23.54,23.54,0,0,0,6.16,4,68.47,68.47,0,0,0,13.6,4.81A119.14,119.14,0,0,0,308,400.37a172.48,172.48,0,0,0,21.62-1.06,76.67,76.67,0,0,0,16.44-4.05l0,0c.13-.06,3.27-1.45,5.69-2.79a27.86,27.86,0,0,0,3.59-2.37,14.24,14.24,0,0,0,3.79-4.34A37.2,37.2,0,0,0,362,379c.19-.55,2.6-8.13,4.62-16.46,2.81-11.54,5.26-25.21,5.28-25.35a220.52,220.52,0,0,0,2.25-22.43c0-1.5.08-3,.08-4.4a140.66,140.66,0,0,0-.76-14.57c0-.49-.65-8.14-4.5-13.1s-10.46-6.81-11.11-7a92.64,92.64,0,0,0-17.17-4.5h0A173.15,173.15,0,0,0,309.86,269.12Z" transform="translate(-211.59 -232.5)"/><path class="cls-5" d="M308.1,398.35a117.26,117.26,0,0,1-17.26-2.29,67.6,67.6,0,0,1-13.18-4.66h0a22.2,22.2,0,0,1-5.58-3.57,14.16,14.16,0,0,1-3.12-4.82c-.05-.12-3.79-10.25-6.63-21.07-2.61-10-4.4-21-4.41-21.07a187,187,0,0,1-2.8-23.1,177.61,177.61,0,0,1,.51-21.35c0-.09.53-6.77,3.18-11.14a16.73,16.73,0,0,1,7-5.88l0,0,0,0c.05,0,5.38-2.73,15.49-5a160.45,160.45,0,0,1,28.55-3.24,170.91,170.91,0,0,1,30.46,2h0a93.63,93.63,0,0,1,16.81,4.4l.05,0,.06,0c.07,0,6.64,1.85,10.1,6.3s4.08,12,4.09,12V296a137.77,137.77,0,0,1,.75,14.34c0,1.41,0,2.86-.08,4.33-.4,10.47-2.2,22.06-2.22,22.18s-2.46,13.73-5.25,25.2c-2.06,8.51-4.75,16-4.78,16.11l0,.05v.06a30.71,30.71,0,0,1-2.42,6.52,12.16,12.16,0,0,1-3.22,3.69l0,0,0,0a23.48,23.48,0,0,1-3.3,2.18c-2.3,1.28-5.38,2.65-5.51,2.7a75.43,75.43,0,0,1-15.95,3.92A170.57,170.57,0,0,1,308.1,398.35Z" transform="translate(-211.59 -232.5)"/><path class="cls-6" d="M309.89,270.81a159.3,159.3,0,0,0-28.61,3.24c-10.17,2.24-15.52,5-15.57,5l0,0a17.18,17.18,0,0,0-7.19,6c-2.67,4.42-3.2,11-3.22,11.29a177.5,177.5,0,0,0-.52,21.39,190,190,0,0,0,2.8,23.14c0,.11,1.8,11.1,4.43,21.11,2.82,10.77,6.59,21,6.63,21.1a14.6,14.6,0,0,0,3.2,4.94,22.25,22.25,0,0,0,5.68,3.63,67.09,67.09,0,0,0,13.29,4.7,114.77,114.77,0,0,0,17.3,2.3h0a169.5,169.5,0,0,0,21.34-1,75.61,75.61,0,0,0,16-3.94c.05,0,3.21-1.42,5.55-2.72a25.81,25.81,0,0,0,3.36-2.22l0,0a12.7,12.7,0,0,0,3.34-3.81,30.76,30.76,0,0,0,2.45-6.6v-.06c0-.09,2.74-7.7,4.8-16.16,2.73-11.24,5.15-24.65,5.25-25.21a223.35,223.35,0,0,0,2.22-22.23c.06-1.4.08-2.86.08-4.35a141.89,141.89,0,0,0-.74-14.38v0c0-.07-.57-7.59-4.15-12.21s-10.22-6.4-10.28-6.42h-.08a91.73,91.73,0,0,0-16.88-4.42A171.48,171.48,0,0,0,309.89,270.81ZM308.11,398h0a114.92,114.92,0,0,1-17.19-2.28,67.25,67.25,0,0,1-13.11-4.63l0,0h0a22,22,0,0,1-5.48-3.5,13.91,13.91,0,0,1-3-4.69c0-.11-3.8-10.3-6.61-21-2.62-10-4.39-20.94-4.41-21a188.56,188.56,0,0,1-2.79-23.06,177.06,177.06,0,0,1,.51-21.3c0-.07.54-6.72,3.13-11a16.43,16.43,0,0,1,6.85-5.74h0l.06,0c.06,0,5.37-2.72,15.41-4.93a159.67,159.67,0,0,1,28.48-3.23,171.08,171.08,0,0,1,30.4,2A91.51,91.51,0,0,1,357,277.87l.08,0,.07,0c.07,0,6.54,1.82,9.92,6.18s4,11.77,4,11.85V296a140.61,140.61,0,0,1,.74,14.31c0,1.48,0,2.93-.08,4.32-.39,10.4-2.19,22-2.21,22.14-.1.56-2.52,14-5.25,25.17-2,8.43-4.74,16-4.77,16.08l0,.05,0,.09a30.62,30.62,0,0,1-2.38,6.43,12.18,12.18,0,0,1-3.13,3.59l0,0,0,0a25.06,25.06,0,0,1-3.26,2.15c-2.31,1.28-5.44,2.67-5.47,2.69A75.66,75.66,0,0,1,329.35,397,167.87,167.87,0,0,1,308.11,398Z" transform="translate(-211.59 -232.5)"/><path class="cls-7" d="M278.51,391.06l-.62-.3-.33-.15-.06-.41a339.09,339.09,0,0,1-4.85-45.29c-1-23.48-.95-52.25-.86-66.19v-1l.84-.28v1c-.09,13.82-.13,42.81.86,66.43a337.28,337.28,0,0,0,4.93,45.7Z" transform="translate(-211.59 -232.5)"/><path class="cls-7" d="M281.16,392.21l-.91-.39-.08-.62c-1.17-8.44-3.23-25.65-4.21-47.66-1-23.39-.86-52.8-.7-66.17v-.75l.84-.24v.83c-.16,13.28-.36,42.82.69,66.3,1,22.5,3.14,40,4.29,48.16Z" transform="translate(-211.59 -232.5)"/><path class="cls-7" d="M300.94,273c.21,25.91.82,100.67,1,122.33l0,1.83-.84-.09,0-1.74c-.18-21.64-.79-96.21-1-122.22l0-.76.85-.07Z" transform="translate(-211.59 -232.5)"/><path class="cls-7" d="M311.89,272.66c.08,22.71.32,97.88.4,123.29v1.72h-.85v-2c-.08-25.73-.33-101-.4-123.34v-.58h.82Z" transform="translate(-211.59 -232.5)"/><path class="cls-7" d="M316.1,272.77C316,298,315.6,373.68,315.5,396v1.67l-.85,0v-1.36c.11-21.88.48-98.49.61-123.68l0-.81h.88Z" transform="translate(-211.59 -232.5)"/><path class="cls-7" d="M327.47,395.5c.6-10.13,1.74-31.62,2.21-55.93.48-24.78.26-53,.12-66.23l-.05-.85,1,.09.05,1.09c.15,13.39.35,41.33-.12,65.92-.47,24.11-1.59,45.44-2.2,55.7l-.09,1.46-1,.13Z" transform="translate(-211.59 -232.5)"/><path class="cls-7" d="M356.2,385.46a12.06,12.06,0,0,1-1.33,1.53l.41-2.17a343.89,343.89,0,0,0,5.16-40.31c1.35-19.95,1.52-47.22,1.49-62.72l0-1.49c.33.19.66.38,1,.59v2c0,15.68-.18,42.19-1.5,61.71a342.8,342.8,0,0,1-5.07,39.84Z" transform="translate(-211.59 -232.5)"/><path class="cls-7" d="M365.91,352c.73-5.84,1.4-12.4,1.87-19.32,1-15.21,1-32.45.91-43.42l0-1.83a25.18,25.18,0,0,1,1,2.89l0,1.7c.09,11,0,26.71-.94,40.73-.2,2.95-.44,5.83-.7,8.62l-.31,3.09c-.65,3.29-1.47,7.31-2.37,11.39Z" transform="translate(-211.59 -232.5)"/><path class="cls-7" d="M352.62,388.79c-.32.22-.71.48-1.14.74l.31-1.75a383.57,383.57,0,0,0,5.34-46.34c1.13-21.8,1.13-47.72,1-61l0-1.88c.29.1.63.23,1,.38l.05,1.75c.09,13.36.08,39.1-1,60.79a384,384,0,0,1-5.2,45.59Z" transform="translate(-211.59 -232.5)"/><path class="cls-7" d="M340.21,393.11c.79-8.77,2.25-26.92,3-48.82.79-24.58.79-53.71.73-67.78l0-2,1,.22v1.94c.06,14.14,0,43.15-.73,67.66-.7,21.75-2.15,39.81-2.95,48.67l-.1,1.08-1,.3Z" transform="translate(-211.59 -232.5)"/><path class="cls-7" d="M336.72,393.94c.87-7.45,2.31-21.88,2.9-40.65.86-27.32.75-61.76.64-77.7l0-1.77,1,.17,0,1.85c.11,16.06.22,50.3-.64,77.48-.59,18.48-2,32.77-2.87,40.35L337.6,395l-1.05.26Z" transform="translate(-211.59 -232.5)"/><path class="cls-7" d="M333.88,394.54c.69-7.87,1.87-23.47,2.42-42.44.78-26.51.58-60.08.39-77.59l0-1.25,1,.15,0,1.67c.18,17.67.37,50.81-.4,77.05-.54,18.68-1.69,34.09-2.38,42.1l-.13,1.45-1,.21Z" transform="translate(-211.59 -232.5)"/><path class="cls-7" d="M330.6,395.21c.58-9.2,1.68-28.41,2.16-49,.63-27.4.66-58,.64-72.26l0-1.08,1,.12,0,1.21c0,14.42,0,44.79-.64,72-.48,20.37-1.55,39.37-2.14,48.71l-.09,1.38-1,.17Z" transform="translate(-211.59 -232.5)"/><path class="cls-7" d="M327.12,273.45c0,14.64-.18,47.85-.65,76.18-.33,19.62-.94,36.76-1.3,45.65l-.08,1.81-.85.08.08-1.62c.35-8.79,1-26.09,1.31-45.93.47-28.47.61-61.87.65-76.4v-1l.85.06Z" transform="translate(-211.59 -232.5)"/><path class="cls-7" d="M323,272.77c.12,12.92.3,38.21.14,62-.17,25.79-.72,50.42-1,61l0,1.48-.86.06,0-1.26c.26-10.43.82-35.28,1-61.32.15-23.69,0-48.82-.14-61.8v-1l.84,0Z" transform="translate(-211.59 -232.5)"/><path class="cls-7" d="M319.66,272.72c.17,14.82.41,41.34.3,66.36-.11,23.27-.6,45.56-.9,57.2l0,1.21-.85,0,0-1.41c.3-11.69.79-33.88.9-57.05.11-24.89-.13-51.27-.3-66.13l0-1.08.85,0Z" transform="translate(-211.59 -232.5)"/><path class="cls-7" d="M289.91,395.14l-.87-.23-.05-.55c-.71-7.74-2.13-25.14-2.72-45.57-.75-26.06-.5-58.62-.32-74v-.67l.85-.15v.68c-.19,15.27-.44,47.95.31,74.08.6,20.69,2.05,38.27,2.74,45.82Z" transform="translate(-211.59 -232.5)"/><path class="cls-7" d="M284.21,393.38l-.9-.33-.06-.64C282,381.52,279.47,358,278.68,333c-.67-21.12-.09-44.69.3-56.54v-.87l.85-.21v.75c-.39,11.72-1,35.54-.31,56.84.8,25.32,3.35,49.16,4.62,59.8Z" transform="translate(-211.59 -232.5)"/><path class="cls-7" d="M260.24,350c-1-5.08-1.63-8.79-1.64-8.85l-.14-2.23c-.59-7.6-1.13-16.11-1.25-23.37-.15-8.58-.09-17.16,0-23.58l0-.82a25.46,25.46,0,0,1,.93-3l-.07,4.56c-.09,6.32-.14,14.56,0,22.81.16,9.18,1,20.38,1.73,29.18Z" transform="translate(-211.59 -232.5)"/><path class="cls-7" d="M267.56,377.06c-.58-1.73-1.25-3.78-1.94-6l-.52-3a217.55,217.55,0,0,1-2.8-22.64c-1.72-21.34-1.81-46-1.7-59.09l0-2.41c.27-.3.55-.58.83-.84v2.28c-.12,12.82-.07,38.14,1.69,60a241.77,241.77,0,0,0,3.47,26.53Z" transform="translate(-211.59 -232.5)"/><path class="cls-7" d="M271.7,381.55a304.55,304.55,0,0,1-5-36c-1.71-22.64-1.65-49.28-1.49-62.46l0-2.72-.86.48v2.27c-.17,13.21-.22,39.84,1.49,62.49a303.92,303.92,0,0,0,4.95,35.93l1.08,5.15c.18.21.38.42.59.63l.47.43Z" transform="translate(-211.59 -232.5)"/><path class="cls-7" d="M286.93,393.83c-.78-7.14-2.16-21.59-2.74-39-.94-28.7-1-64.52-1-79.4v-.72l-.85.17,0,.63c0,14.94.05,50.69,1,79.34.56,17.06,1.89,31.26,2.69,38.58l.06.63.88.28Z" transform="translate(-211.59 -232.5)"/><path class="cls-7" d="M269,278.71l-.86.34,0,1.29c-.28,13.39-.65,40.17.4,57.76a375,375,0,0,0,6.1,50.24l.14.75,1,.6-.19-.92a372.17,372.17,0,0,1-6.2-50.72c-1-17.71-.67-44.76-.39-58l0-1.35" transform="translate(-211.59 -232.5)"/><path class="cls-7" d="M290.42,273.45l-.85.12v.72c-.14,13.95-.33,41.54.11,65.69.43,23,1.82,43.91,2.6,54.28l.1,1.44.86.18-.09-1.28c-.78-10.21-2.2-31.38-2.62-54.64-.45-24.18-.26-51.8-.12-65.73Z" transform="translate(-211.59 -232.5)"/><path class="cls-7" d="M294,273l-.86.1v.7c-.22,11.38-.54,34.91-.07,58.34.51,26.65,1.89,51.8,2.55,62.86l.08,1.33.86.14-.09-1.46c-.67-11-2-36.2-2.56-62.89-.47-23.46-.14-47,.08-58.37Z" transform="translate(-211.59 -232.5)"/><path class="cls-7" d="M297.44,272.6l-.84.08v.71c-.09,12.21-.22,37.87.07,62.77.28,24.14,1,48,1.36,58.95l.05,1.57.84.11-.05-1.69c-.36-10.91-1.08-34.8-1.36-59-.29-25-.16-50.8-.07-62.93Z" transform="translate(-211.59 -232.5)"/><path class="cls-7" d="M304.74,272l-.88.05,0,.48c.15,22.38.65,98.67.81,123.4v1.48l.85.07,0-1.5c-.16-24.68-.66-101.18-.8-123.51Z" transform="translate(-211.59 -232.5)"/><path class="cls-7" d="M308.29,271.86l-.86,0,0,.83c0,23.68.18,100,.22,122.89v2l.46,0h.39v-2.13c0-23-.18-99.17-.22-122.83Z" transform="translate(-211.59 -232.5)"/><path class="cls-7" d="M343.06,392c1.22-10.39,3.43-31.86,4.37-57.6.69-19.16.14-44.87-.22-57.72l-.07-1.39,1,.26.05,1.42c.37,13,.91,38.44.22,57.47-.94,25.71-3.14,47.16-4.36,57.6l-.15,1.19-1.06.35Z" transform="translate(-211.59 -232.5)"/><path class="cls-7" d="M347.29,390.46c1-9,2.71-26.91,3.75-49.2,1-21.41.95-49,.83-63.7l0-1.06-1-.3,0,1.27c.13,14.61.18,42.31-.82,63.74-1,22.56-2.81,40.59-3.79,49.49l-.18,1.62,1.05-.49Z" transform="translate(-211.59 -232.5)"/><path class="cls-7" d="M350.38,388.48c1.19-8.09,2.82-21.33,3.74-38.23,1.36-25.14,1.61-57.21,1.65-71.55l0-.95-1-.34v1c0,14.16-.28,46.51-1.65,71.83-1,17.59-2.68,31.19-3.88,39.14L349,390.9l1.11-.58Z" transform="translate(-211.59 -232.5)"/><path class="cls-7" d="M359.23,378s.9-2.53,2-6.16l.43-2.82c1.37-9.35,2.83-21,3.79-33.65,1.29-16.83,1-37.32.65-49.66l-.08-2.33a12.41,12.41,0,0,0-1.06-1l.09,1.89c.37,12.11.73,33.55-.61,51-1.12,14.68-2.9,28-4.45,38Z" transform="translate(-211.59 -232.5)"/><polygon points="61.09 68.31 62.97 136.46 71.32 136.63 71.32 105.45 78.3 105.45 78.3 97.61 71.32 97.61 71.32 76.83 80.69 76.83 80.69 68.31 61.09 68.31"/><polygon class="cls-8" points="60.42 67.64 62.29 135.79 70.64 135.96 70.64 104.78 77.63 104.78 77.63 96.94 70.64 96.94 70.64 76.16 80.01 76.16 80.01 67.64 60.42 67.64"/><polygon class="cls-4" points="59.75 66.96 61.62 135.11 69.97 135.28 69.97 104.1 76.95 104.1 76.95 96.27 69.97 96.27 69.97 75.48 79.34 75.48 79.34 66.96 59.75 66.96"/><polygon points="84.95 68.31 93.82 68.31 94.32 135.78 85.63 135.78 84.95 68.31"/><polygon class="cls-8" points="84.27 67.97 93.14 67.97 93.64 135.45 84.95 135.45 84.27 67.97"/><polygon class="cls-4" points="83.6 67.3 92.47 67.3 92.97 134.77 84.28 134.77 83.6 67.3"/><path d="M311.05,300.94H330.7a89.48,89.48,0,0,1,6.55,25.13c2.09,18.22,1,42.22,1,42.22h-6.42l-1-30.66H320L320,368.29h-8.15Zm19.38,29.4a107.84,107.84,0,0,0-2.54-14.16,24.76,24.76,0,0,0-3.39-7.43h-4.89v21.33Z" transform="translate(-211.59 -232.5)"/><path class="cls-8" d="M310.38,300.26H330a89.61,89.61,0,0,1,6.55,25.13c2.08,18.23,1,42.22,1,42.22h-6.41l-1-30.65H319.33l0,30.65h-8.16Zm19.38,29.41a108.16,108.16,0,0,0-2.54-14.17,24.78,24.78,0,0,0-3.39-7.42h-4.9V329.4Z" transform="translate(-211.59 -232.5)"/><path class="cls-4" d="M309.71,299.59h19.64a89.61,89.61,0,0,1,6.55,25.13c2.09,18.22,1,42.22,1,42.22h-6.42l-1-30.66H318.66l0,30.66h-8.16ZM329.09,329a108.16,108.16,0,0,0-2.54-14.17,25.07,25.07,0,0,0-3.39-7.42h-4.9v21.32Z" transform="translate(-211.59 -232.5)"/><polygon points="124.03 69.04 147.29 69.04 147.29 75.59 140.34 75.59 139.14 136.54 130.17 136.54 131.39 75.72 123.92 75.72 124.03 69.04"/><polygon class="cls-8" points="124.71 68.36 147.97 68.36 147.97 74.92 141.01 74.92 139.81 135.87 130.84 135.87 132.06 75.05 124.6 75.05 124.71 68.36"/><polygon class="cls-4" points="125.38 67.69 148.64 67.69 148.64 74.24 141.69 74.24 140.49 135.19 131.51 135.19 132.73 74.38 125.27 74.38 125.38 67.69"/><rect class="cls-9" x="0.5" y="0.5" width="200" height="200"/></svg>