<svg id="Layer_1" data-name="Layer 1" xmlns="http://www.w3.org/2000/svg" viewBox="0 0 192.76 192.76"><defs><style>.cls-1{fill:#fff;}.cls-1,.cls-2,.cls-3{fill-rule:evenodd;}.cls-2{fill:#231f20;}.cls-3{fill:#f58220;}</style></defs><polygon class="cls-1" points="0 0 192.76 0 192.76 192.76 0 192.76 0 0 0 0"/><polygon class="cls-2" points="101.02 63.39 184.25 63.39 184.25 86.79 101.02 86.79 101.02 63.39 101.02 63.39"/><polygon class="cls-3" points="103.16 65.54 182.2 65.54 182.2 84.65 103.16 84.65 103.16 65.54 103.16 65.54"/><path class="cls-2" d="M365.6,399.27c2.33-2.41,4.74-4.83,7.15-7.15.62-.62,1.25-.71,1.78-.09l7,7.15a1.42,1.42,0,0,1,0,2.05l-7.23,7.24a.94.94,0,0,1-1.43,0c-2.41-2.42-4.91-4.74-7.33-7.24a1.27,1.27,0,0,1,.09-2Z" transform="translate(-201 -324.89)"/><path class="cls-2" d="M243,418.11c-1.25,7.86,4.2,13.4,11.34,11.61V418.11H307l6.61,8.49,7.32-8.49h18.13v42.6H321V439.9l-7.32,7-6.61-7v20.81H256.38c-34.92,0-48-18.4-46.8-42.33,1.16-22.95,21.52-36.89,44.74-36.71a66.24,66.24,0,0,1,36.71,11l-17,22.5C254.5,407,244,411.77,243,418.11Z" transform="translate(-201 -324.89)"/><path class="cls-2" d="M349.8,443.3c4.46,5.18,8.75,8.39,12.05,6.34a2,2,0,0,0,0-3.4c-6.61-3.48-11.43-5.71-13.39-9-3-5.35-2.42-10.62,2.14-14.91,3.66-3.39,8.75-4.56,16.08-4.2a58.6,58.6,0,0,1,16.43,2.68l-4.56,12.95a21.89,21.89,0,0,0-7.05-5.8c-2.06-1-4.29-1.34-5.63.62-1.61,2.32,3.31,4.73,5.9,5.81,6.87,2.76,11.79,5.8,11.79,12.23,0,7.06-3.85,11.43-11.08,13.13A43.6,43.6,0,0,1,345,457.05l4.83-13.75Z" transform="translate(-201 -324.89)"/><polygon class="cls-3" points="70.83 98.49 86.46 114.57 71.19 130.64 55.56 114.48 70.83 98.49 70.83 98.49"/><polygon class="cls-2" points="62.97 106.26 78.95 106.26 78.95 122.78 62.97 122.78 62.97 106.26 62.97 106.26"/><polygon class="cls-3" points="168.35 71.16 176.84 71.16 176.84 79.47 168.35 79.47 168.35 71.16 168.35 71.16"/></svg>