<svg id="Layer_1" data-name="Layer 1" xmlns="http://www.w3.org/2000/svg" viewBox="0 0 192.76 192.76"><defs><style>.cls-1{fill:#fff;}.cls-1,.cls-2{fill-rule:evenodd;}.cls-2{fill:#231f20;}</style></defs><polygon class="cls-1" points="0 0 192.76 0 192.76 192.76 0 192.76 0 0 0 0"/><path class="cls-2" d="M247.73,480.87h10.73v20.49H247.73v-4a2.62,2.62,0,0,0-2.61-2.84h-8.81a2.62,2.62,0,0,0-2.61,2.84v4h-9.48V480.87h9.48v3.41a2.62,2.62,0,0,0,2.61,2.84h8.81a2.62,2.62,0,0,0,2.61-2.84v-3.41Zm19.85,20.49h11.24V480.87H267.58v20.49Zm46.19-14.56c0,1-.43,1.36-1.25,1.36-1.25,0-12.93-7.29-14.11-7.29h-10.5v20.49h10.5v-8.49a1.25,1.25,0,0,1,1.32-1.37c1.41,0,4,.94,12.26,6.79,1.84,1.32,1.78,2.34,1.78,3.06h10.44V480.87H313.77v5.93Zm55.79,2.13v5c0,5.4-2.3,7.59-7.78,8.49a73.84,73.84,0,0,1-21.68,0c-5.47-.9-7.78-3.09-7.78-8.49v-5c0-6.39,4.81-8.89,9.88-8.89h17.49c5.07,0,9.87,2.5,9.87,8.89Zm-10.4-.06a3.29,3.29,0,0,0-3.3-3.29h-10a3.29,3.29,0,0,0-3.3,3.29v4.52a3.29,3.29,0,0,0,3.3,3.28h10a3.29,3.29,0,0,0,3.3-3.28v-4.52Zm25.09-93c0,43.74-58.44,57-71.34,56.5-10.7-.43-9-5.68-2.06-8s38.72-12.53,41.15-32c.9-7.23-12.39-8.17-55.62-8.26s-56.53,1-55.63,8.26c2.44,19.46,34.19,29.67,41.16,32s8.63,7.57-2.07,8c-12.9.52-71.34-12.76-71.34-56.5,0-43.92,58.44-57,71.34-56.51,10.7.43,9,5.68,2.07,8s-38.72,12.53-41.16,32c-.9,7.23,12.21,8.26,55.63,8.26,43.23,0,56.52-1,55.62-8.26-2.43-19.46-34.18-29.67-41.15-32s-8.64-7.57,2.06-8c12.9-.51,71.34,12.59,71.34,56.51Zm-146-9.37c-1.23-.54-2-.67-2.46-.37s-1,.67-2.09,1.27-1.56,1.34-.07,1.86c7,2.44,52.64,2.38,63,2.38s56,.06,63-2.38c1.49-.52,1-1.27-.08-1.86s-1.64-1-2.08-1.27-1.23-.17-2.46.37c-5.74,2.53-2.43,3.5-58.38,3.5s-52.64-1-58.38-3.5ZM380.9,397.17c.21-4.69-1.69-23-20.86-37.14a93.11,93.11,0,0,0-41.72-17.21c-4.3-.74-8.7-.37-.56,1.78,33.08,8.75,43.78,22.92,49.95,35.73s-6,12.82-14,13.1c-7.82.27-36.4.37-57.06.37s-49.24-.1-57.06-.37c-8.05-.28-20.21-.28-14-13.1s16.87-27,50-35.73c8.13-2.15,3.74-2.52-.56-1.78A93,93,0,0,0,233.2,360c-19.18,14.13-21.07,32.45-20.86,37.14.15,3.43,1.12,1.12,1.22-.19a44.66,44.66,0,0,1,11.71-25.83c1.2-1.26,1.94-.89,1,.67s-8.79,12-8.12,26,11.51,40.43,59.38,50.51c1.42.3,4.77,0,.07-1.34s-36.3-8.41-49.77-31.22c-12.66-21.46,7.38-19.07,17.44-19.29,9.09-.21,36.83,0,49.55,0h3.5c12.72,0,40.45-.2,49.55,0,10.06.22,30.1-2.17,17.43,19.29-13.46,22.81-45.07,29.88-49.77,31.22s-1.34,1.64.08,1.34c47.87-10.08,58.71-36.51,59.38-50.51s-7.23-24.44-8.12-26-.15-1.93,1-.67A44.64,44.64,0,0,1,379.68,397c.09,1.31,1.06,3.62,1.22.19Z" transform="translate(-200 -324.89)"/></svg>