<svg id="Layer_1" data-name="Layer 1" xmlns="http://www.w3.org/2000/svg" viewBox="0 0 192.76 192.76"><defs><style>.cls-1{fill:#fff;}.cls-1,.cls-2{fill-rule:evenodd;}.cls-2{fill:#231f20;}</style></defs><polygon class="cls-1" points="0 0 192.76 0 192.76 192.76 0 192.76 0 0 0 0"/><polygon class="cls-2" points="19.66 94.16 14.18 94.16 14.18 86.57 2.83 86.57 2.83 106.42 14.18 106.42 14.18 98.74 19.66 98.74 19.66 106.42 31 106.42 31 86.57 19.66 86.57 19.66 94.16 19.66 94.16"/><path class="cls-2" d="M249.66,424.72a2.84,2.84,0,1,1-5.67,0V411.46H232.65v13.45c0,2,1.73,6.4,8.23,6.4h11.88c6.5,0,8.24-4.39,8.24-6.4V411.46H249.66v13.26Z" transform="translate(-200 -324.89)"/><polygon class="cls-2" points="79.92 94.62 75.44 86.57 62.46 86.57 62.46 106.42 72.88 106.42 72.88 97.91 77.55 106.42 82.3 106.42 86.97 97.91 86.97 106.42 97.39 106.42 97.39 86.57 84.41 86.57 79.92 94.62 79.92 94.62"/><polygon class="cls-2" points="116.32 94.62 111.84 86.57 98.86 86.57 98.86 106.42 109.28 106.42 109.28 97.91 113.94 106.42 118.7 106.42 123.36 97.91 123.36 106.42 133.79 106.42 133.79 86.57 120.8 86.57 116.32 94.62 116.32 94.62"/><polygon class="cls-2" points="135.07 106.42 157.2 106.42 157.2 100.93 146.78 100.93 146.78 98.74 157.2 98.74 157.2 94.16 146.78 94.16 146.78 92.06 157.2 92.06 157.2 86.57 135.07 86.57 135.07 106.42 135.07 106.42"/><path class="cls-2" d="M387.2,418.05c0-2.47-1.56-6.59-5.95-6.59H358.67v19.85H370v-5.76l4.84,5.76h14l-6-7c2.38.09,4.3-3.75,4.3-6.22Zm-14.08,2.56H370v-4.48h3.47c2.84,0,2.56,4.48-.36,4.48Z" transform="translate(-200 -324.89)"/><path class="cls-2" d="M388.24,411.23a1.66,1.66,0,1,0,1.68,1.65,1.65,1.65,0,0,0-1.68-1.65Zm0,3a1.39,1.39,0,1,1,1.35-1.39,1.35,1.35,0,0,1-1.35,1.39Z" transform="translate(-200 -324.89)"/><path class="cls-2" d="M389,412.47c0-.37-.23-.54-.68-.54h-.73v1.91h.29V413h.34l.5.83h.33l-.55-.84a.5.5,0,0,0,.5-.53Zm-1.12.3v-.59h.4c.2,0,.42,0,.42.28s-.22.31-.47.31Z" transform="translate(-200 -324.89)"/></svg>