<svg id="Layer_1" data-name="Layer 1" xmlns="http://www.w3.org/2000/svg" viewBox="0 0 192.76 192.76"><defs><style>.cls-1{fill:#fff;}.cls-1,.cls-2{fill-rule:evenodd;}.cls-2{fill:#005baa;}</style></defs><polygon class="cls-1" points="0 0 192.76 0 192.76 192.76 0 192.76 0 0 0 0"/><polygon class="cls-2" points="8.5 113.75 15.31 113.75 15.31 121.23 27.46 121.23 27.46 113.75 34.18 113.75 34.18 134.74 27.46 134.74 27.46 125.91 15.22 125.91 15.22 134.66 8.5 134.66 8.5 113.75 8.5 113.75"/><polygon class="cls-2" points="34.94 113.75 41.57 113.75 48.54 121.83 55.43 113.75 61.97 113.75 51.86 126.58 51.86 134.74 45.14 134.74 45.14 125.99 34.94 113.75 34.94 113.75"/><path class="cls-2" d="M263.82,438.64h6.72v16.24h10.79c1.7,0,2.81-1.7,2.81-3.49V438.64h6.71v16.75c0,2.63-3,4.16-4.67,4.16H263.82V438.64Z" transform="translate(-201 -324.89)"/><path class="cls-2" d="M292.3,438.64h22.36a4.49,4.49,0,0,1,4.76,4.89v16.06l-6.72,0V446.88c0-1.78-.59-2.84-2.89-2.84H299.69v15.64H292.3v-21Z" transform="translate(-201 -324.89)"/><path class="cls-2" d="M321.46,438.64H341c3.91,0,6.93,3.14,6.93,5.57v9.65c-.05,1.69-2.43,5.77-5.4,5.77H321.46v-21ZM328.3,455h10.32a2.53,2.53,0,0,0,2.63-2.47v-6.12c0-1.48-1.22-2.37-2.79-2.37H328.3v11Z" transform="translate(-201 -324.89)"/><path class="cls-2" d="M356.22,438.55h21v21.08H369.7V454.2H356.82v5.43h-7.57V446a7.26,7.26,0,0,1,7-7.4Zm.51,7.49v3.39h12.92v-5.35H358.77a1.86,1.86,0,0,0-2,2Z" transform="translate(-201 -324.89)"/><polygon class="cls-2" points="177.54 113.71 184.25 113.71 184.25 135.38 177.54 135.38 177.54 113.71 177.54 113.71"/><path class="cls-2" d="M297.79,377.86c-27.87,0-50.46,11.15-50.46,24.91s22.59,24.91,50.46,24.91,50.45-11.16,50.45-24.91-22.59-24.91-50.45-24.91ZM293,383.4c5.76-2,22.87,0,29.52,3.19,2.12,2-9.49,8.6-23.31,11.44-19.77,4-10.38-11.26-6.21-14.63Zm-33.95,29.52c-4.34-3.1-12.85-12,1.25-21.18a47.24,47.24,0,0,1,16.75-6.39c2.48-.53,4.25.09,2,1.95-4.69,4.88-14.44,21-15.33,24.55-.71,2.4-2.13,3-4.7,1.07Zm40.6,10.28c-8.33.88-26.86-1.86-27.21-4.25.35-5.77,29.42-15.34,34.65-10,2.22,4.16-2,14-7.44,14.27ZM342,406.44c-2.12,4.88-9.3,10.38-24.37,14.1-2.31.53-3.1-.89-1.6-2.22,2.49-1.5,14.45-21.53,16-25.52.88-2,2.57-1.24,3.63-.45,4.79,3.11,8.42,8.16,6.38,14.09Z" transform="translate(-201 -324.89)"/></svg>