<svg id="Layer_1" data-name="Layer 1" xmlns="http://www.w3.org/2000/svg" viewBox="0 0 192.76 192.76"><defs><style>.cls-1{fill:#fff;}.cls-1,.cls-2{fill-rule:evenodd;}.cls-2{fill:#231f20;}</style></defs><polygon class="cls-1" points="0 0 192.76 0 192.76 192.76 0 192.76 0 0 0 0"/><path class="cls-2" d="M326.35,410.41a10.72,10.72,0,0,0,6.48,2.81l3.78.25c2.78.19,3.35,1.54,3.35,1.54,2.41,4.23,8.44,6.52,8.44,6.52-3.84-2.21-6.62-7.1-6.62-7.1-1.82-2.68-6.23-2.68-6.23-2.68H333a19.91,19.91,0,0,1-6.61-1.34Z" transform="translate(-201 -324.89)"/><path class="cls-2" d="M354.11,423.12a15.24,15.24,0,0,0-4.43-1.08,11.16,11.16,0,0,1,3.19,1.53c1.79,1.09.58,3,.58,3-1.52,2.68-7.46,1.34-7.46,1.34,6.33,4.22,9,1.06,9,1.06,1.63-2,1.24-2.91.8-4.13,0,0,5.75,1.86,11.69-3.64,0,0-6.39,5.11-13.35,1.92Z" transform="translate(-201 -324.89)"/><path class="cls-2" d="M245.64,378.11s-3.74.44-5.53.41c0,0-.38.07-.38.32,0,0,.12.45.92.45,0,0,3.32-.1,5-1.18Z" transform="translate(-201 -324.89)"/><path class="cls-2" d="M284.61,405.5a115.1,115.1,0,0,0,13.36,0,9.74,9.74,0,0,1,3.07.22c3.73.55,4.31,2.3,4.31,2.3S312,421.67,325,421.33l6.15,0c5.56,0,13,5.46,13,5.46-1.53-1.15-4.66-4.15-4.66-4.15-4-3.52-10.36-3.55-10.36-3.55l-6.48,0c-12.33-.12-15.56-11.24-15.56-11.24a5.7,5.7,0,0,0-5.27-3.26c-.29,0-.56,0-.83,0-12.15.61-16.12-.36-16.12-.36a37.84,37.84,0,0,1-8-3.19,8.76,8.76,0,0,0-.58-5.05s4.48,1.79,8.57.83a39,39,0,0,1-11.25-5s2.23,6.45.38,8.88c0,0-1.21,4.47-12.33.83a27.81,27.81,0,0,0-8.18-1.79s-2.88.13-2.88,1.6a1.18,1.18,0,0,0,.7,1,1.48,1.48,0,0,1,.32,1.85,2.07,2.07,0,0,0,.83-2s-.13-.64.45-.77c0,0,1.53-.64,5.88,1,0,0,7,3.2,11.06,3.2,0,0,4.34-.26,5.94-2.18a37.06,37.06,0,0,0,8.84,2.09Z" transform="translate(-201 -324.89)"/><path class="cls-2" d="M234.44,394.3a3.93,3.93,0,0,0,2.63-1.32,12.18,12.18,0,0,1,7.48-3.59c5.63-.39,12.49,5.08,12.49,5.08-4.84-6.45-10-6.88-10-6.88a2.57,2.57,0,0,1-1.77-1.54c-1.63-3-3.48-3.14-3.48-3.14a5.17,5.17,0,0,1,.82,2.95c0,3.14-4.7,3.6-4.7,3.6-1.87,3.69-3.44,3.47-3.44,3.47a1.11,1.11,0,0,1-1.06-.48c-.19-.28.13-.54.13-.54a9.69,9.69,0,0,0,1-.73c3.2-2.47,3.23-5.24,3.23-5.24a3.42,3.42,0,0,0-3.13-3.3,2.2,2.2,0,0,0-1.79.77c-.48.58-1.73,2.81-1.73,2.81-.93,1.54-1.76,1.31-1.76,1.31a2.41,2.41,0,0,1-1.79-.89l-.1-.12a1,1,0,0,1-.09-1,6.26,6.26,0,0,1,3.77-2.43l.26-.08a4.28,4.28,0,0,0,.48-.14h0c3.31-1.17,3.59-2.9,3.59-2.9a4.58,4.58,0,0,0-2.18-.61,3.22,3.22,0,0,0-2.68,2.11l-.48-.5s-.22-.27.12-.58c0,0,1.51-1.86,7-2.69a39.46,39.46,0,0,1,10.42,0s-3.65,3.8-8,2.2c0,0-.07,1.41,3.77,2.11,0,0,4,.42,9.1,5.27,0,0-1.34-2.94-5.68-6.26a.32.32,0,0,1,0-.54,6.48,6.48,0,0,1,4.41-2.14s13.07.67,20.42,8.34a10.85,10.85,0,0,0-1.37-3.14s-.23-.22-.1-.38c0,0,.1-.32,1.38-.06,0,0,4.66.76,15.49,4.73l11.73,4.18s4.09,1.5,6.36,2.53c0,0-4.57-.16-7,1.08,0,0-.1.07-.05.15s0,.09.23.05a12.53,12.53,0,0,1,7.56.57,31.44,31.44,0,0,1,6.79,3.95s2,1.77,3.34,3.21a40.28,40.28,0,0,0,6.52,4.84s-2.83-2.68-5.18-5.18c0,0-3.36-4-4.89-5.37,0,0,11.57,5.43,22,11.32,1.87,1.05,7.91,4.55,7.91,4.55A85.78,85.78,0,0,0,354,419.59a11.11,11.11,0,0,0,9.59-.13l.21-.09c2.81-1.46,3.45-1,3.45-1a1.63,1.63,0,0,1,1,2c1.22-1.25,1.11-1.92,1.11-1.92,0-2.14-2.38-2-2.38-2a19.78,19.78,0,0,0-3.9,1.93l-.38.24c-3.39,1.76-8.11.13-8.11.13a83.82,83.82,0,0,1-11.74-5.89s-10.74-6.37-20-11c0,0-11.55-6-27-12.7,0,0-29.53-13.66-51.29-13.66,0,0-11.28-.15-15.1,4.19a2.17,2.17,0,0,0-.34,1.25.32.32,0,0,1-.09.31,16.43,16.43,0,0,0-3,2.68,1.49,1.49,0,0,0-.15,1.87s.48.77.91,1.34h0a3.72,3.72,0,0,0,3,1.56,1.69,1.69,0,0,1,.72.12,3.58,3.58,0,0,0,1,.58h.8a.25.25,0,0,0,.19-.17,4.21,4.21,0,0,0-.15-.72,1.67,1.67,0,0,1-.26-1.32,4.7,4.7,0,0,1,.93-2.06,1.4,1.4,0,0,1,1.78-.07s1.82,1.58.89,3.47c0,0-.77,1.44-1.61,1.44a.91.91,0,0,1-.84-.29l-.55-.07s-.17,0-.17.15l0,.4a.59.59,0,0,0,.12.36.49.49,0,0,1,0,.6,1.1,1.1,0,0,0-.26,1.18s.48,2,2.11,2Zm-.63-13.86a2.51,2.51,0,0,1-2.23,1.09,1.66,1.66,0,0,1,2.23-1.09Zm-4.29,1.44c.55-.21.63.1.63.1,0,.26-.29.36-.29.36a13.63,13.63,0,0,0-2.76,2.33c-.21.23-.36.11-.36.11-.26-.24,0-.55,0-.55a17.3,17.3,0,0,1,2.78-2.35Z" transform="translate(-201 -324.89)"/><path class="cls-2" d="M259.09,388c-3.07,4.35-.64,7.42-.64,7.42-8.24-.26-10.61,2-10.61,2-4,3.13-2.56,6.77-2.56,6.77,2.31,3.65,5,1.09,5,1.09-3.83.77-3.77-2.62-3.77-2.62.83-5.88,8.5-5.62,8.5-5.62,6.58,0,16.81,1.85,16.81,1.85-7.74-1.79-10.1-3.71-10.1-3.71-3.26-2-2.62-7.22-2.62-7.22Z" transform="translate(-201 -324.89)"/><path class="cls-2" d="M320,451.07a17.94,17.94,0,0,0,.38-4.37V435.45h-2.49v12.1a15.1,15.1,0,0,1-.28,3.18c-.69,3.35-3.23,4.59-7,4.59-1.8,0-3.94-.42-5.18-1.86-1.08-1.22-1.31-2.89-1.31-5.67V435.45H300V448c0,2.56.27,5,2,6.7s4.81,2.36,8.42,2.36c5.31,0,8.49-1.78,9.51-6Z" transform="translate(-201 -324.89)"/><path class="cls-2" d="M348.23,456.59H353l-10.32-21.14h-2.51l-10.55,21.14h2.56l2.86-5.94h10.49l2.66,5.94Zm-7.78-17.13,4.45,9.75h-9.13l4.68-9.75Z" transform="translate(-201 -324.89)"/><path class="cls-2" d="M252,456.59h4.81l-10.32-21.14H244l-10.55,21.14H236l2.85-5.94h10.49l2.66,5.94Zm-7.78-17.13,4.45,9.75h-9.13l4.68-9.75Z" transform="translate(-201 -324.89)"/><path class="cls-2" d="M278.8,457.06a22.31,22.31,0,0,0,8.34-1.57v-8.62h-4v7.72a14.23,14.23,0,0,1-4.56.74c-5.38,0-8.88-3.68-8.88-9.06,0-5.95,4-9.54,9.71-9.54a12.28,12.28,0,0,1,7.07,2.47v-2.51a17,17,0,0,0-7.36-1.64c-4,0-8.18,1.2-10.95,4.2a11.17,11.17,0,0,0-2.94,7.28c0,8.12,6.63,10.53,13.61,10.53Z" transform="translate(-201 -324.89)"/><path class="cls-2" d="M377.2,456.59h4.66L375.64,448a6.51,6.51,0,0,0,4.66-6,6,6,0,0,0-1.4-4.17c-1.72-1.91-4.83-2.36-7.93-2.36h-7.65v21.14h4v-8.12h4.24l5.6,8.12Zm-6.86-19.68c3.24,0,5.83,1.36,5.83,4.93a4.83,4.83,0,0,1-1.71,4A6.67,6.67,0,0,1,370,447h-2.6V436.91Z" transform="translate(-201 -324.89)"/><path class="cls-2" d="M216.34,460.93c3.67-1.8,5.18-5.58,5.18-9.48v-16h-4.05v13.29a45.77,45.77,0,0,1-.23,5.61,9.5,9.5,0,0,1-4.34,7.42,8.19,8.19,0,0,0,3.44-.84Z" transform="translate(-201 -324.89)"/></svg>