<svg id="Layer_1" data-name="Layer 1" xmlns="http://www.w3.org/2000/svg" viewBox="0 0 192.76 192.76"><defs><style>.cls-1{fill:#fff;}.cls-1,.cls-2{fill-rule:evenodd;}.cls-2{fill:#005da1;}</style></defs><polygon class="cls-1" points="0 0 192.76 0 192.76 192.76 0 192.76 0 0 0 0"/><path class="cls-2" d="M251.31,422.69c0,16.63-7.66,23-23,23-15.53,0-22.32-8.53-22.32-21.66v-8.31h16.85v6.78c0,4.6,0,9,5,9,4.81,0,4.6-5.91,4.6-8.53V384.19h18.81v38.5Z" transform="translate(-200 -324.89)"/><path class="cls-2" d="M268.16,417.44c.65-4.6,3.28-7.22,7.65-7.22a6.92,6.92,0,0,1,6.79,7.22Zm29.09,8.75c0-17.06-7-26.69-22.75-26.69-12.69,0-21,10.28-21,23,0,14.66,9.62,23,22.31,23,9.19,0,17.51-4.37,20.57-13.78H282.16a7.79,7.79,0,0,1-6.35,3.06c-4.81,0-7.44-3.5-7.87-8.53Z" transform="translate(-200 -324.89)"/><path class="cls-2" d="M313,417.44c.66-4.6,3.29-7.22,7.66-7.22a6.91,6.91,0,0,1,6.78,7.22Zm29.1,8.75c0-17.06-7-26.69-22.75-26.69-12.69,0-21,10.28-21,23,0,14.66,9.62,23,22.31,23,9,0,17.5-4.37,20.57-13.78H327a7.79,7.79,0,0,1-6.35,3.06c-4.81,0-7.44-3.5-7.87-8.53Z" transform="translate(-200 -324.89)"/><path class="cls-2" d="M358.29,422.47c0-5.25,1.1-10.72,6.56-10.72s6.79,5.47,6.79,10.72c0,5-1.32,10.72-6.79,10.72s-6.56-5.69-6.56-10.72Zm-14.66,35.88h15.1V439.54H359a12.5,12.5,0,0,0,10.94,5.9c13.34,0,16.84-12.47,16.84-22.75,0-10.94-5.25-23.19-16.62-23.19-7.44,0-9.85,3.06-11.82,5.91h0v-4.82H343.63v57.76Z" transform="translate(-200 -324.89)"/><path class="cls-2" d="M380,450.69a3.07,3.07,0,1,1,6.13,0,3.07,3.07,0,1,1-6.13,0Zm-.87,0a3.88,3.88,0,0,0,3.93,3.72,3.83,3.83,0,0,0,3.72-3.72A3.69,3.69,0,0,0,383,447a3.74,3.74,0,0,0-3.93,3.72Zm2.4,2.19h.66v-2H383l1.1,2H385l-1.31-2c.66,0,1.09-.44,1.09-1.31,0-.66-.43-1.09-1.53-1.09h-1.75v4.37Zm.66-3.94h1.09c.44,0,.88.22.88.66,0,.66-.66.87-1.1.87h-.87v-1.53Z" transform="translate(-200 -324.89)"/></svg>