<svg id="Layer_1" data-name="Layer 1" xmlns="http://www.w3.org/2000/svg" viewBox="0 0 801.76 402.34"><defs><style>.cls-1,.cls-2{fill:#c41230;}.cls-2{fill-rule:evenodd;}</style></defs><path class="cls-1" d="M583.91,219.77C362.51,219.77,183,309.84,183,420.94S362.51,622.12,583.91,622.12s400.88-90.07,400.88-201.18S805.31,219.77,583.91,219.77Zm0,377C388.76,596.78,230,517.89,230,420.94S388.76,245.13,583.91,245.13,937.82,324,937.82,420.94,779.06,596.78,583.91,596.78Z" transform="translate(-183.03 -219.77)"/><path class="cls-2" d="M544.93,330.73h6.46a4,4,0,0,1,4,4V518.67a4.25,4.25,0,0,0,4.31,4.3H607.9a4.26,4.26,0,0,0,4.33-4.3V322.72a4.33,4.33,0,0,0-4.33-4.32h-63c-.63,0-.63.59-.63,1.06v10.22C544.3,330.12,544.3,330.73,544.93,330.73Z" transform="translate(-183.03 -219.77)"/><path class="cls-2" d="M653.51,523h47.28a6.59,6.59,0,0,0,5.67-4.25l40.33-127s.47-1.76,2-1.76,1.92,1.75,1.94,1.76l40.76,127a6.56,6.56,0,0,0,5.7,4.25h47.26a3.7,3.7,0,0,0,3.12-1.5,4.5,4.5,0,0,0,.72-3.77l-65.8-196.44c-1-2.54-3.59-2.86-5.71-2.86H701.26a1.12,1.12,0,0,0-1.07,1.06v10.22a1.13,1.13,0,0,0,1.07,1.05h5.56c2.41,0,4,1.41,4,3.52a7.07,7.07,0,0,1-.47,2.32l-60.7,181.14a4.37,4.37,0,0,0,.72,3.75A3.81,3.81,0,0,0,653.51,523Z" transform="translate(-183.03 -219.77)"/><path class="cls-2" d="M331.8,330.73a4,4,0,0,1,4.05,4V518.67a4.24,4.24,0,0,0,4.29,4.3H387a4.3,4.3,0,0,0,4.28-4.3V441.33c0-1.69.77-2.66,2.14-2.66a3.49,3.49,0,0,1,3,2,2.61,2.61,0,0,0,.19.27l55.15,77.37c1.78,2.68,5,4.69,7.51,4.69h55.59a4.09,4.09,0,0,0,2.91-6.71c-.17-.25-69.7-98.58-70.41-99.57-.2-.31-.29-.5-.43-.72a3.44,3.44,0,0,1-.35-.88,3,3,0,0,1-.12-.67,6.23,6.23,0,0,1,.85-2.57l0-.11,58.84-87.11a4.08,4.08,0,0,0,0-4.15,3.9,3.9,0,0,0-3.4-2.08H450c-2.5,0-5.75,2-7.56,4.69L396.52,388c-1.43,2.13-2.83,2.24-3.1,2.24h0a2,2,0,0,1-2.14-2.17V322.72A4.31,4.31,0,0,0,387,318.4H325.32a1.11,1.11,0,0,0-1.07,1.06v10.22a1.12,1.12,0,0,0,1.07,1.05Z" transform="translate(-183.03 -219.77)"/></svg>