<svg id="Livello_1" data-name="Livello 1" xmlns="http://www.w3.org/2000/svg" viewBox="0 0 192.76 192.75"><defs><style>.cls-1{fill:#e6e7e8;}.cls-2{fill:#acafb2;}.cls-3{fill:#01336b;}.cls-4{fill:#8d9093;}.cls-5{fill:#5f6269;}.cls-6{fill:#101a4b;}.cls-7{fill:#fff;}.cls-8{fill:none;}</style></defs><path class="cls-1" d="M420.36,394.41c-1.91-.72-15.88-7.52-19.64-9.57-26.06-14.16-43.4-31.18-57.53-56.46-9.55-17.08-14.64-35.3-16.31-58.38-.38-5.2-.19-22.35.31-28.4l.22-2.64,3.8-2.9c13.82-10.57,30.25-19.59,44.7-24.54a153.39,153.39,0,0,1,28.27-6.47c7.43-1,25.31-1.1,32.53-.16,17.35,2.26,30.6,6.15,45.24,13.29a169.51,169.51,0,0,1,31.64,20.12l1.2,1,.38,6.77c.47,8.37.21,24.6-.5,30.82a138,138,0,0,1-5.51,27,97.58,97.58,0,0,1-7.74,19.57A135.36,135.36,0,0,1,475.21,360c-12.72,12.7-24.93,20.91-45.82,30.81-7.75,3.68-8.27,3.88-9,3.6Zm-67-66.85c-.37-.6-1.71-3.19-3-5.75a130.42,130.42,0,0,1-13.11-45,266.26,266.26,0,0,1-.57-28.73l.29-3.8L336.1,243c-1.15-1.6-1.15-1.73,0-2a8.82,8.82,0,0,0,2.56-1.45A164.86,164.86,0,0,1,356.27,228c8.1-4.38,8.72-4.6,26.45-9.52,7.08-2,13.1-3.42,17.67-4.29,3-.57,4.37-1.14,2.72-1.14a1.51,1.51,0,0,1-1.09-.35c-.34-.56.79-1.2,3.82-2.14a19.65,19.65,0,0,0,3.1-1.15c.6-.58-1.59-.73-5.38-.37-19.42,1.85-40.66,9.83-59.31,22.29l-8.85,5.92-3.9,2.61,1.34,1.24c1.23,1.13,1.32,1.33,1.09,2.36-.39,1.75-.23,21.37.21,26.72a136.16,136.16,0,0,0,6.2,31.7c3.14,10.15,8.22,20.66,12.48,25.81,1.2,1.46,1.51,1.39.58-.12ZM496.57,320c4.44-8.82,6.54-14.24,8.36-21.63.92-3.77,1.64-9.15,1.16-8.71a58.61,58.61,0,0,0-1.68,5.78c-3.16,12.18-5.52,18.73-10,27.69-1.35,2.73-2.16,4.59-1.79,4.13s2.13-3.72,3.91-7.26Zm-130-63.72c0-.18.28-.47.63-.66a5.26,5.26,0,0,0,1.4-1.58,42.43,42.43,0,0,1,3.28-4c7-7.88,13.67-12.89,22.31-16.88a62.61,62.61,0,0,1,11.68-4.1,34.39,34.39,0,0,0,4.77-1.5,2,2,0,0,1,1.15-.32c.81,0,.8-.05-.26-.57s-1.29-.51-4.62.18a65.64,65.64,0,0,0-33.31,18.36c-3.25,3.4-7,8.2-8.1,10.45a15.64,15.64,0,0,1-1.21,2.06c-.31.39-.34.58-.08.58s.38.24.38.54.4,0,1-.82a6.61,6.61,0,0,0,1-1.69Z" transform="translate(-324.34 -202)"/><path class="cls-2" d="M415.41,391.56c-12.53-5.91-20.29-10.15-27.9-15.24-19.36-13-34-29.52-45.52-51.35a131.83,131.83,0,0,1-12.93-40.13c-1.58-10.07-1.92-16.17-1.68-30,.12-6.9.3-13.19.41-14,.18-1.34.4-1.6,3.37-4,15.17-12.08,34.91-22.23,52.69-27.1a140.43,140.43,0,0,1,72-.64c19.28,4.81,40.27,15.75,58.17,30.31,1,.83,1.25,26.14.31,35.68a137.17,137.17,0,0,1-5.81,29.21c-3.76,12.53-8.32,22-16.65,34.52A118.47,118.47,0,0,1,475,359.5c-11.38,11.37-22.86,19.41-39.78,27.87C427.94,391,421.52,394,421,394c-.24,0-2.73-1.1-5.55-2.43Zm13.95-4.92c8.91-4.51,12.42-6.56,14.42-8.43l10.92-6L473,358.9l24.43-33.06,12.87-35.94,2.34-29.28-1.35-19.42L492,226.71l-23.64-11.19c-6.63-3-20.94-6.68-32.51-8.27-5.94-.83-21-1-27.63-.36-13.74,1.38-26.53,4.45-36.82,8.83-12.5,5.33-19.32,9.07-31.8,17.43-8.57,5.75-8.93,6-9.15,7.22-.12.68-.32,5.09-.45,9.82-.73,27.87,4,51.66,14.22,72.14,16.17,30.95,43.27,56.31,76.52,68,.94,0,3-.89,8.59-3.71Z" transform="translate(-324.34 -202)"/><path class="cls-3" d="M415.08,378.44c-17.58-9.13-28-16.4-38.32-26.7a121.51,121.51,0,0,1-22.41-29.94c-11.28-20.56-15.62-43.42-13.67-72.05l.2-3.08,3.17-2.39c14.69-11.09,30.21-18.94,45.11-22.82a110.5,110.5,0,0,1,31.53-4,109.57,109.57,0,0,1,28.24,3.09c13.5,3,28.14,9.53,41.28,18.32,5.4,3.61,10.56,7.53,10.86,8.25.17.4.32,6.81.33,14.25,0,12.36,0,14-.72,19-2.79,20.27-8.42,35.3-19.43,51.85A126.48,126.48,0,0,1,438,372.37c-3.51,2-15.84,8.59-16.67,8.89-.28.1-3.1-1.17-6.28-2.82Z" transform="translate(-324.34 -202)"/><path class="cls-1" d="M428.22,358.31a68.39,68.39,0,0,0,33.18-12.94,86.21,86.21,0,0,0,11.89-11.47,69.94,69.94,0,0,0,14-29.56c.85-4,.91-4.79.92-12.71,0-7.34-.09-8.91-.72-12.22A68.14,68.14,0,0,0,454,232.62a70.44,70.44,0,0,0-21.91-7.72,83.58,83.58,0,0,0-20.15-.36,68.09,68.09,0,0,0-42,22.68,66.89,66.89,0,0,0-13.79,62.9,68.17,68.17,0,0,0,35.66,42,74.09,74.09,0,0,0,21.63,6.2,90.17,90.17,0,0,0,14.79,0Zm-17.1-8.39c-20.46-3.45-38.22-17.64-45.59-36.42a54.4,54.4,0,0,1-4.18-20.17,53.53,53.53,0,0,1,1.55-16.07c5.79-23,23.54-40,46.35-44.38,5.07-1,5.43-.95,6,.52,1.38,3.31,2.65,10.17,3.92,21.24.53,1-.14,8.65,2.07,7.72.42-.26.64-1.05.82-3,1.34-13.8,3.49-25.25,5.06-26.86.4-.42.89-.41,3.85.06a58.58,58.58,0,0,1,32.28,16.76,53.9,53.9,0,0,1,10.55,14.23,57,57,0,0,1,6.86,29.77,53.26,53.26,0,0,1-2.07,13.71,59.53,59.53,0,0,1-44.42,42.12c-2.08.46-4.48.93-5.35,1l-1.58.22-.53-1.26c-1.57-3.76-3.58-14.84-4.41-24.38-.2-2.35-.44-4.55-.53-4.86-.17-.59-1.27-.81-1.58-.31-.09.15-.55,3.65-1,7.77-1.4,12.35-3.3,21.93-4.51,22.7-.54.34-.44.34-3.59-.19Z" transform="translate(-324.34 -202)"/><path class="cls-4" d="M415.41,354.18c-.27-.07-2.28-.26-4.46-.44a45.3,45.3,0,0,1-12.29-2.93c-1.88-.73-4.84-2.37-4.64-2.57a13.77,13.77,0,0,1,2.75.9c6.37,2.49,8.75,3,15.34,3.23,4.77.18,6.39.36,7.4.81s1.19.65.83.88a15.14,15.14,0,0,1-4.93.12Zm5.95-.13c-.42-.26-.47-1.91-.39-11.47,0-6.14.44-12.49.42-14.13-.05-3.5.1-8.42-.4-8.42.32-.1.7.27.75,1,.23,3.74.43,20.29,1.55,27,.69,4.13,1.68,4.4,6.35,4.63,5.73-.24,8.87-.91,15-3.21a24,24,0,0,1,3.74-1.23c.29.29-3,1.95-5.94,3a52.72,52.72,0,0,1-13.62,2.8c-5.21.43-6.79.44-7.43,0Z" transform="translate(-324.34 -202)"/><path class="cls-4" d="M421,261.91c.49,0,.75-5.64.39-8.59-.53-4.4-.63-24.63-.12-25.14.71-.71,8.7.14,14.12,1.51a54.62,54.62,0,0,1,13.7,5.18c3.65,1.89,7.15,4.16,6.86,4.44a37.61,37.61,0,0,1-4.73-2.17,50.93,50.93,0,0,0-14.91-5.28c-2.69-.56-6-1.31-7.41-1.66-3.26-.84-4.09-.82-5.09.1-.72.67-.85,1.18-1.13,4.38a23,23,0,0,0,.09,6.23c-.08,5,1.05,7.88-1.77,21Z" transform="translate(-324.34 -202)"/><path class="cls-5" d="M415.08,390.9c-12.14-5.77-19.19-9.59-26.42-14.32-17.57-11.52-31.18-26.06-42.56-45.49-10.54-18-16.23-37-17.89-59.77-.41-5.52-.2-27.34.28-30.21s.69-.72.4,4.14c-1.82,29.64,3.46,58.16,14.62,79.07,10.47,19.62,23.12,34.4,39.94,46.65,6.76,4.93,18.53,11.83,31,18.15,5.34,2.72,6.62,3.25,7.52,3.11a38.71,38.71,0,0,0,5.28-2.09c9-4.07,16.7-8.38,19.76-11,.83-.71,4.56-3.47,8.29-6.12s8.52-6.27,10.65-8.06c18.56-15.55,33.69-38.17,40.62-60.74,4.34-14.16,6.63-30.76,6.61-48.05,0-7.2-.42-15-.84-16.11-.17-.44,0-.56.61-.56s.85.16,1,1.56c.51,3.93.8,18.52.52,25-.65,14.77-2.25,24.49-6.14,37.43a98.35,98.35,0,0,1-7.74,19.67c-7.91,15.63-18.55,29.95-29.67,39.94-10.81,9.72-19.88,15.74-35.55,23.57-6,3-14.32,7-14.47,7l-5.82-2.76Zm-.24-5.81c-8.76-4.56-20.32-12-24.06-15.4-1.46-1.35-1.45-1.34,3.67,1.85,4.95,3.09,11.49,6.67,19.06,10.45l7.18,3.58,4.54-2.26c15.1-7.49,24.62-13.37,33.66-20.8a131.28,131.28,0,0,0,33.25-40.45c9.5-17.6,14.07-37.23,14.08-60.48,0-6.32-.6-17.25-1-18.37s-13.65-10.42-20.76-14.47a168.05,168.05,0,0,0-26.76-12c-2.81-1-5.19-1.87-5.28-2-.55-.55,8,1.47,12.89,3A116.82,116.82,0,0,1,490,229.36c3.42,2.12,13.23,9.26,16.12,11.73.7.59.8,1.08,1.11,5.21a263.63,263.63,0,0,1-.51,29.51,160,160,0,0,1-8.19,35,168.27,168.27,0,0,1-10.34,21.3c-2.47,4.06-8.89,13.3-11.69,16.84-5,6.31-17.53,18-22.9,21.4-4,2.49-20.75,11.14-27.73,14.28a46.35,46.35,0,0,0-4.84,2.43,5.88,5.88,0,0,1-1.09.68c-.06,0-2.37-1.18-5.14-2.62Zm6.84-31.37c-.42-.27-.47-1.49-.38-8.33.12-8.85.68-12.08.73-4.23,0,6.31.42,10.25,1,10.71s1,1.84.43,1.84a3,3,0,0,0-.88.16,1.25,1.25,0,0,1-.94-.15Zm-6.1-.34c-.27-.43,2.47-.43,3.13,0,.36.23,0,.32-1.22.32a3.57,3.57,0,0,1-1.91-.32ZM374.14,249.77c0-.51,3.71-4.37,6.33-6.59a63.39,63.39,0,0,1,20-11.28c6.38-2,18.26-4.22,18.26-3.37,0,.2,0,.36-.12.36a85.64,85.64,0,0,0-11.43,2.64,78,78,0,0,0-24.44,12.28c-4.94,3.68-8.59,6.2-8.58,6Zm47.46-5c-.37-2.51-.62-14.3-.31-15.36l.28-1,3.61.12a54.9,54.9,0,0,1,13.17,2.22c2.81.81,7.11,2.56,7.11,2.89a4.13,4.13,0,0,1-1.57-.32c-3.55-1.08-16.31-4.1-18.15-4.29s-2-.13-2.2.41a12.68,12.68,0,0,1-.73,1.55c-.4.71-.57,2.57-.75,8.09-.15,4.57-.32,6.63-.46,5.68Zm-83.09,33.61c-.66-5.35-1-9.5-1.2-15.78-.23-6.62.24-17.7.78-18.25.23-.22.56,0,1,.79a3.75,3.75,0,0,1,.52,2.93,160.41,160.41,0,0,0-.82,27.88c.2,2.34.52,8.75-.32,2.43Zm168.68-42.12c-3.38-2.26-6.22-4.44-6.24-4.78,0-.53.76-.19,3.05,1.32,2.07,1.36,6.64,5.32,6.18,5.35a30.77,30.77,0,0,1-3-1.89Z" transform="translate(-324.34 -202)"/><path class="cls-4" d="M413.4,390.42C395,381.62,384.25,374.86,373,364.9a139.34,139.34,0,0,1-37.89-56.65c-6-17.55-8.44-36.32-7.51-58.39.25-6.14.54-9.78.79-10.13.6-.87,5.61-4.84,9.89-7.84a157.64,157.64,0,0,1,34.26-18.12,139.64,139.64,0,0,1,89.14-2.7c15.59,4.71,35.44,15.19,48.38,25.57a30.75,30.75,0,0,0,3.52,2.58c.84.3,1.1,5,1.09,19.72,0,13.94-.26,17.48-2,27.74a126.9,126.9,0,0,1-4.29,17.69c-3.73,12.36-8.56,22.35-16.75,34.64-13.58,20.37-29.43,34.24-53.24,46.6-7.2,3.73-16.56,8.06-17.44,8.05a62.93,62.93,0,0,1-7.52-3.24Zm14.21-1.21c5.31-2.49,8.45-4.21,9.6-5.28.45-.42,3-2.06,5.61-3.66,14.42-8.71,23.87-15.95,32.36-24.78a134.74,134.74,0,0,0,21.88-30c10.52-19.15,15.49-41.43,15.57-69.68,0-5.27-.09-10.84-.24-12.39-.27-2.75-.3-2.83-1.4-3.47-24.41-18.14-45.11-29-74.94-33.4-6.52-.85-24.1-.85-30.55,0-13.89,1.81-25.86,4.87-34.17,8.72-15.39,7.14-19.74,9.5-30.22,16.44-3.9,2.58-8,5.25-9.12,5.92l-2,1.23-.2,2.2c-.48,5.29-.62,20.6-.24,26.48,1.82,28.12,8.49,48.71,22.64,70a123.91,123.91,0,0,0,16.33,19.84c12.14,12.16,22.92,19.5,44.67,30.39,7,3.52,8.08,3.95,9.13,3.73.42-.09,2.81-1.12,5.31-2.28Zm-13-3.76a165.26,165.26,0,0,1-26.06-16.76c-4.25-3.4-11.75-10.25-11.75-10.73,0-.19.63.2,1.4.86a166.16,166.16,0,0,0,23.36,16.33c5.58,3.17,18.31,9.6,19,9.6s13.86-6.59,19-9.5c23.19-13.21,39.72-30.09,52.57-53.74A114.66,114.66,0,0,0,503.88,287a180.73,180.73,0,0,0,1.86-32.12c-.43-7.78,1.54-9.85-4.89-14.71-18.63-13.62-34.38-21-55.67-26.14-3.16-.76-6.05-1.51-6.44-1.67-1.2-.48,2-.38,6.13.2a110.18,110.18,0,0,1,48,18.08c4.3,2.85,12.7,9.21,14,10.62l.83.88v14.42c0,15.85-.22,18.77-2.16,29.31-3.1,16.88-8.44,31.71-16.19,44.92-2.06,3.51-7.62,11.72-11.49,16.95-4.62,6.26-16.68,18.14-22.92,22.6-2.39,1.7-20.34,10.86-28.24,14.4a24.13,24.13,0,0,0-5.05,2.71c-.56,1.05-2,.64-7.06-2ZM339.47,272.31l.16,3.87A112.67,112.67,0,0,0,350,317.11,144.57,144.57,0,0,0,363,338.85c1.36,1.91,3.28,4.58,4.25,5.93a111,111,0,0,0,8,8.75c3.44,3.46,5.81,5.91,5.29,5.45A121.57,121.57,0,0,1,351,320.85c-7.46-15.1-11.09-27.34-13.12-44.25-.76-6.29-.9-31.18-.18-32.43,1.48-2.59,17.45-13.24,25.5-17,3.22-1.5,9.39-3.89,10-3.87a17.87,17.87,0,0,1-3.57,1.93,140.2,140.2,0,0,0-21.78,13.09c-1.63,1.16-4.27,2.89-5.86,3.85a11.82,11.82,0,0,0-2.89,2.08l.34,28.07ZM382,360.07c-.41-.53-.4-.54.12-.13s.73.7.46.7a2.11,2.11,0,0,1-.58-.57Z" transform="translate(-324.34 -202)"/><path class="cls-6" d="M414.42,377.77c-23-11.9-37.56-23.67-50-40.41a117.66,117.66,0,0,1-21.82-49.2c-1.74-9.09-2-12.88-2-26.58,0-7,.13-13.23.26-13.87.2-1,.75-1.53,3.94-3.85,11-8,19.22-12.74,29.83-17.29,15-6.43,34.93-9.86,51.68-8.91,26.62,1.52,47.28,9.21,70.47,26.21,4,2.92,4.15,3.08,3.89,3.74-.14.37-.23.38-.55,0a15.32,15.32,0,0,0-1.86-1.51L494,243c-1.57-1.14-3.43-2.43-4.13-2.85s-2.09-1.29-3.08-1.94c-2.36-1.56-4.55-2.73-11.74-6.27-9.11-4.49-11.14-5.44-12.21-5.69-.55-.13-2.33-.71-4-1.28a121.26,121.26,0,0,0-82.68,2.53c-3.82,1.58-12.41,5.86-16,8-6.52,3.85-16.08,10.55-17.19,12-.84,1.13-1.16,5.11-1.19,15-.05,18.46,2.86,33.93,9.24,49.05,7,16.62,21.45,35.56,36.59,48,5.33,4.39,5.83,4.78,7.66,5.93.86.55,2.71,1.77,4.12,2.73a15,15,0,0,0,3,1.73c.25,0,.45.15.45.33s.65.67,1.44,1.08a73.08,73.08,0,0,1,7.14,4,7.77,7.77,0,0,0,2.38,1.19,1,1,0,0,1,.76.32,5.84,5.84,0,0,0,1.59,1c.76.36,1.61.79,1.88,1s1.21.62,2.07,1,1.49.86,1.38,1a.6.6,0,0,1-.41.3c-.13,0-3.13-1.5-6.67-3.34Zm1-17.32-4.46-.69a25.7,25.7,0,0,1-4.52-1,5,5,0,0,0-1.82-.44c-1.27,0-8.11-2.39-11.27-3.92l-1.87-.89c-.72-.34-2.26-1.18-3.42-1.86a21.23,21.23,0,0,0-2.26-1.25,41.13,41.13,0,0,1-5.47-4.05,7.35,7.35,0,0,0-1.62-1.24,4.33,4.33,0,0,1-1.21-.9c-4.54-4.32-6.66-6.47-6.5-6.62a11.29,11.29,0,0,1,2.57,2.16c17.81,17.52,44.87,23.64,68.92,15.6a67.82,67.82,0,0,0,42.73-85.19,69.64,69.64,0,0,0-34.79-39.87c-1.19-.59-2-1.07-1.74-1.08a61.47,61.47,0,0,1,8.82,4.28.94.94,0,0,0,.73.34,4.5,4.5,0,0,1,1.71.92,17.56,17.56,0,0,0,2.16,1.4c2.68,1.36,11.9,10.24,15.25,14.69a67.34,67.34,0,0,1,13.5,47c-.25,3.18-.61,6.45-.81,7.27s-.51,2.23-.71,3.13a78.69,78.69,0,0,1-5,13.87c-4.17,7.71-6.69,11.4-10.93,16a69.11,69.11,0,0,1-25.8,17.77c-9.4,3.57-13.84,4.41-24.11,4.56-4,.07-7.63,0-8.09,0Zm11.38-11.52c-1.8-4.31-4.43-20.38-4.44-27.17,0-2.3.53-2.74,1.51-1.24.65,1,1.46,5,1.46,7.18a15.8,15.8,0,0,0,.32,3c.17.78.63,3.83,1,6.8.72,5.5,2,10.7,2.84,11.66.42.47.39.56-.28.74-1.49.39-1.94.22-2.42-.94Zm-15.14.55c-.09-.15.27-.21.81-.13a2.21,2.21,0,0,1,1,.27c0,.25-1.62.12-1.78-.14Zm-1.76-.26a.64.64,0,0,1,.63,0c.26.11.19.18-.2.2s-.54-.06-.43-.17Zm-4.05-.84a58,58,0,0,1-11.07-4A59.17,59.17,0,0,1,408.6,233.17c4.28-.87,6.27-.79,6.42.26.08.56,0,.69-.42.54-.6-.23-6.31.7-8.27,1.35-.73.25-2.36.77-3.63,1.17a75,75,0,0,0-13.63,6.71,58.54,58.54,0,0,0-24.85,37.2,70.49,70.49,0,0,0-.68,17.77,55.84,55.84,0,0,0,5.53,18.68A69,69,0,0,0,375.31,327a79.16,79.16,0,0,0,9.75,10,60.72,60.72,0,0,0,7.43,5.17,2,2,0,0,1,1,.66,2,2,0,0,0,1.08.66,3.46,3.46,0,0,1,1.37.64,6.47,6.47,0,0,0,1.87.87,4.58,4.58,0,0,1,1.31.5,50,50,0,0,0,6.92,2.43c1.09.31,2.28.69,2.64.85,1.17.5-.21.32-2.8-.38Zm27.87-37.74c-1.15-.5-4.69-3.67-4.41-3.95.1-.1.75.29,1.45.86a6.85,6.85,0,0,0,6.11,1.45c3.41-.88,5.39-3.46,6.64-8.59a22.47,22.47,0,0,1,.94-3.25c.12-.13.56,0,1,.28.67.47.75.77.67,2.72a9.54,9.54,0,0,1-.51,3,4.11,4.11,0,0,0-.44,1.56,1.33,1.33,0,0,1-.65,1.08,2.27,2.27,0,0,0-.84,1.42c-.22,1.13-2,2.69-3.94,3.43a11.37,11.37,0,0,1-6,0Zm-54.82-.19c-5.42-.13-7.1-.27-7.54-.64s-.55-.5,0-.72c.33-.13,4-.25,8.25-.27,6,0,7.71-.12,8-.47a28,28,0,0,0,1.3-5,25.83,25.83,0,0,1,1.27-4.85,5.85,5.85,0,0,1,2.62-.25l2.28.1.1,1c.1.95,0,1-.87.87-1.61-.23-2.22.35-2.82,2.71a20.38,20.38,0,0,0-.54,2.73,7.91,7.91,0,0,1-1.27,3.76c-.82,1-2.47,1.16-10.81,1Zm17.86.11c-1-.26-1.88-1.16-1.52-1.52a51.91,51.91,0,0,1,7.69-.37,68,68,0,0,0,7.79-.32,2,2,0,0,0,.41-1.41c0-1.14,0-1.16-1.24-1.06l-1.24.11-.07-12.38c-.05-8.07,0-12.19.24-11.84s.82,2,1.44,3.87c1,3,1.08,3.49.79,5.07a60.09,60.09,0,0,0-.14,8.15l.18,6.4,1,1.05c1.34,1.37,1.38,2.89.12,3.72-.78.51-1.81.59-7.85.64-3.82,0-7.24,0-7.61-.11Zm23.86-.14c-.82-.48-.71-1,.23-1a1.36,1.36,0,0,0,1-.3c.13-.21.54-26.94.52-33.77,0-.41.33-.59,1.23-.66,1.13-.1,1.25-.2,1.35-1.18s.28-1.25.92-.82a3.89,3.89,0,0,1,1.12,2,6.69,6.69,0,0,1-1.15,1.7l-1.16,1.38.15,9.46c.19,11.16.2,9.43-.09,16.51-.22,5.49-.26,5.76-1,6.36a2.85,2.85,0,0,1-3.1.27Zm25.26-.3c-.59-.36-1.07-.8-1.07-1s2.61-.33,7.39-.33c7.95,0,8.31-.08,8.07-1.72-.08-.55-.35-.79-1-.86s-.91-.29-.91-.72.64-3.94,1.16-6.19c.16-.7.35-.75,2.81-.75h2.63v1.15c0,1.08-.05,1.14-.92,1-1.42-.28-2.32.68-2.73,2.92-.31,1.74-.28,2,.4,2.89a2.07,2.07,0,0,1,.42,2.23c-.48,1.92-1.05,2.06-8.56,2.07-6,0-6.7-.06-7.68-.66Zm19.73-.06-1.15-.72.82-.23a36.82,36.82,0,0,1,5.17-.28c4.67,0,4.74-.06,4.74-1.87,0-1,.44-1,1.3.07s.86,1.71-.21,2.82c-.88.93-.9.93-5.2.93-3.85,0-4.43-.08-5.47-.72Zm-88-4.31c-.09-.23-.12-7.18-.07-15.44l.08-15,1.26-.1c1-.08,1.32-.28,1.56-.93.18-.45.47-.73.65-.62.62.39.33,1.57-.67,2.7l-1,1.13,0,10c0,5.49.15,11.84.28,14.1.17,2.85.13,4.2-.12,4.37-.57.38-1.85.28-2-.16Zm25,0a53.45,53.45,0,0,1-1.5-6c-.66-3.09-2.09-9.7-3.18-14.7s-2.07-9.87-2.2-10.85c-.23-1.7-.21-1.75.43-1.41a2.82,2.82,0,0,1,1,1.27c.45,1.13,2.55,9.47,3.35,13.31,1.31,6.19,3.62,15.31,4.34,17.07a2.31,2.31,0,0,1,.28,1.19c-.45.39-2.27.49-2.54.13Zm49.6,0c-.09-.23-.12-7.25-.08-15.61l.09-15.19h1.09c1.11,0,1.7-.54,1.71-1.52a.68.68,0,0,1,1.32-.29,2.79,2.79,0,0,1-.67,3.49l-1,1,.1,14.1c.1,13.87.09,14.11-.56,14.28-1.09.3-1.83.21-2-.22Zm19.86-.17c-.1-.32-1.61-7.19-3.36-15.27-3.24-15-3.84-18.49-3.17-18.49s1.65,1.32,2,2.44,1.52,6.35,2,9c.16,1,.59,2.88.95,4.29s.82,3.46,1,4.55.62,2.95.9,4.13c.5,2.15,1.25,5.43,1.74,7.6a13.93,13.93,0,0,0,.5,1.73c.21.5.05.58-1.09.58-1,0-1.38-.15-1.51-.58ZM434,305.5a5.43,5.43,0,0,1-2.46-3.26,65.9,65.9,0,0,1-.54-8c-.2-7.15.2-13.19,1.05-16.06s2.91-4,5.08-2.86c1.19.64,2.33,2.22,1.91,2.64-.15.14-.41,0-.59-.32-.43-.77-2.1-.73-2.91.07-1.49,1.5-2.15,7.35-1.91,17.06.18,7.67.33,8.46,1.86,9.84a2.21,2.21,0,0,1,.69.91c0,.35-1.26.32-2.18-.05Zm26-10.28A110.59,110.59,0,0,1,462.34,284a17.43,17.43,0,0,1,.76,3.72c.73,4.9.72,4.6.24,5.45s-.21,1.53.48,1.27c.27-.1.46,0,.46.31s-.33.48-.9.48a18.9,18.9,0,0,0-2.15.21c-.93.16-1.24.09-1.25-.25ZM390.3,295c0-.66,2.19-11,2.36-11a11.68,11.68,0,0,1,.62,2.93c.32,2.22.33,3.2,0,4.06a12.81,12.81,0,0,0-.44,2.69l-.07,1.55h-1.25c-.68,0-1.25-.11-1.26-.25Zm25.49-12.84c-1.7-4.15-3.17-8.05-3.27-8.67l-.18-1.12,1,.73c.72.54,1.51,1.91,2.9,5.09a34,34,0,0,0,2.25,4.57c.35.22.75,5.2.52,6.34-.07.33-1.51-2.8-3.21-6.94Zm26.2,2.4c-.36-.26-.58-.53-.49-.59s.46-.28.82-.48c.61-.33.68-.8.83-5.5a34.47,34.47,0,0,1,.41-5.39c.14-.13.25.2.25.74,0,1.23.53,1.77,1.75,1.77.91,0,1,.06.75,1.07-.11.59-.33,2.38-.47,4-.19,2.09-.45,3.15-.93,3.8a2,2,0,0,1-2.92.61ZM404.58,276c-.54-.54-.5-.92.1-.92.27,0,.49.29.49.66,0,.77-.06.8-.59.26Zm13.54,0c-.58-.58-.49-.92.26-.92a.58.58,0,0,1,.66.66c0,.75-.34.85-.92.26Zm20.75-3.74c-1.27-.9-1.12-1,.54-.42.6.22,1.1.59,1.1.83,0,.6-.33.52-1.64-.41Zm-17.16-8.72c-.39-.24-.4-.39-.06-.8a25.66,25.66,0,0,0,.88-5.8c1-11.64,3.48-24,4.89-24.56a14,14,0,0,1,3.21.31,58.84,58.84,0,0,1,37,21.92,16.06,16.06,0,0,1,1.57,2.31l.38.82L469,257c-.32-.42-1.26-1.54-2.08-2.48s-1.78-2.07-2.14-2.53c-1.55-1.93-7.13-6.49-11.21-9.16-8.14-5.32-22.91-10.23-24.61-8.19-.78.95-1.92,5.63-2.64,10.91-.84,6.08-1,7.46-1.35,11.4-.44,5.13-.52,5.47-1.55,6.28s-1.05.76-1.71.34Z" transform="translate(-324.34 -202)"/><path class="cls-7" d="M421.94,291.9l.08-17.07,1.24-.1c1.12-.1,1.24-.2,1.33-1.16l.11-1.05-3.45-.1c-4.52-.14-4.58-.13-4.45,1.16.09.92.24,1.06,1.25,1.21l1.16.16.09,7.7a50.11,50.11,0,0,1-.19,7.54c-.15-.1-1.88-4.12-3.85-8.95l-3.58-8.78-4.33.09-4.32.09v1c0,.91.1,1,1.24,1.1l1.24.1-.08,15.58L405.34,306h-3L399,290.14c-4.14-19.19-3.9-18.21-4.53-18.45-1.37-.53-1.56,0-4.55,13.72S386,302,384.1,304a6.82,6.82,0,0,1-5,2.2h-1.67l.09-15.6L377.6,275l1.16-.16c1-.15,1.15-.28,1.15-1.16v-1H369.68l-.11,1c-.13,1.08.35,1.51,1.68,1.51h.9v31h-.8c-1.36,0-1.84.35-1.84,1.34,0,.51.11,1,.25,1.08s4.25.06,9.15-.06l8.89-.22,1-4.95,1-5,2.71-.1c2.6-.09,2.73-.06,2.88.66.59,2.76,1.18,6,1.18,6.55s-.29.63-1.07.71c-.95.09-1.08.22-1.08,1.09v1l7.93.09c6.88.08,8,0,8.3-.42.68-.93.17-1.77-1.15-1.88l-1.21-.1-.08-12.19c-.05-6.71,0-12.32.17-12.46s2.55,5.41,5.34,12.36c6.88,17.11,6.12,15.49,7.2,15.37l.91-.11.09-17.06Zm-32,3.44c0-.79,2.46-12,2.65-12s2.58,11.6,2.39,12a7.41,7.41,0,0,1-2.58.25,6.26,6.26,0,0,1-2.46-.25Zm47.33,13.44c2.83-.79,5-3.83,6-8.49.64-2.83.5-3.38-.82-3.38s-1.22,0-2,3.18c-.88,3.44-2,5.25-3.48,5.74-2.18.73-4.13-.25-5.2-2.59-.65-1.42-.72-2.2-.82-10.13-.17-12.16.56-16.61,2.89-17.82,3.07-1.59,5.67.63,6.59,5.61.4,2.18.67,2.59,1.56,2.42.56-.11.63-.6.8-5.23a53.68,53.68,0,0,0,.05-5.53c-.25-.74-1.71-.48-2.1.38l-.36.79-1.59-1a4.68,4.68,0,0,0-3.76-.86,5.66,5.66,0,0,0-3.53,1.12c-3.87,2.73-6.56,9.83-6.56,17.29,0,8.62,3.4,16.34,8.09,18.39a6.12,6.12,0,0,0,4.23.11Zm37.2-.46c.74-.89.27-1.65-1.14-1.83l-1.3-.17-3.72-17.17c-2.05-9.44-3.73-17.21-3.73-17.25a3,3,0,0,0-1-.08c-1.15,0-.93-.67-3.12,9.57-.84,3.91-2.38,11-3.42,15.85L455.2,306l-1.57.1-1.57.1.08-15.62.09-15.62,1.16-.16c1-.15,1.15-.28,1.15-1.16v-1H444.31v1c0,.88.12,1,1.15,1.16l1.16.16v31l-1.16.17c-1,.15-1.17.29-1.26,1.24l-.1,1.08,7.86-.09,7.87-.09.1-.91c.09-.78,0-.94-.91-1.11-.56-.11-1-.3-1-.41s.35-1.84.76-3.84l.74-3.63,2.7-.1c2.59-.09,2.71-.06,2.87.66.59,2.79,1.17,6,1.17,6.57s-.23.63-.81.63a1.37,1.37,0,0,0-1.16.64c-.44.82-.43.87.18,1.48s9.43.77,10,0Zm-14.77-13.47c.09-.41.64-3.16,1.24-6.11a34.5,34.5,0,0,1,1.32-5.37,36.37,36.37,0,0,1,1.33,5.7c.59,3.13,1.15,5.88,1.23,6.11s-.53.41-2.56.41c-2.64,0-2.71,0-2.56-.74Z" transform="translate(-324.34 -202)"/><path class="cls-4" d="M474.5,252.5a51,51,0,0,1,3.35,6.77c.93,2.09,2,4.58,2.48,5.54a17.1,17.1,0,0,1,.79,1.9c0,.09.61,1.58,1.36,3.33,1.72,4,2.51,7.88,2.95,14.39a70.21,70.21,0,0,1-2.72,25c-1,3.2-3.46,8.8-3.71,8.55a27.52,27.52,0,0,1,1.33-4.19,60.73,60.73,0,0,0,4.1-22.53,65.7,65.7,0,0,0-3.16-21.7c-1.59-4.88-4.13-9.75-8.24-15.81-6.85-10.81-6.52-12.38,1.47-1.28Z" transform="translate(-324.34 -202)"/><polygon class="cls-8" points="0 0 192.76 0 192.76 192.75 0 192.75 0 0 0 0"/></svg>