<svg id="Layer_1" data-name="Layer 1" xmlns="http://www.w3.org/2000/svg" viewBox="0 0 192.76 192.76"><defs><style>.cls-1{fill:#fff;}.cls-1,.cls-2,.cls-3{fill-rule:evenodd;}.cls-2{fill:#fffac2;}.cls-3{fill:#006351;}</style></defs><polygon class="cls-1" points="0 0 192.76 0 192.76 192.76 0 192.76 0 0 0 0"/><path class="cls-2" d="M384.25,421.27c0,25.44-39.35,46.07-87.87,46.07s-87.88-20.63-87.88-46.07,39.35-46.08,87.88-46.08,87.87,20.63,87.87,46.08Z" transform="translate(-200 -324.89)"/><path class="cls-3" d="M380.62,421.23c0,23.37-37.73,42.32-84.27,42.32s-84.27-18.95-84.27-42.32,37.73-42.31,84.27-42.31,84.27,18.95,84.27,42.31Zm-84.27-39c-44.71,0-81,17.46-81,39s36.25,39,81,39,81-17.46,81-39-36.25-39-81-39Z" transform="translate(-200 -324.89)"/><path class="cls-3" d="M375.22,421.23c0,20.38-35.31,36.89-78.87,36.89s-78.87-16.51-78.87-36.89,35.31-36.88,78.87-36.88,78.87,16.51,78.87,36.88ZM346.89,404H333.37l-1.65,4.71h8.76l-10,3.45-.66,1.91,15.37-5,1.69-5Zm-86.24,8.26h-5.51s5.11-13.61,5.52-14.64c.73-1.82,1.16-1.7,1.16-1.7h-7.61c.95.46.11,2.23.11,2.23s-6.09,17-6.52,17.82-.74,1-.74,1h13.18l1.84-5c-.16.48-1.43.36-1.43.36Zm23.12,4.65H290a1.54,1.54,0,0,1-.16-1.32c.37-1,3.66-9.92,3.66-9.92l1.43,11.24h5.62l7.38-20s.3-.94.71-.94l-6,0a2.23,2.23,0,0,1,0,1.22c-.21.53-3.6,9.61-3.6,9.61l-1.33-10.83h-6.42a1.4,1.4,0,0,1,.12,1.12l-6.8,18.67s-.43,1.16-.8,1.16Zm28.38-20.94s.53.85-.16,2.81-6.1,16.55-6.1,16.55-.42,1.37-1,1.64h8.49a14,14,0,0,0,13.47-10.44s4-10.66-7.64-10.55Zm.9,16.16h1c1.45,0,4.12-.32,5.92-4.69,2.95-7.2-1.17-6.95-1.17-6.95h-1.59l-4.14,11.65Zm-75.48,21.72H251.1l1.65-4.72H244l10-3.45.66-1.91-15.37,5-1.7,5Zm23.71,8.68c-.22,0-.22-.68-.22-.68l2.49-6.6,3.31,6.5a1.11,1.11,0,0,1,.11.78h7.41c-.71,0-1.43-1.34-1.43-1.34l-3.7-6.62c5.17,0,6.82-5.12,6.82-5.12,2.54-8.13-6-7.92-6-7.92h-8.77c.63.7.14,2.19.14,2.19l-5.87,16.77a6.59,6.59,0,0,1-1.21,2Zm5.25-16.17-1.44,4.22h1.35s2.62.23,3.58-1.85c0,0,1.13-2.38-2-2.38ZM338,442.58c-.53,0-.16-1.29-.16-1.29l2.22-6,3.2,6.51a1.11,1.11,0,0,1,.11.78H351c-.71,0-1.49-1.34-1.49-1.34l-3.69-6.63c5.17,0,6.72-4.93,6.72-4.93,2.71-8.52-5.93-8.1-5.93-8.1H338c.63.7.14,2.19.14,2.19s-5.68,15.63-6.1,16.83a5.58,5.58,0,0,1-1.24,2Zm5.06-11.95s2.6.19,3.39-1.84c.94-2.4-1.4-2.34-1.4-2.34h-1.92l-1.42,4.18ZM285.24,443c7.65,0,12.21-7.5,12.21-12.89,0-5.65-2.33-9.17-7.63-9.17-6.77,0-11.18,5.13-12.32,11.51-1.05,5.87,2.27,10.55,7.74,10.55Zm.48-5c1.91.35,4-1,5.1-5.41,1.67-6.64-1.4-6.7-2-6.77-1.69-.2-3.95,1.75-4.87,5.81-.42,1.86-.87,5.89,1.73,6.37Zm13.54-16.48s.53.28.53,1.62v18.18s-.07,1-.45,1.2H305a2.09,2.09,0,0,1,.56-1.13c.57-.71,12.38-16.55,12.38-16.55s2.69-3.32,3.4-3.32h-8.14a.82.82,0,0,1,.14,1.2c-.49.78-7.73,11.6-7.73,11.6l.09-10.92s0-1.75.69-1.89Zm34.38,4.95,1.84-5H321.69s.49.44-.14,2.21-6.23,16.83-6.23,16.83-1,2-1.27,2h14.22l1.7-5s-.22.29-1.56.29h-6l1.27-3.4h4.67s1-.07,1.2.22l1.91-5.37s-.14.48-1.42.48h-4.52l1.34-3.74h5.73a1,1,0,0,1,1.06.49Zm-71.89-9.63h6.8a2,2,0,0,1,.16-.86c.32-.62,1.17-2.1,1.17-2.1h6.84l0,1.85a1.61,1.61,0,0,1-.47,1.13h6.79a1.45,1.45,0,0,1-.6-1.12l-.85-18.46s0-1.18.52-1.43H275.4s.47.58-.43,1.91l-12.41,18.39a1.71,1.71,0,0,1-.81.69Zm14.84-13.85-3.78,6.16h3.84l-.06-6.16Z" transform="translate(-200 -324.89)"/></svg>