<svg id="Layer_1" data-name="Layer 1" xmlns="http://www.w3.org/2000/svg" viewBox="0 0 356.91 530.93"><defs><style>.cls-1{fill:#231f20;fill-rule:evenodd;}</style></defs><path class="cls-1" d="M296.47,155.54q4,105.54,8.07,211.13l57,7.54v2.15l-57,7.53L296.47,595H295.4q-4-105.57-8.08-211.14l-55-7.53v-2.15l55-7.54q4.05-105.57,8.08-211.13Z" transform="translate(-119.05 -155.54)"/><path class="cls-1" d="M156.57,671.3l-1.52,14.23h-36v-1.1h1.34a5.56,5.56,0,0,0,2.84-.63,2.73,2.73,0,0,0,1.2-1.44,12.15,12.15,0,0,0,.33-3.76V651.94a13.29,13.29,0,0,0-.33-3.89,3,3,0,0,0-1.33-1.36,5.35,5.35,0,0,0-2.71-.58h-1.34V645h21.62v1.11H138.9a5.59,5.59,0,0,0-2.84.62,3,3,0,0,0-1.23,1.44,12.63,12.63,0,0,0-.33,3.77v25.82a13.36,13.36,0,0,0,.36,4,2.38,2.38,0,0,0,1.41,1.27,13.71,13.71,0,0,0,3.61.27h3.38a11.6,11.6,0,0,0,5.39-1.13,10,10,0,0,0,3.71-3.59,29.15,29.15,0,0,0,3-7.24Zm36.88,13.13v1.1H172.26v-1.1h1.35a5.61,5.61,0,0,0,2.84-.63,2.67,2.67,0,0,0,1.19-1.44,12,12,0,0,0,.34-3.76V651.94a13.15,13.15,0,0,0-.34-3.89,2.93,2.93,0,0,0-1.33-1.36,5.33,5.33,0,0,0-2.7-.58h-1.35V645h21.19v1.11h-1.34a5.59,5.59,0,0,0-2.84.62,2.85,2.85,0,0,0-1.22,1.44,12.28,12.28,0,0,0-.33,3.77V678.6a12.76,12.76,0,0,0,.34,3.88,3.11,3.11,0,0,0,1.34,1.36,5.31,5.31,0,0,0,2.71.59ZM222.39,645l20,25.14V652.71c0-2.43-.34-4.07-1-4.93q-1.44-1.72-4.81-1.67V645h13.38v1.11a10.06,10.06,0,0,0-3.45.85,3.31,3.31,0,0,0-1.37,1.7,11.59,11.59,0,0,0-.49,4.05v33.75h-1l-27.41-33.75v25.78q0,3.48,1.6,4.71a5.78,5.78,0,0,0,3.66,1.23h.95v1.1H208v-1.1q3.34,0,4.66-1.37c.88-.9,1.32-2.42,1.32-4.57V649.87l-.87-1.08a8.13,8.13,0,0,0-2.27-2.12,6.87,6.87,0,0,0-2.84-.56V645Zm82.13-.92v14h-1.17a14.9,14.9,0,0,0-4.91-8.43,12.5,12.5,0,0,0-8.13-2.93,12,12,0,0,0-7,2.19,12.68,12.68,0,0,0-4.63,5.71,26,26,0,0,0-1.89,10,33.53,33.53,0,0,0,1.38,9.91,13.12,13.12,0,0,0,4.31,6.75,11.93,11.93,0,0,0,7.59,2.29,14.67,14.67,0,0,0,7-1.68,24.23,24.23,0,0,0,6.71-5.76v3.5a22,22,0,0,1-7.1,5.15,21.54,21.54,0,0,1-8.63,1.6,24.69,24.69,0,0,1-11.52-2.6,18.39,18.39,0,0,1-7.78-7.47A21,21,0,0,1,266.07,666,22.17,22.17,0,0,1,277.29,647a22.13,22.13,0,0,1,11-2.87,24.78,24.78,0,0,1,9,1.85,14.38,14.38,0,0,0,3.5,1.08,2.27,2.27,0,0,0,1.65-.71,3.81,3.81,0,0,0,.92-2.22Zm39.27.35q9.69-.36,15.75,5.65a20.35,20.35,0,0,1,6,15,21.62,21.62,0,0,1-4.51,13.57q-6,7.77-16.9,7.77t-16.92-7.41a21.54,21.54,0,0,1-4.72-13.9,20.22,20.22,0,0,1,6.14-15,19.54,19.54,0,0,1,15.11-5.67Zm.37,1.91q-5.57,0-8.47,5.69c-1.57,3.1-2.36,7.57-2.36,13.38q0,10.38,3.65,15.34a8.3,8.3,0,0,0,7.12,3.47,8.59,8.59,0,0,0,5.14-1.49,12.36,12.36,0,0,0,4.09-6.12,33.83,33.83,0,0,0,1.47-11q0-8.05-1.5-12a11.74,11.74,0,0,0-3.81-5.64,9,9,0,0,0-5.33-1.65Zm74.55,25-1.52,14.23h-36v-1.1h1.35a5.61,5.61,0,0,0,2.84-.63,2.82,2.82,0,0,0,1.2-1.44,12.63,12.63,0,0,0,.32-3.76V651.94a13.82,13.82,0,0,0-.32-3.89,3.06,3.06,0,0,0-1.34-1.36,5.33,5.33,0,0,0-2.7-.58h-1.35V645h21.62v1.11h-1.76a5.63,5.63,0,0,0-2.85.62,3,3,0,0,0-1.23,1.44,12.77,12.77,0,0,0-.32,3.77v25.82a13,13,0,0,0,.36,4,2.34,2.34,0,0,0,1.4,1.27,13.75,13.75,0,0,0,3.62.27h3.37a11.57,11.57,0,0,0,5.39-1.13,10,10,0,0,0,3.71-3.59,28.4,28.4,0,0,0,3-7.24ZM448.42,645l20,25.14V652.71c0-2.43-.34-4.07-1-4.93q-1.44-1.72-4.81-1.67V645H476v1.11a10.06,10.06,0,0,0-3.45.85,3.31,3.31,0,0,0-1.37,1.7,11.59,11.59,0,0,0-.49,4.05v33.75h-1l-27.41-33.75v25.78q0,3.48,1.6,4.71a5.8,5.8,0,0,0,3.66,1.23h.95v1.1H434.05v-1.1q3.34,0,4.66-1.37c.88-.9,1.32-2.42,1.32-4.57V649.87l-.87-1.08a8.13,8.13,0,0,0-2.27-2.12,6.87,6.87,0,0,0-2.84-.56V645Z" transform="translate(-119.05 -155.54)"/></svg>