<svg id="Livello_1" data-name="Livello 1" xmlns="http://www.w3.org/2000/svg" xmlns:xlink="http://www.w3.org/1999/xlink" viewBox="0 0 200 200"><defs><style>.cls-1{fill:#fff;}.cls-2{stroke:#231f20;stroke-width:0.44px;fill:url(#Sfumatura_2);}.cls-14,.cls-2{stroke-miterlimit:3.86;}.cls-3{clip-path:url(#clip-path);}.cls-14,.cls-4{fill:none;}.cls-5{fill:#5e707b;}.cls-6{fill:#6c7c87;}.cls-7{fill:#7a8994;}.cls-8{fill:#8a97a1;}.cls-9{fill:#9aa6af;}.cls-10{fill:#abb5bd;}.cls-11{fill:#bdc5cb;}.cls-12{fill:#cfd5da;}.cls-13{fill:#e3e7e9;}.cls-14{stroke:#002a5f;stroke-width:1.32px;}.cls-15{fill:#e11b22;fill-rule:evenodd;}.cls-16{fill:#000538;}.cls-17{fill:#1d3b69;}.cls-18{fill:#274371;}.cls-19{fill:#314b7a;}.cls-20{fill:#3a5383;}.cls-21{fill:#354f7f;}.cls-22{fill:#2f4b7c;}.cls-23{fill:#2a4879;}.cls-24{fill:#244476;}.cls-25{fill:#16396a;}.cls-26{fill:#042f5e;}.cls-27{fill:#002452;}.cls-28{fill:#001745;}</style><linearGradient id="Sfumatura_2" x1="247.31" y1="412.37" x2="456.42" y2="412.37" gradientTransform="translate(100.31 182.18) scale(0.57)" gradientUnits="userSpaceOnUse"><stop offset="0" stop-color="#bdc5cb"/><stop offset="0.22" stop-color="#fff"/><stop offset="0.45" stop-color="#fff"/><stop offset="0.56" stop-color="#b0b8bd"/><stop offset="0.89" stop-color="#b0b8bd"/><stop offset="1" stop-color="#c1c7cb"/></linearGradient><clipPath id="clip-path" transform="translate(-199.24 -315.21)"><path class="cls-1" d="M245.33,415.69c0-46,24.18-83.28,54-83.28s54,37.28,54,83.28S329.17,499,299.34,499s-54-37.29-54-83.29"/></clipPath></defs><rect class="cls-1" width="200" height="200"/><path class="cls-2" d="M240.38,415.2c0-48.78,26.35-88.32,58.87-88.32s58.86,39.54,58.86,88.32-26.36,88.33-58.86,88.33S240.38,464,240.38,415.2Z" transform="translate(-199.24 -315.21)"/><path class="cls-1" d="M245.33,415.69c0-46,24.18-83.28,54-83.28s54,37.28,54,83.28S329.17,499,299.34,499s-54-37.29-54-83.29" transform="translate(-199.24 -315.21)"/><g class="cls-3"><path class="cls-4" d="M329.54,353.84a129.71,129.71,0,0,1-9.88,139l.07,0a129.75,129.75,0,0,0,9.81-139Z" transform="translate(-199.24 -315.21)"/><path class="cls-4" d="M348.12,415.8a134.47,134.47,0,0,1-1.05,16.77,132.86,132.86,0,0,0-19.57-87.95l-.24-.24A132,132,0,0,1,348.12,415.8Z" transform="translate(-199.24 -315.21)"/><path class="cls-4" d="M321.78,358a120.88,120.88,0,0,1-18.54,140.74h0A120.86,120.86,0,0,0,321.78,358Z" transform="translate(-199.24 -315.21)"/><path class="cls-4" d="M330.52,415.66a114.5,114.5,0,0,0-13.89-54.83A115,115,0,0,1,295,498.71h0A114.74,114.74,0,0,0,330.52,415.66Z" transform="translate(-199.24 -315.21)"/><path class="cls-4" d="M331.06,363.5A126.82,126.82,0,0,1,313.4,496.12l.05,0a126.78,126.78,0,0,0,17.61-132.6Z" transform="translate(-199.24 -315.21)"/><path class="cls-4" d="M327.59,415.66A111.56,111.56,0,0,0,314,362.21a112.11,112.11,0,0,1-22.65,135.87h0A111.83,111.83,0,0,0,327.59,415.66Z" transform="translate(-199.24 -315.21)"/><path class="cls-4" d="M324.65,415.66a108.89,108.89,0,0,0-36.52-81.45c-24.45,8-42.8,41.41-42.8,81.48s18.32,73.48,42.75,81.47A108.92,108.92,0,0,0,324.65,415.66Z" transform="translate(-199.24 -315.21)"/><path class="cls-4" d="M321.39,351.46A123.76,123.76,0,0,1,308,497.91h.05a123.79,123.79,0,0,0,13.34-146.44Z" transform="translate(-199.24 -315.21)"/><path class="cls-4" d="M351.06,415.63a135,135,0,0,1-13.3,58.6,1.63,1.63,0,0,1,.11-.17A135.77,135.77,0,0,0,338,357.52v0A135,135,0,0,1,351.06,415.63Z" transform="translate(-199.24 -315.21)"/><path class="cls-4" d="M324.18,369.75A118,118,0,0,1,299,499h0a118,118,0,0,0,25.2-129.22Z" transform="translate(-199.24 -315.21)"/><path class="cls-5" d="M337.87,474.06c9.57-15,15.48-35.63,15.48-58.37S347.5,372.53,338,357.52a135.77,135.77,0,0,1-.12,116.54Z" transform="translate(-199.24 -315.21)"/><path class="cls-6" d="M338,357.5a66.63,66.63,0,0,0-10.48-12.88,132.76,132.76,0,0,1,.07,142.09,66.92,66.92,0,0,0,10.19-12.48A135.73,135.73,0,0,0,338,357.5Z" transform="translate(-199.24 -315.21)"/><path class="cls-7" d="M327.26,344.38a51,51,0,0,0-7.43-5.76,130.83,130.83,0,0,1,9.71,15.22,129.75,129.75,0,0,1-9.81,139,51.25,51.25,0,0,0,7.67-6,131.86,131.86,0,0,0,19.67-54.31,134.47,134.47,0,0,0,1.05-16.77A132,132,0,0,0,327.26,344.38Z" transform="translate(-199.24 -315.21)"/><path class="cls-7" d="M327.4,486.88l.17-.17a131.76,131.76,0,0,0,19.5-54.14A131.86,131.86,0,0,1,327.4,486.88Z" transform="translate(-199.24 -315.21)"/><path class="cls-8" d="M313.55,335.33a126.69,126.69,0,0,1-.1,160.77,41.62,41.62,0,0,0,6.21-3.22,129.34,129.34,0,0,0,.16-154.27A42.61,42.61,0,0,0,313.55,335.33Z" transform="translate(-199.24 -315.21)"/><path class="cls-8" d="M329.54,353.84a130.83,130.83,0,0,0-9.71-15.22h0A129.71,129.71,0,0,1,329.54,353.84Z" transform="translate(-199.24 -315.21)"/><path class="cls-9" d="M308.14,333.51a123.77,123.77,0,0,1-.09,164.39,38.13,38.13,0,0,0,5.35-1.78,126.52,126.52,0,0,0,.14-160.8A39.36,39.36,0,0,0,308.14,333.51Z" transform="translate(-199.24 -315.21)"/><path class="cls-9" d="M331.06,363.5a126.59,126.59,0,0,0-17.51-28.17h0A127.29,127.29,0,0,1,331.06,363.5Z" transform="translate(-199.24 -315.21)"/><path class="cls-10" d="M303.36,332.64a120.82,120.82,0,0,1-.08,166.12,35.91,35.91,0,0,0,4.72-.85,123.62,123.62,0,0,0,.13-164.4A36.7,36.7,0,0,0,303.36,332.64Z" transform="translate(-199.24 -315.21)"/><path class="cls-10" d="M321.39,351.46a123.55,123.55,0,0,0-13.25-17.95h0A124.35,124.35,0,0,1,321.39,351.46Z" transform="translate(-199.24 -315.21)"/><path class="cls-11" d="M299.34,332.41h-.28A117.91,117.91,0,0,1,299,499h.36a36.12,36.12,0,0,0,3.9-.22,120.69,120.69,0,0,0,.11-166.12A35.53,35.53,0,0,0,299.34,332.41Z" transform="translate(-199.24 -315.21)"/><path class="cls-11" d="M321.78,358a121.25,121.25,0,0,0-18.42-25.38h0A120.68,120.68,0,0,1,321.78,358Z" transform="translate(-199.24 -315.21)"/><path class="cls-12" d="M295.12,332.66a115,115,0,0,1-.07,166.06,35.81,35.81,0,0,0,3.9.25,117.8,117.8,0,0,0,.1-166.56A34.27,34.27,0,0,0,295.12,332.66Z" transform="translate(-199.24 -315.21)"/><path class="cls-12" d="M324.18,369.75a118.31,118.31,0,0,0-25.12-37.34h0A118.34,118.34,0,0,1,324.18,369.75Z" transform="translate(-199.24 -315.21)"/><path class="cls-13" d="M295.11,332.66c-1.22.15-2.42.36-3.61.62A112.82,112.82,0,0,1,314,362.21a112.09,112.09,0,0,1-22.61,135.88,33.06,33.06,0,0,0,3.58.62,114.86,114.86,0,0,0,.1-166Z" transform="translate(-199.24 -315.21)"/><path class="cls-13" d="M316.63,360.83a115.44,115.44,0,0,0-21.51-28.17h0A115.73,115.73,0,0,1,316.63,360.83Z" transform="translate(-199.24 -315.21)"/><path class="cls-1" d="M291.49,333.29c-1.13.25-2.25.56-3.36.92a109.09,109.09,0,0,1-.05,163c1.09.36,2.2.67,3.31.92a111.92,111.92,0,0,0,.1-164.79Z" transform="translate(-199.24 -315.21)"/><path class="cls-1" d="M314,362.21a112.82,112.82,0,0,0-22.54-28.93h0A112.64,112.64,0,0,1,314,362.21Z" transform="translate(-199.24 -315.21)"/></g><path class="cls-14" d="M245.33,415.69c0-46,24.18-83.28,54-83.28s54,37.28,54,83.28S329.17,499,299.34,499,245.33,461.69,245.33,415.69Z" transform="translate(-199.24 -315.21)"/><path class="cls-15" d="M322.7,412.12H317c0,3.37,2.18,4.87,5.67,4.12Zm.22-12.43c0-.79.44-11.6,3-20.09,2.78-9.32,8.37-14.86,8-15.42s-5,.42-8.43,2.81c-3.7,2.54-7.33,6.75-7.06,7.06s1.42-.85,3.67-1.68a7.75,7.75,0,0,1,3.44-.73,62.71,62.71,0,0,0-5.94,13.7A101,101,0,0,0,317,399.69Zm-47.19,0c0-.79-.44-11.6-3-20.09-2.79-9.32-8.37-14.86-8-15.42s5,.42,8.44,2.81c3.69,2.54,7.32,6.75,7.06,7.06s-1.42-.85-3.67-1.68a7.75,7.75,0,0,0-3.44-.73,62.71,62.71,0,0,1,5.94,13.7,98.92,98.92,0,0,1,2.55,14.35ZM296,358c2.26-4.46,2.69-11.17,3.26-11.29.57.11,1,6.83,3.26,11.29,2.13,4.21,6.7,7.77,6.44,8.19s-2.86-.79-4.13-1.38c-2-1-3.7-1.7-3.7-1.7A71.11,71.11,0,0,0,303,383.65a56.43,56.43,0,0,0,7.69,16.05h-6.5c-.21-.34-.4-.68-.6-1a39.42,39.42,0,0,1-4.26-10.46A39.29,39.29,0,0,1,295,398.68c-.18.34-.39.68-.59,1h-6.51a56.05,56.05,0,0,0,7.7-16.05,70.91,70.91,0,0,0,1.78-20.53s-1.65.75-3.69,1.7c-1.28.6-3.81,1.91-4.14,1.38S293.9,362.22,296,358ZM276,412.12h5.66c0,3.37-2.16,4.87-5.66,4.12Zm31.6,2.57c-2.61,2.39-2.6,6.68-2.6,6.68H293.69s0-4.29-2.59-6.67a8.63,8.63,0,0,0-4.07-2c-1.46-.3-1.46-.46-1.46-.57h27.48s0,.27-1.46.57A8.59,8.59,0,0,0,307.55,414.69Zm-34.4-11.58v-2h52.2v2Zm.07,7.36v-2h52.19v2Zm2.51-3.7v-2h47.18v2Zm17.58,26v-4.35h12v4.35Zm-1.93-5.88V423h15.87v3.92Z" transform="translate(-199.24 -315.21)"/><path class="cls-16" d="M330.78,477.31a48.79,48.79,0,0,1-15.64,13.33q-1,.54-2.07,1l-1,.44h0c-1.12.47-2.22.88-3.3,1.22l-.11,0c-1.16.37-2.3.66-3.39.9h0a30.76,30.76,0,0,1-3.79.56h0c-.73.06-1.44.09-2.11.09-.52,0-1,0-1.58,0l-.43,0h-.14c-.86,0-1.74-.15-2.64-.28l-.19,0c-.5-.08-1-.17-1.5-.28-.72-.14-1.45-.32-2.19-.52l-.19-.05a34.32,34.32,0,0,1-3.5-1.18l0,0a34.69,34.69,0,0,1-3.94-1.84l-.14-.08-.77-.43c-1.09-.62-2.18-1.33-3.27-2.1a51.56,51.56,0,0,1-11-10.78A73.57,73.57,0,0,1,259.36,463c-1.05-2.3-2-4.58-2.78-6.8-.32-.87-.61-1.73-.9-2.57l0-.09c-1.14-3.45-2-6.7-2.69-9.55v-.06c-1-4.42-1.55-7.9-1.78-9.7v-.11c-.1-.82-.14-1.26-.14-1.26h96.36S345.47,458.52,330.78,477.31Z" transform="translate(-199.24 -315.21)"/><path class="cls-16" d="M295.76,432.83h0a58.4,58.4,0,0,0-2.17,7.22A58.48,58.48,0,0,1,295.76,432.83Z" transform="translate(-199.24 -315.21)"/><path class="cls-16" d="M301.43,494.83h0a65.77,65.77,0,0,1-4.78-6.22A64,64,0,0,0,301.43,494.83Z" transform="translate(-199.24 -315.21)"/><path class="cls-16" d="M305.23,494.27h0a62,62,0,0,1-5.95-7.46A61.91,61.91,0,0,0,305.23,494.27Z" transform="translate(-199.24 -315.21)"/><path class="cls-16" d="M275.72,432.83h0c-.26,1-.51,1.93-.73,2.91C275.2,434.76,275.45,433.79,275.72,432.83Z" transform="translate(-199.24 -315.21)"/><path class="cls-16" d="M304.59,483.26a54.93,54.93,0,0,0,7.45,8.85h0A54.4,54.4,0,0,1,304.59,483.26Z" transform="translate(-199.24 -315.21)"/><path class="cls-17" d="M251,432.83s0,.44.14,1.26c.08-.42.15-.84.24-1.26Z" transform="translate(-199.24 -315.21)"/><path class="cls-18" d="M251.43,432.83c-.09.46-.17.91-.26,1.37.23,1.8.75,5.28,1.78,9.7a96.2,96.2,0,0,1,1.68-11.07Z" transform="translate(-199.24 -315.21)"/><path class="cls-18" d="M251.4,432.83c-.09.42-.16.84-.24,1.26v.11c.09-.46.17-.91.26-1.37Z" transform="translate(-199.24 -315.21)"/><path class="cls-19" d="M257.8,432.83h-3.17A99.14,99.14,0,0,0,253,444c.67,2.85,1.55,6.1,2.69,9.55v-.63A94,94,0,0,1,257.8,432.83Z" transform="translate(-199.24 -315.21)"/><path class="cls-19" d="M254.63,432.83A96.2,96.2,0,0,0,253,443.9V444a99.14,99.14,0,0,1,1.67-11.13Z" transform="translate(-199.24 -315.21)"/><path class="cls-20" d="M258.73,432.83h-.89a93.59,93.59,0,0,0-2.17,20.08c0,.23,0,.46,0,.69.29.84.58,1.7.9,2.57,0-1-.06-2.08-.06-3.13A93.47,93.47,0,0,1,258.73,432.83Z" transform="translate(-199.24 -315.21)"/><path class="cls-20" d="M257.84,432.83h0a94,94,0,0,0-2.15,20.05v.63l0,.09c0-.23,0-.46,0-.69A93.59,93.59,0,0,1,257.84,432.83Z" transform="translate(-199.24 -315.21)"/><path class="cls-20" d="M273.12,432.83H261A91,91,0,0,0,259.36,463a73.57,73.57,0,0,0,8.46,14.27,51.56,51.56,0,0,0,11,10.78,79.21,79.21,0,0,1-5.67-55.19Z" transform="translate(-199.24 -315.21)"/><path class="cls-20" d="M261,432.83h-2.31A93.47,93.47,0,0,0,256.52,453c0,1,0,2.09.06,3.13.81,2.22,1.73,4.5,2.78,6.8A91,91,0,0,1,261,432.83Z" transform="translate(-199.24 -315.21)"/><path class="cls-20" d="M275,435.74c.22-1,.47-1.95.73-2.91h-.57a77.22,77.22,0,0,0,6.92,57.29l.77.43A76.67,76.67,0,0,1,275,435.74Z" transform="translate(-199.24 -315.21)"/><path class="cls-20" d="M275.14,432.83h-2A79.21,79.21,0,0,0,278.79,488c1.09.77,2.18,1.48,3.27,2.1a77.22,77.22,0,0,1-6.92-57.29Z" transform="translate(-199.24 -315.21)"/><path class="cls-21" d="M278.18,432.83h-2.46c-.27,1-.52,1.93-.74,2.91a76.71,76.71,0,0,0,8,54.89,34.69,34.69,0,0,0,3.94,1.84,73.63,73.63,0,0,1-11.47-39.59A74.49,74.49,0,0,1,278.18,432.83Z" transform="translate(-199.24 -315.21)"/><path class="cls-21" d="M275,435.74a76.67,76.67,0,0,0,7.85,54.81l.14.08a76.71,76.71,0,0,1-8-54.89Z" transform="translate(-199.24 -315.21)"/><path class="cls-22" d="M280.71,432.83h-2.45A74.21,74.21,0,0,0,287,492.5a34.32,34.32,0,0,0,3.5,1.18,71.69,71.69,0,0,1-9.75-60.85Z" transform="translate(-199.24 -315.21)"/><path class="cls-22" d="M278.26,432.83h-.08a74.49,74.49,0,0,0-2.74,20.05,73.63,73.63,0,0,0,11.47,39.59l0,0a74.21,74.21,0,0,1-8.7-59.67Z" transform="translate(-199.24 -315.21)"/><path class="cls-23" d="M282.25,432.83h-1.51a71.72,71.72,0,0,0,9.91,60.9c.74.2,1.47.38,2.19.52a70.26,70.26,0,0,1-10.59-61.42Z" transform="translate(-199.24 -315.21)"/><path class="cls-23" d="M280.74,432.83h0a71.69,71.69,0,0,0,9.75,60.85l.19.05a71.72,71.72,0,0,1-9.91-60.9Z" transform="translate(-199.24 -315.21)"/><path class="cls-24" d="M285.64,432.83h0a65.64,65.64,0,0,0-1.71,6.59A65.67,65.67,0,0,1,285.64,432.83Z" transform="translate(-199.24 -315.21)"/><path class="cls-24" d="M283.52,432.83h-.13a69.24,69.24,0,0,0,10.95,61.7l.19,0a69.23,69.23,0,0,1-11-61.73Z" transform="translate(-199.24 -315.21)"/><path class="cls-24" d="M283.39,432.83h-1.14a70.26,70.26,0,0,0,10.59,61.42c.5.11,1,.2,1.5.28a69.24,69.24,0,0,1-10.95-61.7Z" transform="translate(-199.24 -315.21)"/><path class="cls-24" d="M283.92,439.42a65.64,65.64,0,0,1,1.71-6.59h-2.11a69.23,69.23,0,0,0,11,61.73c.9.13,1.78.23,2.64.28a67.23,67.23,0,0,1-13.25-55.42Z" transform="translate(-199.24 -315.21)"/><path class="cls-25" d="M285.72,452.88a63.56,63.56,0,0,1,3.22-20.05h-3a66.73,66.73,0,0,0,11.77,62.05c.54,0,1.06,0,1.58,0,.67,0,1.38,0,2.11-.09a64.07,64.07,0,0,1-15.71-41.95Z" transform="translate(-199.24 -315.21)"/><path class="cls-25" d="M286,432.83h-.33a65.67,65.67,0,0,0-1.72,6.59,67.13,67.13,0,0,0,13.39,55.43l.43,0A66.73,66.73,0,0,1,286,432.83Z" transform="translate(-199.24 -315.21)"/><path class="cls-25" d="M283.92,439.42a67.23,67.23,0,0,0,13.25,55.42h.14a67.13,67.13,0,0,1-13.39-55.43Z" transform="translate(-199.24 -315.21)"/><path class="cls-26" d="M288.91,452.88a60.5,60.5,0,0,1,3.4-20.05H289a63.92,63.92,0,0,0,7.68,55.78,65.77,65.77,0,0,0,4.78,6.22,30.76,30.76,0,0,0,3.79-.56,61.91,61.91,0,0,1-5.94-7.46A60.4,60.4,0,0,1,288.91,452.88Z" transform="translate(-199.24 -315.21)"/><path class="cls-26" d="M296.66,488.61A63.92,63.92,0,0,1,289,432.83h0a63.89,63.89,0,0,0,7.72,55.78Z" transform="translate(-199.24 -315.21)"/><path class="cls-27" d="M293.57,440.05a58.4,58.4,0,0,1,2.17-7.22h-3.39a60.74,60.74,0,0,0,6.94,54,62,62,0,0,0,5.95,7.46c1.09-.24,2.23-.53,3.39-.9a57.61,57.61,0,0,1-15.06-53.32Z" transform="translate(-199.24 -315.21)"/><path class="cls-27" d="M299.29,486.81a60.74,60.74,0,0,1-6.94-54h0a60.71,60.71,0,0,0,7,54Z" transform="translate(-199.24 -315.21)"/><path class="cls-28" d="M304.59,483.26a54.32,54.32,0,0,1-5.47-50.43h-3.36a56.07,56.07,0,0,0-3.63,20.08,57.32,57.32,0,0,0,16.61,40.42c1.08-.34,2.18-.75,3.3-1.22A54.93,54.93,0,0,1,304.59,483.26Z" transform="translate(-199.24 -315.21)"/><path class="cls-28" d="M293.57,440.05a57.61,57.61,0,0,0,15.06,53.32l.11,0a57.32,57.32,0,0,1-16.61-40.42A58,58,0,0,1,293.57,440.05Z" transform="translate(-199.24 -315.21)"/><path class="cls-16" d="M296.36,452.88a53.25,53.25,0,0,1,3.9-20.05h-1.1a54.21,54.21,0,0,0,12.89,59.27l1-.44A53.25,53.25,0,0,1,296.36,452.88Z" transform="translate(-199.24 -315.21)"/><path class="cls-16" d="M304.59,483.26a54.36,54.36,0,0,1-5.43-50.43h0a54.32,54.32,0,0,0,5.47,50.43Z" transform="translate(-199.24 -315.21)"/><path class="cls-16" d="M298.5,452.91a51,51,0,0,0,16.64,37.73,48.79,48.79,0,0,0,15.64-13.33c14.69-18.79,16.6-44.48,16.6-44.48H302.61A50.94,50.94,0,0,0,298.5,452.91Z" transform="translate(-199.24 -315.21)"/><path class="cls-16" d="M298.5,452.91a50.94,50.94,0,0,1,4.11-20.08h-2.35a53.4,53.4,0,0,0,12.81,58.83q1-.48,2.07-1A51,51,0,0,1,298.5,452.91Z" transform="translate(-199.24 -315.21)"/><path class="cls-1" d="M267.73,441.16l-3.55,9.06h-.58l-3.44-9.05-.37,7a6.38,6.38,0,0,0,0,.74c0,.62.81.65,1.25.65h.11v.67h-4v-.67c.32,0,1.22,0,1.49-.34s.24-.7.32-1.69l.33-6.57c.05-.56,0-.77-.15-.88a3,3,0,0,0-1.21-.2v-.67h3.39l3.08,8,3.15-8h3.35v.68h-.11c-.72,0-1,0-1.17.17s-.17.51-.11,1.37l.36,6.38a3.67,3.67,0,0,0,.25,1.44c.27.39,1,.32,1.34.3v.68h-4.89v-.66a4.43,4.43,0,0,0,1.21-.19.62.62,0,0,0,.38-.65c0-.17,0-.63,0-.81l-.36-6.75" transform="translate(-199.24 -315.21)"/><path class="cls-1" d="M290,439.15h.57l.24,2.71h-.63c-.35-1-1-2.26-2.29-2.26a1.71,1.71,0,0,0-1.71,1.48,1.51,1.51,0,0,0,.54,1.21,17.72,17.72,0,0,0,2.27,1.77,4,4,0,0,1,2,3.34,3.32,3.32,0,0,1-3.39,3.19,7,7,0,0,1-2-.42l-.13,0h-.12c-.19,0-.17.07-.19.22h-.56l-.32-2.91H285c.33,1,1.17,2.4,2.45,2.4.61,0,2.05-.43,2.05-1.79a2.11,2.11,0,0,0-.62-1.52,10.93,10.93,0,0,0-1.82-1.41c-2-1.38-2.4-2.41-2.4-3.4a3.08,3.08,0,0,1,3-2.87,4.59,4.59,0,0,1,1.48.26l.35.16.19.07.09,0c.09,0,.18-.15.23-.22" transform="translate(-199.24 -315.21)"/><path class="cls-1" d="M277.35,440.67l-1.43,4.1h2.75Zm-.45-1-.26-.81h1.85l3.1,9.32c.37,1.08.33,1.31,1.62,1.4v.67h-4.92v-.68a4.63,4.63,0,0,0,1.12-.11.49.49,0,0,0,.38-.52,5,5,0,0,0-.31-1.33l-.64-2h-3.08a12.39,12.39,0,0,0-.89,3.16c0,.62.37.71.85.77l.59.06.1.68h-4.08v-.66a1.6,1.6,0,0,0,1.46-1.15c.09-.24.2-.53.31-.88l2.8-7.89" transform="translate(-199.24 -315.21)"/><path class="cls-1" d="M298.81,440h-2.33v4.21h2.06c.43,0,.65,0,.78-.13s.27-.94.3-1.21h.64v3.59h-.64c-.05-1.26,0-1.45-1.24-1.45h-1.9v3.46c0,.56,0,.76.12.85s.63.11.78.11h1.7c1.38,0,1.55-.74,1.86-2.06h.64l-.24,2.85h-8.29v-.68c1.29.07,1.59-.07,1.59-1.32v-7c0-1.31-.38-1.34-1.59-1.32v-.68h7.89l.1,2.59h-.63c-.21-1.33-.26-1.79-1.6-1.79" transform="translate(-199.24 -315.21)"/><path class="cls-1" d="M325.16,441.84h-.59l.22-3h.49a.54.54,0,0,0,.28.31l.25,0h6.61a2.17,2.17,0,0,0,.67-.06c.12-.06.15-.18.2-.29h.49l.25,3h-.62a3.91,3.91,0,0,0-.58-1.63c-.19-.19-.44-.21-.87-.21h-1.75v8.1c0,.75.06,1,.27,1.2a3.92,3.92,0,0,0,1.57.25v.67h-5.52v-.67a4.22,4.22,0,0,0,1.59-.24c.2-.14.25-.41.25-1.11V440h-1.54c-.64,0-1.07,0-1.3.59-.14.4-.25.84-.37,1.25" transform="translate(-199.24 -315.21)"/><path class="cls-1" d="M335.71,439.2h5.15v.67c-1.77.08-1.65.37-1.65,2.07v6c.1,1.44.33,1.49,1.72,1.59v.66h-5.15v-.66a6,6,0,0,0,1.11-.14c.14,0,.17-.09.24-.21a6.18,6.18,0,0,0,.24-2.27v-5.49c0-1.41-.31-1.49-1.66-1.58v-.67" transform="translate(-199.24 -315.21)"/><path class="cls-1" d="M307.29,444.69h1.16a2.29,2.29,0,0,0,1.28-.27c.43-.27.82-.87.82-2.19,0-2-1.19-2.38-2.12-2.38l-1.14,0Zm11.41-4-1.43,4.1H320Zm1.14-1.83,3.09,9.32c.37,1.08.34,1.31,1.62,1.4v.67h-4.91v-.68c.45,0,1.5.06,1.5-.63a5.34,5.34,0,0,0-.3-1.33l-.65-2H317.1a12.76,12.76,0,0,0-.89,3.17c-.07.87,1,.81,1.55.82v.68h-4a3.71,3.71,0,0,1-3.75-2.05c-.24-.42-1.14-2.21-1.42-2.7h-1.31v2.36c0,1.48.14,1.7,1,1.7h.79v.7h-5.36v-.7c1.32.07,1.66-.08,1.66-1.36v-7.3c0-.7,0-1-.68-1-.32,0-.66,0-1,0v-.66c1.39,0,2.79,0,4.18,0a7.94,7.94,0,0,1,2.48.21,2.58,2.58,0,0,1,1.9,2.72,2.87,2.87,0,0,1-1.92,3,6.94,6.94,0,0,1,1.34,2.45c.75,1.76,1.06,2,2,2.14,1,0,1.24-.65,1.75-2.09l2.79-7.89-.27-.81h1.86" transform="translate(-199.24 -315.21)"/></svg>