<svg id="Layer_1" data-name="Layer 1" xmlns="http://www.w3.org/2000/svg" viewBox="0 0 226.83 224.35"><defs><style>.cls-1{fill:#231f20;}</style></defs><path class="cls-1" d="M294.62,257.2c-62.59,0-113.37,50.21-113.37,112.16S232,481.53,294.62,481.55s113.45-50.22,113.45-112.19S357.3,257.2,294.62,257.2m0,220.08c-42.6,0-76-22.15-91.94-52.59l2.43-.91c4.13,6.76,9.55,12.69,16.81,20.7,9,9.85,37.25,28.84,72.66,28.84A104.92,104.92,0,0,0,384,423.88c1.43-.4,1.9-1,1.41-2.27,8.51-15,14.3-33.83,14.3-52.25a94.07,94.07,0,0,0-4.41-29.46,120.64,120.64,0,0,0-6.07-15.17,2.47,2.47,0,0,1-.41-1.46,3.75,3.75,0,0,1,1,1.24,136.57,136.57,0,0,1,7,15.15c2.33,6.42,6.52,15.27,6.52,29.7,0,59-48.33,108-108.8,107.92m-90.93-55.1,79.44-57.13-6.79-3.86L205.58,420c-8-14.42-13.49-32.91-13.49-50.49A100.75,100.75,0,0,1,292.61,268.37l-14.48,90.1,6.76,3.93,9.1-94c.17-1.18.95-1.18.95,0l.56,99.16,16.12-9.48-15.43-89.7c55.2,1.49,101,46,101,101,0,17.74-5.39,36.25-13.52,50.77l-70.7-58.9-6.81,3.88,76,55.12c1.83,1.3,1.26,1.89-.7.81l-85.34-49.23v18.45l85.55,32.68c-17.91,29.24-50.29,47.95-87.31,47.95s-68.92-18.68-86.87-48l85.72-32.7V371.76L204.44,423c-2.14,1.15-2.69.52-.75-.85m-2.05,1a121.76,121.76,0,0,1-9.36-27.4,3.47,3.47,0,0,1,.05-1.37,4.23,4.23,0,0,1,.63,1.33c2.59,8,4.81,15.1,10.69,25.85Zm201.6-72.82a4.57,4.57,0,0,1-.61-1.29c-8.29-25.55-15.34-35.59-29-50.53-17.93-19.68-47.2-34.87-78.34-34.91A107.86,107.86,0,0,0,187.5,371.45c0,17.72,3.85,33,6.95,40.67,3.65,8.9,9.92,20.89,10.23,21.44A3,3,0,0,1,205,435a4.3,4.3,0,0,1-1-1.18c-1.81-2.63-9.2-15.95-11.52-21.76-5-12.68-8.7-26.49-8.7-41A111.06,111.06,0,0,1,294.85,259.92c54.83,0,99.06,38.09,108.39,89.1a2.85,2.85,0,0,1,0,1.33" transform="translate(-181.25 -257.2)"/></svg>