<svg id="Layer_1" data-name="Layer 1" xmlns="http://www.w3.org/2000/svg" viewBox="0 0 192.76 192.76"><defs><style>.cls-1{fill:#fff;}.cls-1,.cls-2,.cls-3{fill-rule:evenodd;}.cls-2{fill:#ed1c24;}.cls-3{fill:#231f20;}</style></defs><polygon class="cls-1" points="0 0 192.76 0 192.76 192.76 0 192.76 0 0 0 0"/><polygon class="cls-2" points="95.96 102.18 39.89 102.18 12.1 150.98 68.33 150.98 95.96 102.18 95.96 102.18 95.96 102.18"/><polygon class="cls-2" points="124.45 52.12 96.42 2.83 68.3 52.12 96.42 101.48 124.45 52.12 124.45 52.12 124.45 52.12"/><polygon class="cls-2" points="124.42 150.98 180.66 150.98 152.86 102.18 96.79 102.18 124.42 150.98 124.42 150.98 124.42 150.98"/><polygon class="cls-3" points="121.93 189.22 126.13 189.22 126.13 166.78 121.93 166.78 121.93 189.22 121.93 189.22 121.93 189.22"/><polygon class="cls-3" points="169.02 189.22 173.22 189.22 173.22 166.78 169.02 166.78 169.02 189.22 169.02 189.22 169.02 189.22"/><polygon class="cls-3" points="43.01 189.22 47.21 189.22 47.21 166.78 43.01 166.78 43.01 189.22 43.01 189.22 43.01 189.22"/><polygon class="cls-3" points="63.26 166.78 50.27 166.78 50.27 170.59 54.6 170.59 54.6 189.22 58.93 189.22 58.93 170.59 63.26 170.59 63.26 166.78 63.26 166.78 63.26 166.78"/><polygon class="cls-3" points="160.62 175.31 151.16 175.31 151.16 166.78 146.96 166.78 146.96 189.22 151.16 189.22 151.16 179.12 160.62 179.12 160.62 189.22 164.81 189.22 164.81 166.78 160.62 166.78 160.62 175.31 160.62 175.31 160.62 175.31"/><polygon class="cls-3" points="29.45 176.82 25.52 166.78 20.66 166.78 20.66 189.22 24.86 189.22 24.86 175.31 29.45 186.46 33.91 175.18 33.91 189.22 38.11 189.22 38.11 166.78 33.39 166.78 29.45 176.82 29.45 176.82 29.45 176.82"/><path class="cls-3" d="M299.83,491.68h-4.16v16h0c0,1.74-1.95,3.15-3.69,3.15s-3.69-1.41-3.69-3.15h0v-16h-4.24l.06,15.8h0c0,4,3.82,7.33,7.87,7.33s7.87-3.28,7.87-7.33h0l0-15.8Z" transform="translate(-201 -324.89)"/><path class="cls-3" d="M316,502a5.35,5.35,0,0,0,2.82-4.52,5.59,5.59,0,0,0-5.24-5.78h-9.73v22.44h8.61c3.41,0,7.09-1.64,7.09-6,0-3.74-1.78-5.18-3.55-6.17Zm-3.34,8.33h-4.61V495.48h4.41a2.13,2.13,0,0,1,2.1,2.16c0,1.18-.46,2.56-2,2.56h-1.84V504h2a3.06,3.06,0,0,1,2.75,3.42,2.86,2.86,0,0,1-2.75,2.88Z" transform="translate(-201 -324.89)"/><path class="cls-3" d="M265.94,506.83a5.63,5.63,0,0,0,0,.91,6.84,6.84,0,0,0,7,6.81c3.86,0,7-2.61,7-6.48a6.36,6.36,0,0,0-2.18-4.88c-1.13-1.05-4.36-2.62-5.61-3.38s-1.74-1.28-1.77-2.33a2.46,2.46,0,0,1,2.56-2.62,2.79,2.79,0,0,1,2.78,2.78c0,.4,0,.79,0,1.05h3.72v-1.05h0a6.11,6.11,0,0,0-6.54-6.47,6.24,6.24,0,0,0-6.54,6.47,5.68,5.68,0,0,0,2.86,4.82c2.19,1.45,4.92,2.53,5.84,3.45a3.06,3.06,0,0,1,.9,2.16A2.93,2.93,0,0,1,273,511a3.49,3.49,0,0,1-3.26-2.9,6.46,6.46,0,0,1-.12-1.24h-3.64Z" transform="translate(-201 -324.89)"/><path class="cls-3" d="M336.84,499.81c-1.18-.72-1.74-1.28-1.77-2.33a2.46,2.46,0,0,1,2.56-2.62,2.79,2.79,0,0,1,2.78,2.78c0,.4,0,.79,0,1.05h3.72v-1.05h0a6.11,6.11,0,0,0-6.54-6.47,6.25,6.25,0,0,0-6.54,6.47,5.67,5.67,0,0,0,2.87,4.82c2.18,1.45,4.91,2.53,5.83,3.45a3,3,0,0,1,.9,2.16,2.93,2.93,0,0,1-3.06,2.9,3.49,3.49,0,0,1-3.26-2.9,8.59,8.59,0,0,1-.12-1.24h-3.64a7.11,7.11,0,0,0,0,.91,6.84,6.84,0,0,0,7,6.81c3.87,0,7-2.61,7-6.48a6.36,6.36,0,0,0-2.18-4.88c-1.13-1.05-4.35-2.62-5.61-3.38Z" transform="translate(-201 -324.89)"/></svg>