<svg id="Capa_1" data-name="Capa 1" xmlns="http://www.w3.org/2000/svg" xmlns:xlink="http://www.w3.org/1999/xlink" viewBox="0 0 127.3 114.97"><defs><style>.cls-1{isolation:isolate;}.cls-2{fill:url(#Degradado_sin_nombre_33);}.cls-3{clip-path:url(#clip-path);}.cls-4{fill:none;}.cls-5{fill:url(#Degradado_sin_nombre_27);}.cls-6{clip-path:url(#clip-path-2);}.cls-7{fill:url(#Degradado_sin_nombre_21);}.cls-8{fill:url(#Degradado_sin_nombre_20);}.cls-9{clip-path:url(#clip-path-3);}.cls-10{fill:url(#Degradado_sin_nombre_65);}.cls-11{mask:url(#mask);}.cls-12{clip-path:url(#clip-path-4);}.cls-13{clip-path:url(#clip-path-5);}.cls-14{fill:url(#Degradado_sin_nombre_64);}.cls-15{clip-path:url(#clip-path-6);}.cls-16{fill:url(#Degradado_sin_nombre_63);}.cls-17{clip-path:url(#clip-path-7);}.cls-18{clip-path:url(#clip-path-8);}.cls-19{fill:url(#Degradado_sin_nombre_63-2);}.cls-20{clip-path:url(#clip-path-9);}.cls-21{fill:url(#Degradado_sin_nombre_62);}.cls-22{clip-path:url(#clip-path-10);}.cls-23{fill:url(#Degradado_sin_nombre_61);}.cls-24{clip-path:url(#clip-path-11);}.cls-25{fill:url(#Degradado_sin_nombre_60);}.cls-26{clip-path:url(#clip-path-12);}.cls-27{fill:url(#Degradado_sin_nombre_59);}.cls-28{mask:url(#mask-2);}.cls-29{fill:url(#Degradado_sin_nombre_58);}.cls-30{clip-path:url(#clip-path-14);}.cls-31{fill:url(#Degradado_sin_nombre_57);}.cls-32{clip-path:url(#clip-path-15);}.cls-33{fill:url(#Degradado_sin_nombre_56);}.cls-34{clip-path:url(#clip-path-16);}.cls-35{fill:url(#Degradado_sin_nombre_55);}.cls-36{clip-path:url(#clip-path-17);}.cls-37{fill:url(#Degradado_sin_nombre_54);}.cls-38{clip-path:url(#clip-path-18);}.cls-39{fill:url(#Degradado_sin_nombre_53);}.cls-40{clip-path:url(#clip-path-19);}.cls-41{fill:url(#Degradado_sin_nombre_52);}.cls-42{clip-path:url(#clip-path-20);}.cls-43{fill:url(#Degradado_sin_nombre_51);}.cls-44{clip-path:url(#clip-path-21);}.cls-45{mask:url(#mask-3);}.cls-46{clip-path:url(#clip-path-22);}.cls-47{clip-path:url(#clip-path-23);}.cls-48{mask:url(#mask-4);}.cls-49{fill:url(#Degradado_sin_nombre_19);}.cls-50{filter:url(#luminosity-invert-noclip);}</style><linearGradient id="Degradado_sin_nombre_33" x1="-234.93" y1="440.94" x2="-233.35" y2="440.94" gradientTransform="matrix(0, -24.39, -24.39, 0, 10895.73, -5567.55)" gradientUnits="userSpaceOnUse"><stop offset="0" stop-color="#fff"/><stop offset="0.85" stop-color="#fff"/><stop offset="0.87" stop-color="#fafafa"/><stop offset="0.89" stop-color="#ebebeb"/><stop offset="0.91" stop-color="#d2d2d2"/><stop offset="0.93" stop-color="#afafaf"/><stop offset="0.95" stop-color="#828282"/><stop offset="0.97" stop-color="#4b4b4b"/><stop offset="1" stop-color="#0c0c0c"/><stop offset="1"/></linearGradient><clipPath id="clip-path"><rect class="cls-4" x="123.54" y="124.94" width="22.26" height="17.65" transform="translate(-42.64 201.52) rotate(-65.72)"/></clipPath><linearGradient id="Degradado_sin_nombre_27" x1="-216.69" y1="456.29" x2="-215.1" y2="456.29" gradientTransform="matrix(0, -12.41, -12.41, 0, 5798.56, -2547.59)" gradientUnits="userSpaceOnUse"><stop offset="0" stop-color="#ccc"/><stop offset="0.01" stop-color="#ccc"/><stop offset="0.11"/><stop offset="1"/></linearGradient><clipPath id="clip-path-2"><path class="cls-4" d="M144.5,124.24a5.86,5.86,0,1,0,5.86-5.86,5.86,5.86,0,0,0-5.86,5.86"/></clipPath><radialGradient id="Degradado_sin_nombre_21" cx="-283.09" cy="370.44" r="1.58" gradientTransform="matrix(3.7, 0, 0, -3.7, 1198.41, 1495.69)" gradientUnits="userSpaceOnUse"><stop offset="0" stop-color="#fff"/><stop offset="0.17" stop-color="#fff"/><stop offset="0.27" stop-color="#c4c4c4"/><stop offset="0.37" stop-color="#909090"/><stop offset="0.48" stop-color="#646464"/><stop offset="0.58" stop-color="#404040"/><stop offset="0.68" stop-color="#242424"/><stop offset="0.79" stop-color="#101010"/><stop offset="0.89" stop-color="#040404"/><stop offset="1"/></radialGradient><radialGradient id="Degradado_sin_nombre_20" cx="-242.34" cy="413.63" r="1.58" gradientTransform="matrix(12.42, 0, 0, -12.42, 3159.27, 5260.07)" gradientUnits="userSpaceOnUse"><stop offset="0" stop-color="#fff"/><stop offset="0.19" stop-color="#a2a2a2"/><stop offset="0.39" stop-color="#4b4b4b"/><stop offset="0.52" stop-color="#151515"/><stop offset="0.59"/><stop offset="1"/></radialGradient><clipPath id="clip-path-3" transform="translate(-78.08 -80.17)"><path class="cls-4" d="M139.43,140.74c-2.87-5.51-4.8-9.32-7.52-15.42a3.17,3.17,0,0,1-.4-1.39,3.42,3.42,0,0,1,.4-1.38c2.72-6.1,4.65-9.91,7.52-15.41.16-.32.3-.53.48-.53h0c.19,0,.32.21.49.53,2.86,5.5,4.79,9.31,7.51,15.41a2.6,2.6,0,0,1,0,2.77c-2.72,6.1-4.65,9.91-7.52,15.42-.17.32-.3.52-.49.53s-.32-.21-.48-.53m-7.32-50.91a1.33,1.33,0,0,0-.47.12,1.32,1.32,0,0,0-.48.47c-.62.92-7,11.42-11.07,18.81-2.88,5.25-5.73,10.8-6.94,13.37a2.59,2.59,0,0,0,0,2.67c1.21,2.57,4,8.13,6.94,13.37,4.06,7.39,10.43,17.92,11.09,18.82a4,4,0,0,0,.27.34,1,1,0,0,0,.44.3,2.37,2.37,0,0,0,.75,0,3.53,3.53,0,0,1,.46,0c1.64.06,4.15.12,6.82.12,3.3,0,7.16-.09,7.74-.16h.09a1.09,1.09,0,0,0,.42-.09c.13-.05.24-.16.52-.54.65-.9,7-11.37,11.05-18.76,2.89-5.24,5.73-10.8,6.95-13.37a3.41,3.41,0,0,0,.36-1.42,3,3,0,0,0-.36-1.25c-1.22-2.57-4.06-8.12-6.95-13.37-4.07-7.39-10.43-17.91-11.08-18.81a2.26,2.26,0,0,0-.47-.52.64.64,0,0,0-.25-.12,2.63,2.63,0,0,0-.79,0h-.46c-1.36-.06-4.09-.11-6.77-.11-3.31,0-7.29.1-7.81.15"/></clipPath><linearGradient id="Degradado_sin_nombre_65" x1="-230.55" y1="437.05" x2="-228.97" y2="437.05" gradientTransform="matrix(0, -43.28, -43.28, 0, 18976.44, -9899.62)" gradientUnits="userSpaceOnUse"><stop offset="0" stop-color="#e5e5e8"/><stop offset="0.69" stop-color="#fff"/><stop offset="0.99" stop-color="#a5a8af"/><stop offset="1" stop-color="#a2a5ac"/></linearGradient><filter id="luminosity-invert-noclip" x="112.78" y="89.68" width="54.28" height="68.52" filterUnits="userSpaceOnUse" color-interpolation-filters="sRGB"><feColorMatrix values="-1 0 0 0 1 0 -1 0 0 1 0 0 -1 0 1 0 0 0 1 0" result="invert"/><feFlood flood-color="#fff" result="bg"/><feBlend in="invert" in2="bg"/></filter><mask id="mask" x="34.69" y="9.51" width="54.28" height="68.52" maskUnits="userSpaceOnUse"><g class="cls-50"><g transform="translate(-78.08 -80.17)"><rect x="112.78" y="89.68" width="54.28" height="68.52"/><g class="cls-1"><rect class="cls-2" x="112.78" y="124.46" width="54.28" height="33.74"/></g></g></g></mask><clipPath id="clip-path-4" transform="translate(-78.08 -80.17)"><rect class="cls-4" x="112.78" y="89.68" width="54.28" height="68.52"/></clipPath><clipPath id="clip-path-5" transform="translate(-78.08 -80.17)"><path class="cls-4" d="M139.92,106.61c.19,0,.32.2.49.53,2.86,5.5,4.79,9.31,7.51,15.41a2.6,2.6,0,0,1,0,2.77c-2.72,6.1-4.65,9.91-7.52,15.42-.17.32-.3.52-.49.53s-.32-.21-.48-.53c-2.87-5.51-4.8-9.32-7.52-15.42a3.17,3.17,0,0,1-.4-1.39,3.42,3.42,0,0,1,.4-1.38c2.72-6.1,4.65-9.91,7.52-15.41.16-.32.3-.53.48-.53Zm-7.81-16.78a1.33,1.33,0,0,0-.47.12,1.32,1.32,0,0,0-.48.47c-.62.92-7,11.42-11.07,18.81-2.88,5.25-5.73,10.8-6.94,13.37a2.59,2.59,0,0,0,0,2.67c1.21,2.57,4,8.13,6.94,13.37,4.06,7.39,10.43,17.92,11.09,18.82a4,4,0,0,0,.27.34,1,1,0,0,0,.44.3,2.37,2.37,0,0,0,.75,0,3.53,3.53,0,0,1,.46,0c1.61.06,4.08.12,6.71.12h.11c3.3,0,7.16-.09,7.74-.16h.1a1.32,1.32,0,0,0,.41-.09c.13-.05.24-.16.52-.54.65-.9,7-11.37,11.05-18.76,2.89-5.24,5.73-10.8,6.95-13.37a3.41,3.41,0,0,0,.36-1.42,3,3,0,0,0-.36-1.25c-1.22-2.57-4.06-8.12-6.95-13.37-4.07-7.39-10.43-17.91-11.08-18.81a2.26,2.26,0,0,0-.47-.52.64.64,0,0,0-.25-.12,2.63,2.63,0,0,0-.79,0h-.46c-1.36-.06-4.09-.11-6.77-.11-3.31,0-7.29.1-7.81.15"/></clipPath><radialGradient id="Degradado_sin_nombre_64" cx="-235.2" cy="421.77" r="1.58" gradientTransform="matrix(21.58, 0, 0, -21.66, 5133.55, 9162.4)" gradientUnits="userSpaceOnUse"><stop offset="0" stop-color="#fff"/><stop offset="0.4" stop-color="#fff"/><stop offset="0.98" stop-color="#a5a8af"/><stop offset="1" stop-color="#a2a5ac"/></radialGradient><clipPath id="clip-path-6" transform="translate(-78.08 -80.17)"><path class="cls-4" d="M128.82,123.92a2.24,2.24,0,0,1-1.65.44h-12.1c-.53,0-1.24,0-1.24.8a10.49,10.49,0,0,0,1.3,3.2c4.8,9.39,10.13,18.76,15.85,27.93,0,0,.87,1.4,1,1.52a.46.46,0,0,0,.41.16,149.6,149.6,0,0,0,6.55-13.88c-3.25-6-6.26-12-9.07-17.92a8.61,8.61,0,0,1-.83-2.09.54.54,0,0,1,0-.18c0-.06,0-.09,0-.09s-.07,0-.15.12"/></clipPath><linearGradient id="Degradado_sin_nombre_63" x1="-236.26" y1="442.49" x2="-234.68" y2="442.49" gradientTransform="matrix(0, -21.32, -21.32, 0, 9481.76, -4959.15)" gradientUnits="userSpaceOnUse"><stop offset="0" stop-color="#e5e5e8"/><stop offset="0.01" stop-color="#e5e5e8"/><stop offset="0.34" stop-color="#b1b5bb"/><stop offset="0.54" stop-color="#7f8288"/><stop offset="0.69" stop-color="#55585e"/><stop offset="0.85" stop-color="#3c3e42"/><stop offset="0.9" stop-color="#313337"/><stop offset="0.95" stop-color="#242529"/><stop offset="0.96" stop-color="#27292d"/><stop offset="0.97" stop-color="#323438"/><stop offset="0.98" stop-color="#44464b"/><stop offset="0.99" stop-color="#5d6065"/><stop offset="1" stop-color="#7d8187"/><stop offset="1" stop-color="#81858b"/></linearGradient><clipPath id="clip-path-7" transform="translate(-78.08 -80.17)"><path class="cls-4" d="M132.35,158Zm0,0h0Z"/></clipPath><clipPath id="clip-path-8" transform="translate(-78.08 -80.17)"><polygon class="cls-4" points="132.35 157.95 132.35 157.95 132.36 157.95 132.35 157.95"/></clipPath><linearGradient id="Degradado_sin_nombre_63-2" x1="132.35" y1="157.95" x2="132.36" y2="157.95" gradientTransform="matrix(0, 0, 0, 0, 275.89, -162.29)" xlink:href="#Degradado_sin_nombre_63"/><clipPath id="clip-path-9" transform="translate(-78.08 -80.17)"><path class="cls-4" d="M166.38,124a1.82,1.82,0,0,1-1.31.33h-10c-4.57,0-4.1-.12-5.29,2.3-.53,1.07-1.07,2.34-1.63,3.38-4,8.34-13.72,25.14-15,27.22-.49.78-.57.83-.21.83,0,0,3.31.12,7,.12,5.74,0,7.79-.16,7.79-.16,3.33-5.18,11.27-18.32,16.94-29.71,1.31-2.62,2-3.76,1.9-4.32,0,0,0-.06-.05-.06s-.08,0-.12.07"/></clipPath><linearGradient id="Degradado_sin_nombre_62" x1="-236.25" y1="442.08" x2="-234.67" y2="442.08" gradientTransform="matrix(0, -21.34, -21.34, 0, 9504.54, -4963.35)" gradientUnits="userSpaceOnUse"><stop offset="0" stop-color="#e5e5e8"/><stop offset="0.01" stop-color="#e5e5e8"/><stop offset="0.34" stop-color="#b1b5bb"/><stop offset="0.54" stop-color="#7f8288"/><stop offset="0.69" stop-color="#55585e"/><stop offset="0.85" stop-color="#3c3e42"/><stop offset="0.9" stop-color="#313337"/><stop offset="0.95" stop-color="#242529"/><stop offset="0.96" stop-color="#27292d"/><stop offset="0.97" stop-color="#323438"/><stop offset="0.98" stop-color="#44464b"/><stop offset="0.99" stop-color="#5d6065"/><stop offset="1" stop-color="#7d8187"/><stop offset="1" stop-color="#81858b"/></linearGradient><clipPath id="clip-path-10" transform="translate(-78.08 -80.17)"><path class="cls-4" d="M147.43,89.92c-.24,0-.41.19-.74.7-2.82,4.36-12.55,22.69-16.52,31.24a5.36,5.36,0,0,0-.73,2.06h2.07a3.42,3.42,0,0,1,.4-1.38c2.72-6.1,4.65-9.91,7.52-15.41.16-.32.3-.53.48-.53l.81-2.35c2.8-7,6.73-14.34,6.73-14.34h0"/></clipPath><linearGradient id="Degradado_sin_nombre_61" x1="-235.59" y1="442.21" x2="-234.01" y2="442.21" gradientTransform="matrix(0, -21.48, -21.48, 0, 9557.68, -5016.29)" gradientUnits="userSpaceOnUse"><stop offset="0" stop-color="#55585e"/><stop offset="0.01" stop-color="#494b50"/><stop offset="0.02" stop-color="#3f4146"/><stop offset="0.04" stop-color="#3c3e42"/><stop offset="0.11" stop-color="#3a3c3f"/><stop offset="0.16" stop-color="#323337"/><stop offset="0.19" stop-color="#242528"/><stop offset="0.23" stop-color="#111213"/><stop offset="0.25"/><stop offset="1"/></linearGradient><clipPath id="clip-path-11" transform="translate(-78.08 -80.17)"><path class="cls-4" d="M139.91,106.61m0,0h0c.19,0,.32.21.49.53,2.86,5.5,4.79,9.31,7.51,15.41a3.21,3.21,0,0,1,.4,1.39h2.06a5.47,5.47,0,0,0-.72-2c-2.75-5.83-5.62-11.51-8.94-17.64Z"/></clipPath><linearGradient id="Degradado_sin_nombre_60" x1="-243.31" y1="449.44" x2="-241.72" y2="449.44" gradientTransform="matrix(0, -12.43, -12.43, 0, 5654.83, -2981.19)" gradientUnits="userSpaceOnUse"><stop offset="0" stop-color="#8b8e94"/><stop offset="0.16" stop-color="#86898f"/><stop offset="0.35" stop-color="#797b81"/><stop offset="0.55" stop-color="#626569"/><stop offset="0.76" stop-color="#434549"/><stop offset="0.8" stop-color="#3c3e42"/><stop offset="0.83" stop-color="#383a3e"/><stop offset="0.86" stop-color="#2d2e31"/><stop offset="0.89" stop-color="#1a1b1d"/><stop offset="0.92"/><stop offset="1"/></linearGradient><clipPath id="clip-path-12" transform="translate(-78.08 -80.17)"><path class="cls-4" d="M130.16,126c2.75,5.83,5.61,11.5,8.93,17.63l.82-2.35c-.19,0-.32-.21-.48-.53-2.87-5.51-4.8-9.32-7.52-15.42a3.17,3.17,0,0,1-.4-1.39h-2.07a5.15,5.15,0,0,0,.72,2.07"/></clipPath><linearGradient id="Degradado_sin_nombre_59" x1="-243.88" y1="449.74" x2="-242.3" y2="449.74" gradientTransform="matrix(0, -12.44, -12.44, 0, 5650.94, -2970.16)" gradientUnits="userSpaceOnUse"><stop offset="0" stop-color="#c6c8cc"/><stop offset="0.36" stop-color="#c6c8cc"/><stop offset="0.49" stop-color="#c1c3c8"/><stop offset="0.65" stop-color="#b4b6bb"/><stop offset="0.81" stop-color="#9da0a5"/><stop offset="0.96" stop-color="#81858b"/><stop offset="1" stop-color="#55585e"/></linearGradient><mask id="mask-2" x="33.64" y="30.36" width="45.9" height="46.48" maskUnits="userSpaceOnUse"><g transform="translate(-78.08 -80.17)"><g class="cls-3"><rect class="cls-5" x="116.93" y="116.6" width="35.5" height="34.34" transform="translate(-42.64 201.53) rotate(-65.72)"/></g></g></mask><linearGradient id="Degradado_sin_nombre_58" x1="-216.69" y1="456.3" x2="-215.1" y2="456.3" gradientTransform="matrix(0, -12.41, -12.41, 0, 5798.63, -2547.6)" gradientUnits="userSpaceOnUse"><stop offset="0" stop-color="#f1f2f1"/><stop offset="0.01" stop-color="#f1f2f1"/><stop offset="0.11" stop-color="#eeedee"/><stop offset="1" stop-color="#eeedee"/></linearGradient><clipPath id="clip-path-14" transform="translate(-78.08 -80.17)"><path class="cls-4" d="M148.32,123.94a3.19,3.19,0,0,1-.4,1.38c-2.72,6.1-4.65,9.91-7.52,15.42-.17.32-.3.52-.49.53l-.82,2.35A151.85,151.85,0,0,1,132.35,158c.23,0,.5-.27.82-.75l.33-.55c2.12-3.61,12.36-22.5,16.14-30.64a5.49,5.49,0,0,0,.74-2.08h-2.06"/></clipPath><linearGradient id="Degradado_sin_nombre_57" x1="-236.17" y1="442.16" x2="-234.59" y2="442.16" gradientTransform="matrix(0, -21.48, -21.48, 0, 9561.31, -4995.72)" gradientUnits="userSpaceOnUse"><stop offset="0" stop-color="#fff"/><stop offset="0.23" stop-color="#f9f9fa"/><stop offset="0.55" stop-color="#e8e9ea"/><stop offset="0.91" stop-color="#ccced1"/><stop offset="0.97" stop-color="#c6c8cc"/><stop offset="0.99" stop-color="#8b8e94"/><stop offset="1" stop-color="#8b8e94"/></linearGradient><clipPath id="clip-path-15" transform="translate(-78.08 -80.17)"><path class="cls-4" d="M111.44,123.94a4.52,4.52,0,0,0,.5,1.91c.94,2.05,3.59,7.27,7,13.44,3.7,6.73,10.42,17.93,11.17,19a3.06,3.06,0,0,0,.83.83l.53-1.28a4,4,0,0,1-.27-.34c-.66-.9-7-11.43-11.09-18.82-2.89-5.24-5.73-10.8-6.94-13.37a3.13,3.13,0,0,1-.37-1.33Z"/></clipPath><linearGradient id="Degradado_sin_nombre_56" x1="-235.84" y1="442.16" x2="-234.25" y2="442.16" gradientTransform="matrix(0, -22.2, -22.2, 0, 9858.85, -5156.4)" gradientUnits="userSpaceOnUse"><stop offset="0" stop-color="#81858b"/><stop offset="0.12" stop-color="#7d8086"/><stop offset="0.56" stop-color="#707379"/><stop offset="0.97" stop-color="#6c6f75"/><stop offset="0.99" stop-color="#8e9197"/><stop offset="1" stop-color="#9ea2a8"/></linearGradient><clipPath id="clip-path-16" transform="translate(-78.08 -80.17)"><path class="cls-4" d="M130.92,159.08a2.24,2.24,0,0,0,1.1.3c1,.09,5.38.16,7.9.16s7.24-.1,7.89-.16a2.78,2.78,0,0,0,.89-.19l-.53-1.25a1.09,1.09,0,0,1-.42.09h-.09c-.58.07-4.44.16-7.74.16-2.67,0-5.18-.06-6.82-.12a3.53,3.53,0,0,0-.46,0,2.37,2.37,0,0,1-.75,0,1,1,0,0,1-.44-.3Z"/></clipPath><linearGradient id="Degradado_sin_nombre_55" x1="-232.34" y1="399.86" x2="-230.76" y2="399.86" gradientTransform="matrix(0, 9.87, 9.87, 0, -3807.37, 2444.54)" gradientUnits="userSpaceOnUse"><stop offset="0" stop-color="#81858b"/><stop offset="0.02" stop-color="#81858b"/><stop offset="0.04" stop-color="#6e7277"/><stop offset="0.06" stop-color="#595c61"/><stop offset="0.08" stop-color="#4c4f54"/><stop offset="0.1" stop-color="#484a4f"/><stop offset="1" stop-color="#484a4f"/></linearGradient><clipPath id="clip-path-17" transform="translate(-78.08 -80.17)"><path class="cls-4" d="M148.19,89.9a2.26,2.26,0,0,1,.47.52c.65.9,7,11.42,11.08,18.81,2.89,5.25,5.73,10.8,6.95,13.37a3,3,0,0,1,.36,1.25l1.34.09h0a4.47,4.47,0,0,0-.5-1.92c-1-2.11-4.24-8.48-7-13.43-3.65-6.63-10.39-17.91-11.17-19a2.53,2.53,0,0,0-1-.95Z"/></clipPath><linearGradient id="Degradado_sin_nombre_54" x1="-228.98" y1="418.32" x2="-227.4" y2="418.32" gradientTransform="matrix(0, 21.6, 21.6, 0, -8878.49, 5036.02)" gradientUnits="userSpaceOnUse"><stop offset="0" stop-color="#787a80"/><stop offset="1" stop-color="#8b8e94"/></linearGradient><clipPath id="clip-path-18" transform="translate(-78.08 -80.17)"><path class="cls-4" d="M131.94,88.5a2.78,2.78,0,0,0-.83.18l.53,1.27a1.33,1.33,0,0,1,.47-.12c.52,0,4.5-.15,7.81-.15,2.68,0,5.41,0,6.77.11h.46a2.63,2.63,0,0,1,.79,0,.64.64,0,0,1,.25.12l.51-1.22a2.6,2.6,0,0,0-.92-.18c-1-.1-5.52-.17-7.86-.17-2.07,0-6.86.06-8,.17"/></clipPath><linearGradient id="Degradado_sin_nombre_53" x1="-211.16" y1="456.99" x2="-209.58" y2="456.99" gradientTransform="matrix(0, -10.68, -10.68, 0, 5019.49, -2157.23)" gradientUnits="userSpaceOnUse"><stop offset="0" stop-color="#787a80"/><stop offset="0.01" stop-color="#787a80"/><stop offset="0.02" stop-color="#85888e"/><stop offset="0.04" stop-color="#9da1a7"/><stop offset="0.06" stop-color="#acb0b6"/><stop offset="0.07" stop-color="#b1b5bb"/><stop offset="0.5" stop-color="#c4c8cb"/><stop offset="1" stop-color="#c6c8cc"/></linearGradient><clipPath id="clip-path-19" transform="translate(-78.08 -80.17)"><path class="cls-4" d="M130.05,89.68c-.78,1-7.51,12.37-11.13,18.91-2.55,4.59-6.6,12.56-7,13.43a4.71,4.71,0,0,0-.5,1.92h1.34a3.1,3.1,0,0,1,.37-1.34c1.21-2.57,4.06-8.12,6.94-13.37,4.06-7.39,10.45-17.89,11.07-18.81a1.32,1.32,0,0,1,.48-.47l-.53-1.27a2.74,2.74,0,0,0-1.06,1"/></clipPath><linearGradient id="Degradado_sin_nombre_52" x1="-240.07" y1="425.58" x2="-238.48" y2="425.58" gradientTransform="matrix(19.61, 0, 0, -19.61, 4812.58, 8450.28)" gradientUnits="userSpaceOnUse"><stop offset="0" stop-color="#9ea2a8"/><stop offset="0.99" stop-color="#8b8e94"/><stop offset="1" stop-color="#c6c8cc"/></linearGradient><clipPath id="clip-path-20" transform="translate(-78.08 -80.17)"><path class="cls-4" d="M148.17,157.94h0m18.52-32.67c-1.22,2.57-4.06,8.13-6.95,13.37-4.07,7.39-10.4,17.86-11.05,18.76-.28.38-.39.49-.52.54l.53,1.25a2.67,2.67,0,0,0,1-.94c.72-1,8-13.1,11.17-19s6.61-12.61,7-13.44a4.24,4.24,0,0,0,.5-1.91l-1.34-.09a3.41,3.41,0,0,1-.36,1.42"/></clipPath><linearGradient id="Degradado_sin_nombre_51" x1="-235.78" y1="441.5" x2="-234.19" y2="441.5" gradientTransform="matrix(0, -22.32, -22.32, 0, 9934.91, -5183.83)" gradientUnits="userSpaceOnUse"><stop offset="0" stop-color="#484a4f"/><stop offset="0.02" stop-color="#484a4f"/><stop offset="0.24" stop-color="#52555a"/><stop offset="0.6" stop-color="#5d6165"/><stop offset="0.97" stop-color="#616569"/><stop offset="0.99" stop-color="#7a7d82"/><stop offset="1" stop-color="#8b8e94"/></linearGradient><clipPath id="clip-path-21" transform="translate(-78.08 -80.17)"><path class="cls-4" d="M140.1,107.37c.25.48,2.26,4.31,4.09,8.06,1.72,3.52,3.22,6.9,3.39,7.27a3,3,0,0,1,.35,1.24,2.85,2.85,0,0,1-.35,1.2v0s-1.59,3.57-3.4,7.29c-1.63,3.33-3.39,6.73-4.08,8l0,.06c-.06.13-.12.22-.15.22s-.08-.09-.15-.22a1.18,1.18,0,0,0-.1-.19c-1.91-3.67-3.24-6.33-4-7.91-1.74-3.55-3.28-7-3.39-7.29l0,0a3.31,3.31,0,0,1-.35-1.21,3.06,3.06,0,0,1,.37-1.22l.09-.21c1.09-2.49,2.2-4.87,3.29-7.07,1.57-3.19,3.34-6.6,3.92-7.73a19.68,19.68,0,0,0,10.6,36.2,19.32,19.32,0,0,0,9.59-2.52c.43-.75.82-1.45,1.17-2.09,3.12-5.7,6.58-12.54,7-13.44a4.39,4.39,0,0,0,.5-1.91,4.45,4.45,0,0,0-.5-1.92c-1-2.16-4.25-8.49-7-13.44l-.66-1.19a19.54,19.54,0,0,0-20.16,0"/></clipPath><mask id="mask-3" x="52.55" y="24.41" width="39.32" height="39.32" maskUnits="userSpaceOnUse"><g transform="translate(-78.08 -80.17)"><rect x="130.64" y="104.58" width="39.32" height="39.32"/><g class="cls-1"><g class="cls-6"><rect class="cls-7" x="144.5" y="118.38" width="11.72" height="11.72"/></g></g></g></mask><clipPath id="clip-path-22" transform="translate(-78.08 -80.17)"><rect class="cls-4" x="130.64" y="104.58" width="39.32" height="39.32"/></clipPath><clipPath id="clip-path-23" transform="translate(-78.08 -80.17)"><path class="cls-4" d="M130.64,124.24a19.66,19.66,0,1,0,19.66-19.66,19.66,19.66,0,0,0-19.66,19.66"/></clipPath><mask id="mask-4" x="52.55" y="24.41" width="39.32" height="39.32" maskUnits="userSpaceOnUse"><g transform="translate(-78.08 -80.17)"><rect class="cls-8" x="130.64" y="104.58" width="39.32" height="39.32"/></g></mask><radialGradient id="Degradado_sin_nombre_19" cx="-242.31" cy="413.66" r="1.58" gradientTransform="matrix(12.42, 0, 0, -12.42, 3080.82, 5180.3)" gradientUnits="userSpaceOnUse"><stop offset="0" stop-color="#fff"/><stop offset="0.59" stop-color="#fff"/><stop offset="1" stop-color="#fff"/></radialGradient></defs><g class="cls-9"><rect class="cls-10" x="34.7" y="9.51" width="54.28" height="68.52"/></g><g class="cls-11"><g class="cls-12"><g class="cls-13"><rect class="cls-14" x="34.7" y="9.51" width="54.28" height="68.52"/></g></g></g><g class="cls-15"><rect class="cls-16" x="35.75" y="43.63" width="25.07" height="34.16"/></g><g class="cls-17"><g class="cls-18"><polygon class="cls-19" points="54.27 77.79 54.27 77.79 54.27 77.79 54.27 77.79"/></g></g><g class="cls-20"><rect class="cls-21" x="54.49" y="43.78" width="34.04" height="34.25"/></g><g class="cls-22"><rect class="cls-23" x="51.36" y="9.76" width="18.01" height="34"/></g><g class="cls-24"><rect class="cls-25" x="61.83" y="24.1" width="10.47" height="19.69"/></g><g class="cls-26"><rect class="cls-27" x="51.35" y="43.76" width="10.48" height="19.69"/></g><g class="cls-26"><g class="cls-28"><rect class="cls-29" x="123.54" y="124.94" width="22.26" height="17.65" transform="translate(-120.72 121.36) rotate(-65.72)"/></g></g><g class="cls-30"><rect class="cls-31" x="54.27" y="43.78" width="18.03" height="34.02"/></g><g class="cls-32"><rect class="cls-33" x="33.36" y="43.77" width="20.02" height="35.15"/></g><g class="cls-34"><rect class="cls-35" x="134.61" y="150.54" width="10.4" height="16.27" transform="matrix(0.5, -0.87, 0.87, 0.5, -145.59, 120.24)"/></g><g class="cls-36"><rect class="cls-37" x="137.98" y="88.98" width="40.63" height="34.65" transform="translate(-89.05 113.93) rotate(-61.3)"/></g><g class="cls-38"><rect class="cls-39" x="136.7" y="80.47" width="6.41" height="17.36" transform="translate(-62.43 118.89) rotate(-74)"/></g><g class="cls-40"><rect class="cls-41" x="105.79" y="86.23" width="31.5" height="40.15" transform="translate(-108.11 -29.55) rotate(-21)"/></g><g class="cls-42"><rect class="cls-43" x="70.08" y="43.68" width="20.23" height="35.34"/></g><g class="cls-44"><g class="cls-45"><g class="cls-46"><g class="cls-47"><g class="cls-48"><rect class="cls-49" x="52.55" y="24.41" width="39.32" height="39.32"/></g></g></g></g></g><path d="M147.92,122.55c-.1-.25-1.64-3.7-3.39-7.28-1.9-3.91-4-8-4.12-8.13-.18-.32-.31-.53-.49-.53s-.31.18-.49.53c-.09.16-2.28,4.35-4.14,8.13s-3.29,7.07-3.38,7.28a2.6,2.6,0,0,0,0,2.77c.1.25,1.64,3.72,3.4,7.31,1.9,3.9,4,8,4.11,8.11.17.31.3.52.49.52s.32-.2.49-.52,2.21-4.21,4.11-8.11c1.75-3.58,3.29-7,3.41-7.31a2.6,2.6,0,0,0,0-2.77m-.34,2.59v0s-1.58,3.57-3.4,7.29c-1.63,3.33-3.39,6.73-4.08,8l0,.06c-.07.13-.12.22-.15.22s-.08-.09-.15-.22l-.1-.19c-1.91-3.67-3.24-6.33-4-7.91-1.74-3.55-3.28-7-3.39-7.29l0,0a3.36,3.36,0,0,1-.35-1.21,3.2,3.2,0,0,1,.36-1.22,2.28,2.28,0,0,0,.1-.21c1.09-2.49,2.2-4.87,3.29-7.07,1.91-3.87,4.11-8.08,4.12-8.12s.12-.22.15-.22.1.11.16.23,2.17,4.11,4.12,8.11c1.72,3.52,3.22,6.9,3.39,7.27a3,3,0,0,1,.35,1.24,2.85,2.85,0,0,1-.35,1.2" transform="translate(-78.08 -80.17)"/><path d="M167.9,122c-1-2.16-4.25-8.49-7-13.44-3.74-6.78-10.42-17.94-11.18-19a2.12,2.12,0,0,0-1.86-1.12h-.1c-1-.11-5.29-.16-7.86-.16-2.21,0-6.89,0-8,.16a2.25,2.25,0,0,0-1.9,1.18c-.8,1.06-7.59,12.53-11.13,18.91-2.56,4.61-6.6,12.58-7,13.44a4.83,4.83,0,0,0-.5,1.92,4.56,4.56,0,0,0,.5,1.91c.85,1.84,3.41,6.94,7,13.44,3.73,6.78,10.46,18,11.18,19a2.18,2.18,0,0,0,1.93,1.14c1,.09,5.5.16,7.9.16,2.58,0,7.25-.1,7.9-.16a2.21,2.21,0,0,0,1.92-1.14c.68-.94,7.93-13,11.18-19,3.12-5.7,6.58-12.54,7-13.44a4.39,4.39,0,0,0,.5-1.91,4.45,4.45,0,0,0-.5-1.92m-.35,3.67c-.4.89-3.86,7.72-7,13.41-3.25,5.94-10.48,18-11.15,18.93a1.85,1.85,0,0,1-1.65,1c-.64.06-5.29.16-7.86.16-2.39,0-6.84-.07-7.87-.16a1.82,1.82,0,0,1-1.65-1c-.71-1-7.42-12.15-11.15-18.92-3.57-6.49-6.12-11.57-7-13.41a4.3,4.3,0,0,1-.46-1.75,4.45,4.45,0,0,1,.47-1.76c.37-.86,4.41-8.81,7-13.41,3.53-6.37,10.3-17.82,11.1-18.86.56-.73.76-.94,1.62-1,1.08-.11,5.75-.17,7.95-.17,2.56,0,6.82.05,7.82.16h.1c.65.07.94.1,1.59,1,.76,1,7.41,12.15,11.15,18.92,2.72,4.94,5.94,11.26,7,13.42a3.56,3.56,0,0,1,0,3.5" transform="translate(-78.08 -80.17)"/><polygon points="127.3 99.07 127.3 101.97 121.26 101.97 121.26 114.73 117.19 114.73 117.19 101.97 111.15 101.97 111.15 99.07 127.3 99.07"/><polygon points="112.89 111.83 112.89 114.73 99.94 114.73 99.94 99.07 104.01 99.07 104.01 111.83 112.89 111.83"/><polygon points="34.47 111.83 34.47 114.73 20.87 114.73 20.87 99.07 34.22 99.07 34.22 101.97 24.95 101.97 24.95 105.41 33.42 105.41 33.42 108.22 24.95 108.22 24.95 111.83 34.47 111.83"/><path d="M91.66,189.08a5.45,5.45,0,0,0,2.82-4.76A4.57,4.57,0,0,0,93,180.6c-1.16-1-2.74-1.36-5.42-1.36H78.25l-.17.94s.17.28.36.62a1.47,1.47,0,0,1,.27,1V194.9h4.07v-5h5.06l2.72,5h4.49Zm-2.06-2.54a1.62,1.62,0,0,1-1.26.45H82.78v-4.77h4.39a3.84,3.84,0,0,1,2.48.53,2.09,2.09,0,0,1,.68,1.76A2.69,2.69,0,0,1,89.6,186.54Z" transform="translate(-78.08 -80.17)"/><path d="M129.61,179.24v10.38c-1-1.19-2-2.35-3.63-4.2-1.37-1.51-4.23-4.59-5.7-6.18h-3.93l-.17.94s.17.28.36.62a1.5,1.5,0,0,1,.27.75V194.9h3.66V184.51c.73,1,2,2.47,2.9,3.41,1.72,1.87,4.33,4.79,6.37,7h3.51V179.24Z" transform="translate(-78.08 -80.17)"/><path d="M169.49,179.24v9.57a2.7,2.7,0,0,1-.73,2.19,4.76,4.76,0,0,1-3.32.91,4.84,4.84,0,0,1-3.37-.91,2.7,2.7,0,0,1-.74-2.19v-9.57H156.8l-.17.94s.17.28.36.62a1.52,1.52,0,0,1,.27.73V189c0,4.1,2.77,6.18,8.12,6.18h.12c5.35,0,8-2,8-6.18v-9.72Z" transform="translate(-78.08 -80.17)"/><path d="M148.19,179.24h-5.08c-1.55,3.19-4.23,9.07-6.75,15.66h4.09c.33-.89.67-1.8,1-2.71h8.36c.35.91.69,1.82,1,2.71h4.09C152.42,188.31,149.74,182.43,148.19,179.24Zm-5.55,10c1.07-2.66,2.14-5.19,3-7.14.86,1.95,1.94,4.48,3,7.14Z" transform="translate(-78.08 -80.17)"/></svg>