<svg id="Livello_1" data-name="Livello 1" xmlns="http://www.w3.org/2000/svg" xmlns:xlink="http://www.w3.org/1999/xlink" viewBox="0 0 192.76 192.75"><defs><style>.cls-1{fill:#fff;}.cls-2{fill:#a72c32;}.cls-3{fill:#ed1c24;}.cls-4{fill:#b3b3b3;stroke:#b3b3b3;}.cls-4,.cls-5{stroke-width:0.45px;}.cls-5{fill:#4d4d4d;stroke:#4d4d4d;}.cls-6{fill:url(#linear-gradient);}.cls-7{fill:url(#linear-gradient-2);}.cls-8{fill:url(#linear-gradient-3);}</style><linearGradient id="linear-gradient" x1="256" y1="553.77" x2="356.5" y2="553.77" gradientTransform="translate(83.16 -68.99) scale(0.9)" gradientUnits="userSpaceOnUse"><stop offset="0" stop-color="#939598"/><stop offset="0.08" stop-color="#999b9e"/><stop offset="0.18" stop-color="#aaacae"/><stop offset="0.3" stop-color="#c6c7c9"/><stop offset="0.44" stop-color="#edeeee"/><stop offset="0.49" stop-color="#fff"/><stop offset="0.57" stop-color="#fafafa"/><stop offset="0.68" stop-color="#eaeaeb"/><stop offset="0.8" stop-color="#d1d1d3"/><stop offset="0.92" stop-color="#adafb1"/><stop offset="1" stop-color="#939598"/></linearGradient><linearGradient id="linear-gradient-2" y1="576" y2="576" xlink:href="#linear-gradient"/><linearGradient id="linear-gradient-3" y1="598.32" x2="356.56" y2="598.32" xlink:href="#linear-gradient"/></defs><polygon class="cls-1" points="0 0 192.75 0 192.75 192.75 0 192.75 0 0 0 0"/><path class="cls-2" d="M407.31,411.31c-9.6-2.4-37.2-4.83-66.6-3-28.8,1.8-29.4,15.3-30.6,24.89s.9,58.8.9,58.8,29.1,4,47.4,3.8,47.52,2.82,50.4-18.2C411.81,455.71,407.31,411.31,407.31,411.31Z" transform="translate(-262.04 -374.04)"/><polygon class="cls-2" points="91.47 142.57 91.47 138.97 56.07 138.97 56.07 159.37 91.47 159.37 91.47 155.77 64.47 155.77 64.47 150.97 89.97 150.97 89.97 147.37 64.47 147.37 64.47 142.57 91.47 142.57"/><path class="cls-2" d="M304.41,522s-16.35-.6-18.75-.6-4.05-.6-4.05-3c0-1.65,2.24-1.8,4.2-1.81h23.3V513H281.7s-8.19-.3-8.19,5.7c0,4.95,2.85,6.15,7.35,6.15s15.9.76,18,.76c0,0,2.85.27,2.85,2.25a1.86,1.86,0,0,1-2.1,1.94h-25.8v3.6h29.6c1.6,0,6.25-.75,6.25-5.7C309.66,523.06,307.11,522.32,304.41,522Z" transform="translate(-262.04 -374.04)"/><polygon class="cls-2" points="182.19 139.02 145.65 139.02 145.65 143.28 159.88 143.28 159.88 159.37 167.65 159.37 167.65 143.28 182.19 143.28 182.19 139.02"/><path class="cls-2" d="M370.41,513c-3.89,0-7.65,2.71-7.65,5.86v14.64H370v-7.75h21.65v7.65h7.2V513Zm-.45,9.15v-1.49a4.07,4.07,0,0,1,4.2-3.75h17.45v5.24Z" transform="translate(-262.04 -374.04)"/><path class="cls-3" d="M406.41,410.41c-9.6-2.4-37.2-4.83-66.6-3-28.8,1.8-29.4,15.29-30.6,24.89s.9,58.8.9,58.8,29.1,4,47.4,3.8,47.52,2.82,50.4-18.2C410.91,454.81,406.41,410.41,406.41,410.41Z" transform="translate(-262.04 -374.04)"/><path class="cls-4" d="M312.81,432.62s-.27-12.88,6.6-16.81c8.4-4.79,30.3-9,83.1-2.4,0,0,.6,16.8.6,18,0,0-39.31-3.37-46.5-2.8-5.1.41-2.7,3.1,0,3.5,0,0,39.6,6.51,46.5,8V447S341,434.71,312.81,432.62Z" transform="translate(-262.04 -374.04)"/><path class="cls-4" d="M312.51,437.41s69.6,10.8,90.6,15.9v6.31s-70.8-15.91-90.3-17.71Z" transform="translate(-262.04 -374.04)"/><path class="cls-4" d="M312.81,447s68.1,10.5,90.3,19.19c0,0,1.8,14.41-5.4,18.91-10.3,6.43-49.2,6.3-84,2.09,0,0-.9-16.5,0-24.6,0,0,38.42,2.86,46.8,3.9,4.8.61,4.8-1.8,1.8-3.6,0,0-37.2-10.2-49.2-11.7Z" transform="translate(-262.04 -374.04)"/><path class="cls-5" d="M314.61,434.42s-.27-12.88,6.6-16.81c8.4-4.79,30.3-9,83.1-2.4,0,0,.6,16.8.6,18,0,0-39.31-3.37-46.5-2.8-5.1.4-2.7,3.11,0,3.5,0,0,39.6,6.5,46.5,8v6.9S342.81,436.51,314.61,434.42Z" transform="translate(-262.04 -374.04)"/><path class="cls-5" d="M314.31,439.21s69.6,10.8,90.6,15.91v6.3s-70.8-15.91-90.3-17.71Z" transform="translate(-262.04 -374.04)"/><path class="cls-5" d="M314.61,448.81s68.1,10.51,90.3,19.2c0,0,1.8,14.41-5.4,18.91-10.3,6.43-49.2,6.29-84,2.09,0,0-.9-16.5,0-24.6,0,0,38.42,2.86,46.8,3.9,4.8.61,4.8-1.8,1.8-3.6,0,0-37.2-10.2-49.2-11.7Z" transform="translate(-262.04 -374.04)"/><path class="cls-6" d="M313.71,433.52s-.27-12.88,6.6-16.81c8.4-4.79,30.3-9,83.1-2.4,0,0,.6,16.8.6,18,0,0-39.31-3.36-46.5-2.8-5.1.41-2.7,3.11,0,3.5,0,0,39.6,6.5,46.5,8v6.91S341.91,435.62,313.71,433.52Z" transform="translate(-262.04 -374.04)"/><path class="cls-7" d="M313.41,438.31s69.6,10.81,90.6,15.9v6.31s-70.8-15.91-90.3-17.71Z" transform="translate(-262.04 -374.04)"/><path class="cls-8" d="M313.71,447.92s68.1,10.5,90.3,19.2c0,0,1.8,14.39-5.4,18.89-10.3,6.44-49.2,6.3-84,2.11,0,0-.9-16.5,0-24.61,0,0,38.42,2.86,46.8,3.9,4.8.6,4.8-1.79,1.8-3.6,0,0-37.2-10.2-49.2-11.69Z" transform="translate(-262.04 -374.04)"/><polygon class="cls-3" points="90.57 141.67 90.57 138.07 55.17 138.07 55.17 158.47 90.57 158.47 90.57 154.87 63.57 154.87 63.57 150.07 89.07 150.07 89.07 146.47 63.57 146.47 63.57 141.67 90.57 141.67"/><path class="cls-3" d="M303.51,521.12s-16.35-.61-18.75-.61-4.05-.6-4.05-3c0-1.64,2.24-1.79,4.2-1.8h23.3v-3.59H280.8s-8.19-.31-8.19,5.69c0,5,2.85,6.15,7.35,6.15s15.9.75,18,.75c0,0,2.85.28,2.85,2.25a1.86,1.86,0,0,1-2.1,1.95h-25.8v3.6h29.6c1.6,0,6.25-.75,6.25-5.7C308.76,522.16,306.21,521.42,303.51,521.12Z" transform="translate(-262.04 -374.04)"/><polygon class="cls-3" points="181.29 138.12 144.75 138.12 144.75 142.38 158.98 142.38 158.98 158.47 166.75 158.47 166.75 142.38 181.29 142.38 181.29 138.12"/><path class="cls-3" d="M369.51,512.12c-3.89,0-7.65,2.7-7.65,5.84v14.65h7.2v-7.75h21.65v7.65h7.2V512.12Zm-.45,9.14v-1.5a4.07,4.07,0,0,1,4.2-3.74h17.45v5.24Z" transform="translate(-262.04 -374.04)"/></svg>