<svg id="Layer_1" data-name="Layer 1" xmlns="http://www.w3.org/2000/svg" xmlns:xlink="http://www.w3.org/1999/xlink" viewBox="0 0 411.69 239.62"><defs><style>.cls-1{fill:#231f20;}.cls-2{fill:#004990;}.cls-3{fill:#004a91;}.cls-4{fill:#004b91;}.cls-5{fill:#004c92;}.cls-6{fill:#004d93;}.cls-7{fill:#004e93;}.cls-8{fill:#004e94;}.cls-9{fill:#004f94;}.cls-10{fill:#024f94;}.cls-11{fill:#055095;}.cls-12{fill:#085095;}.cls-13{fill:#0d5196;}.cls-14{fill:#105296;}.cls-15{fill:#125296;}.cls-16{fill:#145297;}.cls-17{fill:#165397;}.cls-18{fill:#175397;}.cls-19{fill:#195497;}.cls-20{fill:#1a5498;}.cls-21{fill:#1c5598;}.cls-22{fill:#1d5598;}.cls-23{fill:#205699;}.cls-24{fill:#215699;}.cls-25{fill:#22579a;}.cls-26{fill:#24579a;}.cls-27{fill:#25589a;}.cls-28{fill:#26589a;}.cls-29{fill:#27599b;}.cls-30{fill:#28599b;}.cls-31{fill:#2a599b;}.cls-32{fill:#2b5a9c;}.cls-33{fill:#2d5b9c;}.cls-34{fill:#2e5b9d;}.cls-35{fill:#2f5c9d;}.cls-36{fill:#305c9d;}.cls-37{fill:#315d9e;}.cls-38{fill:#325d9e;}.cls-39{fill:#335e9e;}.cls-40{fill:#345e9f;}.cls-41{fill:#355f9f;}.cls-42{fill:#365f9f;}.cls-43{fill:#3760a0;}.cls-44{fill:#3960a0;}.cls-45{fill:#3a61a1;}.cls-46{fill:#3b61a1;}.cls-47{fill:#3c62a1;}.cls-48{fill:#3d62a2;}.cls-49{fill:#3e63a2;}.cls-50{fill:#3f63a2;}.cls-51{fill:#4064a3;}.cls-52{fill:#4164a3;}.cls-53{fill:#4265a3;}.cls-54{fill:#4366a4;}.cls-55{fill:#4466a4;}.cls-56{fill:#4567a5;}.cls-57{fill:#4667a5;}.cls-58{fill:#4768a5;}.cls-59{fill:#4868a6;}.cls-60{fill:#4969a6;}.cls-61{fill:#4a69a6;}.cls-62{fill:#4a6aa7;}.cls-63{fill:#4b6aa7;}.cls-64{fill:#4d6ba8;}.cls-65{fill:#4e6ca8;}.cls-66{fill:#4f6da8;}.cls-67{fill:#4f6da9;}.cls-68{fill:#506ea9;}.cls-69{fill:#516ea9;}.cls-70{fill:#526faa;}.cls-71{fill:#536faa;}.cls-72{fill:#5470ab;}.cls-73{fill:#5671ac;}.cls-74{fill:#5772ac;}.cls-75{fill:#5873ac;}.cls-76{fill:#5973ad;}.cls-77{fill:#5974ad;}.cls-78{fill:#5a74ae;}.cls-79{fill:#5b75ae;}.cls-80{fill:#5c75ae;}.cls-81{fill:#5d76af;}.cls-82{fill:#5e76af;}.cls-83{fill:#5e77af;}.cls-84{fill:#6078b0;}.cls-85{fill:#6179b1;}.cls-86{fill:#6279b1;}.cls-87{fill:#627ab1;}.cls-88{fill:#637ab2;}.cls-89{fill:#647bb2;}.cls-90{fill:#657cb2;}.cls-91{fill:#667cb3;}.cls-92{fill:#667db3;}.cls-93{fill:#677db4;}.cls-94{fill:#697fb4;}.cls-95{fill:#6a7fb5;}.cls-96{fill:#6a80b5;}.cls-97{fill:#6b80b6;}.cls-98{fill:#6c81b6;}.cls-99{fill:#6d82b6;}.cls-100{fill:#6e82b7;}.cls-101{fill:#6e83b7;}.cls-102{fill:#6f84b8;}.cls-103{fill:#7084b8;}.cls-104{fill:#7285b9;}.cls-105{fill:#7286b9;}.cls-106{fill:#7387ba;}.cls-107{fill:#7487ba;}.cls-108{fill:#7588bb;}.cls-109{fill:#7689bb;}.cls-110{fill:#778abc;}.cls-111{fill:#788bbc;}.cls-112{fill:#798bbd;}.cls-113{fill:#7b8dbe;}.cls-114{fill:#7c8ebe;}.cls-115{fill:#7d8fbf;}.cls-116{fill:#7e8fbf;}.cls-117{fill:#7f90c0;}.cls-118{fill:#8091c0;}.cls-119{fill:#8091c1;}.cls-120{fill:#8192c1;}.cls-121{fill:#8293c1;}.cls-122{fill:#8494c2;}.cls-123{fill:#8595c3;}.cls-124{fill:#8696c3;}.cls-125{fill:#8696c4;}.cls-126{fill:#8797c4;}.cls-127{fill:#8898c5;}.cls-128{fill:#8998c5;}.cls-129{fill:#8a99c5;}.cls-130{fill:#8b9ac6;}.cls-131{fill:#8c9bc6;}.cls-132{fill:#8c9bc7;}.cls-133{fill:#8e9dc8;}.cls-134{fill:#8f9ec8;}.cls-135{fill:#909ec9;}.cls-136{fill:#919fc9;}.cls-137{fill:#92a0ca;}.cls-138{fill:#93a0ca;}.cls-139{fill:#94a1ca;}.cls-140{fill:#94a2cb;}.cls-141{fill:#95a3cb;}.cls-142{fill:#96a3cc;}.cls-143{fill:#98a5cd;}.cls-144{fill:#99a6cd;}.cls-145{fill:#9aa7ce;}.cls-146{fill:url(#linear-gradient);}.cls-147,.cls-148,.cls-149,.cls-150{fill:none;}.cls-147{stroke:#000;}.cls-147,.cls-148{stroke-width:1.81px;}.cls-148,.cls-149{stroke:#231f20;}.cls-149{stroke-width:0.91px;}.cls-151{fill:url(#linear-gradient-2);}.cls-152{fill:url(#linear-gradient-3);}.cls-153{fill:url(#linear-gradient-4);}.cls-154{fill:url(#linear-gradient-5);}.cls-155{fill:url(#linear-gradient-6);}.cls-156{fill:url(#linear-gradient-7);}.cls-157{fill:url(#linear-gradient-8);}.cls-158{fill:url(#linear-gradient-9);}.cls-159{fill:url(#linear-gradient-10);}.cls-160{fill:url(#linear-gradient-11);}.cls-161{fill:url(#linear-gradient-12);}.cls-162{fill:url(#linear-gradient-13);}.cls-163{fill:url(#linear-gradient-14);}.cls-164{fill:url(#linear-gradient-15);}.cls-165{fill:url(#linear-gradient-16);}.cls-166{fill:url(#linear-gradient-17);}.cls-167{fill:url(#linear-gradient-18);}.cls-168{fill:url(#linear-gradient-19);}.cls-169{fill:url(#linear-gradient-20);}.cls-170{fill:url(#linear-gradient-21);}.cls-171{fill:url(#linear-gradient-22);}.cls-172{fill:url(#linear-gradient-23);}.cls-173{fill:url(#linear-gradient-24);}.cls-174{fill:url(#linear-gradient-25);}.cls-175{fill:url(#linear-gradient-26);}.cls-176{fill:url(#linear-gradient-27);}.cls-177{fill:url(#linear-gradient-28);}.cls-178{fill:url(#linear-gradient-29);}.cls-179{fill:url(#linear-gradient-30);}.cls-180{fill:url(#linear-gradient-31);}.cls-181{fill:url(#linear-gradient-32);}.cls-182{fill:url(#linear-gradient-33);}.cls-183{fill:url(#linear-gradient-34);}.cls-184{fill:url(#linear-gradient-35);}.cls-185{fill:url(#linear-gradient-36);}.cls-186{fill:url(#linear-gradient-37);}.cls-187{fill:url(#linear-gradient-38);}.cls-188{fill:url(#linear-gradient-39);}.cls-189{fill:url(#linear-gradient-40);}.cls-190{fill:url(#linear-gradient-41);}.cls-191{fill:url(#linear-gradient-42);}.cls-192{fill:url(#linear-gradient-43);}.cls-193{fill:url(#linear-gradient-44);}.cls-194{fill:url(#linear-gradient-45);}.cls-195{fill:url(#linear-gradient-46);}.cls-196{fill:url(#linear-gradient-47);}.cls-197{fill:url(#linear-gradient-48);}.cls-198{fill:url(#linear-gradient-49);}.cls-199{fill:url(#linear-gradient-50);}.cls-200{fill:url(#linear-gradient-51);}.cls-201{fill:url(#linear-gradient-52);}.cls-202{fill:url(#linear-gradient-53);}.cls-203{fill:url(#linear-gradient-54);}.cls-204{fill:url(#linear-gradient-55);}.cls-205{fill:url(#linear-gradient-56);}.cls-206{fill:url(#linear-gradient-57);}.cls-207{fill:url(#linear-gradient-58);}.cls-208{fill:url(#linear-gradient-59);}.cls-209{fill:url(#linear-gradient-60);}.cls-210{fill:url(#radial-gradient);}.cls-211{fill:url(#linear-gradient-61);}.cls-212{fill:url(#linear-gradient-62);}.cls-213{fill:url(#linear-gradient-63);}</style><linearGradient id="linear-gradient" x1="319.46" y1="383.93" x2="292.35" y2="202.27" gradientUnits="userSpaceOnUse"><stop offset="0.01" stop-color="#231f20"/><stop offset="0.03" stop-color="#1f242d"/><stop offset="0.1" stop-color="#143151"/><stop offset="0.17" stop-color="#0b3c6c"/><stop offset="0.24" stop-color="#054380"/><stop offset="0.31" stop-color="#01488c"/><stop offset="0.38" stop-color="#004990"/><stop offset="1" stop-color="#004990"/></linearGradient><linearGradient id="linear-gradient-2" x1="164.53" y1="309.35" x2="451.2" y2="309.35" gradientUnits="userSpaceOnUse"><stop offset="0.01" stop-color="gray"/><stop offset="0.15" stop-color="#fff"/><stop offset="0.2" stop-color="#f4f4f4"/><stop offset="0.3" stop-color="#dcdcdc"/><stop offset="0.4" stop-color="#cecece"/><stop offset="0.48" stop-color="#c9c9c9"/><stop offset="0.49" stop-color="silver"/><stop offset="0.51" stop-color="#979797"/><stop offset="0.54" stop-color="#757575"/><stop offset="0.57" stop-color="#5a5a5a"/><stop offset="0.59" stop-color="#474747"/><stop offset="0.62" stop-color="#3c3c3c"/><stop offset="0.65" stop-color="#383838"/><stop offset="0.84" stop-color="#383838"/><stop offset="1" stop-color="#7a7a7a"/></linearGradient><linearGradient id="linear-gradient-3" x1="164.53" y1="309.35" x2="451.2" y2="309.35" gradientUnits="userSpaceOnUse"><stop offset="0.01" stop-color="#d1d1d1"/><stop offset="0.46" stop-color="#4d4d4d"/><stop offset="1" stop-color="#a6a6a6"/></linearGradient><linearGradient id="linear-gradient-4" x1="247.36" y1="246.76" x2="364.59" y2="368.06" gradientUnits="userSpaceOnUse"><stop offset="0.01" stop-color="#e6e6e6"/><stop offset="0.46" stop-color="#595959"/><stop offset="0.84" stop-color="gray"/><stop offset="1" stop-color="#d9d9d9"/></linearGradient><linearGradient id="linear-gradient-5" x1="254.53" y1="277.89" x2="407.83" y2="367.21" gradientUnits="userSpaceOnUse"><stop offset="0.01" stop-color="#f2f2f2"/><stop offset="0.35" stop-color="#1a1a1a"/><stop offset="0.59" stop-color="#3d3d3d"/><stop offset="0.69" stop-color="#474747"/><stop offset="0.77" stop-color="#525252"/><stop offset="1" stop-color="#bdbdbd"/></linearGradient><linearGradient id="linear-gradient-6" x1="330.27" y1="356.88" x2="366.93" y2="356.88" gradientUnits="userSpaceOnUse"><stop offset="0.08" stop-color="#999"/><stop offset="0.17" stop-color="#7d7d7d"/><stop offset="0.32" stop-color="#525252"/><stop offset="0.64" stop-color="#4a4a4a"/><stop offset="0.79" stop-color="#b0b0b0"/><stop offset="0.89" stop-color="#7a7a7a"/><stop offset="1" stop-color="#9e9e9e"/></linearGradient><linearGradient id="linear-gradient-7" x1="384.1" y1="346.77" x2="384.1" y2="348.62" gradientUnits="userSpaceOnUse"><stop offset="0.14" stop-color="#e6e6e6"/><stop offset="0.51" stop-color="#ccc"/><stop offset="0.91" stop-color="#e0e0e0"/></linearGradient><linearGradient id="linear-gradient-8" x1="342.88" y1="339.97" x2="363.62" y2="338.61" gradientUnits="userSpaceOnUse"><stop offset="0.08" stop-color="#999"/><stop offset="0.13" stop-color="#a4a4a4"/><stop offset="0.32" stop-color="#cfcfcf"/><stop offset="0.56" stop-color="#d9d9d9"/><stop offset="0.76" stop-color="#e0e0e0"/></linearGradient><linearGradient id="linear-gradient-9" x1="317.12" y1="338.4" x2="328.23" y2="349.35" gradientUnits="userSpaceOnUse"><stop offset="0.08" stop-color="#ededed"/><stop offset="0.21" stop-color="#bcbcbc"/><stop offset="0.32" stop-color="#919191"/><stop offset="0.56" stop-color="#8c8c8c"/><stop offset="0.76" stop-color="#999"/></linearGradient><linearGradient id="linear-gradient-10" x1="306.59" y1="362.56" x2="328.66" y2="344.46" gradientUnits="userSpaceOnUse"><stop offset="0.08" stop-color="#949494"/><stop offset="0.16" stop-color="#7d7d7d"/><stop offset="0.32" stop-color="#525252"/><stop offset="0.56" stop-color="#4a4a4a"/><stop offset="0.76" stop-color="#999"/></linearGradient><linearGradient id="linear-gradient-11" x1="297.67" y1="355.62" x2="308.23" y2="373.92" gradientUnits="userSpaceOnUse"><stop offset="0" stop-color="#d9d9d9"/><stop offset="0.2" stop-color="#6b6b6b"/><stop offset="0.2" stop-color="#6b6b6b"/><stop offset="0.45" stop-color="#969696"/><stop offset="0.56" stop-color="#969696"/><stop offset="0.76" stop-color="#a8a8a8"/></linearGradient><linearGradient id="linear-gradient-12" x1="303.15" y1="366.53" x2="305.4" y2="366.53" gradientUnits="userSpaceOnUse"><stop offset="0.21" stop-color="#969696"/><stop offset="0.36" stop-color="#adadad"/><stop offset="0.51" stop-color="#c9c9c9"/><stop offset="0.74" stop-color="#a3a3a3"/><stop offset="0.88" stop-color="#9e9e9e"/></linearGradient><linearGradient id="linear-gradient-13" x1="281.24" y1="348.06" x2="294.82" y2="355.98" gradientUnits="userSpaceOnUse"><stop offset="0" stop-color="#a8a8a8"/><stop offset="0.09" stop-color="#6b6b6b"/><stop offset="0.37" stop-color="#5e5e5e"/><stop offset="0.46" stop-color="#616161"/><stop offset="0.54" stop-color="#6c6c6c"/><stop offset="0.62" stop-color="#7d7d7d"/><stop offset="0.68" stop-color="#959595"/><stop offset="0.69" stop-color="#969696"/><stop offset="0.85" stop-color="#d9d9d9"/></linearGradient><linearGradient id="linear-gradient-14" x1="270.52" y1="338.66" x2="306.2" y2="338.66" gradientUnits="userSpaceOnUse"><stop offset="0" stop-color="#a8a8a8"/><stop offset="1" stop-color="#fff"/></linearGradient><linearGradient id="linear-gradient-15" x1="304.25" y1="332.65" x2="312" y2="347.24" gradientUnits="userSpaceOnUse"><stop offset="0" stop-color="#c7c7c7"/><stop offset="0.08" stop-color="#bdbdbd"/><stop offset="0.14" stop-color="#8c8c8c"/><stop offset="0.21" stop-color="#7e7e7e"/><stop offset="0.33" stop-color="#6b6b6b"/><stop offset="0.39" stop-color="#595959"/><stop offset="0.54" stop-color="#2e2e2e"/><stop offset="0.57" stop-color="#323232"/><stop offset="0.6" stop-color="#3e3e3e"/><stop offset="0.64" stop-color="#535353"/><stop offset="0.67" stop-color="#707070"/><stop offset="0.7" stop-color="#959595"/><stop offset="0.73" stop-color="#c1c1c1"/><stop offset="0.75" stop-color="#e0e0e0"/><stop offset="0.89" stop-color="#fff"/></linearGradient><linearGradient id="linear-gradient-16" x1="303.64" y1="331.43" x2="304.65" y2="331.43" gradientUnits="userSpaceOnUse"><stop offset="0" stop-color="#fff"/><stop offset="0.45" stop-color="#bfbfbf"/><stop offset="0.82" stop-color="#c2c2c2"/></linearGradient><linearGradient id="linear-gradient-17" x1="275.87" y1="348.92" x2="275.88" y2="346.95" gradientUnits="userSpaceOnUse"><stop offset="0" stop-color="#a6a6a6"/><stop offset="0.45" stop-color="#e6e6e6"/><stop offset="0.82" stop-color="#b8b8b8"/></linearGradient><linearGradient id="linear-gradient-18" x1="383.32" y1="347.65" x2="376.01" y2="371.32" gradientUnits="userSpaceOnUse"><stop offset="0.01" stop-color="#fff"/><stop offset="0.01" stop-color="#fefefe"/><stop offset="0.04" stop-color="#ccc"/><stop offset="0.06" stop-color="#a2a2a2"/><stop offset="0.09" stop-color="#818181"/><stop offset="0.12" stop-color="#6a6a6a"/><stop offset="0.14" stop-color="#5c5c5c"/><stop offset="0.16" stop-color="#575757"/><stop offset="0.2" stop-color="#686868"/><stop offset="0.28" stop-color="#969696"/><stop offset="0.34" stop-color="#bdbdbd"/><stop offset="0.45" stop-color="#a1a1a1"/><stop offset="0.51" stop-color="#919191"/><stop offset="0.86" stop-color="#b8b8b8"/></linearGradient><linearGradient id="linear-gradient-19" x1="365.93" y1="335.97" x2="377.51" y2="347.82" gradientUnits="userSpaceOnUse"><stop offset="0.08" stop-color="#dedede"/><stop offset="0.24" stop-color="#7d7d7d"/><stop offset="0.32" stop-color="#525252"/><stop offset="0.56" stop-color="#737373"/><stop offset="0.67" stop-color="#a0a0a0"/><stop offset="0.82" stop-color="#e6e6e6"/></linearGradient><linearGradient id="linear-gradient-20" x1="364.63" y1="334.01" x2="366.37" y2="334.01" gradientUnits="userSpaceOnUse"><stop offset="0" stop-color="#e3e3e3"/><stop offset="0.45" stop-color="#bababa"/><stop offset="0.77" stop-color="#dadada"/><stop offset="0.82" stop-color="#e0e0e0"/></linearGradient><linearGradient id="linear-gradient-21" x1="390.68" y1="347.2" x2="390.68" y2="348.28" gradientUnits="userSpaceOnUse"><stop offset="0" stop-color="#e6e6e6"/><stop offset="0.05" stop-color="#ddd"/><stop offset="0.2" stop-color="#cbcbcb"/><stop offset="0.36" stop-color="silver"/><stop offset="0.54" stop-color="#bdbdbd"/><stop offset="0.65" stop-color="#c2c2c2"/><stop offset="0.77" stop-color="#d0d0d0"/><stop offset="0.91" stop-color="#e8e8e8"/><stop offset="1" stop-color="#fcfcfc"/></linearGradient><linearGradient id="linear-gradient-22" x1="364.37" y1="361.97" x2="367.35" y2="361.97" gradientUnits="userSpaceOnUse"><stop offset="0.02" stop-color="#878787"/><stop offset="0.06" stop-color="#8a8a8a"/><stop offset="0.09" stop-color="#919191"/><stop offset="0.43" stop-color="#e0e0e0"/><stop offset="0.77" stop-color="#9e9e9e"/><stop offset="1" stop-color="#adadad"/></linearGradient><linearGradient id="linear-gradient-23" x1="356.49" y1="312.65" x2="364.42" y2="320.45" xlink:href="#linear-gradient-9"/><linearGradient id="linear-gradient-24" x1="348.73" y1="334.78" x2="370.99" y2="316.51" xlink:href="#linear-gradient-10"/><linearGradient id="linear-gradient-25" x1="339.87" y1="327.78" x2="350.56" y2="346.32" xlink:href="#linear-gradient-11"/><linearGradient id="linear-gradient-26" x1="345.36" y1="338.87" x2="347.62" y2="338.87" xlink:href="#linear-gradient-12"/><linearGradient id="linear-gradient-27" x1="323.34" y1="320.12" x2="336.99" y2="328.09" xlink:href="#linear-gradient-13"/><linearGradient id="linear-gradient-28" x1="312.58" y1="310.56" x2="348.42" y2="310.56" xlink:href="#linear-gradient-14"/><linearGradient id="linear-gradient-29" x1="346.41" y1="304.47" x2="354.27" y2="319.28" xlink:href="#linear-gradient-15"/><linearGradient id="linear-gradient-30" x1="420.52" y1="323.45" x2="401.51" y2="327.8" gradientUnits="userSpaceOnUse"><stop offset="0" stop-color="#b8b8b8"/><stop offset="0.11" stop-color="#a0a0a0"/><stop offset="0.32" stop-color="#757575"/><stop offset="0.43" stop-color="#767676"/><stop offset="0.56" stop-color="#737373"/><stop offset="0.63" stop-color="#787878"/><stop offset="0.71" stop-color="#868686"/><stop offset="0.77" stop-color="#969696"/></linearGradient><linearGradient id="linear-gradient-31" x1="416.73" y1="315.43" x2="422.15" y2="320.85" gradientUnits="userSpaceOnUse"><stop offset="0" stop-color="#e6e6e6"/><stop offset="0.1" stop-color="#c9c9c9"/><stop offset="0.27" stop-color="#9c9c9c"/><stop offset="0.43" stop-color="#a7a7a7"/><stop offset="0.75" stop-color="#b7b7b7"/><stop offset="1" stop-color="#bdbdbd"/></linearGradient><linearGradient id="linear-gradient-32" x1="403.84" y1="306.54" x2="410.03" y2="320.72" gradientUnits="userSpaceOnUse"><stop offset="0.14" stop-color="#dedede"/><stop offset="0.24" stop-color="#a0a0a0"/><stop offset="0.31" stop-color="#757575"/><stop offset="0.58" stop-color="#737373"/><stop offset="0.62" stop-color="#787878"/><stop offset="0.66" stop-color="#868686"/><stop offset="0.71" stop-color="#9d9d9d"/><stop offset="0.77" stop-color="#bebebe"/><stop offset="0.82" stop-color="#e6e6e6"/></linearGradient><linearGradient id="linear-gradient-33" x1="366.41" y1="311.64" x2="404.13" y2="311.64" xlink:href="#linear-gradient-8"/><linearGradient id="linear-gradient-34" x1="403.31" y1="306.35" x2="404.84" y2="306.35" gradientUnits="userSpaceOnUse"><stop offset="0" stop-color="#e3e3e3"/><stop offset="0.11" stop-color="#dbdbdb"/><stop offset="0.28" stop-color="#c5c5c5"/><stop offset="0.45" stop-color="#a8a8a8"/><stop offset="0.67" stop-color="#c8c8c8"/><stop offset="0.82" stop-color="#e0e0e0"/></linearGradient><linearGradient id="linear-gradient-35" x1="402.75" y1="331.73" x2="407.54" y2="331.73" gradientUnits="userSpaceOnUse"><stop offset="0" stop-color="#bababa"/><stop offset="0.12" stop-color="#a0a0a0"/><stop offset="0.32" stop-color="#757575"/><stop offset="0.43" stop-color="#767676"/><stop offset="0.56" stop-color="#737373"/><stop offset="0.66" stop-color="#787878"/><stop offset="0.77" stop-color="#858585"/></linearGradient><linearGradient id="linear-gradient-36" x1="369.28" y1="325.47" x2="402.21" y2="325.47" gradientUnits="userSpaceOnUse"><stop offset="0.08" stop-color="#999"/><stop offset="0.17" stop-color="#7d7d7d"/><stop offset="0.32" stop-color="#525252"/><stop offset="0.56" stop-color="#404040"/><stop offset="0.75" stop-color="#999"/><stop offset="0.87" stop-color="#d1d1d1"/></linearGradient><linearGradient id="linear-gradient-37" x1="405.48" y1="334.36" x2="398.35" y2="327.74" gradientUnits="userSpaceOnUse"><stop offset="0" stop-color="#3b3b3b"/><stop offset="0.03" stop-color="#3d3d3d"/><stop offset="0.26" stop-color="#4d4d4d"/><stop offset="0.44" stop-color="#525252"/><stop offset="0.5" stop-color="#585858"/><stop offset="0.57" stop-color="#696969"/><stop offset="0.63" stop-color="#787878"/><stop offset="0.75" stop-color="#999"/><stop offset="0.87" stop-color="#d1d1d1"/></linearGradient><linearGradient id="linear-gradient-38" x1="318.23" y1="319.22" x2="318.23" y2="321.13" gradientUnits="userSpaceOnUse"><stop offset="0" stop-color="#bdbdbd"/><stop offset="0.45" stop-color="#d9d9d9"/><stop offset="0.82" stop-color="#a8a8a8"/></linearGradient><linearGradient id="linear-gradient-39" x1="345.84" y1="303.21" x2="346.86" y2="303.21" xlink:href="#linear-gradient-16"/><linearGradient id="linear-gradient-40" x1="203.81" y1="294.07" x2="265.59" y2="303.58" gradientUnits="userSpaceOnUse"><stop offset="0" stop-color="#a8a8a8"/><stop offset="0.09" stop-color="#6b6b6b"/><stop offset="0.37" stop-color="#4d4d4d"/><stop offset="0.45" stop-color="#505050"/><stop offset="0.52" stop-color="#5b5b5b"/><stop offset="0.59" stop-color="#6c6c6c"/><stop offset="0.65" stop-color="#848484"/><stop offset="0.69" stop-color="#969696"/><stop offset="0.85" stop-color="#f0f0f0"/></linearGradient><linearGradient id="linear-gradient-41" x1="188.02" y1="270.46" x2="269.92" y2="270.46" gradientUnits="userSpaceOnUse"><stop offset="0" stop-color="#a8a8a8"/><stop offset="0.61" stop-color="#f0f0f0"/><stop offset="0.74" stop-color="#fff"/><stop offset="0.8" stop-color="#fbfbfb"/><stop offset="0.87" stop-color="#ededed"/><stop offset="0.95" stop-color="#d7d7d7"/><stop offset="1" stop-color="#c2c2c2"/></linearGradient><linearGradient id="linear-gradient-42" x1="266.6" y1="268.57" x2="303.09" y2="268.57" gradientUnits="userSpaceOnUse"><stop offset="0" stop-color="#cfcfcf"/><stop offset="0.08" stop-color="#d9d9d9"/><stop offset="0.14" stop-color="#6b6b6b"/><stop offset="0.19" stop-color="#606060"/><stop offset="0.29" stop-color="#4d4d4d"/><stop offset="0.3" stop-color="#4f4f4f"/><stop offset="0.52" stop-color="#7a7a7a"/><stop offset="0.58" stop-color="#7e7e7e"/><stop offset="0.64" stop-color="#8a8a8a"/><stop offset="0.7" stop-color="#9f9f9f"/><stop offset="0.76" stop-color="#bbb"/><stop offset="0.82" stop-color="#e0e0e0"/><stop offset="0.97" stop-color="#ededed"/></linearGradient><linearGradient id="linear-gradient-43" x1="267.22" y1="251.84" x2="269.35" y2="251.84" gradientUnits="userSpaceOnUse"><stop offset="0" stop-color="#d4d4d4"/><stop offset="0.53" stop-color="#9e9e9e"/><stop offset="0.82" stop-color="#d9d9d9"/></linearGradient><linearGradient id="linear-gradient-44" x1="378.73" y1="275.71" x2="371.68" y2="288.84" gradientUnits="userSpaceOnUse"><stop offset="0" stop-color="#d1d1d1"/><stop offset="0.62" stop-color="#fff"/><stop offset="0.8" stop-color="#d6d6d6"/><stop offset="1" stop-color="#ababab"/></linearGradient><linearGradient id="linear-gradient-45" x1="406.69" y1="287.18" x2="408.58" y2="298.24" gradientUnits="userSpaceOnUse"><stop offset="0.07" stop-color="#fff"/><stop offset="0.26" stop-color="#8c8c8c"/><stop offset="0.31" stop-color="#787878"/><stop offset="0.41" stop-color="#4d4d4d"/><stop offset="0.62" stop-color="#4a4a4a"/><stop offset="0.69" stop-color="#474747"/><stop offset="1" stop-color="#ebebeb"/></linearGradient><linearGradient id="linear-gradient-46" x1="393.63" y1="293.25" x2="386.84" y2="319.39" gradientUnits="userSpaceOnUse"><stop offset="0.06" stop-color="#e0e0e0"/><stop offset="0.26" stop-color="#ebebeb"/><stop offset="0.27" stop-color="#e4e4e4"/><stop offset="0.41" stop-color="#787878"/><stop offset="0.47" stop-color="#4d4d4d"/><stop offset="0.67" stop-color="#4d4d4d"/><stop offset="0.69" stop-color="#4d4d4d"/><stop offset="1" stop-color="#5e5e5e"/></linearGradient><linearGradient id="linear-gradient-47" x1="278.34" y1="306.35" x2="266.69" y2="345.84" gradientUnits="userSpaceOnUse"><stop offset="0" stop-color="#bdbdbd"/><stop offset="0.23" stop-color="#828282"/><stop offset="0.26" stop-color="#787878"/><stop offset="0.41" stop-color="#4d4d4d"/><stop offset="0.48" stop-color="#505050"/><stop offset="0.54" stop-color="#5b5b5b"/><stop offset="0.6" stop-color="#6c6c6c"/><stop offset="0.66" stop-color="#848484"/><stop offset="0.69" stop-color="#969696"/><stop offset="1" stop-color="#9c9c9c"/></linearGradient><linearGradient id="linear-gradient-48" x1="258.01" y1="310.32" x2="265.48" y2="349.24" gradientUnits="userSpaceOnUse"><stop offset="0" stop-color="#b5b5b5"/><stop offset="0.23" stop-color="#6b6b6b"/><stop offset="0.41" stop-color="#4d4d4d"/><stop offset="0.48" stop-color="#505050"/><stop offset="0.54" stop-color="#5b5b5b"/><stop offset="0.6" stop-color="#6c6c6c"/><stop offset="0.66" stop-color="#848484"/><stop offset="0.69" stop-color="#969696"/><stop offset="1" stop-color="#c2c2c2"/></linearGradient><linearGradient id="linear-gradient-49" x1="267.35" y1="339.93" x2="269.16" y2="339.93" gradientUnits="userSpaceOnUse"><stop offset="0" stop-color="#999"/><stop offset="0.45" stop-color="#e6e6e6"/><stop offset="0.82" stop-color="#a3a3a3"/></linearGradient><linearGradient id="linear-gradient-50" x1="196.29" y1="291.02" x2="196.29" y2="293.66" gradientUnits="userSpaceOnUse"><stop offset="0" stop-color="#a8a8a8"/><stop offset="0.04" stop-color="#b2b2b2"/><stop offset="0.26" stop-color="#dcdcdc"/><stop offset="0.43" stop-color="#f5f5f5"/><stop offset="0.53" stop-color="#fff"/><stop offset="0.65" stop-color="#ebebeb"/><stop offset="0.89" stop-color="#b8b8b8"/><stop offset="1" stop-color="#9e9e9e"/></linearGradient><linearGradient id="linear-gradient-51" x1="285.14" y1="311.01" x2="339.24" y2="285.88" gradientUnits="userSpaceOnUse"><stop offset="0" stop-color="#bdbdbd"/><stop offset="0.26" stop-color="#6b6b6b"/><stop offset="0.41" stop-color="#4d4d4d"/><stop offset="0.62" stop-color="#4a4a4a"/><stop offset="0.69" stop-color="#474747"/><stop offset="1" stop-color="#545454"/></linearGradient><linearGradient id="linear-gradient-52" x1="382.54" y1="298.3" x2="360.51" y2="294.23" gradientUnits="userSpaceOnUse"><stop offset="0" stop-color="#bfbfbf"/><stop offset="0.26" stop-color="#737373"/><stop offset="0.41" stop-color="#4d4d4d"/><stop offset="0.62" stop-color="#4a4a4a"/><stop offset="0.69" stop-color="#474747"/><stop offset="1" stop-color="#545454"/></linearGradient><linearGradient id="linear-gradient-53" x1="383.4" y1="295.19" x2="387.59" y2="312.98" gradientUnits="userSpaceOnUse"><stop offset="0" stop-color="#d1d1d1"/><stop offset="0.24" stop-color="#9c9c9c"/><stop offset="0.33" stop-color="#787878"/><stop offset="0.44" stop-color="#4d4d4d"/><stop offset="0.63" stop-color="#4a4a4a"/><stop offset="0.69" stop-color="#474747"/><stop offset="1" stop-color="#4d4d4d"/></linearGradient><linearGradient id="linear-gradient-54" x1="386.77" y1="310.5" x2="388.89" y2="310.5" gradientUnits="userSpaceOnUse"><stop offset="0" stop-color="#4a4a4a"/><stop offset="0.1" stop-color="#4d4d4d"/><stop offset="0.19" stop-color="#585858"/><stop offset="0.27" stop-color="#696969"/><stop offset="0.34" stop-color="#818181"/><stop offset="0.41" stop-color="#a0a0a0"/><stop offset="0.48" stop-color="#c6c6c6"/><stop offset="0.51" stop-color="#d4d4d4"/><stop offset="0.55" stop-color="#cacaca"/><stop offset="0.62" stop-color="#b0b0b0"/><stop offset="0.71" stop-color="#868686"/><stop offset="0.75" stop-color="#707070"/><stop offset="0.94" stop-color="#4f4f4f"/></linearGradient><linearGradient id="linear-gradient-55" x1="393.33" y1="297.26" x2="411.39" y2="293" gradientUnits="userSpaceOnUse"><stop offset="0" stop-color="#e6e6e6"/><stop offset="0.23" stop-color="#737373"/><stop offset="0.45" stop-color="#4d4d4d"/><stop offset="0.63" stop-color="#474747"/><stop offset="0.69" stop-color="#666"/><stop offset="0.79" stop-color="#929292"/><stop offset="0.88" stop-color="#b2b2b2"/><stop offset="0.95" stop-color="#c5c5c5"/><stop offset="1" stop-color="#ccc"/></linearGradient><linearGradient id="linear-gradient-56" x1="414" y1="293" x2="413.98" y2="291.45" gradientUnits="userSpaceOnUse"><stop offset="0" stop-color="#c9c9c9"/><stop offset="0.25" stop-color="#c6c6c6"/><stop offset="0.46" stop-color="#bbb"/><stop offset="0.51" stop-color="#b8b8b8"/><stop offset="0.55" stop-color="#aeaeae"/><stop offset="0.63" stop-color="#949494"/><stop offset="0.73" stop-color="#707070"/><stop offset="0.94" stop-color="#4f4f4f"/></linearGradient><linearGradient id="linear-gradient-57" x1="395.7" y1="289.25" x2="389.77" y2="275.41" gradientUnits="userSpaceOnUse"><stop offset="0" stop-color="#fff"/><stop offset="0.13" stop-color="#a6a6a6"/><stop offset="0.27" stop-color="#787878"/><stop offset="0.42" stop-color="#4d4d4d"/><stop offset="0.44" stop-color="#4c4c4c"/><stop offset="0.73" stop-color="#474747"/><stop offset="0.98" stop-color="#515151"/><stop offset="1" stop-color="#525252"/></linearGradient><linearGradient id="linear-gradient-58" x1="386.73" y1="275.99" x2="388.74" y2="275.99" gradientUnits="userSpaceOnUse"><stop offset="0" stop-color="#d4d4d4"/><stop offset="0.2" stop-color="#d1d1d1"/><stop offset="0.37" stop-color="#c6c6c6"/><stop offset="0.51" stop-color="#b8b8b8"/><stop offset="0.55" stop-color="#aeaeae"/><stop offset="0.61" stop-color="#949494"/><stop offset="0.7" stop-color="#6a6a6a"/><stop offset="0.73" stop-color="#5e5e5e"/><stop offset="0.94" stop-color="#4d4d4d"/></linearGradient><linearGradient id="linear-gradient-59" x1="297.55" y1="286.45" x2="357.87" y2="290.76" gradientUnits="userSpaceOnUse"><stop offset="0" stop-color="#e8e8e8"/><stop offset="0.62" stop-color="#fff"/><stop offset="0.8" stop-color="#d6d6d6"/><stop offset="1" stop-color="#ababab"/></linearGradient><linearGradient id="linear-gradient-60" x1="402.75" y1="334.85" x2="405.71" y2="334.85" gradientUnits="userSpaceOnUse"><stop offset="0.03" stop-color="#4a4a4a"/><stop offset="0.09" stop-color="#585858"/><stop offset="0.2" stop-color="#7b7b7b"/><stop offset="0.36" stop-color="#b3b3b3"/><stop offset="0.49" stop-color="#d4d4d4"/><stop offset="0.55" stop-color="#c7c7c7"/><stop offset="0.66" stop-color="#a6a6a6"/><stop offset="0.72" stop-color="#919191"/><stop offset="0.87" stop-color="#757575"/></linearGradient><radialGradient id="radial-gradient" cx="256.66" cy="283.92" r="107.67" gradientUnits="userSpaceOnUse"><stop offset="0.07" stop-color="#fff"/><stop offset="0.07" stop-color="#fdfdfd"/><stop offset="0.14" stop-color="#d5d5d5"/><stop offset="0.21" stop-color="#b9b9b9"/><stop offset="0.26" stop-color="#a7a7a7"/><stop offset="0.3" stop-color="#a1a1a1"/><stop offset="0.37" stop-color="#909090"/><stop offset="0.48" stop-color="#7d7d7d"/><stop offset="0.59" stop-color="#727272"/><stop offset="0.71" stop-color="#6e6e6e"/><stop offset="1" stop-color="#696969"/></radialGradient><linearGradient id="linear-gradient-61" x1="363.94" y1="308.74" x2="388.38" y2="341.78" gradientUnits="userSpaceOnUse"><stop offset="0" stop-color="#adadad"/><stop offset="0.09" stop-color="#999"/><stop offset="0.15" stop-color="#919191"/><stop offset="0.16" stop-color="#909090"/><stop offset="0.34" stop-color="#7d7d7d"/><stop offset="0.52" stop-color="#727272"/><stop offset="0.71" stop-color="#6e6e6e"/><stop offset="1" stop-color="#8a8a8a"/></linearGradient><linearGradient id="linear-gradient-62" x1="363.07" y1="370.3" x2="350.54" y2="360.94" gradientUnits="userSpaceOnUse"><stop offset="0" stop-color="#e6e6e6"/><stop offset="0.25" stop-color="#c6c6c6"/><stop offset="0.57" stop-color="#a4a4a4"/><stop offset="0.83" stop-color="#8f8f8f"/><stop offset="1" stop-color="#878787"/></linearGradient><linearGradient id="linear-gradient-63" x1="425.57" y1="319.03" x2="425.57" y2="320.84" gradientUnits="userSpaceOnUse"><stop offset="0" stop-color="#c2c2c2"/><stop offset="0.12" stop-color="#bababa"/><stop offset="0.32" stop-color="#a4a4a4"/><stop offset="0.45" stop-color="#919191"/><stop offset="0.71" stop-color="#b1b1b1"/><stop offset="0.82" stop-color="#bfbfbf"/></linearGradient></defs><path d="M155.73,414.87c4.25.54,8.6,1.27,11.13,5.34,2.18,3.08,2.08,7.06,2.27,11h-13.4a7.76,7.76,0,0,0-.73-4.16c-2.89-2.17-7-1.18-10.68-1.45-7.45,0-14.48-.18-21.36.54a3.9,3.9,0,0,0-2.08,2.09c-.28,1.26-.28,2.8.81,3.71l1.45,1.08c11.77,1,23.17,1.18,35,2.09,4,.54,8,2.08,10.23,6,3.35,5.89,2.71,15.12-1.54,20.46-3.16,3.71-7.6,4.34-12.22,4.44a272.69,272.69,0,0,1-34.31-.18c-3.89-.46-7.51-1.63-10-5-2.26-3.62-2.61-8.27-2.69-12.8l13.47.12c-.09,2.27-.09,4.62,2.08,5.79a191.6,191.6,0,0,0,32.23-.17,3.65,3.65,0,0,0,2-2.45c.27-1.81-.09-3.53-1.63-4.53l-2.27-.54-33.67-2c-4.62-.72-9.87-3.08-11.41-8.06-1.36-4.88-1.54-10.86,1.54-15,5.7-7.87,15.84-5.88,24.54-6.69Z" transform="translate(-107.45 -231.19)"/><path d="M189,450.24a6.88,6.88,0,0,0,2.81,3.17c9.06.9,19.82,1.35,28.7-.46a4.38,4.38,0,0,0,2.26-4.07v-34h13.8l-.18,39.11c-.73,3.89-2.1,7.87-6.74,11-2.9,1.81-6.52,1.9-10,2l-31.68-.19c-4.35-.36-8.69-3.89-10.77-8l-1.36-4.08-.18-39.83h13.21Z" transform="translate(-107.45 -231.19)"/><path d="M457.37,450.33a6.64,6.64,0,0,0,2.72,3.17,138.87,138.87,0,0,0,27.43.18,6,6,0,0,0,3.17-2.44l.36-1.9v-34.4l13.6,0v39.38c-.72,3.81-2.7,7.81-6.5,9.89-2.9,1.81-6.65,2.27-10.18,2.37l-31.69-.19a14.3,14.3,0,0,1-10.86-7.59,20.77,20.77,0,0,1-1.54-7.24V414.94l13.55,0Z" transform="translate(-107.45 -231.19)"/><path d="M432.21,442l1.87-1.34c5.17-6.06,3.74-13.94,1.11-19.55-3.78-5.93-8.59-5.84-10.82-6.11l-46.57,0-.12,51.45h13.64l.05-18.23v-.1H418.8c5.27.58,5.57,4,5.66,8.62,0,3.3.05,6.95.05,9.76H438C438,457.3,439.71,446.59,432.21,442Zm-10.78-6.24-.81,0-29.48.07.05-9.58,29.61.18a4.76,4.76,0,0,1,2.81,2.44C423.87,430.78,424.82,434.14,421.43,435.74Z" transform="translate(-107.45 -231.19)"/><path d="M346.5,415l-15.51,0-28.15,51.68h15.57c1.63-3,3-5.75,5-9.05h30c2,3.21,3.22,5.7,4.91,8.82l16.12.09ZM328.91,446.7c2.81-6.25,6.44-12,9.33-18.2,3.53,5.71,6.16,12,9.51,18Z" transform="translate(-107.45 -231.19)"/><path d="M298.19,438.83c4.89-3.08,4.71-9.69,3.72-14.85-1.09-4.7-6.16-8.42-10.6-9L243.69,415v51.63h42.37a27.07,27.07,0,0,0,11-1.81c3.89-1.9,5.78-5.89,6.52-9.69C304.26,449,303.8,441.91,298.19,438.83Zm-41.26-12.67,29.24.17a4.36,4.36,0,0,1,2.63,2.27c.27,1.45.27,3.26-.91,4.25a5.42,5.42,0,0,1-3.34,1.54H256.93Zm31.69,27.25c-2.18,1.63-5.16,1.53-8.06,1.44-7.78-.09-15.66.19-23.45-.18v-9.5l28.88.18a5.6,5.6,0,0,1,3.35,2.44C290,449.51,290,452,288.62,453.41Z" transform="translate(-107.45 -231.19)"/><path class="cls-1" d="M514.66,461.68a4.57,4.57,0,1,1-4.54,4.55,4.49,4.49,0,0,1,4.54-4.55Zm0,.71a3.86,3.86,0,1,0,3.67,3.87,3.75,3.75,0,0,0-3.67-3.87Zm-.85,6.49H513V463.8a9.14,9.14,0,0,1,1.44-.12,2.61,2.61,0,0,1,1.58.39,1.22,1.22,0,0,1,.46,1.05,1.27,1.27,0,0,1-1,1.24v0c.45.09.75.49.85,1.24a4.14,4.14,0,0,0,.32,1.25h-.85a3.71,3.71,0,0,1-.34-1.29.94.94,0,0,0-1.09-.89h-.57Zm0-2.81h.59c.66,0,1.23-.24,1.23-.87,0-.44-.32-.89-1.23-.89a4,4,0,0,0-.59,0Z" transform="translate(-107.45 -231.19)"/><path class="cls-2" d="M440.49,309.5c0,37.76-59.24,68.37-132.32,68.37S175.84,347.26,175.84,309.5s59.25-68.36,132.33-68.36S440.49,271.75,440.49,309.5Z" transform="translate(-107.45 -231.19)"/><path class="cls-2" d="M377.66,289.65c.45,16.29-41.42,55.67-103.2,55.67s-101.95-11.77-101.95-46,50.13-59.57,111.88-62C360.92,234.43,376.7,255.21,377.66,289.65Z" transform="translate(-107.45 -231.19)"/><path class="cls-3" d="M376.93,289.59C377.38,305.82,335.74,345,274.3,345s-101.38-11.72-101.38-45.74S222.77,240,284.17,237.61C360.25,234.68,376,255.35,376.93,289.59Z" transform="translate(-107.45 -231.19)"/><path class="cls-3" d="M376.2,289.54c.45,16.15-41,55.06-102.06,55.06s-100.81-11.67-100.81-45.5S222.9,240.2,284,237.85C359.58,234.93,375.25,255.5,376.2,289.54Z" transform="translate(-107.45 -231.19)"/><path class="cls-4" d="M375.47,289.49c.44,16.07-40.74,54.75-101.48,54.75S173.74,332.62,173.74,299s49.28-58.56,110-60.9C358.91,235.18,374.53,255.64,375.47,289.49Z" transform="translate(-107.45 -231.19)"/><path class="cls-4" d="M374.74,289.44c.44,16-40.52,54.44-100.91,54.44s-99.68-11.57-99.68-45,49-58.23,109.35-60.56C358.24,235.43,373.8,255.78,374.74,289.44Z" transform="translate(-107.45 -231.19)"/><path class="cls-5" d="M374,289.38c.44,15.93-40.29,54.14-100.34,54.14S174.56,332,174.56,298.75s48.71-57.9,108.72-60.21C357.57,235.69,373.08,255.92,374,289.38Z" transform="translate(-107.45 -231.19)"/><path class="cls-5" d="M373.28,289.33c.43,15.85-40.07,53.83-99.76,53.83S175,331.69,175,298.63s48.44-57.56,108.1-59.85C356.91,235.94,372.36,256.06,373.28,289.33Z" transform="translate(-107.45 -231.19)"/><path class="cls-6" d="M372.55,289.28c.43,15.77-39.84,53.52-99.19,53.52s-98-11.42-98-44.28S223.53,241.29,282.84,239C356.24,236.19,371.63,256.2,372.55,289.28Z" transform="translate(-107.45 -231.19)"/><path class="cls-6" d="M371.82,289.22c.43,15.7-39.62,53.21-98.61,53.21s-97.43-11.36-97.43-44,47.87-56.9,106.84-59.16C355.57,236.44,370.91,256.35,371.82,289.22Z" transform="translate(-107.45 -231.19)"/><path class="cls-7" d="M371.09,289.17c.42,15.63-39.39,52.9-98,52.9s-96.86-11.31-96.86-43.79,47.59-56.56,106.2-58.8C354.9,236.69,370.19,256.49,371.09,289.17Z" transform="translate(-107.45 -231.19)"/><path class="cls-8" d="M370.36,289.12c.42,15.55-39.17,52.59-97.47,52.59s-96.29-11.26-96.29-43.55,47.31-56.22,105.57-58.45C354.23,237,369.46,256.63,370.36,289.12Z" transform="translate(-107.45 -231.19)"/><path class="cls-9" d="M369.63,289.07c.42,15.47-38.94,52.28-96.89,52.28S177,330.14,177,298.05s47-55.9,104.94-58.11C353.56,237.2,368.74,256.77,369.63,289.07Z" transform="translate(-107.45 -231.19)"/><path class="cls-9" d="M368.9,289c.42,15.4-38.72,52-96.32,52s-95.16-11.16-95.16-43.06,46.74-55.56,104.31-57.76C352.9,237.45,368,256.91,368.9,289Z" transform="translate(-107.45 -231.19)"/><path class="cls-10" d="M368.17,289c.41,15.33-38.49,51.67-95.74,51.67s-94.6-11.11-94.6-42.82,46.46-55.22,103.68-57.4C352.23,237.7,367.29,257.05,368.17,289Z" transform="translate(-107.45 -231.19)"/><path class="cls-11" d="M367.44,288.91c.41,15.25-38.27,51.36-95.17,51.36s-94-11.06-94-42.57,46.17-54.9,103-57.06C351.56,238,366.57,257.2,367.44,288.91Z" transform="translate(-107.45 -231.19)"/><path class="cls-12" d="M366.71,288.85c.41,15.18-38,51.06-94.6,51.06s-93.46-11-93.46-42.33S224.54,243,281.06,240.87C350.89,238.21,365.84,257.34,366.71,288.85Z" transform="translate(-107.45 -231.19)"/><path class="cls-13" d="M366,288.8c.4,15.11-37.81,50.75-94,50.75s-92.9-11-92.9-42.09,45.61-54.22,101.78-56.36C350.22,238.46,365.12,257.48,366,288.8Z" transform="translate(-107.45 -231.19)"/><path class="cls-14" d="M365.25,288.75c.4,15-37.59,50.44-93.45,50.44s-92.33-10.91-92.33-41.85,45.32-53.89,101.15-56C349.55,238.71,364.4,257.62,365.25,288.75Z" transform="translate(-107.45 -231.19)"/><path class="cls-15" d="M364.52,288.7c.4,14.95-37.36,50.12-92.87,50.12S179.88,328,179.88,297.23s45-53.56,100.52-55.66C348.89,239,363.67,257.76,364.52,288.7Z" transform="translate(-107.45 -231.19)"/><path class="cls-16" d="M363.79,288.64c.39,14.88-37.14,49.82-92.3,49.82s-91.2-10.8-91.2-41.35S225,243.89,280.17,241.8C348.22,239.22,363,257.9,363.79,288.64Z" transform="translate(-107.45 -231.19)"/><path class="cls-17" d="M363.06,288.59c.39,14.81-36.91,49.51-91.73,49.51S180.7,327.35,180.7,297,225.17,244.1,280,242C347.55,239.47,362.23,258.05,363.06,288.59Z" transform="translate(-107.45 -231.19)"/><path class="cls-18" d="M362.33,288.54c.39,14.73-36.69,49.2-91.15,49.2s-90.07-10.7-90.07-40.86,44.19-52.56,98.62-54.61C346.88,239.72,361.5,258.19,362.33,288.54Z" transform="translate(-107.45 -231.19)"/><path class="cls-19" d="M361.6,288.48c.39,14.66-36.46,48.9-90.58,48.9s-89.5-10.65-89.5-40.62,43.9-52.22,98-54.26C346.21,240,360.78,258.33,361.6,288.48Z" transform="translate(-107.45 -231.19)"/><path class="cls-20" d="M360.87,288.43c.38,14.58-36.24,48.59-90,48.59s-88.94-10.6-88.94-40.38,43.63-51.89,97.37-53.91C345.55,240.23,360.05,258.47,360.87,288.43Z" transform="translate(-107.45 -231.19)"/><path class="cls-21" d="M360.14,288.38c.38,14.51-36,48.28-89.43,48.28s-88.38-10.55-88.38-40.13S225.68,245,279.06,243C344.88,240.48,359.33,258.61,360.14,288.38Z" transform="translate(-107.45 -231.19)"/><path class="cls-22" d="M359.41,288.32c.38,14.44-35.79,48-88.86,48s-87.81-10.5-87.81-39.89,43.06-51.22,96.1-53.21C344.21,240.73,358.61,258.75,359.41,288.32Z" transform="translate(-107.45 -231.19)"/><path class="cls-23" d="M358.68,288.27c.37,14.36-35.56,47.67-88.28,47.67s-87.25-10.45-87.25-39.65,42.78-50.89,95.47-52.86C343.54,241,357.88,258.9,358.68,288.27Z" transform="translate(-107.45 -231.19)"/><path class="cls-24" d="M358,288.22c.37,14.28-35.34,47.36-87.71,47.36s-86.68-10.4-86.68-39.41,42.5-50.55,94.84-52.51C342.87,241.23,357.16,259,358,288.22Z" transform="translate(-107.45 -231.19)"/><path class="cls-25" d="M357.22,288.17c.37,14.21-35.11,47-87.14,47S184,324.87,184,296.06s42.21-50.22,94.21-52.17C342.21,241.49,356.44,259.18,357.22,288.17Z" transform="translate(-107.45 -231.19)"/><path class="cls-26" d="M356.49,288.11c.36,14.14-34.89,46.74-86.56,46.74s-85.55-10.3-85.55-38.91,41.93-49.88,93.57-51.81C341.54,241.74,355.71,259.32,356.49,288.11Z" transform="translate(-107.45 -231.19)"/><path class="cls-27" d="M355.76,288.06c.36,14.06-34.66,46.43-86,46.43s-85-10.25-85-38.67,41.65-49.55,92.94-51.46C340.87,242,355,259.46,355.76,288.06Z" transform="translate(-107.45 -231.19)"/><path class="cls-28" d="M355,288c.36,14-34.44,46.12-85.41,46.12s-84.42-10.2-84.42-38.42,41.36-49.22,92.31-51.12C340.2,242.24,354.27,259.6,355,288Z" transform="translate(-107.45 -231.19)"/><path class="cls-29" d="M354.3,288c.36,13.92-34.21,45.82-84.84,45.82s-83.85-10.15-83.85-38.18,41.08-48.88,91.68-50.77C339.53,242.5,353.54,259.75,354.3,288Z" transform="translate(-107.45 -231.19)"/><path class="cls-30" d="M353.57,287.9c.35,13.84-34,45.51-84.27,45.51S186,323.31,186,295.47s40.8-48.55,91-50.41C338.86,242.75,352.82,259.89,353.57,287.9Z" transform="translate(-107.45 -231.19)"/><path class="cls-31" d="M352.84,287.85c.35,13.76-33.76,45.2-83.69,45.2s-82.72-10.05-82.72-37.7,40.51-48.21,90.41-50.06C338.2,243,352.09,260,352.84,287.85Z" transform="translate(-107.45 -231.19)"/><path class="cls-32" d="M352.11,287.8c.35,13.69-33.54,44.89-83.12,44.89s-82.15-10-82.15-37.45,40.23-47.88,89.78-49.72C337.53,243.25,351.37,260.17,352.11,287.8Z" transform="translate(-107.45 -231.19)"/><path class="cls-33" d="M351.38,287.74c.34,13.62-33.31,44.59-82.54,44.59s-81.59-9.95-81.59-37.21,39.95-47.55,89.15-49.36C336.86,243.5,350.65,260.31,351.38,287.74Z" transform="translate(-107.45 -231.19)"/><path class="cls-34" d="M350.65,287.69c.34,13.54-33.09,44.28-82,44.28s-81-9.9-81-37,39.66-47.21,88.52-49C336.19,243.76,349.92,260.45,350.65,287.69Z" transform="translate(-107.45 -231.19)"/><path class="cls-35" d="M349.92,287.64c.34,13.46-32.86,44-81.4,44s-80.45-9.84-80.45-36.71S227.45,248,276,246.22C335.52,244,349.2,260.6,349.92,287.64Z" transform="translate(-107.45 -231.19)"/><path class="cls-36" d="M349.19,287.58c.33,13.4-32.64,43.66-80.82,43.66s-79.89-9.79-79.89-36.47,39.09-46.55,87.26-48.32C334.85,244.26,348.48,260.74,349.19,287.58Z" transform="translate(-107.45 -231.19)"/><path class="cls-37" d="M348.46,287.53c.33,13.32-32.41,43.35-80.25,43.35s-79.32-9.74-79.32-36.23,38.81-46.21,86.62-48C334.19,244.51,347.75,260.88,348.46,287.53Z" transform="translate(-107.45 -231.19)"/><path class="cls-38" d="M347.73,287.48c.33,13.24-32.19,43-79.68,43s-78.76-9.69-78.76-36,38.54-45.88,86-47.62C333.52,244.76,347,261,347.73,287.48Z" transform="translate(-107.45 -231.19)"/><path class="cls-39" d="M347,287.43c.33,13.17-32,42.73-79.1,42.73s-78.2-9.64-78.2-35.74,38.25-45.55,85.37-47.27C332.85,245,346.31,261.16,347,287.43Z" transform="translate(-107.45 -231.19)"/><path class="cls-40" d="M346.27,287.37c.32,13.1-31.74,42.43-78.53,42.43s-77.63-9.59-77.63-35.5,38-45.21,84.74-46.92C332.18,245.27,345.58,261.3,346.27,287.37Z" transform="translate(-107.45 -231.19)"/><path class="cls-41" d="M345.54,287.32c.32,13-31.51,42.12-78,42.12s-77.07-9.54-77.07-35.26,37.69-44.87,84.1-46.56C331.51,245.52,344.86,261.45,345.54,287.32Z" transform="translate(-107.45 -231.19)"/><path class="cls-42" d="M344.81,287.27c.32,12.94-31.29,41.81-77.38,41.81s-76.5-9.49-76.5-35,37.4-44.55,83.47-46.22C330.84,245.77,344.13,261.59,344.81,287.27Z" transform="translate(-107.45 -231.19)"/><path class="cls-43" d="M344.08,287.21c.31,12.88-31.06,41.51-76.81,41.51s-75.93-9.44-75.93-34.77,37.12-44.21,82.84-45.87C330.18,246,343.41,261.73,344.08,287.21Z" transform="translate(-107.45 -231.19)"/><path class="cls-44" d="M343.35,287.16c.31,12.8-30.83,41.2-76.23,41.2s-75.37-9.39-75.37-34.53S228.59,250,274,248.31C329.51,246.28,342.69,261.87,343.35,287.16Z" transform="translate(-107.45 -231.19)"/><path class="cls-45" d="M342.62,287.11C342.93,299.83,312,328,267,328s-74.8-9.34-74.8-34.28,36.55-43.55,81.58-45.17C328.84,246.53,342,262,342.62,287.11Z" transform="translate(-107.45 -231.19)"/><path class="cls-46" d="M341.89,287.06c.3,12.64-30.38,40.57-75.09,40.57s-74.23-9.28-74.23-34,36.27-43.21,80.95-44.82C328.17,246.78,341.24,262.15,341.89,287.06Z" transform="translate(-107.45 -231.19)"/><path class="cls-47" d="M341.16,287c.3,12.58-30.16,40.27-74.51,40.27S193,318,193,293.48s36-42.87,80.31-44.47C327.5,247,340.52,262.3,341.16,287Z" transform="translate(-107.45 -231.19)"/><path class="cls-48" d="M340.43,287c.3,12.5-29.93,40-73.94,40s-73.1-9.18-73.1-33.55,35.7-42.54,79.68-44.12C326.83,247.29,339.79,262.44,340.43,287Z" transform="translate(-107.45 -231.19)"/><path class="cls-49" d="M339.7,286.9c.3,12.42-29.71,39.65-73.36,39.65s-72.54-9.13-72.54-33.3,35.42-42.21,79.05-43.77C326.17,247.54,339.07,262.58,339.7,286.9Z" transform="translate(-107.45 -231.19)"/><path class="cls-50" d="M339,286.84c.29,12.35-29.48,39.35-72.79,39.35s-72-9.08-72-33.06,35.14-41.87,78.42-43.42C325.5,247.79,338.35,262.72,339,286.84Z" transform="translate(-107.45 -231.19)"/><path class="cls-51" d="M338.24,286.79c.29,12.28-29.26,39-72.22,39s-71.4-9-71.4-32.82,34.85-41.54,77.79-43.07C324.83,248,337.62,262.86,338.24,286.79Z" transform="translate(-107.45 -231.19)"/><path class="cls-52" d="M337.51,286.74c.29,12.2-29,38.73-71.64,38.73S195,316.49,195,292.9s34.57-41.21,77.15-42.73C324.16,248.29,336.9,263,337.51,286.74Z" transform="translate(-107.45 -231.19)"/><path class="cls-53" d="M336.78,286.69c.28,12.12-28.81,38.42-71.07,38.42s-70.27-8.93-70.27-32.33,34.28-40.87,76.52-42.37C323.49,248.55,336.17,263.15,336.78,286.69Z" transform="translate(-107.45 -231.19)"/><path class="cls-54" d="M336.05,286.63c.28,12.06-28.58,38.12-70.49,38.12s-69.71-8.88-69.71-32.09,34-40.54,75.89-42C322.83,248.8,335.45,263.29,336.05,286.63Z" transform="translate(-107.45 -231.19)"/><path class="cls-55" d="M335.32,286.58c.28,12-28.36,37.81-69.92,37.81s-69.15-8.83-69.15-31.84,33.73-40.21,75.27-41.68C322.16,249.05,334.73,263.43,335.32,286.58Z" transform="translate(-107.45 -231.19)"/><path class="cls-56" d="M334.59,286.53c.27,11.9-28.13,37.49-69.35,37.49s-68.58-8.77-68.58-31.59,33.44-39.87,74.64-41.33C321.49,249.3,334,263.57,334.59,286.53Z" transform="translate(-107.45 -231.19)"/><path class="cls-57" d="M333.86,286.47c.27,11.83-27.91,37.19-68.77,37.19s-68-8.72-68-31.35,33.16-39.53,74-41C320.82,249.56,333.28,263.71,333.86,286.47Z" transform="translate(-107.45 -231.19)"/><path class="cls-58" d="M333.13,286.42c.27,11.76-27.68,36.88-68.2,36.88s-67.45-8.67-67.45-31.11,32.88-39.2,73.37-40.62C320.15,249.81,332.56,263.85,333.13,286.42Z" transform="translate(-107.45 -231.19)"/><path class="cls-59" d="M332.4,286.37c.27,11.68-27.46,36.57-67.63,36.57s-66.88-8.62-66.88-30.86,32.59-38.87,72.74-40.28C319.49,250.06,331.83,264,332.4,286.37Z" transform="translate(-107.45 -231.19)"/><path class="cls-60" d="M331.67,286.31c.26,11.61-27.23,36.27-67.05,36.27S198.3,314,198.3,292s32.31-38.53,72.11-39.92C318.82,250.31,331.11,264.14,331.67,286.31Z" transform="translate(-107.45 -231.19)"/><path class="cls-61" d="M330.94,286.26c.26,11.53-27,36-66.48,36s-65.75-8.52-65.75-30.38,32-38.2,71.48-39.57C318.15,250.56,330.38,264.28,330.94,286.26Z" transform="translate(-107.45 -231.19)"/><path class="cls-62" d="M330.21,286.21c.26,11.46-26.78,35.65-65.9,35.65s-65.19-8.47-65.19-30.13S230.86,253.86,270,252.5C317.48,250.82,329.66,264.42,330.21,286.21Z" transform="translate(-107.45 -231.19)"/><path class="cls-63" d="M329.48,286.16c.25,11.38-26.56,35.34-65.33,35.34s-64.62-8.42-64.62-29.89,31.46-37.53,70.21-38.88C316.81,251.07,328.94,264.56,329.48,286.16Z" transform="translate(-107.45 -231.19)"/><path class="cls-64" d="M328.75,286.1c.25,11.31-26.33,35-64.76,35s-64.05-8.37-64.05-29.65,31.18-37.2,69.58-38.52C316.14,251.32,328.21,264.7,328.75,286.1Z" transform="translate(-107.45 -231.19)"/><path class="cls-65" d="M328,286.05c.25,11.23-26.11,34.73-64.18,34.73s-63.49-8.32-63.49-29.4,30.89-36.87,69-38.18C315.48,251.57,327.49,264.85,328,286.05Z" transform="translate(-107.45 -231.19)"/><path class="cls-66" d="M327.29,286c.24,11.16-25.88,34.41-63.61,34.41s-62.92-8.26-62.92-29.15,30.61-36.53,68.32-37.83C314.81,251.83,326.77,265,327.29,286Z" transform="translate(-107.45 -231.19)"/><path class="cls-67" d="M326.56,285.94c.24,11.09-25.66,34.11-63,34.11s-62.36-8.21-62.36-28.91,30.33-36.2,67.68-37.48C314.14,252.08,326,265.13,326.56,285.94Z" transform="translate(-107.45 -231.19)"/><path class="cls-68" d="M325.83,285.89c.24,11-25.43,33.8-62.46,33.8s-61.79-8.16-61.79-28.67,30-35.86,67-37.12C313.47,252.33,325.32,265.27,325.83,285.89Z" transform="translate(-107.45 -231.19)"/><path class="cls-69" d="M325.1,285.84c.23,10.94-25.21,33.49-61.89,33.49S202,311.22,202,290.91s29.76-35.53,66.42-36.78C312.8,252.58,324.6,265.41,325.1,285.84Z" transform="translate(-107.45 -231.19)"/><path class="cls-70" d="M324.37,285.79c.23,10.86-25,33.18-61.31,33.18s-60.66-8.06-60.66-28.18,29.48-35.2,65.79-36.43C312.13,252.83,323.87,265.55,324.37,285.79Z" transform="translate(-107.45 -231.19)"/><path class="cls-71" d="M323.64,285.73c.23,10.79-24.76,32.88-60.74,32.88s-60.09-8-60.09-27.94S232,255.81,268,254.59C311.47,253.09,323.15,265.7,323.64,285.73Z" transform="translate(-107.45 -231.19)"/><path class="cls-72" d="M322.91,285.68c.23,10.71-24.53,32.57-60.16,32.57s-59.53-8-59.53-27.69,28.91-34.53,64.53-35.73C310.8,253.34,322.42,265.84,322.91,285.68Z" transform="translate(-107.45 -231.19)"/><path class="cls-72" d="M322.18,285.63c.22,10.64-24.3,32.26-59.59,32.26s-59-7.91-59-27.45,28.63-34.2,63.9-35.38C310.13,253.59,321.7,266,322.18,285.63Z" transform="translate(-107.45 -231.19)"/><path class="cls-73" d="M321.45,285.57c.22,10.57-24.08,32-59,32S204,309.67,204,290.32s28.35-33.86,63.27-35C309.46,253.84,321,266.12,321.45,285.57Z" transform="translate(-107.45 -231.19)"/><path class="cls-74" d="M320.72,285.52c.22,10.49-23.85,31.65-58.44,31.65s-57.84-7.81-57.84-27,28.07-33.52,62.64-34.68C308.79,254.09,320.25,266.26,320.72,285.52Z" transform="translate(-107.45 -231.19)"/><path class="cls-75" d="M320,285.47c.21,10.41-23.63,31.33-57.87,31.33s-57.27-7.75-57.27-26.71,27.78-33.2,62-34.33C308.12,254.35,319.53,266.4,320,285.47Z" transform="translate(-107.45 -231.19)"/><path class="cls-76" d="M319.26,285.41c.21,10.35-23.4,31-57.3,31s-56.7-7.7-56.7-26.47,27.5-32.86,61.38-34C307.46,254.6,318.81,266.55,319.26,285.41Z" transform="translate(-107.45 -231.19)"/><path class="cls-77" d="M318.53,285.36c.21,10.27-23.18,30.72-56.72,30.72s-56.14-7.65-56.14-26.23,27.22-32.52,60.74-33.63C306.79,254.85,318.08,266.69,318.53,285.36Z" transform="translate(-107.45 -231.19)"/><path class="cls-78" d="M317.8,285.31c.2,10.19-22.95,30.41-56.15,30.41s-55.57-7.6-55.57-26,26.93-32.2,60.11-33.29C306.12,255.1,317.36,266.83,317.8,285.31Z" transform="translate(-107.45 -231.19)"/><path class="cls-79" d="M317.07,285.26c.2,10.12-22.73,30.1-55.57,30.1s-55-7.55-55-25.74,26.65-31.86,59.48-32.93C305.45,255.36,316.64,267,317.07,285.26Z" transform="translate(-107.45 -231.19)"/><path class="cls-80" d="M316.34,285.2c.2,10.05-22.5,29.8-55,29.8s-54.44-7.5-54.44-25.5,26.37-31.52,58.85-32.58C304.78,255.61,315.91,267.11,316.34,285.2Z" transform="translate(-107.45 -231.19)"/><path class="cls-81" d="M315.61,285.15c.2,10-22.28,29.49-54.43,29.49s-53.87-7.45-53.87-25.26,26.08-31.18,58.22-32.23C304.12,255.86,315.19,267.25,315.61,285.15Z" transform="translate(-107.45 -231.19)"/><path class="cls-82" d="M314.88,285.1c.19,9.89-22.05,29.18-53.85,29.18s-53.31-7.4-53.31-25,25.8-30.86,57.58-31.89C303.45,256.11,314.46,267.4,314.88,285.1Z" transform="translate(-107.45 -231.19)"/><path class="cls-83" d="M314.15,285c.19,9.83-21.83,28.88-53.28,28.88s-52.74-7.35-52.74-24.77,25.52-30.52,56.95-31.53C302.78,256.36,313.74,267.54,314.15,285Z" transform="translate(-107.45 -231.19)"/><path class="cls-84" d="M313.42,285c.19,9.75-21.6,28.57-52.7,28.57s-52.18-7.3-52.18-24.53,25.23-30.18,56.32-31.18C302.11,256.62,313,267.68,313.42,285Z" transform="translate(-107.45 -231.19)"/><path class="cls-85" d="M312.69,284.94c.18,9.67-21.38,28.25-52.13,28.25S209,306,209,288.92s25-29.86,55.69-30.84C301.44,256.87,312.29,267.82,312.69,284.94Z" transform="translate(-107.45 -231.19)"/><path class="cls-86" d="M312,284.89c.18,9.59-21.15,27.94-51.56,27.94s-51-7.19-51-24,24.66-29.52,55.06-30.48C300.77,257.12,311.57,268,312,284.89Z" transform="translate(-107.45 -231.19)"/><path class="cls-87" d="M311.23,284.83c.18,9.53-20.93,27.64-51,27.64s-50.48-7.14-50.48-23.79,24.38-29.18,54.42-30.13C300.11,257.37,310.85,268.1,311.23,284.83Z" transform="translate(-107.45 -231.19)"/><path class="cls-88" d="M310.5,284.78c.17,9.45-20.7,27.33-50.41,27.33s-49.91-7.09-49.91-23.54,24.1-28.86,53.79-29.79C299.44,257.63,310.12,268.25,310.5,284.78Z" transform="translate(-107.45 -231.19)"/><path class="cls-89" d="M309.77,284.73c.17,9.37-20.48,27-49.84,27s-49.34-7-49.34-23.3S234.4,259.93,263.75,259C298.77,257.88,309.4,268.39,309.77,284.73Z" transform="translate(-107.45 -231.19)"/><path class="cls-90" d="M309,284.67c.19,9.3-20.25,26.72-49.26,26.72S211,304.4,211,288.33s23.54-28.18,52.54-29.08C298.1,258.13,308.71,268.53,309,284.67Z" transform="translate(-107.45 -231.19)"/><path class="cls-91" d="M308.31,284.62c.18,9.23-20,26.41-48.69,26.41s-48.22-6.94-48.22-22.82,23.26-27.85,51.91-28.73C297.43,258.38,308,268.67,308.31,284.62Z" transform="translate(-107.45 -231.19)"/><path class="cls-92" d="M307.58,284.57c.18,9.15-19.8,26.1-48.11,26.1s-47.66-6.9-47.66-22.57,23-27.52,51.27-28.39C296.77,258.63,307.26,268.81,307.58,284.57Z" transform="translate(-107.45 -231.19)"/><path class="cls-93" d="M306.85,284.52c.18,9.07-19.58,25.79-47.54,25.79s-47.09-6.85-47.09-22.33,22.69-27.18,50.64-28C296.1,258.89,306.54,269,306.85,284.52Z" transform="translate(-107.45 -231.19)"/><path class="cls-94" d="M306.12,284.46c.18,9-19.35,25.49-47,25.49s-46.52-6.8-46.52-22.09,22.41-26.85,50-27.68C295.43,259.14,305.81,269.09,306.12,284.46Z" transform="translate(-107.45 -231.19)"/><path class="cls-95" d="M305.39,284.41c.17,8.93-19.13,25.18-46.39,25.18s-46-6.75-46-21.84,22.12-26.52,49.38-27.34C294.76,259.39,305.09,269.24,305.39,284.41Z" transform="translate(-107.45 -231.19)"/><path class="cls-96" d="M304.66,284.36c.17,8.85-18.9,24.86-45.82,24.86s-45.39-6.69-45.39-21.59,21.84-26.18,48.75-27C294.09,259.64,304.37,269.38,304.66,284.36Z" transform="translate(-107.45 -231.19)"/><path class="cls-97" d="M303.93,284.3c.17,8.78-18.68,24.56-45.24,24.56s-44.83-6.64-44.83-21.35,21.56-25.85,48.11-26.64C293.42,259.9,303.64,269.52,303.93,284.3Z" transform="translate(-107.45 -231.19)"/><path class="cls-98" d="M303.2,284.25c.16,8.71-18.45,24.25-44.67,24.25s-44.26-6.59-44.26-21.1,21.27-25.52,47.48-26.29C292.76,260.15,302.92,269.66,303.2,284.25Z" transform="translate(-107.45 -231.19)"/><path class="cls-99" d="M302.47,284.2c.16,8.63-18.22,23.94-44.1,23.94s-43.69-6.54-43.69-20.86,21-25.18,46.85-25.94C292.09,260.4,302.2,269.8,302.47,284.2Z" transform="translate(-107.45 -231.19)"/><path class="cls-100" d="M301.74,284.15c.16,8.55-18,23.63-43.52,23.63s-43.13-6.49-43.13-20.62,20.71-24.85,46.22-25.59C291.42,260.65,301.47,269.94,301.74,284.15Z" transform="translate(-107.45 -231.19)"/><path class="cls-101" d="M301,284.09c.15,8.48-17.77,23.33-42.95,23.33S215.5,301,215.5,287s20.42-24.51,45.59-25.24C290.75,260.9,300.75,270.09,301,284.09Z" transform="translate(-107.45 -231.19)"/><path class="cls-102" d="M300.28,284c.15,8.41-17.55,23-42.38,23s-42-6.39-42-20.13,20.14-24.18,45-24.89C290.08,261.16,300,270.23,300.28,284Z" transform="translate(-107.45 -231.19)"/><path class="cls-103" d="M299.55,284c.15,8.33-17.32,22.71-41.8,22.71s-41.43-6.34-41.43-19.89,19.85-23.85,44.32-24.54C289.41,261.41,299.3,270.37,299.55,284Z" transform="translate(-107.45 -231.19)"/><path class="cls-104" d="M298.82,283.93c.15,8.26-17.1,22.41-41.23,22.41s-40.86-6.29-40.86-19.65,19.57-23.51,43.69-24.19C288.75,261.66,298.58,270.51,298.82,283.93Z" transform="translate(-107.45 -231.19)"/><path class="cls-105" d="M298.09,283.88c.14,8.18-16.87,22.1-40.65,22.1s-40.3-6.24-40.3-19.4,19.29-23.18,43.06-23.85C288.08,261.91,297.85,270.65,298.09,283.88Z" transform="translate(-107.45 -231.19)"/><path class="cls-106" d="M297.36,283.83c.14,8.11-16.65,21.78-40.08,21.78s-39.73-6.18-39.73-19.15,19-22.84,42.43-23.49C287.41,262.16,297.13,270.79,297.36,283.83Z" transform="translate(-107.45 -231.19)"/><path class="cls-107" d="M296.63,283.78c.14,8-16.42,21.47-39.51,21.47S218,299.12,218,286.34s18.73-22.51,41.81-23.14C286.74,262.42,296.41,270.94,296.63,283.78Z" transform="translate(-107.45 -231.19)"/><path class="cls-108" d="M295.9,283.72c.13,8-16.2,21.17-38.93,21.17s-38.61-6.08-38.61-18.67,18.45-22.17,41.17-22.79C286.07,262.67,295.68,271.08,295.9,283.72Z" transform="translate(-107.45 -231.19)"/><path class="cls-109" d="M295.17,283.67c.13,7.88-16,20.86-38.36,20.86s-38-6-38-18.42,18.16-21.84,40.54-22.45C285.41,262.92,295,271.22,295.17,283.67Z" transform="translate(-107.45 -231.19)"/><path class="cls-109" d="M294.44,283.62c.13,7.81-15.75,20.55-37.78,20.55s-37.48-6-37.48-18.18,17.88-21.51,39.91-22.09C284.74,263.17,294.23,271.36,294.44,283.62Z" transform="translate(-107.45 -231.19)"/><path class="cls-110" d="M293.71,283.56c.13,7.74-15.52,20.25-37.21,20.25s-36.91-5.93-36.91-17.94,17.6-21.17,39.28-21.74C284.07,263.43,293.51,271.5,293.71,283.56Z" transform="translate(-107.45 -231.19)"/><path class="cls-111" d="M293,283.51c.12,7.66-15.3,19.94-36.64,19.94S220,297.57,220,285.76s17.31-20.84,38.65-21.4C283.4,263.68,292.79,271.64,293,283.51Z" transform="translate(-107.45 -231.19)"/><path class="cls-112" d="M292.25,283.46c.12,7.59-15.07,19.63-36.06,19.63s-35.78-5.83-35.78-17.45,17-20.51,38-21C282.73,263.93,292.06,271.79,292.25,283.46Z" transform="translate(-107.45 -231.19)"/><path class="cls-113" d="M291.52,283.4c.12,7.52-14.85,19.33-35.49,19.33s-35.21-5.78-35.21-17.21,16.75-20.17,37.38-20.69C282.06,264.18,291.34,271.93,291.52,283.4Z" transform="translate(-107.45 -231.19)"/><path class="cls-113" d="M290.79,283.35c.11,7.44-14.62,19-34.92,19s-34.64-5.73-34.64-17,16.46-19.83,36.75-20.34C281.4,264.43,290.61,272.07,290.79,283.35Z" transform="translate(-107.45 -231.19)"/><path class="cls-114" d="M290.06,283.3c.11,7.36-14.4,18.7-34.34,18.7s-34.08-5.67-34.08-16.71,16.18-19.51,36.12-20C280.73,264.69,289.89,272.21,290.06,283.3Z" transform="translate(-107.45 -231.19)"/><path class="cls-115" d="M289.33,283.25c.11,7.29-14.17,18.39-33.77,18.39s-33.51-5.62-33.51-16.47S238,266,257.54,265.53C280.06,264.94,289.16,272.35,289.33,283.25Z" transform="translate(-107.45 -231.19)"/><path class="cls-116" d="M288.6,283.19c.1,7.22-14,18.09-33.19,18.09s-32.95-5.57-32.95-16.23,15.61-18.83,34.85-19.29C279.39,265.19,288.44,272.49,288.6,283.19Z" transform="translate(-107.45 -231.19)"/><path class="cls-117" d="M287.87,283.14c.1,7.14-13.72,17.78-32.62,17.78s-32.38-5.52-32.38-16S238.2,266.43,257.09,266C278.72,265.44,287.72,272.64,287.87,283.14Z" transform="translate(-107.45 -231.19)"/><path class="cls-118" d="M287.14,283.09c.1,7.06-13.5,17.47-32,17.47s-31.81-5.47-31.81-15.74,15-18.17,33.59-18.6C278.05,265.69,287,272.78,287.14,283.09Z" transform="translate(-107.45 -231.19)"/><path class="cls-119" d="M286.41,283c.09,7-13.27,17.17-31.47,17.17s-31.25-5.42-31.25-15.5,14.76-17.83,33-18.24C277.39,266,286.27,272.92,286.41,283Z" transform="translate(-107.45 -231.19)"/><path class="cls-120" d="M285.68,283c.09,6.92-13.05,16.86-30.9,16.86s-30.68-5.37-30.68-15.25,14.48-17.51,32.33-17.9C276.72,266.2,285.54,273.06,285.68,283Z" transform="translate(-107.45 -231.19)"/><path class="cls-121" d="M285,282.93c.09,6.84-12.82,16.55-30.32,16.55s-30.12-5.32-30.12-15,14.19-17.17,31.69-17.55C276.05,266.45,284.82,273.2,285,282.93Z" transform="translate(-107.45 -231.19)"/><path class="cls-122" d="M284.22,282.88c.08,6.77-12.6,16.24-29.75,16.24s-29.56-5.27-29.56-14.77,13.92-16.83,31.07-17.2C275.38,266.7,284.1,273.34,284.22,282.88Z" transform="translate(-107.45 -231.19)"/><path class="cls-123" d="M283.49,282.82c.08,6.7-12.37,15.94-29.18,15.94s-29-5.22-29-14.53,13.64-16.5,30.44-16.84C274.71,267,283.37,273.49,283.49,282.82Z" transform="translate(-107.45 -231.19)"/><path class="cls-124" d="M282.76,282.77c.08,6.62-12.15,15.62-28.6,15.62s-28.43-5.16-28.43-14.27,13.35-16.17,29.81-16.5C274.05,267.21,282.65,273.63,282.76,282.77Z" transform="translate(-107.45 -231.19)"/><path class="cls-125" d="M282,282.72c.07,6.54-11.92,15.31-28,15.31s-27.86-5.11-27.86-14,13.07-15.83,29.18-16.15C273.38,267.46,281.92,273.77,282,282.72Z" transform="translate(-107.45 -231.19)"/><path class="cls-126" d="M281.3,282.66c.07,6.48-11.7,15-27.46,15s-27.29-5.06-27.29-13.79,12.79-15.5,28.54-15.8C272.71,267.71,281.2,273.91,281.3,282.66Z" transform="translate(-107.45 -231.19)"/><path class="cls-127" d="M280.57,282.61c.07,6.4-11.47,14.7-26.88,14.7S227,292.3,227,283.77s12.5-15.17,27.91-15.45C272,268,280.47,274.05,280.57,282.61Z" transform="translate(-107.45 -231.19)"/><path class="cls-128" d="M279.84,282.56c.06,6.32-11.24,14.39-26.31,14.39s-26.16-5-26.16-13.3,12.22-14.83,27.28-15.1C271.37,268.22,279.75,274.2,279.84,282.56Z" transform="translate(-107.45 -231.19)"/><path class="cls-129" d="M279.11,282.51c.06,6.24-11,14.08-25.73,14.08s-25.6-4.91-25.6-13.06,11.94-14.5,26.65-14.75C270.71,268.47,279,274.34,279.11,282.51Z" transform="translate(-107.45 -231.19)"/><path class="cls-130" d="M278.38,282.45c.06,6.18-10.79,13.78-25.16,13.78s-25-4.86-25-12.82,11.65-14.16,26-14.4C270,268.72,278.3,274.48,278.38,282.45Z" transform="translate(-107.45 -231.19)"/><path class="cls-131" d="M277.65,282.4c.05,6.1-10.57,13.47-24.59,13.47s-24.46-4.81-24.46-12.57S240,269.47,254,269.25C269.37,269,277.58,274.62,277.65,282.4Z" transform="translate(-107.45 -231.19)"/><path class="cls-132" d="M276.92,282.35c.05,6-10.34,13.16-24,13.16S229,290.75,229,283.18s11.09-13.49,24.75-13.7C268.7,269.23,276.85,274.76,276.92,282.35Z" transform="translate(-107.45 -231.19)"/><path class="cls-133" d="M276.19,282.29c.05,5.95-10.12,12.86-23.44,12.86s-23.33-4.71-23.33-12.09,10.8-13.16,24.12-13.35C268,269.48,276.13,274.9,276.19,282.29Z" transform="translate(-107.45 -231.19)"/><path class="cls-134" d="M275.46,282.24c0,5.88-9.89,12.54-22.86,12.54s-22.77-4.65-22.77-11.83,10.52-12.83,23.49-13C267.36,269.73,275.39,275.05,275.46,282.24Z" transform="translate(-107.45 -231.19)"/><path class="cls-135" d="M274.73,282.19c0,5.8-9.67,12.23-22.29,12.23s-22.2-4.6-22.2-11.59,10.24-12.49,22.86-12.65C266.7,270,274.68,275.19,274.73,282.19Z" transform="translate(-107.45 -231.19)"/><path class="cls-136" d="M274,282.14c0,5.72-9.44,11.92-21.72,11.92s-21.63-4.55-21.63-11.35,9.95-12.16,22.23-12.3C266,270.23,273.94,275.33,274,282.14Z" transform="translate(-107.45 -231.19)"/><path class="cls-137" d="M273.27,282.08c0,5.66-9.22,11.62-21.14,11.62s-21.07-4.5-21.07-11.1,9.67-11.83,21.59-12C265.36,270.49,273.22,275.47,273.27,282.08Z" transform="translate(-107.45 -231.19)"/><path class="cls-138" d="M272.54,282c0,5.58-9,11.31-20.57,11.31s-20.5-4.45-20.5-10.86,9.38-11.49,21-11.6C264.69,270.74,272.49,275.61,272.54,282Z" transform="translate(-107.45 -231.19)"/><path class="cls-139" d="M271.81,282c0,5.5-8.77,11-20,11s-19.93-4.4-19.93-10.62,9.1-11.16,20.33-11.25C264,271,271.77,275.75,271.81,282Z" transform="translate(-107.45 -231.19)"/><path class="cls-140" d="M271.08,281.92c0,5.43-8.54,10.7-19.42,10.7s-19.38-4.35-19.38-10.38,8.83-10.82,19.71-10.9C263.35,271.24,271.05,275.9,271.08,281.92Z" transform="translate(-107.45 -231.19)"/><path class="cls-141" d="M270.35,281.87c0,5.36-8.32,10.39-18.85,10.39s-18.81-4.3-18.81-10.13,8.54-10.49,19.08-10.56C262.69,271.49,270.32,276,270.35,281.87Z" transform="translate(-107.45 -231.19)"/><path class="cls-142" d="M269.62,281.82c0,5.28-8.09,10.08-18.27,10.08S233.1,287.65,233.1,282s8.26-10.16,18.44-10.2C262,271.75,269.6,276.18,269.62,281.82Z" transform="translate(-107.45 -231.19)"/><path class="cls-143" d="M268.89,281.77c0,5.2-7.87,9.77-17.7,9.77s-17.68-4.2-17.68-9.65,8-9.82,17.81-9.85C261.35,272,268.87,276.32,268.89,281.77Z" transform="translate(-107.45 -231.19)"/><path class="cls-144" d="M268.16,281.71c0,5.13-7.64,9.46-17.13,9.46s-17.11-4.14-17.11-9.39,7.69-9.49,17.18-9.51S268.15,276.46,268.16,281.71Z" transform="translate(-107.45 -231.19)"/><path class="cls-145" d="M267.43,281.66c0,5.06-7.42,9.15-16.55,9.15s-16.55-4.09-16.55-9.15,7.41-9.16,16.55-9.16S267.43,276.6,267.43,281.66Z" transform="translate(-107.45 -231.19)"/><path class="cls-146" d="M342.06,243.41c20.15,10.47,32.64,25,32.64,41,0,31.92-49.38,57.79-110.29,57.79-35.37,0-66.85-8.73-87-22.29,9.73,32.8,64.58,57.92,130.79,57.92,73.08,0,132.32-30.61,132.32-68.37C440.49,277.8,398.71,251.14,342.06,243.41Z" transform="translate(-107.45 -231.19)"/><path class="cls-147" d="M439,319.84" transform="translate(-107.45 -231.19)"/><path class="cls-148" d="M451.2,309.35C451.2,352,387,386.6,307.86,386.6S164.53,352,164.53,309.35,228.7,232.1,307.86,232.1,451.2,266.69,451.2,309.35Z" transform="translate(-107.45 -231.19)"/><path class="cls-149" d="M439.43,309.05c0,37.5-58.83,67.9-131.42,67.9s-131.41-30.4-131.41-67.9,58.84-67.9,131.41-67.9S439.43,271.55,439.43,309.05Z" transform="translate(-107.45 -231.19)"/><path class="cls-150" d="M451.2,309.35C451.2,352,387,386.6,307.86,386.6S164.53,352,164.53,309.35,228.7,232.1,307.86,232.1,451.2,266.69,451.2,309.35Z" transform="translate(-107.45 -231.19)"/><path class="cls-150" d="M448.79,308.6c0,41.24-63,74.68-140.78,74.68S167.25,349.84,167.25,308.6s63-74.69,140.76-74.69S448.79,267.35,448.79,308.6Z" transform="translate(-107.45 -231.19)"/><path class="cls-151" d="M307.86,232.1c-79.16,0-143.33,34.59-143.33,77.25S228.7,386.6,307.86,386.6,451.2,352,451.2,309.35,387,232.1,307.86,232.1ZM308,383.28c-77.74,0-140.76-33.44-140.76-74.68s63-74.69,140.76-74.69,140.78,33.44,140.78,74.69S385.76,383.28,308,383.28Z" transform="translate(-107.45 -231.19)"/><path class="cls-150" d="M439.43,309.05c0,37.5-58.83,67.9-131.42,67.9s-131.41-30.4-131.41-67.9,58.84-67.9,131.41-67.9S439.43,271.55,439.43,309.05Z" transform="translate(-107.45 -231.19)"/><path class="cls-152" d="M307.86,232.1c-79.16,0-143.33,34.59-143.33,77.25S228.7,386.6,307.86,386.6,451.2,352,451.2,309.35,387,232.1,307.86,232.1ZM308,377c-72.57,0-131.41-30.4-131.41-67.9s58.84-67.9,131.41-67.9,131.42,30.4,131.42,67.9S380.6,377,308,377Z" transform="translate(-107.45 -231.19)"/><path class="cls-153" d="M307.41,235.27c-76.66,0-138.81,33-138.81,73.63s62.15,73.63,138.81,73.63,138.81-33,138.81-73.63S384.08,235.27,307.41,235.27ZM308,377c-72.57,0-131.41-30.4-131.41-67.9s58.84-67.9,131.41-67.9,131.42,30.4,131.42,67.9S380.6,377,308,377Z" transform="translate(-107.45 -231.19)"/><path class="cls-154" d="M308,240.06c-73.74,0-133.52,30.89-133.52,69S234.27,378,308,378s133.53-30.89,133.53-69S381.76,240.06,308,240.06ZM308,377c-72.57,0-131.41-30.4-131.41-67.9s58.84-67.9,131.41-67.9,131.42,30.4,131.42,67.9S380.6,377,308,377Z" transform="translate(-107.45 -231.19)"/><path class="cls-147" d="M284.25,345.56s-13.8,1.06-13.73,2.57,11.39,2.64,13.28,2.86,9.28,1.06,11.39,1.81,3.55,1.36,4.38,3.7,2.86,9.28,2.86,9.28,1,3.85,1.81,3.85,1.81-4.08,1.81-4.08,2-8.67,3.55-10.25,1.73-2.19,8.45-3.25,13.35-2.26,18.4-2.26a57.05,57.05,0,0,1,9.13.45c3.1.38,9.74,1.21,12.37,2s3.55,2.71,4.23,4.45,2.19,6.33,2.19,6.33.38,1.89,1.28,1.89,1.28-2,1.28-2,2.42-7.69,3.77-8.9,2.35-2.34,9.06-3.17,10.71-1.66,13.05-1.81,4-.46,4-1.21-.91-1-4.23-1.51-13.2-1.51-18.41-2.64-5.5-5.28-6.26-7.32-1.28-5.28-2.49-5.28-1.5,2.19-1.73,2.87-1.43,5-2.34,6.41a6.36,6.36,0,0,1-5.13,3.7,101.24,101.24,0,0,1-16.44,2.26,87,87,0,0,1-14.72-.9c-4.9-.61-9.42-.83-12.82-2.34s-5.13-6.49-6-9.51-1.5-4.45-2-4.45-1.5,2.27-2.1,4.23-2.19,7.77-4.53,9.2S291.27,344.88,284.25,345.56Z" transform="translate(-107.45 -231.19)"/><path class="cls-155" d="M366.78,359c-.15.68-.45,1.89-1.13,1.89s-.91-.76-1.21-1.74a39.84,39.84,0,0,0-1.73-6.26c-1.13-2.72-6-3-9.5-3.32s-17.53-1-20.45-.68c-.4,0-1.12.06-2,.12l-.46,1.22a52.43,52.43,0,0,1,6.18-.43,57.05,57.05,0,0,1,9.13.45c3.1.38,9.74,1.21,12.37,2s3.55,2.71,4.23,4.45,2.19,6.33,2.19,6.33.38,1.89,1.28,1.89,1.28-2,1.28-2Z" transform="translate(-107.45 -231.19)"/><path class="cls-156" d="M371.38,345.26c2.87,1.13,10,1.62,11.1,1.62s3.08-.11,3.08.87-1.12,1.06-2.48,1.13l9.73.23c2.34-.15,4-.46,4-1.21s-.91-1-4.23-1.51-13.2-1.51-18.41-2.64Z" transform="translate(-107.45 -231.19)"/><path class="cls-157" d="M366.78,337.87c-.23-1.29-.75-2.42-1.36-2.42s-1.13,1.44-1.36,2.49-.14,4.75-2.56,6.34-5.05,2.23-13.44,2.69-15.38.17-17.94.1l-.09-1a75.27,75.27,0,0,0,9.75.33,101.24,101.24,0,0,0,16.44-2.26,6.36,6.36,0,0,0,5.13-3.7c.91-1.43,2.11-5.73,2.34-6.41s.52-2.87,1.73-2.87,1.74,3.25,2.49,5.28Z" transform="translate(-107.45 -231.19)"/><path class="cls-158" d="M311.18,342.54a6.2,6.2,0,0,0,1.06.61c3.4,1.51,7.92,1.73,12.82,2.34a87,87,0,0,0,14.72.9l.05.74c-4.53.07-8.06,0-9.71-.06-2.57-.08-15.92-.45-20.14-1.89a6,6,0,0,1-1.13-.59Z" transform="translate(-107.45 -231.19)"/><path class="cls-159" d="M332.76,348.88c-2.49.08-16.37,1.28-20.07,1.51a6.08,6.08,0,0,0-5.5,3.62c-.54,1.06-2,8.38-2.19,9s-.38,1.81-.76,1.81v4.83c.83,0,1.81-4.08,1.81-4.08s2-8.67,3.55-10.25,1.73-2.19,8.45-3.25c5.2-.82,10.35-1.73,14.77-2.09Z" transform="translate(-107.45 -231.19)"/><path class="cls-160" d="M291.19,349.94s4.53.22,6.34,1.05,3.39,1.74,3.84,3.55,2,8.3,2.12,8.9.38,1.36.75,1.36.6-1.21.76-1.81l1.05,2.56s-1,4.08-1.81,4.08-1.81-3.85-1.81-3.85-2-6.94-2.86-9.28-2.27-2.94-4.38-3.7a29.09,29.09,0,0,0-4.12-.85Z" transform="translate(-107.45 -231.19)"/><path class="cls-161" d="M303.49,363.44c.15.6.38,1.36.75,1.36s.49-.68.63-1.27l.2,5.07c-.27.59-.55,1-.83,1s-.56-.42-.83-1Z" transform="translate(-107.45 -231.19)"/><path class="cls-162" d="M295.19,352.8c-2.11-.75-9.51-1.58-11.39-1.81s-13.2-1.36-13.28-2.86,13.73-2.57,13.73-2.57l.38,1.43c-2.26.31-4.15.23-4.15,1s1.43,1.28,4.22,1.43,6.49.53,6.49.53,4.53.22,6.34,1.05Z" transform="translate(-107.45 -231.19)"/><path class="cls-163" d="M270.52,348.13c-.07-1.51,13.73-2.57,13.73-2.57,7-.68,10.94-1.51,13.28-2.94s3.92-7.24,4.53-9.2,1.58-4.23,2.1-4.23,1.14,1.44,2,4.45l-.75,3.17c-.45-2.71-.68-3.39-1.36-3.39s-1.13,2-1.51,3.84-.94,6.82-4.52,7.92c-3.93,1.21-6.11,1.59-13.43,1.81-2.26.31-4.15.23-4.15,1Z" transform="translate(-107.45 -231.19)"/><path class="cls-164" d="M310,345.18c-2.42-1-3.7-3.09-4.53-8.37-.45-2.71-.68-3.39-1.36-3.39l.07-4.23c.54,0,1.14,1.44,2,4.45s2.64,8,6,9.51Z" transform="translate(-107.45 -231.19)"/><path class="cls-165" d="M303.7,333.66a.5.5,0,0,1,.39-.24.62.62,0,0,1,.5.21l.06-4.07c-.17-.25-.33-.37-.49-.37s-.32.18-.52.48Z" transform="translate(-107.45 -231.19)"/><path class="cls-166" d="M281.22,348.79c-.49-.22-.74-.5-.74-.81s.26-.45.72-.57l-8.61-.31c-1.26.31-2.09.65-2.07,1s.76.74,1.9,1.07Z" transform="translate(-107.45 -231.19)"/><path class="cls-167" d="M365.65,365c.91,0,1.28-2,1.28-2s2.42-7.69,3.77-8.9,2.35-2.34,9.06-3.17,10.71-1.66,13.05-1.81,4-.46,4-1.21l-11.25-.15c0,1-1.12,1.06-2.48,1.13s-7.47.61-11.39,1.36-4.76,8.07-4.91,8.75-.45,1.89-1.13,1.89Z" transform="translate(-107.45 -231.19)"/><path class="cls-168" d="M376.62,346.32a24.26,24.26,0,0,1-5.24-1.06c-2.86-1.13-3.92-3.09-4.6-7.39-.23-1.29-.75-2.42-1.36-2.42s-1.13,1.44-1.36,2.49l-.37-3.92c.23-.68.52-2.87,1.73-2.87s1.74,3.25,2.49,5.28,1.06,6.19,6.26,7.32c.95.21,2.05.41,3.24.61Z" transform="translate(-107.45 -231.19)"/><path class="cls-169" d="M364.41,331.89a1.2,1.2,0,0,1,1-.74c.34,0,.62.25.87.65l.2,4.94a.41.41,0,0,1,0-.08c-.27-.71-.63-1.21-1-1.21s-.78.66-1.05,1.41Z" transform="translate(-107.45 -231.19)"/><path class="cls-170" d="M395.1,348.86c1.06-.19,1.71-.49,1.71-1s-.4-.8-1.65-1.08l-10.61.07c.58.12,1,.37,1,.86a.84.84,0,0,1-.24.64Z" transform="translate(-107.45 -231.19)"/><path class="cls-171" d="M366.78,359c-.15.68-.45,1.89-1.13,1.89s-.91-.76-1.21-1.74l-.07,3.92s.38,1.86,1.28,1.89c1.13,0,1.7-3.32,1.7-3.32Z" transform="translate(-107.45 -231.19)"/><path class="cls-148" d="M378.66,321.81c-5.05,0-11.69,1.22-18.41,2.3s-6.93,1.69-8.44,3.3-3.55,10.46-3.55,10.46-1,4.15-1.81,4.15-1.81-3.92-1.81-3.92-2-7.07-2.86-9.46-2.27-3-4.38-3.76S327.89,323.27,326,323s-13.2-1.38-13.28-2.92,13.73-2.61,13.73-2.61c7-.69,10.94-1.54,13.28-3s3.92-7.38,4.52-9.38,1.59-4.3,2.12-4.3,1.13,1.45,2,4.53,2.64,8.15,6,9.68,7.93,1.77,12.82,2.39a63.41,63.41,0,0,0,12,1,71.32,71.32,0,0,0,12.45-1.58c2.41-.38,6.94-1.13,8.36-4.45s2.87-8.15,3.93-8.22,2.71,5.28,2.71,5.28,1.21,5.2,5.29,6.11,10.48,2.41,13.8,2.86,4.38.76,4.38,1.66-4.45,1.36-4.45,1.36-12,1.36-14.41,2.87-3.85,2.56-5.66,10.71c-.68,2.11-.83,3.09-1.51,3.09S402.39,334.7,401,330s-2.49-6-9.2-6.94A83.72,83.72,0,0,0,378.66,321.81Z" transform="translate(-107.45 -231.19)"/><path class="cls-172" d="M372.45,319.1c-2.58-.08-16-.46-20.24-1.91a6.12,6.12,0,0,1-1.13-.61l2.35-2.08a6.16,6.16,0,0,0,1.05.62c3.42,1.53,8,1.76,12.89,2.37" transform="translate(-107.45 -231.19)"/><path class="cls-173" d="M375.1,320.94c-2.51.08-16.45,1.31-20.16,1.53a6.13,6.13,0,0,0-5.53,3.68c-.54,1.07-2,8.51-2.2,9.12s-.38,1.84-.76,1.84V342c.84,0,1.82-4.13,1.82-4.13s2-8.82,3.56-10.43,1.74-2.22,8.49-3.29c5.22-.83,10.4-1.75,14.83-2.13Z" transform="translate(-107.45 -231.19)"/><path class="cls-174" d="M333.34,322s4.55.22,6.36,1.07,3.42,1.76,3.87,3.6,2,8.43,2.12,9,.38,1.38.76,1.38.61-1.23.76-1.84l1.06,2.61s-1,4.13-1.82,4.13-1.82-3.91-1.82-3.91-2-7-2.87-9.42-2.28-3-4.4-3.75a27.09,27.09,0,0,0-4.14-.88Z" transform="translate(-107.45 -231.19)"/><path class="cls-175" d="M345.69,335.73c.15.61.38,1.38.76,1.38s.49-.69.63-1.29l.2,5.15c-.27.6-.55,1-.83,1s-.56-.42-.83-1Z" transform="translate(-107.45 -231.19)"/><path class="cls-176" d="M337.36,324.93c-2.12-.77-9.55-1.61-11.44-1.84s-13.26-1.38-13.34-2.91,13.79-2.61,13.79-2.61l.38,1.45c-2.28.31-4.17.24-4.17,1s1.44,1.3,4.25,1.46,6.51.54,6.51.54,4.55.22,6.36,1.07Z" transform="translate(-107.45 -231.19)"/><path class="cls-177" d="M312.58,320.18c-.08-1.54,13.79-2.61,13.79-2.61,7.05-.69,11-1.53,13.33-3s3.95-7.35,4.56-9.35,1.58-4.29,2.12-4.29,1.14,1.46,2,4.53l-.76,3.21c-.45-2.75-.68-3.45-1.36-3.45s-1.14,2.08-1.51,3.91-1,6.92-4.55,8.05c-3.94,1.22-6.14,1.61-13.49,1.83-2.28.31-4.17.24-4.17,1Z" transform="translate(-107.45 -231.19)"/><path class="cls-178" d="M352.21,317.19c-2.42-1-3.71-3.14-4.55-8.51-.45-2.75-.68-3.45-1.36-3.45l.08-4.29c.53,0,1.14,1.46,2,4.53s2.65,8.12,6.06,9.65Z" transform="translate(-107.45 -231.19)"/><path class="cls-150" d="M375.1,320.94c-2.51.06-16.45,1.31-20.16,1.53a6.13,6.13,0,0,0-5.53,3.68c-.54,1.07-2,8.51-2.2,9.12s-.38,1.84-.76,1.84-.61-.77-.76-1.38-1.66-7.2-2.12-9-2-2.76-3.87-3.6-6.36-1.07-6.36-1.07-3.71-.39-6.51-.54-4.25-.69-4.25-1.46,1.89-.69,4.17-1c7.35-.22,9.55-.61,13.49-1.83,3.6-1.13,4.16-6.21,4.55-8.05s.83-3.91,1.51-3.91.91.7,1.36,3.45c.84,5.37,2.13,7.51,4.55,8.51,4.25,1.45,17.66,1.83,20.24,1.91,0,0,8,.13,12.13-.09s11.48-1,13.13-1.36,4-1.28,4.46-4,1.12-5.81,2-5.81,1.28,2.34,1.43,2.94c0,0,.63,5.22,3.59,6.29a39.16,39.16,0,0,0,9.32,1.54c1.84.12,3.44.48,3.44,1.31s-2.37,1.36-3.38,1.36-6.23.18-8.07,1-3.45,1.43-4.16,5-1.07,4.75-1.07,4.75-.11,1.48-1.06,1.48-1.2-1.9-1.2-1.9-1.12-5.58-1.89-6.83-1.66-3-9-3.26S381.58,320.78,375.1,320.94Z" transform="translate(-107.45 -231.19)"/><path class="cls-179" d="M406.3,327.28c.71-3.56,2.32-4.16,4.16-5s7.06-1,8.07-1,3.38-.53,3.38-1.36l8.32.14c0,.91-4.45,1.36-4.45,1.36s-12,1.36-14.41,2.87c-1.81,1.13-3.07,2-4.35,5.81Z" transform="translate(-107.45 -231.19)"/><path class="cls-180" d="M409.15,317.07a39.16,39.16,0,0,0,9.32,1.54c1.84.12,3.44.48,3.44,1.31s-2.37,1.36-3.38,1.36l7.25.14s4.45-.45,4.45-1.36-1.06-1.2-4.38-1.66-9.73-2-13.8-2.86Z" transform="translate(-107.45 -231.19)"/><path class="cls-181" d="M412.65,318a22.65,22.65,0,0,1-3.5-.88c-3-1.07-3.59-6.29-3.59-6.29-.15-.6-.61-2.94-1.43-2.94s-1.51,3.1-2,5.81l-2.05-1.28c1.44-3.32,2.87-8.15,3.93-8.22s2.71,5.28,2.71,5.28,1.21,5.2,5.29,6.11l2.19.49Z" transform="translate(-107.45 -231.19)"/><path class="cls-182" d="M404.05,304.15c-1.06.07-2.49,4.9-3.93,8.22s-5.95,4.07-8.36,4.45a71.32,71.32,0,0,1-12.45,1.58,63.41,63.41,0,0,1-12-1l-.86,1.44c2.79.14,5.11.21,6,.23,0,0,8,.13,12.13-.09s11.48-1,13.13-1.36,4-1.28,4.46-4,1.12-5.81,2-5.81Z" transform="translate(-107.45 -231.19)"/><path class="cls-183" d="M403.44,308.55c.21-.44.44-.71.69-.71s.52.27.71.65v-3.67c-.27-.43-.55-.69-.79-.67s-.49.27-.77.7Z" transform="translate(-107.45 -231.19)"/><path class="cls-184" d="M407.54,328.71a39,39,0,0,0-1.83,6.29c-.68,2.11-.83,3.09-1.51,3.09-.37,0-.86-1-1.45-2.61l.22-3.87s.24,1.9,1.2,1.9,1.06-1.48,1.06-1.48.36-1.19,1.07-4.75a9.52,9.52,0,0,1,.57-1.91Z" transform="translate(-107.45 -231.19)"/><path class="cls-185" d="M402.21,328.21a16.52,16.52,0,0,0-1.13-3.43c-.77-1.24-1.66-3-9-3.26s-10.54-.74-17-.58c-.87,0-3.11.19-5.82.4l.14,1.31a64.28,64.28,0,0,1,9.24-.84,83.72,83.72,0,0,1,13.17,1.27c6.71,1,7.85,2.27,9.2,6.94Z" transform="translate(-107.45 -231.19)"/><path class="cls-186" d="M401.44,325.59a56.71,56.71,0,0,1,1.53,6s.24,1.9,1.2,1.9l0,4.58c-.68,0-1.81-3.39-3.17-8.07a17.31,17.31,0,0,0-.91-2.58Z" transform="translate(-107.45 -231.19)"/><path class="cls-187" d="M314.7,321.32c-1.26-.35-2.1-.73-2.12-1.14s.9-.77,2.27-1.09l9,.25c-.79.12-1.3.29-1.3.68a.84.84,0,0,0,.53.71Z" transform="translate(-107.45 -231.19)"/><path class="cls-188" d="M345.91,305.48a.51.51,0,0,1,.39-.25.67.67,0,0,1,.51.22l.05-4.14c-.17-.24-.33-.37-.48-.37s-.34.18-.54.49Z" transform="translate(-107.45 -231.19)"/><path class="cls-148" d="M207.49,288.87,191,291.13s-2.95.11-2.95,1.25,2.5,1.13,3.4,1.24S210,296.11,210,296.11s28.18,3.85,30.89,4.3,10.3,1.47,13.58,4.42,6.11,9.27,8.15,18.67,4.18,17.42,4.18,17.42.34,2.83,1.47,2.83,1.48-2.94,1.48-2.94,5.54-22.07,6.9-25.91,3.28-12,15.62-13.92,35.3-4.53,35.3-4.53,22.41-2.72,30.11-2.26,16.29,1.58,18.44,1.92,5.62.72,7.13,4.49a100.81,100.81,0,0,1,3.17,10.86s.53,2.19,1.35,2.19,1.36-2,1.36-2,2.49-8.6,3.4-10.78,2.72-4.08,9.43-4.91,13.81-2.34,13.81-2.34,3.39-.07,3.39-1.36-3.62-1.35-3.62-1.35l-15.4-2.49s-6.18-.45-7.76-4.53-3.25-8.52-3.25-8.52-.3-1.81-1.2-1.81-1.36,2.18-1.36,2.18-1.81,6.27-3.25,8.3-3.16,4.08-10.78,4.83-11.62,1.58-14.64,1.66a109,109,0,0,1-14.26-.53l-37.19-4.52s-12.9-1.44-17-2.79-10-1.59-14.64-16-4.9-15.46-4.9-15.46-.38-2.64-1.67-2.64-1.65,2.94-1.65,2.94-5.13,16.67-7.55,21.65-4.15,9.66-24.29,11.92C216.88,287.4,207.49,288.87,207.49,288.87Z" transform="translate(-107.45 -231.19)"/><path class="cls-189" d="M257.26,300.9a17.4,17.4,0,0,0-7.11-2.64c-5.31-1-25.57-3.05-25.57-3.05l-20-1.7s-3.85-.34-3.85-1.25,3.85-1,3.85-1L191,291.13s-2.95.11-2.95,1.25,2.5,1.13,3.4,1.24S210,296.11,210,296.11s28.18,3.85,30.89,4.3,10.3,1.47,13.58,4.42Z" transform="translate(-107.45 -231.19)"/><path class="cls-190" d="M269.92,251.19s-.38-2.64-1.67-2.64-1.65,2.94-1.65,2.94-5.13,16.67-7.55,21.65-4.15,9.66-24.29,11.92c-17.88,2.34-27.27,3.81-27.27,3.81L191,291.13s-2.95.11-2.95,1.25l12.68-.12c0-.9,3.85-1,3.85-1l15.16-1.35s17.2-1.42,25.46-2.27,14.37-5.48,16.63-10.18,4.82-19.07,4.82-19.07.45-4.64,1.63-4.64,1.53,4.53,1.53,4.53Z" transform="translate(-107.45 -231.19)"/><path class="cls-191" d="M303.09,285c-4.11-.52-10.88-1.47-13.63-2.38-4.08-1.36-10-1.59-14.64-16s-4.9-15.46-4.9-15.46-.38-2.64-1.67-2.64-1.65,2.94-1.65,2.94l0,6.88s.45-4.64,1.63-4.64c.79,0,1.21,2,1.4,3.32.1.69.14,1.13.14,1.13s.06.36.17.85c.61,2.71,2.72,11.9,3.68,15.64a16.25,16.25,0,0,0,9.27,11c5,2.09,17.09,2.83,19.24,2.89Z" transform="translate(-107.45 -231.19)"/><path class="cls-192" d="M267.25,255.11c.25-.77.58-1.38,1-1.38s.77.62,1,1.41l.1-5.76a1.34,1.34,0,0,0-1.1-.83c-.44,0-.78.36-1,.83Z" transform="translate(-107.45 -231.19)"/><path class="cls-193" d="M389.15,280.8c-.3-1.59-.49-3-1.24-3s-1.1,1.85-1.32,3-.94,6.14-2.91,7.46-5.73,2.3-10.18,2.53-13.85.6-16.37.6l.75-.94c3-.08,7-.9,14.64-1.66S381.87,286,383.3,284s3.25-8.3,3.25-8.3.45-2.18,1.36-2.18,1.2,1.81,1.2,1.81Z" transform="translate(-107.45 -231.19)"/><path class="cls-194" d="M395.55,289.88a33.22,33.22,0,0,0,4.57.57c2.34.19,7.21.72,7.21.72s2.72.23,2.72,1-2.6,1.09-2.6,1.09l8.3.3s3.39-.07,3.39-1.36-3.62-1.35-3.62-1.35l-15.4-2.49a12.37,12.37,0,0,1-1.65-.27Z" transform="translate(-107.45 -231.19)"/><path class="cls-195" d="M392,296.34c-1.69,1.47-2.25,6.18-2.41,7.09s-.82,3.92-.82,3.92-.27,1.47-.83,1.47l-.2,4.83c.83,0,1.36-2,1.36-2s2.49-8.6,3.4-10.78a5.81,5.81,0,0,1,1.32-2Z" transform="translate(-107.45 -231.19)"/><path class="cls-196" d="M268.25,337.41c1.37,0,1.48-3.05,1.48-3.05s2.95-18,3.39-20.14,1.92-9.39,5.09-12.11l3.43,3.66c-3.21,3.09-4.21,6.86-5,9.13-1.36,3.84-6.9,25.91-6.9,25.91s-.34,2.94-1.48,2.94Z" transform="translate(-107.45 -231.19)"/><path class="cls-197" d="M269.73,334.36s-.11,3.05-1.48,3.05-1.35-3.05-1.35-3.05-1.25-6.68-3.17-20-8.26-15.05-13.58-16.07l-.79,4a14.26,14.26,0,0,1,5.09,2.6c3.28,2.94,6.11,9.27,8.15,18.67s4.18,17.42,4.18,17.42.34,2.83,1.47,2.83,1.48-2.94,1.48-2.94Z" transform="translate(-107.45 -231.19)"/><path class="cls-198" d="M267.09,342.33c.23.71.6,1.42,1.16,1.42s.87-.61,1.1-1.28l0-6.23c-.22.63-.57,1.17-1.15,1.17s-.94-.62-1.13-1.3Z" transform="translate(-107.45 -231.19)"/><path class="cls-199" d="M204.55,293.51s-3.85-.34-3.85-1.25,3.85-1,3.85-1L191,291.13s-2.95.11-2.95,1.25,2.5,1.13,3.4,1.24Z" transform="translate(-107.45 -231.19)"/><path class="cls-200" d="M281.27,306.14c2.23-2.32,5.62-4.33,11-5.16,12.33-1.93,35.3-4.53,35.3-4.53s11.66-1.41,21.05-2l.12-1.36c-4.42,0-35.43,2.71-50.14,3.73s-17.19,2.6-20.37,5.32Z" transform="translate(-107.45 -231.19)"/><path class="cls-201" d="M382,298.63c-1.73-2-4.25-2.25-5.94-2.52-2.15-.34-10.75-1.47-18.44-1.92a97.72,97.72,0,0,0-11.47.4l-.15-1.42c1.22-.08,2.15-.11,2.68-.11,4.4,0,11,0,17.08.45s13.24.56,16.52,2a4.46,4.46,0,0,1,1.84,1.64Z" transform="translate(-107.45 -231.19)"/><path class="cls-202" d="M381.6,298.18a6.56,6.56,0,0,1,1.63,2.42,100.81,100.81,0,0,1,3.17,10.86s.53,2.19,1.35,2.19,1.36-2,1.36-2l-.33-4.26s-.27,1.47-.83,1.47-.68-.79-.91-1.47-.65-2.87-.87-3.88c-.19-.85-.61-4.82-2.51-6.93Z" transform="translate(-107.45 -231.19)"/><path class="cls-203" d="M386.4,311.46s.53,2.19,1.35,2.19,1.36-2,1.36-2l-.33-4.26s-.27,1.47-.83,1.47-.68-.79-.91-1.47Z" transform="translate(-107.45 -231.19)"/><path class="cls-204" d="M393.46,299.2a4.6,4.6,0,0,1,.43-.46c1.3-1.25,3.59-2.27,8.05-2.82,6.71-.83,13.81-2.34,13.81-2.34s3.39-.07,3.39-1.36l-9.09,0c0,.79-2.6,1.09-2.6,1.09a41.8,41.8,0,0,1-6.83.91c-4.45.3-6.91.68-8.61,2.15a2.42,2.42,0,0,0-.27.28Z" transform="translate(-107.45 -231.19)"/><path class="cls-205" d="M408.83,291.41c.62.16,1.22.41,1.22.78s-.27.46-.64.62l9.13.21a1,1,0,0,0,.6-.8c0-.74-1.24-1.08-2.26-1.23Z" transform="translate(-107.45 -231.19)"/><path class="cls-206" d="M387.91,277.81c.75,0,.94,1.4,1.24,3s.76,5.62,2.75,7.43a8.86,8.86,0,0,0,4.27,1.77l3-1.76c-1.82-.31-5.6-1.33-6.78-4.39-1.59-4.07-3.25-8.52-3.25-8.52s-.3-1.81-1.2-1.81Z" transform="translate(-107.45 -231.19)"/><path class="cls-207" d="M387.26,273.93a.83.83,0,0,1,.65-.41.88.88,0,0,1,.7.45l0,4.45c-.16-.38-.37-.61-.67-.61s-.51.27-.7.65Z" transform="translate(-107.45 -231.19)"/><path class="cls-208" d="M364.11,289.83c-2.65.35-4.59.62-6.23.66a109,109,0,0,1-14.26-.53l-37.19-4.52s-1.95-.22-4.58-.57l-.1,3.77c2.15.06,32.29,2.19,37.08,2.42s15.77.37,18.3.37c1.23,0,4.08-.09,7.2-.2Z" transform="translate(-107.45 -231.19)"/><path class="cls-209" d="M403,331.61s.24,1.9,1.2,1.9,1.06-1.48,1.06-1.48l.48,3c-.68,2.11-.83,3.09-1.51,3.09-.37,0-.86-1-1.45-2.61Z" transform="translate(-107.45 -231.19)"/><path class="cls-210" d="M219.71,289.89l-15.16,1.35s-3.85.12-3.85,1,3.85,1.25,3.85,1.25l20,1.7s20.26,2,25.57,3.05,11.65,2.72,13.58,16.07,3.17,20,3.17,20,0,3.05,1.35,3.05,1.48-3.05,1.48-3.05,2.95-18,3.39-20.14,1.92-9.39,5.09-12.11,5.66-4.3,20.37-5.32,45.72-3.73,50.14-3.73,11,0,17.08.45,13.24.56,16.52,2c3.06,1.39,3.62,6.9,3.85,7.92s.64,3.2.87,3.88.34,1.47.91,1.47.83-1.47.83-1.47.67-3,.82-3.92.72-5.62,2.41-7.09,4.16-1.85,8.61-2.15a41.8,41.8,0,0,0,6.83-.91s2.6-.3,2.6-1.09-2.72-1-2.72-1-4.87-.53-7.21-.72-6.21-.41-8.22-2.22-2.45-5.85-2.75-7.43-.49-3-1.24-3-1.1,1.85-1.32,3-.94,6.14-2.91,7.46-5.73,2.3-10.18,2.53-13.85.6-16.37.6-13.51-.15-18.3-.37-34.53-2.42-36.68-2.47-14.2-.8-19.24-2.89a16.25,16.25,0,0,1-9.27-11c-1.14-4.42-3.77-16.48-3.77-16.48s-.59-4.5-1.62-4.46c-1.18.05-1.63,4.64-1.63,4.64s-2.55,14.37-4.82,19.07-8.37,9.33-16.63,10.18S219.71,289.89,219.71,289.89Z" transform="translate(-107.45 -231.19)"/><path class="cls-211" d="M375.1,320.94c-2.51.06-16.45,1.31-20.16,1.53a6.13,6.13,0,0,0-5.53,3.68c-.54,1.07-2,8.51-2.2,9.12s-.38,1.84-.76,1.84-.61-.77-.76-1.38-1.66-7.2-2.12-9-2-2.76-3.87-3.6-6.36-1.07-6.36-1.07-3.71-.39-6.51-.54-4.25-.69-4.25-1.46,1.89-.69,4.17-1c7.35-.22,9.55-.61,13.49-1.83,3.6-1.13,4.16-6.21,4.55-8.05s.83-3.91,1.51-3.91.91.7,1.36,3.45c.84,5.37,2.13,7.51,4.55,8.51,4.25,1.45,17.66,1.83,20.24,1.91,0,0,8,.13,12.13-.09s11.48-1,13.13-1.36,4-1.28,4.46-4,1.12-5.81,2-5.81,1.28,2.34,1.43,2.94c0,0,.63,5.22,3.59,6.29a39.16,39.16,0,0,0,9.32,1.54c1.84.12,3.44.48,3.44,1.31s-2.37,1.36-3.38,1.36-6.23.18-8.07,1-3.45,1.43-4.16,5-1.07,4.75-1.07,4.75-.11,1.48-1.06,1.48-1.2-1.9-1.2-1.9-1.12-5.58-1.89-6.83-1.66-3-9-3.26S381.58,320.78,375.1,320.94Z" transform="translate(-107.45 -231.19)"/><path class="cls-212" d="M291.19,349.94s4.53.22,6.34,1.05,3.39,1.74,3.84,3.55,2,8.3,2.12,8.9.38,1.36.75,1.36.6-1.21.76-1.81,1.65-7.92,2.19-9a6.08,6.08,0,0,1,5.5-3.62c3.7-.23,17.58-1.43,20.07-1.51s17,.38,20.45.68,8.37.6,9.5,3.32a39.84,39.84,0,0,1,1.73,6.26c.3,1,.53,1.74,1.21,1.74s1-1.21,1.13-1.89,1-8,4.91-8.75,10-1.28,11.39-1.36,2.48-.15,2.48-1.13-1.73-1-2.86-1-8.45-.38-11.32-1.51-3.92-3.09-4.6-7.39c-.23-1.29-.75-2.42-1.36-2.42s-1.13,1.44-1.36,2.49-.14,4.75-2.56,6.34-5,2.11-13.35,2.57-15.47.29-18,.22-15.92-.45-20.14-1.89c-2.42-1-3.7-3.09-4.53-8.37-.45-2.71-.68-3.39-1.36-3.39s-1.13,2-1.51,3.84-.94,6.82-4.52,7.92c-3.93,1.21-6.11,1.59-13.43,1.81-2.26.31-4.15.23-4.15,1s1.43,1.28,4.22,1.43S291.19,349.94,291.19,349.94Z" transform="translate(-107.45 -231.19)"/><path class="cls-213" d="M421.56,319.32a.73.73,0,0,1,.35.6c0,.35-.43.65-1,.88l6.89.32c1.17-.23,2.42-.58,2.42-1.06,0-.65-.56-1-2.12-1.3Z" transform="translate(-107.45 -231.19)"/></svg>