<svg xmlns="http://www.w3.org/2000/svg" xmlns:xlink="http://www.w3.org/1999/xlink" viewBox="0 0 130.53 127.55"><defs><style>.cls-1{isolation:isolate;}.cls-2{fill:#bdbdb7;}.cls-10,.cls-12,.cls-14,.cls-15,.cls-16,.cls-17,.cls-18,.cls-19,.cls-2,.cls-20,.cls-21,.cls-22,.cls-23,.cls-24,.cls-25,.cls-3,.cls-4,.cls-5,.cls-6,.cls-7{fill-rule:evenodd;}.cls-3{fill:url(#radial-gradient);}.cls-4{fill:url(#GradientFill_2);}.cls-5{fill:url(#radial-gradient-2);}.cls-6{fill:url(#radial-gradient-3);}.cls-10,.cls-11,.cls-12,.cls-13,.cls-14,.cls-7,.cls-8,.cls-9{mix-blend-mode:multiply;}.cls-10,.cls-11,.cls-12,.cls-13,.cls-7,.cls-8,.cls-9{opacity:0.67;}.cls-7{fill:url(#linear-gradient);}.cls-8{fill:url(#linear-gradient-2);}.cls-9{fill:url(#linear-gradient-3);}.cls-10{fill:url(#linear-gradient-4);}.cls-11{fill:url(#linear-gradient-5);}.cls-12{fill:url(#linear-gradient-6);}.cls-13{fill:url(#linear-gradient-7);}.cls-14{opacity:0.86;fill:url(#linear-gradient-8);}.cls-15{fill:#231f20;}.cls-16{fill:url(#radial-gradient-4);}.cls-17{fill:url(#linear-gradient-9);}.cls-18{fill:url(#radial-gradient-5);}.cls-19,.cls-20,.cls-21,.cls-22{fill:none;stroke-linecap:round;}.cls-19{stroke:#a8a89d;stroke-width:0.34px;}.cls-20{stroke:#c3c3ba;stroke-width:0.24px;}.cls-21{stroke:#e1e0d9;stroke-width:0.13px;}.cls-22{stroke:#fff;stroke-width:0.03px;}.cls-23{fill:url(#linear-gradient-10);}.cls-24{fill:url(#linear-gradient-11);}.cls-25{fill:#fff;}.cls-26{fill:#363639;}.cls-27{fill:url(#linear-gradient-12);}</style><radialGradient id="radial-gradient" cx="259.66" cy="387.05" r="132.31" gradientUnits="userSpaceOnUse"><stop offset="0" stop-color="#fff"/><stop offset="0.01" stop-color="#fefefe"/><stop offset="0.06" stop-color="#f9f9f7"/><stop offset="0.22" stop-color="#f8f8f5"/><stop offset="0.37" stop-color="#b9b9b6"/><stop offset="0.5" stop-color="#888886"/><stop offset="0.59" stop-color="#6a6a68"/><stop offset="0.65" stop-color="#5f5f5d"/><stop offset="0.73" stop-color="#565553"/><stop offset="0.87" stop-color="#3c3a37"/><stop offset="1" stop-color="#221e1a"/></radialGradient><linearGradient id="GradientFill_2" x1="279.95" y1="391.13" x2="327.39" y2="407.46" gradientUnits="userSpaceOnUse"><stop offset="0" stop-color="#dddcd4"/><stop offset="1" stop-color="#fff"/></linearGradient><radialGradient id="radial-gradient-2" cx="342.6" cy="440.37" r="145.21" gradientUnits="userSpaceOnUse"><stop offset="0" stop-color="#bdbdb8"/><stop offset="1" stop-color="#818179"/></radialGradient><radialGradient id="radial-gradient-3" cx="327.79" cy="422.6" r="101.97" gradientUnits="userSpaceOnUse"><stop offset="0" stop-color="#fff"/><stop offset="0.16" stop-color="#f2f3f3"/><stop offset="0.3" stop-color="#e4e5e6"/><stop offset="0.3" stop-color="#e2e3e4"/><stop offset="0.37" stop-color="#bdbebd"/><stop offset="0.44" stop-color="#9fa09f"/><stop offset="0.51" stop-color="#8a8b89"/><stop offset="0.58" stop-color="#7d7e7b"/><stop offset="0.64" stop-color="#797a77"/><stop offset="0.74" stop-color="#585753"/><stop offset="0.85" stop-color="#3a3834"/><stop offset="0.94" stop-color="#282521"/><stop offset="1" stop-color="#221e1a"/></radialGradient><linearGradient id="linear-gradient" x1="247.31" y1="415.19" x2="247.31" y2="414.83" gradientUnits="userSpaceOnUse"><stop offset="0" stop-color="#fff"/><stop offset="0.16" stop-color="#f9f9f6"/><stop offset="0.17" stop-color="#f8f8f5"/><stop offset="0.43" stop-color="#b2b3ad"/><stop offset="0.5" stop-color="#92938d"/><stop offset="0.61" stop-color="#6c6c66"/><stop offset="0.71" stop-color="#4e4d48"/><stop offset="0.81" stop-color="#393832"/><stop offset="0.91" stop-color="#2c2a25"/><stop offset="1" stop-color="#282621"/></linearGradient><linearGradient id="linear-gradient-2" x1="16.57" y1="78.06" x2="16.57" y2="77.91" xlink:href="#linear-gradient"/><linearGradient id="linear-gradient-3" x1="16.57" y1="78.37" x2="16.57" y2="78.22" xlink:href="#linear-gradient"/><linearGradient id="linear-gradient-4" x1="250.31" y1="415.19" x2="250.31" y2="414.83" xlink:href="#linear-gradient"/><linearGradient id="linear-gradient-5" x1="18.12" y1="78.65" x2="18.12" y2="78.42" xlink:href="#linear-gradient"/><linearGradient id="linear-gradient-6" x1="256.07" y1="420.81" x2="256.07" y2="416.25" xlink:href="#linear-gradient"/><linearGradient id="linear-gradient-7" x1="18.12" y1="78.2" x2="18.12" y2="78" xlink:href="#linear-gradient"/><linearGradient id="linear-gradient-8" x1="111.72" y1="420.81" x2="111.72" y2="416.25" gradientTransform="matrix(-1, 0, 0, 1, 465.58, 0)" xlink:href="#linear-gradient"/><radialGradient id="radial-gradient-4" cx="245.59" cy="387.05" r="82.32" gradientUnits="userSpaceOnUse"><stop offset="0" stop-color="#0072bc"/><stop offset="0.03" stop-color="#006fb7"/><stop offset="0.14" stop-color="#06a"/><stop offset="0.24" stop-color="#0063a5"/><stop offset="0.48" stop-color="#005894"/><stop offset="0.84" stop-color="#004274"/><stop offset="0.96" stop-color="#004073"/><stop offset="1" stop-color="#003b70"/></radialGradient><linearGradient id="linear-gradient-9" x1="126.3" y1="33.84" x2="94.22" y2="1.76" gradientUnits="userSpaceOnUse"><stop offset="0.01" stop-color="#222003"/><stop offset="0.65" stop-color="#43423f"/><stop offset="0.65" stop-color="#474643"/><stop offset="0.66" stop-color="#54534f"/><stop offset="0.66" stop-color="#686764"/><stop offset="0.67" stop-color="#858480"/><stop offset="0.67" stop-color="#aaaaa5"/><stop offset="0.68" stop-color="#d7d7d2"/><stop offset="0.68" stop-color="#fbfbf5"/><stop offset="0.68" stop-color="#f8f8f2"/><stop offset="0.68" stop-color="#f0f0ea"/><stop offset="0.69" stop-color="#e1e1db"/><stop offset="0.69" stop-color="#ccccc6"/><stop offset="0.69" stop-color="#b1b2ab"/><stop offset="0.69" stop-color="#90918a"/><stop offset="0.69" stop-color="#6d6e67"/><stop offset="0.71" stop-color="#5a5a55"/><stop offset="0.73" stop-color="#464442"/><stop offset="0.76" stop-color="#363332"/><stop offset="0.8" stop-color="#2b2828"/><stop offset="0.85" stop-color="#252122"/><stop offset="1" stop-color="#231f20"/></linearGradient><radialGradient id="radial-gradient-5" cx="363.34" cy="339.66" r="34.4" gradientUnits="userSpaceOnUse"><stop offset="0" stop-color="#565651"/><stop offset="1" stop-color="#51514c"/></radialGradient><linearGradient id="linear-gradient-10" x1="338.65" y1="336.09" x2="368.72" y2="336.09" gradientUnits="userSpaceOnUse"><stop offset="0" stop-color="#5c5d60"/><stop offset="0.09" stop-color="#505051"/><stop offset="0.26" stop-color="#3e3e3c"/><stop offset="0.45" stop-color="#32302d"/><stop offset="0.67" stop-color="#2a2824"/><stop offset="1" stop-color="#282621"/></linearGradient><linearGradient id="linear-gradient-11" x1="368.4" y1="366.06" x2="368.4" y2="335.77" gradientUnits="userSpaceOnUse"><stop offset="0" stop-color="#5c5d60"/><stop offset="0.11" stop-color="#545456"/><stop offset="0.46" stop-color="#3c3b39"/><stop offset="0.77" stop-color="#2d2c27"/><stop offset="1" stop-color="#282621"/></linearGradient><linearGradient id="linear-gradient-12" x1="257.12" y1="373.36" x2="276.38" y2="399.4" gradientUnits="userSpaceOnUse"><stop offset="0" stop-color="#fff"/><stop offset="0.11" stop-color="#d8eaf5"/><stop offset="0.34" stop-color="#8cc0e1"/><stop offset="0.54" stop-color="#509ed1"/><stop offset="0.71" stop-color="#2586c6"/><stop offset="0.85" stop-color="#0a77bf"/><stop offset="0.93" stop-color="#0072bc"/><stop offset="0.93" stop-color="#0272bc"/><stop offset="0.95" stop-color="#247bc1"/><stop offset="0.97" stop-color="#3c82c4"/><stop offset="0.99" stop-color="#4b86c6"/><stop offset="1" stop-color="#5087c7"/></linearGradient></defs><g class="cls-1"><g id="Layer_1" data-name="Layer 1"><path class="cls-2" d="M305,358.17h0a41.5,41.5,0,0,1,41.38,41.59h0A40.6,40.6,0,0,1,334.17,429,41.1,41.1,0,0,1,305,441.13h0A42,42,0,0,1,275.52,429a41.46,41.46,0,0,1-12.16-29.22h0A41.5,41.5,0,0,1,305,358.17Zm0,.64h0A41.14,41.14,0,0,0,264,399.76h0A41.14,41.14,0,0,0,305,440.49h0a40.78,40.78,0,0,0,40.74-40.73h0A40.78,40.78,0,0,0,305,358.81Z" transform="translate(-239.68 -335.77)"/><path class="cls-3" d="M305,336.2a63.71,63.71,0,0,1,38.6,13l7-7L363,354.54l-7,7.25a63.43,63.43,0,1,1-51-25.59Zm0,14.93a48.42,48.42,0,1,0,48.42,48.41A48.52,48.52,0,0,0,305,351.13Z" transform="translate(-239.68 -335.77)"/><path class="cls-4" d="M305,350.91h0a48.79,48.79,0,0,1,48.84,48.85h0A48.79,48.79,0,0,1,305,448.6h0a48.79,48.79,0,0,1-48.84-48.84h0A48.66,48.66,0,0,1,270.4,365.2h0A48.16,48.16,0,0,1,305,350.91Zm0,.64h0a48.26,48.26,0,0,0-34.13,14.08h0a47.85,47.85,0,0,0-14.07,34.13h0a48.21,48.21,0,0,0,14.07,34.12A49.16,49.16,0,0,0,305,448h0a49.16,49.16,0,0,0,34.13-14.08,48.21,48.21,0,0,0,14.07-34.12h0A48.06,48.06,0,0,0,305,351.55Z" transform="translate(-239.68 -335.77)"/><path class="cls-5" d="M305,335.77h0A63.28,63.28,0,0,1,343.77,349l-.22.22a63.56,63.56,0,1,0,24.75,50.33,63.07,63.07,0,0,0-12.37-37.75l.21-.21a63.36,63.36,0,0,1,12.58,38h0A63.82,63.82,0,0,1,350,444.76a63.13,63.13,0,0,1-45,18.56h0a63.49,63.49,0,0,1-45-18.56,64.2,64.2,0,0,1-18.77-45.22h0A64.09,64.09,0,0,1,305,335.77Z" transform="translate(-239.68 -335.77)"/><path class="cls-6" d="M305,351.34a48.42,48.42,0,1,1-48.42,48.42A48.38,48.38,0,0,1,305,351.34Zm0,6.83a41.48,41.48,0,1,0,41.38,41.59A41.46,41.46,0,0,0,305,358.17Z" transform="translate(-239.68 -335.77)"/><path class="cls-7" d="M247.07,414.92a.3.3,0,0,0,.05.16.13.13,0,0,0,.13.08.37.37,0,0,0,.14,0,.65.65,0,0,0,.15-.1v-.47a.68.68,0,0,0-.37.13A.33.33,0,0,0,247.07,414.92Z" transform="translate(-239.68 -335.77)"/><rect class="cls-8" x="16.42" y="77.8" width="0.3" height="0.25"/><rect class="cls-9" x="16.42" y="78.1" width="0.3" height="0.26"/><path class="cls-10" d="M250.07,414.92a.3.3,0,0,0,.05.16.13.13,0,0,0,.13.08.37.37,0,0,0,.14,0,.65.65,0,0,0,.15-.1v-.47a.68.68,0,0,0-.37.13A.33.33,0,0,0,250.07,414.92Z" transform="translate(-239.68 -335.77)"/><rect class="cls-11" x="17.71" y="78.24" width="0.82" height="0.39"/><path class="cls-12" d="M265.66,412.67H243a61.73,61.73,0,0,0,2.22,7.77h24A41.2,41.2,0,0,1,265.66,412.67Zm-9.67.49.17.11-.06.07v.18h.28l.07-.1.11.14-.06.07v.19h0l.09-.11.12.16h-.24a2.93,2.93,0,0,0,0,.34l-.11.07v-.1h-.3v.29h.23l.08-.12.11.17h-.42v.27h.37l.08-.14.14.19h-.59c0,.11,0,.23,0,.36l-.13.06c0-.16,0-.3,0-.42h-.31a.21.21,0,0,0-.12,0l-.07-.08h.5v-.27h-.23a.12.12,0,0,0-.09,0l-.06-.08H256v-.29h-.23a.12.12,0,0,0-.09,0l-.06-.08H256v-.26h-.34a.12.12,0,0,0-.09,0l-.06-.08H256v-.25h-.21a.12.12,0,0,0-.09,0l-.07-.08H256C256,413.38,256,413.26,256,413.16Zm-9.33,2.06h-.61v-.06h.18l.05,0a.14.14,0,0,0,0-.06v-1.43a.08.08,0,0,0,0-.06s0,0-.05,0h-.18v-.06h.09l.13,0a.34.34,0,0,0,.12-.06h0v1.65a.14.14,0,0,0,0,.06l0,0h.18Zm1.11-.06a.11.11,0,0,1-.1.06.09.09,0,0,1-.08,0,.15.15,0,0,1-.05-.09.65.65,0,0,1-.15.1.33.33,0,0,1-.15,0,.27.27,0,0,1-.22-.09.25.25,0,0,1-.08-.19.41.41,0,0,1,.12-.3.86.86,0,0,1,.48-.16v-.12a.29.29,0,0,0,0-.17s-.07-.06-.16-.06a.23.23,0,0,0-.18.05.12.12,0,0,0,0,.12.11.11,0,0,1,0,.08.07.07,0,0,1-.06,0,0,0,0,0,1-.05,0s0,0,0-.07a.21.21,0,0,1,.1-.17.34.34,0,0,1,.25-.08.32.32,0,0,1,.23.07.29.29,0,0,1,.08.22V415c0,.05,0,.08,0,.09l0,0a.06.06,0,0,0,.06-.05.41.41,0,0,0,0-.12h0A.32.32,0,0,1,247.77,415.16Zm1,.06h-.33v-.06h0a.06.06,0,0,0,.05,0,.14.14,0,0,0,0-.06v-.67a.34.34,0,0,0,0-.19.11.11,0,0,0-.11-.06.24.24,0,0,0-.15.06.48.48,0,0,0-.13.17v.69a.07.07,0,0,0,0,.06.06.06,0,0,0,.05,0h0v.06h-.32v-.06h0a.08.08,0,0,0,.06,0,.14.14,0,0,0,0-.06v-.86a.43.43,0,0,0,0-.05h-.1v-.06h.13l.07,0h0v.23a.41.41,0,0,1,.14-.15.19.19,0,0,1,.14-.05.23.23,0,0,1,.2.09.49.49,0,0,1,.06.27v.64a.14.14,0,0,0,0,.06l.05,0h0Zm.83-.08a.2.2,0,0,1-.17.09.2.2,0,0,1-.18-.09.53.53,0,0,1-.06-.28v-.7H249v-.06H249a.19.19,0,0,0,.15-.08.44.44,0,0,0,.08-.23v-.08h0v.39h.31v.06h-.31v.74a.41.41,0,0,0,0,.19.17.17,0,0,0,.12.05.15.15,0,0,0,.12-.07.38.38,0,0,0,.07-.18l0,0A.43.43,0,0,1,249.62,415.14Zm1.15,0a.11.11,0,0,1-.1.06.09.09,0,0,1-.08,0,.15.15,0,0,1-.05-.09.65.65,0,0,1-.15.1.33.33,0,0,1-.15,0,.27.27,0,0,1-.22-.09.25.25,0,0,1-.08-.19.41.41,0,0,1,.12-.3.86.86,0,0,1,.48-.16v-.12a.29.29,0,0,0,0-.17s-.07-.06-.16-.06a.23.23,0,0,0-.18.05.12.12,0,0,0,0,.12.11.11,0,0,1,0,.08.07.07,0,0,1-.06,0,0,0,0,0,1-.05,0s0,0,0-.07a.21.21,0,0,1,.1-.17.34.34,0,0,1,.25-.08.32.32,0,0,1,.23.07.29.29,0,0,1,.08.22V415c0,.05,0,.08,0,.09l0,0a.06.06,0,0,0,.06-.05.41.41,0,0,0,0-.12h0A.32.32,0,0,1,250.77,415.16Zm1-.85a.07.07,0,0,1-.06,0,.06.06,0,0,1-.06,0,.11.11,0,0,1,0-.08.07.07,0,0,0,0-.05s0,0-.05,0-.09,0-.15.1a.9.9,0,0,0-.16.28v.54a.14.14,0,0,0,0,.06l0,0h.17v.06h-.57v-.06h.15a.08.08,0,0,0,.06,0,.13.13,0,0,0,0-.06v-.83a.15.15,0,0,0,0-.07l-.06,0h-.15v-.06H251l.13,0,.12,0h0v.36a.84.84,0,0,1,.17-.25.29.29,0,0,1,.18-.08c.06,0,.1,0,.12,0a.16.16,0,0,1,.05.11A.19.19,0,0,1,251.75,414.31Zm2.2.53v.4a.27.27,0,0,1-.17.28c0-.1-.08-.17-.24-.22v0l.23,0s.07,0,.07-.12v-.33h-.64a.37.37,0,0,0-.15,0l-.07-.08h.86c0-.09,0-.19,0-.29l.1.06.21-.23h-.65l-.07,0-.06-.08h.77l.09-.1.14.2c-.07,0-.21.05-.41.21l.08.05-.08.06v.09h.53l.1-.14.16.19Zm.8-.6a.17.17,0,0,0-.17.12,1.22,1.22,0,0,1-.63-.76h0v.56l-.13,0c0-.15,0-.33,0-.55a1.76,1.76,0,0,1-.82.82v0a1.91,1.91,0,0,0,.72-.83h-.48a.41.41,0,0,0-.16,0l-.06-.08h.81c0-.06,0-.18,0-.36l.2.11-.07.07v.18h.57l.11-.14.14.19H254a1,1,0,0,0,.76.6Zm2,1.07c-.11.05-.16.09-.15.16h-.49a1.56,1.56,0,0,1-.47-.1,1.14,1.14,0,0,1-.32-.23,1.3,1.3,0,0,1-.37.38l0,0a1.54,1.54,0,0,0,.33-.45,2.82,2.82,0,0,1-.19-.51l0,0a2,2,0,0,0,.18.42,3.44,3.44,0,0,0,.11-.68h-.22l-.07.11-.11-.14.1-.05c.09-.19.18-.39.26-.59h-.25l-.09,0-.06-.08h.41l.07-.11.11.16-.09.05c-.08.18-.18.37-.28.57h.21l.07-.09.11.14-.07.07a3,3,0,0,1-.14.7.73.73,0,0,0,.28.19,1.65,1.65,0,0,0,.42.08,6,6,0,0,0,.69,0Zm1.92,0a.18.18,0,0,0-.16.16,2.36,2.36,0,0,1-.39-.2,1.45,1.45,0,0,1-.29-.31,1.34,1.34,0,0,1-.2-.5h-.25v.8l.42-.23v0a1.51,1.51,0,0,0-.48.42l-.09-.17a.34.34,0,0,0,0-.12v-1.44c0-.11,0-.2,0-.28l.11.1h.4a.78.78,0,0,0-.14-.35l0,0a.43.43,0,0,1,.22.2.18.18,0,0,1,0,.18h.35l.06-.1.13.14-.07.06v.57a2.54,2.54,0,0,0,0,.26l-.11.05v-.09h-.53a1.65,1.65,0,0,0,.22.44,1.9,1.9,0,0,0,.48-.4l.12.2h-.1l-.47.24a.81.81,0,0,0,.36.25,1.18,1.18,0,0,0,.39.08Z" transform="translate(-239.68 -335.77)"/><rect class="cls-13" x="17.71" y="77.84" width="0.82" height="0.35"/><path class="cls-14" d="M344.27,412.67H367a61.73,61.73,0,0,1-2.22,7.77h-24A41.2,41.2,0,0,0,344.27,412.67Z" transform="translate(-239.68 -335.77)"/><path class="cls-15" d="M368.08,383.55h0a56.53,56.53,0,0,1,2.14,16,71.08,71.08,0,0,1-2.14,16.64H242V416H367.87A61.54,61.54,0,0,0,370,399.33,62.65,62.65,0,0,0,368.08,383.55Z" transform="translate(-239.68 -335.77)"/><path class="cls-16" d="M241.82,383.33H368.08a65.71,65.71,0,0,1,1.92,16A61.54,61.54,0,0,1,367.87,416H242a61.65,61.65,0,0,1-2.35-16.64A65.76,65.76,0,0,1,241.82,383.33Z" transform="translate(-239.68 -335.77)"/><polygon class="cls-17" points="113.47 2.13 127.55 16.21 117.1 26.66 117.73 27.51 110.27 33.49 107.92 34.34 123.28 18.77 110.91 6.4 95.55 21.76 96.19 19.62 113.47 2.13"/><path class="cls-18" d="M339.08,336.41a73.54,73.54,0,0,1,29.22,29v-29Z" transform="translate(-239.68 -335.77)"/><path class="cls-19" d="M339.08,336.41a73.54,73.54,0,0,1,29.22,29" transform="translate(-239.68 -335.77)"/><path class="cls-20" d="M339.08,336.41a73,73,0,0,1,29,29" transform="translate(-239.68 -335.77)"/><path class="cls-21" d="M338.86,336.41a72.67,72.67,0,0,1,29.22,29.22" transform="translate(-239.68 -335.77)"/><path class="cls-22" d="M338.86,336.41a73.54,73.54,0,0,1,29,29.22" transform="translate(-239.68 -335.77)"/><path class="cls-23" d="M368.3,335.77c.21,0,.42.21.42.64H338.65c0-.43.21-.64.43-.64Z" transform="translate(-239.68 -335.77)"/><path class="cls-24" d="M368.72,365.42c0,.42-.21.64-.42.64l-.22-.43V335.77h.22c.21,0,.42.21.42.64Z" transform="translate(-239.68 -335.77)"/><path class="cls-25" d="M350.59,407.46c-5.66,0-10.26-3.45-10.26-7.7s4.6-7.71,10.26-7.71,10.49,3.46,10.49,7.71S356.37,407.46,350.59,407.46Zm0-13.22c-2.08,0-3.59,2.32-3.59,5.52,0,3,1.54,5.3,3.59,5.3s3.6-2.43,3.6-5.3C354.19,396.72,352.58,394.24,350.59,394.24Zm-64.84,13.22c-5.66,0-10.26-3.45-10.26-7.7,0-4.07,4.7-7.5,10.26-7.5,5.78,0,10.48,3.36,10.48,7.5S291.53,407.46,285.75,407.46Zm0-13c-2.05,0-3.59,2.28-3.59,5.31s1.54,5.3,3.59,5.3,3.6-2.43,3.6-5.3S287.7,394.45,285.75,394.45Zm38,12.59-6.64-12.39-3.38,0,0-1.95,14.53,0,0,1.95-3.66,0,5.15,8.7,4.42-8.75-2.53.05,0-1.95,10.05,0,0,1.95-3.45,0L331.63,407Zm-26.66,0,0-2.38,3.44,0,0-10-3.38,0,0-1.95,13.47,0,0,1.95-3.45,0,0,10,3.6,0a4.44,4.44,0,0,0,4.45-4.24l2.16,0,0,6.67Zm-38.18,0-6.64-12.39-3.38,0,0-1.95,14.53,0,0,1.95-3.66,0,5.15,8.7,4.64-8.75-2.75.05,0-1.95,10.06,0,0,1.95-3.45,0L266.79,407Z" transform="translate(-239.68 -335.77)"/><path class="cls-26" d="M350.59,392.08c5.76,0,10.45,3.41,10.45,7.68s-4.69,7.67-10.45,7.67c-5.54,0-10.23-3.41-10.23-7.67s4.69-7.68,10.23-7.68m0,13c1.92,0,3.63-2.35,3.63-5.33,0-3.2-1.71-5.55-3.63-5.55-2.13,0-3.62,2.35-3.62,5.55,0,3,1.49,5.33,3.62,5.33m-64.84-12.8c5.76,0,10.45,3.41,10.45,7.47,0,4.26-4.69,7.67-10.45,7.67-5.54,0-10.23-3.41-10.23-7.67,0-4.06,4.69-7.47,10.23-7.47m0,12.8c1.92,0,3.63-2.35,3.63-5.33s-1.71-5.34-3.63-5.34c-2.13,0-3.62,2.35-3.62,5.34s1.49,5.33,3.62,5.33m55.89-12.37v1.92h-3.42L331.61,407h-7.89l-6.61-12.37H313.7v-1.92h14.5v1.92h-3.63l5.12,8.74,4.48-8.74h-2.56v-1.92h10m-31.14,0v1.92h-3.42v10h3.63a4.47,4.47,0,0,0,4.48-4.26h2.13V407H297.06v-2.35h3.41v-10h-3.41v-1.92H310.5m-33.7,0v1.92h-3.42L266.77,407h-7.89l-6.61-12.37h-3.41v-1.92h14.5v1.92h-3.63l5.12,8.74,4.69-8.74h-2.77v-1.92h10m73.79-.7c-5.67,0-10.29,3.47-10.29,7.74s4.62,7.73,10.29,7.73,10.51-3.47,10.51-7.73S356.39,392,350.59,392Zm0,13c-2,0-3.56-2.27-3.56-5.27,0-3.18,1.5-5.49,3.56-5.49s3.57,2.46,3.57,5.49c0,2.85-1.63,5.27-3.57,5.27Zm-64.84-12.8c-5.58,0-10.29,3.45-10.29,7.53,0,4.26,4.62,7.73,10.29,7.73s10.51-3.47,10.51-7.73a6.6,6.6,0,0,0-3.09-5.3,12.72,12.72,0,0,0-7.42-2.23Zm0,12.8c-2,0-3.56-2.27-3.56-5.27s1.53-5.28,3.56-5.28,3.57,2.42,3.57,5.28-1.63,5.27-3.57,5.27Zm55.95-12.37H331.55v2h2.52l-4.38,8.56-5-8.56h3.58v-2H313.64v2h3.43l6.6,12.34v0h8v0l6.6-12.34h3.44v-2Zm-31.14,0H297v2h3.41v9.9H297v2.47h20.38v-6.73h-2.25v.05a4.41,4.41,0,0,1-4.42,4.21h-3.57v-9.9h3.42v-2Zm-33.7,0H266.71v2h2.73l-4.59,8.56-5-8.56h3.58v-2H248.8v2h3.43l6.6,12.34v0h8v0l6.6-12.34h3.44v-2Z" transform="translate(-239.68 -335.77)"/><path class="cls-27" d="M242.05,383.58a65.76,65.76,0,0,0-2.14,16c0,.45.16,3.17.17,3.63l.37,4.12c0-.33-.16-7.05-.16-7.38a64.24,64.24,0,0,1,2.2-15.81l44.68-.19,19.29-.37Z" transform="translate(-239.68 -335.77)"/></g></g></svg>